<svg width="292" height="297" viewBox="0 0 292 297" fill="none" xmlns="http://www.w3.org/2000/svg">
<path d="M281.421 66.3356C284.333 67.0833 287.19 67.8757 290.003 68.6904V89.4261C287.19 88.6114 284.333 87.819 281.421 87.0713V66.3356Z" fill="#00A4FF"/>
<path opacity="0.5" d="M261.522 67.1949C264.636 67.7976 267.716 68.4337 270.74 69.0922V84.5268C267.716 83.8572 264.636 83.2211 261.522 82.6296V67.1949Z" fill="#00A4FF"/>
<path d="M240.384 50.2983C243.68 50.7299 246.932 51.1986 250.138 51.7045V80.643C246.924 80.1296 243.677 79.6721 240.384 79.2368V50.2983Z" fill="#00A4FF"/>
<path opacity="0.5" d="M218.153 32.0626C221.59 32.3081 225.002 32.5983 228.387 32.9331V77.8754C225.009 77.5406 221.598 77.2504 218.153 77.0049V32.0626Z" fill="#00A4FF"/>
<path opacity="0.5" d="M194.973 41.7162C198.545 41.7162 202.105 41.8724 205.631 42.0064V76.3017C202.105 76.1567 198.545 76.0562 194.973 76.0004V41.7162Z" fill="#00A4FF"/>
<path d="M171.57 5.82487C175.063 5.67979 178.59 5.57936 182.128 5.52356V76.0339C178.59 76.0897 175.063 76.1901 171.57 76.3352V5.82487Z" fill="#00A4FF"/>
<path d="M148.937 20.3332C152.308 20.0133 155.704 19.7268 159.127 19.4739V76.9826C155.7 77.2281 152.308 77.5071 148.937 77.8419V20.3332Z" fill="#00A4FF"/>
<path d="M127.264 1.56165C130.463 1.06316 133.704 0.598155 136.985 0.166626V79.1922C133.704 79.6163 130.463 80.0776 127.264 80.5761V1.56165Z" fill="#00A4FF"/>
<g opacity="0.5">
<g opacity="0.11">
<path d="M178.322 216.876C176.651 215.911 174.755 215.403 172.826 215.403C170.896 215.403 169 215.911 167.329 216.876L101.83 254.598C101.596 254.734 101.402 254.93 101.267 255.165C101.132 255.4 101.062 255.666 101.062 255.937C101.062 256.208 101.132 256.474 101.267 256.709C101.402 256.944 101.596 257.139 101.83 257.276L167.843 295.411C169.317 296.261 170.99 296.708 172.692 296.708C174.394 296.708 176.066 296.261 177.541 295.411L243.732 257.321C243.966 257.184 244.16 256.988 244.295 256.753C244.43 256.518 244.501 256.252 244.501 255.981C244.501 255.711 244.43 255.444 244.295 255.209C244.16 254.974 243.966 254.779 243.732 254.642L178.322 216.876Z" fill="url(#paint0_linear_203_84)"/>
</g>
</g>
<g opacity="0.11">
<path d="M178.322 204.377C176.651 203.412 174.755 202.904 172.826 202.904C170.896 202.904 169 203.412 167.329 204.377L101.83 242.098C101.596 242.235 101.402 242.43 101.267 242.665C101.132 242.9 101.062 243.166 101.062 243.437C101.062 243.708 101.132 243.974 101.267 244.209C101.402 244.444 101.596 244.64 101.83 244.777L167.843 282.866C169.317 283.717 170.99 284.164 172.692 284.164C174.394 284.164 176.066 283.717 177.541 282.866L243.732 244.777C243.966 244.64 244.16 244.444 244.295 244.209C244.43 243.974 244.501 243.708 244.501 243.437C244.501 243.166 244.43 242.9 244.295 242.665C244.16 242.43 243.966 242.235 243.732 242.098L178.322 204.377Z" fill="url(#paint1_linear_203_84)"/>
</g>
<g opacity="0.11">
<path d="M178.322 193.306C176.65 192.343 174.755 191.836 172.826 191.836C170.897 191.836 169.001 192.343 167.329 193.306L101.83 231.038C101.596 231.175 101.402 231.371 101.267 231.606C101.132 231.841 101.062 232.107 101.062 232.378C101.062 232.648 101.132 232.915 101.267 233.15C101.402 233.385 101.596 233.58 101.83 233.717L167.843 271.829C169.316 272.685 170.988 273.135 172.692 273.135C174.395 273.135 176.068 272.685 177.541 271.829L243.732 233.739C243.966 233.602 244.16 233.407 244.295 233.172C244.43 232.937 244.501 232.671 244.501 232.4C244.501 232.129 244.43 231.863 244.295 231.628C244.16 231.393 243.966 231.197 243.732 231.061L178.322 193.306Z" fill="url(#paint2_linear_203_84)"/>
</g>
<g opacity="0.11">
<path d="M178.322 182.268C176.65 181.305 174.755 180.799 172.826 180.799C170.897 180.799 169.001 181.305 167.329 182.268L101.83 220.001C101.596 220.138 101.402 220.333 101.267 220.568C101.132 220.803 101.062 221.069 101.062 221.34C101.062 221.611 101.132 221.877 101.267 222.112C101.402 222.347 101.596 222.543 101.83 222.679L167.843 260.803C169.317 261.653 170.99 262.1 172.692 262.1C174.394 262.1 176.066 261.653 177.541 260.803L243.732 222.702C243.966 222.565 244.16 222.369 244.295 222.134C244.43 221.899 244.501 221.633 244.501 221.362C244.501 221.092 244.43 220.825 244.295 220.59C244.16 220.355 243.966 220.16 243.732 220.023L178.322 182.268Z" fill="url(#paint3_linear_203_84)"/>
</g>
<g opacity="0.11">
<path d="M178.322 171.231C176.651 170.266 174.755 169.758 172.826 169.758C170.896 169.758 169 170.266 167.329 171.231L101.83 208.952C101.596 209.089 101.402 209.285 101.267 209.519C101.132 209.754 101.062 210.021 101.062 210.291C101.062 210.562 101.132 210.829 101.267 211.063C101.402 211.298 101.596 211.494 101.83 211.631L167.843 249.765C169.317 250.615 170.99 251.063 172.692 251.063C174.394 251.063 176.066 250.615 177.541 249.765L243.732 211.675C243.966 211.539 244.16 211.343 244.295 211.108C244.43 210.873 244.501 210.607 244.501 210.336C244.501 210.065 244.43 209.799 244.295 209.564C244.16 209.329 243.966 209.134 243.732 208.997L178.322 171.231Z" fill="url(#paint4_linear_203_84)"/>
</g>
<path opacity="0.11" d="M243.732 208.997L178.333 171.231C176.662 170.266 174.767 169.758 172.837 169.758C170.907 169.758 169.012 170.266 167.341 171.231L101.841 208.952C101.607 209.089 101.413 209.284 101.278 209.519C101.143 209.754 101.071 210.02 101.071 210.292V243.437C101.068 243.709 101.138 243.977 101.273 244.212C101.409 244.448 101.605 244.643 101.841 244.777L167.843 282.867C169.318 283.717 170.99 284.164 172.692 284.164C174.394 284.164 176.066 283.717 177.541 282.867L243.732 244.777C243.967 244.64 244.161 244.445 244.296 244.21C244.431 243.975 244.502 243.708 244.502 243.437V210.336C244.506 210.064 244.436 209.797 244.301 209.561C244.165 209.326 243.969 209.131 243.732 208.997V208.997Z" fill="url(#paint5_linear_203_84)"/>
<g opacity="0.11">
<path d="M178.322 158.687C176.651 157.722 174.755 157.214 172.826 157.214C170.896 157.214 169 157.722 167.329 158.687L101.83 196.408C101.596 196.545 101.402 196.74 101.267 196.975C101.132 197.21 101.062 197.477 101.062 197.747C101.062 198.018 101.132 198.284 101.267 198.519C101.402 198.754 101.596 198.95 101.83 199.087L167.843 237.221C169.317 238.071 170.99 238.519 172.692 238.519C174.394 238.519 176.066 238.071 177.541 237.221L243.732 199.131C243.966 198.995 244.16 198.799 244.295 198.564C244.43 198.329 244.501 198.063 244.501 197.792C244.501 197.521 244.43 197.255 244.295 197.02C244.16 196.785 243.966 196.59 243.732 196.453L178.322 158.687Z" fill="url(#paint6_linear_203_84)"/>
</g>
<g opacity="0.11">
<path d="M178.322 147.66C176.651 146.695 174.755 146.188 172.826 146.188C170.896 146.188 169 146.695 167.329 147.66L101.83 185.404C101.596 185.541 101.402 185.736 101.267 185.971C101.132 186.206 101.062 186.473 101.062 186.743C101.062 187.014 101.132 187.28 101.267 187.515C101.402 187.75 101.596 187.946 101.83 188.083L167.843 226.184C169.316 227.039 170.988 227.49 172.692 227.49C174.395 227.49 176.068 227.039 177.541 226.184L243.732 188.094C243.966 187.957 244.16 187.761 244.295 187.527C244.43 187.292 244.501 187.025 244.501 186.755C244.501 186.484 244.43 186.217 244.295 185.983C244.16 185.748 243.966 185.552 243.732 185.415L178.322 147.66Z" fill="url(#paint7_linear_203_84)"/>
</g>
<g opacity="0.11">
<path d="M178.322 136.623C176.65 135.66 174.755 135.153 172.826 135.153C170.897 135.153 169.001 135.66 167.329 136.623L101.83 174.355C101.596 174.492 101.402 174.688 101.267 174.923C101.132 175.158 101.062 175.424 101.062 175.695C101.062 175.966 101.132 176.232 101.267 176.467C101.402 176.702 101.596 176.897 101.83 177.034L167.843 215.157C169.317 216.007 170.99 216.455 172.692 216.455C174.394 216.455 176.066 216.007 177.541 215.157L243.732 177.056C243.966 176.92 244.16 176.724 244.295 176.489C244.43 176.254 244.501 175.988 244.501 175.717C244.501 175.446 244.43 175.18 244.295 174.945C244.16 174.71 243.966 174.515 243.732 174.378L178.322 136.623Z" fill="url(#paint8_linear_203_84)"/>
</g>
<g opacity="0.11">
<path d="M178.322 125.585C176.651 124.62 174.755 124.113 172.826 124.113C170.896 124.113 169 124.62 167.329 125.585L101.83 163.307C101.596 163.444 101.402 163.639 101.267 163.874C101.132 164.109 101.062 164.375 101.062 164.646C101.062 164.917 101.132 165.183 101.267 165.418C101.402 165.653 101.596 165.849 101.83 165.985L167.843 204.12C169.317 204.97 170.99 205.417 172.692 205.417C174.394 205.417 176.066 204.97 177.541 204.12L243.732 166.03C243.966 165.892 244.16 165.695 244.294 165.459C244.429 165.223 244.499 164.957 244.499 164.685C244.499 164.414 244.429 164.147 244.294 163.911C244.16 163.675 243.966 163.479 243.732 163.34L178.322 125.585Z" fill="url(#paint9_linear_203_84)"/>
</g>
<path opacity="0.5" d="M243.732 163.34L178.333 125.585C176.662 124.62 174.767 124.113 172.837 124.113C170.907 124.113 169.012 124.62 167.341 125.585L101.841 163.307C101.607 163.443 101.413 163.639 101.278 163.874C101.143 164.109 101.071 164.375 101.071 164.646V197.747C101.068 198.019 101.138 198.287 101.273 198.522C101.409 198.758 101.605 198.953 101.841 199.087L167.843 237.221C169.318 238.071 170.99 238.519 172.692 238.519C174.394 238.519 176.066 238.071 177.541 237.221L243.732 199.131C243.967 198.995 244.161 198.799 244.296 198.564C244.431 198.329 244.502 198.063 244.502 197.792V164.691C244.504 164.418 244.434 164.149 244.299 163.912C244.164 163.675 243.968 163.478 243.732 163.34Z" fill="url(#paint10_linear_203_84)"/>
<g opacity="0.11">
<path d="M178.322 125.585C176.651 124.62 174.755 124.113 172.826 124.113C170.896 124.113 169 124.62 167.329 125.585L101.83 163.307C101.596 163.444 101.402 163.639 101.267 163.874C101.132 164.109 101.062 164.375 101.062 164.646C101.062 164.917 101.132 165.183 101.267 165.418C101.402 165.653 101.596 165.849 101.83 165.985L167.843 204.12C169.317 204.97 170.99 205.417 172.692 205.417C174.394 205.417 176.066 204.97 177.541 204.12L243.732 166.03C243.966 165.892 244.16 165.695 244.294 165.459C244.429 165.223 244.499 164.957 244.499 164.685C244.499 164.414 244.429 164.147 244.294 163.911C244.16 163.675 243.966 163.479 243.732 163.34L178.322 125.585Z" fill="url(#paint11_linear_203_84)"/>
</g>
<path d="M243.732 164.501L177.575 202.591C176.102 203.446 174.429 203.897 172.725 203.897C171.022 203.897 169.349 203.446 167.876 202.591L101.83 164.468C101.588 164.334 101.39 164.132 101.261 163.887C101.059 164.241 101.005 164.661 101.112 165.054C101.219 165.447 101.477 165.782 101.83 165.985L167.843 204.12C169.317 204.97 170.99 205.417 172.692 205.417C174.394 205.417 176.066 204.97 177.541 204.12L243.732 166.03C244.086 165.825 244.345 165.488 244.451 165.093C244.558 164.697 244.504 164.276 244.302 163.921C244.173 164.166 243.975 164.367 243.732 164.501Z" fill="url(#paint12_linear_203_84)"/>
<path d="M108.76 176.152L110.39 177.101V176.007L108.76 175.07V176.152Z" fill="#42E8E0"/>
<path d="M108.76 183.54L110.39 184.478V178.094L108.76 177.157V183.54Z" fill="#42E8E0"/>
<path d="M108.76 187.067L110.39 188.005V185.471L108.76 184.534V187.067Z" fill="#42E8E0"/>
<path d="M108.76 190.716L110.39 191.665V189.12L108.76 188.183V190.716Z" fill="#42E8E0"/>
<path d="M106.339 178.284L107.957 179.221V176.688L106.339 175.751V178.284Z" fill="#42E8E0"/>
<path d="M106.339 183.127L107.957 184.065V180.349L106.339 179.411V183.127Z" fill="#42E8E0"/>
<path d="M106.339 187.592L107.957 188.529V185.337L106.339 184.389V187.592Z" fill="#42E8E0"/>
<path d="M108.76 194.377L110.39 195.314V192.781L108.76 191.844V194.377Z" fill="#42E8E0"/>
<path d="M106.339 174.757L107.957 175.695V174.601L106.339 173.664V174.757Z" fill="#42E8E0"/>
<path d="M107.544 197.223L110.39 198.863V197.803L107.544 196.163V197.223Z" fill="#42E8E0"/>
<path opacity="0.2" d="M172.776 185.069C192.197 185.069 207.942 175.981 207.942 164.769C207.942 153.557 192.197 144.469 172.776 144.469C153.354 144.469 137.61 153.557 137.61 164.769C137.61 175.981 153.354 185.069 172.776 185.069Z" fill="#180D5B"/>
<path d="M172.954 148.04L173.021 148.352L173.121 148.14C173.373 148.936 173.396 149.787 173.188 150.595C172.65 151.643 172.019 152.64 171.302 153.575C170.432 154.691 169.07 157.091 168.669 157.548C167.276 158.927 165.468 159.81 163.524 160.059C160.868 160.338 160.176 158.82 160.41 157.995C161.224 156.243 162.308 154.631 163.624 153.218C164.674 151.956 165.594 150.591 166.37 149.145L172.954 148.04Z" fill="#160A5B"/>
<path d="M164.975 140.83C165.025 141.631 164.995 142.435 164.886 143.23C164.707 143.933 160.801 144.145 159.417 144.346C157.843 144.674 156.314 145.191 154.864 145.886C154.105 146.254 149.038 146.79 148.413 144.926C147.788 143.062 150.958 141.5 153.1 140.998C155.243 140.495 158.747 139.435 158.747 139.435L164.975 140.83Z" fill="#160A5B"/>
<path d="M178.501 107.104C178.48 110.94 177.992 114.758 177.05 118.476C176.114 122.122 175.641 125.872 175.644 129.637C175.644 129.637 177.318 137.092 175.845 142.181C174.372 147.27 173.144 148.698 173.144 148.698C172.763 149.224 172.27 149.659 171.701 149.971C171.132 150.283 170.5 150.465 169.852 150.503C169.204 150.542 168.555 150.436 167.953 150.193C167.351 149.95 166.81 149.577 166.37 149.1C167.609 145.01 168.417 140.802 168.78 136.545C167.653 134.062 166.796 131.465 166.225 128.8C166.225 128.8 165.667 134.603 165.343 136.946C165.343 136.946 165.667 140.384 164.751 141.779C163.836 143.174 159.696 143.576 158.379 141.154C157.062 138.732 159.495 139.926 158.747 128.8C158.747 128.8 154.942 124.056 154.395 115.318C153.848 106.58 153.893 103.131 154.395 101.423C154.897 99.716 163.323 93.6113 163.323 93.6113L168.088 99.6937L178.501 107.104Z" fill="#24126A"/>
<path d="M166.013 130.998C165.771 130.198 165.573 129.386 165.421 128.565C165.421 128.565 164.874 134.368 164.539 136.712C164.539 136.712 164.874 140.149 163.959 141.544C163.368 142.437 161.448 142.917 159.796 142.515C161.56 143.352 164.071 142.872 164.752 141.823C165.667 140.428 165.343 136.991 165.343 136.991C165.544 135.574 165.823 132.951 166.013 130.998Z" fill="url(#paint13_linear_203_84)"/>
<path d="M178.501 107.104L168.088 99.7159L163.379 93.6335L163.01 93.9014L167.341 99.4815L177.764 106.87C177.735 110.705 177.244 114.524 176.302 118.242C175.373 121.889 174.904 125.638 174.907 129.402C174.907 129.402 176.57 136.857 175.108 141.946C173.646 147.035 172.307 148.464 172.307 148.464C171.792 149.132 171.103 149.647 170.316 149.952C169.53 150.257 168.674 150.341 167.843 150.194C170.89 151.6 173.066 148.743 173.066 148.743C173.066 148.743 174.305 147.314 175.767 142.225C177.229 137.136 175.566 129.681 175.566 129.681C175.563 125.917 176.036 122.167 176.972 118.521C177.944 114.792 178.458 110.958 178.501 107.104V107.104Z" fill="url(#paint14_linear_203_84)"/>
<path d="M159.718 116.847C158.345 115.206 157.575 110.039 157.575 110.039C157.575 110.039 159.718 114.38 161.258 115.619C162.836 117.065 163.927 118.963 164.383 121.054C164.662 122.706 166.225 128.866 166.225 128.866C166.225 128.866 165.667 134.67 165.343 137.013C165.343 137.013 165.667 140.451 164.751 141.846C164.523 142.161 164.209 142.405 163.847 142.549C163.847 142.482 164.082 134.871 163.847 131.645C163.613 128.42 161.147 118.499 159.718 116.847Z" fill="#160A5B"/>
<path d="M191.179 71.8823C191.179 71.8823 194.817 78.9914 195.185 79.5383C195.554 80.0851 202.361 88.7678 202.998 93.7787C202.998 93.7787 203.511 95.7206 201.167 97.4393C198.824 99.1579 186.994 106.669 186.268 106.78C185.543 106.892 181.246 104.805 181.068 100.084C181.068 100.084 190.331 95.7652 192.34 93.6001C192.34 93.6001 188.735 87.5401 186.971 85.788C186.473 85.1447 186.178 84.3677 186.123 83.5559C185.861 81.5868 186.084 79.5836 186.773 77.7204C187.462 75.8571 188.595 74.1902 190.074 72.8644L191.179 71.8823Z" fill="#4846A5"/>
<path d="M163.981 55.2201C163.981 55.2201 158.401 57.307 156.426 56.5928C154.451 55.8785 149.73 55.2759 146.538 53.4679C143.346 51.66 129.139 47.9994 127.052 47.8878C127.052 47.8878 127.052 47.966 127.353 48.111C127.874 48.1724 128.365 48.3879 128.763 48.7298C129.16 49.0718 129.447 49.5248 129.585 50.0306C129.841 51.3295 129.585 52.6769 128.871 53.7916C128.637 53.9367 128.503 53.3452 127.141 52.6756C126.448 52.3224 125.687 52.1243 124.909 52.0952L124.396 52.7425L124.083 53.2224C124.259 53.7734 124.581 54.2661 125.016 54.6476C125.451 55.0291 125.981 55.2849 126.55 55.3875C128.358 55.5214 140.009 60.3873 140.735 60.6105C141.46 60.8337 151.248 65.0746 153.078 65.6995C154.203 66.1075 155.293 66.6077 156.337 67.195C156.337 67.195 162.051 63.3894 162.229 63.3894C162.408 63.3894 163.981 55.2201 163.981 55.2201Z" fill="#24126A"/>
<path d="M113.068 45.4994C113.303 45.5552 116.249 46.5485 116.249 46.5485C116.249 46.5485 115.133 47.1511 114.977 47.6645C114.965 48.9082 115.081 50.1498 115.323 51.3697C115.59 51.6366 115.89 51.869 116.216 52.0616C116.405 52.1732 116.863 53.1777 117.332 53.0661C117.469 53.0068 117.591 52.9165 117.688 52.8023C117.785 52.688 117.854 52.5529 117.89 52.4076L118.314 52.1844C119.31 52.1751 120.297 52.3688 121.215 52.7536C122.115 53.2302 123.145 53.4025 124.151 53.2446C124.779 53.0259 125.391 52.761 125.981 52.4522C126.365 52.5075 126.74 52.6125 127.097 52.7647C127.499 52.9768 128.771 53.8807 128.972 53.8807C129.173 53.8807 131.784 48.8029 127.097 47.8319C126.143 47.7542 125.202 47.5592 124.296 47.2516C123.459 46.8498 121.081 45.0195 120.2 45.0195C119.599 45.0139 119 45.1005 118.425 45.2762C118.425 45.2762 113.113 43.7584 112.678 44.2383C112.243 44.7182 112.834 45.4436 113.068 45.4994ZM116.908 49.0372C117.13 49.0203 117.346 48.9532 117.54 48.8412C117.733 48.7291 117.898 48.5749 118.024 48.3899C118.149 48.4635 118.294 48.4975 118.44 48.4875C118.585 48.4776 118.724 48.4241 118.838 48.3341C118.838 48.4234 119.575 48.5573 119.575 48.5573C119.575 48.5573 119.898 48.8363 120.311 49.1376C120.724 49.439 120.177 50.3318 120.177 50.3318C119.736 50.318 119.303 50.1994 118.916 49.9858C118.589 49.87 118.253 49.7805 117.912 49.718C117.556 49.5248 117.219 49.2968 116.908 49.0372V49.0372Z" fill="#FCD1C5"/>
<path d="M154.451 101.468C154.942 99.7717 163.379 93.6559 163.379 93.6559L165.745 96.6803L167.776 104.571L178.557 107.919C178.557 107.919 177.988 113.309 169.204 112.684C160.421 112.059 159.395 105.251 159.395 105.251C159.395 105.251 158.412 107.483 154.093 108.075C153.909 105.867 154.029 103.644 154.451 101.468V101.468Z" fill="#160A5B"/>
<path d="M180.498 59.6507L181.983 63.4675C181.983 63.4675 189.125 69.6503 191.179 71.8823C189.007 76.2474 187.592 80.9493 186.994 85.788C185.491 86.9939 184.067 88.2949 182.73 89.6829C181.748 90.9105 179.248 96.5799 178.445 98.4548C177.641 100.33 179.873 105.943 179.873 105.943C179.873 105.943 176.838 111.523 171.95 111.378C167.061 111.233 163.725 108.209 163.111 102.897C162.497 97.5843 162.664 96.8254 162.664 96.8254C162.664 96.8254 160.432 103.343 157.084 103.343C153.736 103.343 148.457 97.6848 148.457 97.6848C148.457 97.6848 144.886 94.4371 145.221 92.9751C145.556 91.5132 153.625 78.8463 154.06 76.7593C154.495 74.6724 156.292 67.195 156.292 67.195L163.903 55.2201L168.535 55.4433L180.498 59.6507Z" fill="#453C9E"/>
<path d="M171.749 110.039C167.073 109.861 163.847 107.093 163.033 102.227C163.033 102.45 163.033 102.673 163.111 102.908C163.725 108.22 167.062 111.2 171.95 111.389C176.838 111.579 179.874 105.954 179.874 105.954C179.874 105.954 179.717 105.553 179.494 104.917C178.791 106.055 175.956 110.195 171.749 110.039Z" fill="url(#paint15_linear_203_84)"/>
<path d="M180.499 59.6506C180.479 61.1959 180.188 62.7257 179.639 64.1705C178.746 66.4026 175.811 79.1141 169.171 83.4554L166.615 85.0736V77.0048C166.642 74.2557 167.04 71.5228 167.798 68.8801C168.521 66.6172 168.897 64.2581 168.914 61.8827C168.914 61.8827 170.778 61.3693 170.778 61.4139C170.778 61.4586 180.499 59.6506 180.499 59.6506Z" fill="#F0F6FF"/>
<path d="M172.307 65.5544C172.307 65.5544 171.191 66.0344 170.622 65.2643C170.044 64.3569 169.734 63.3045 169.729 62.2287C169.729 62.2287 166.582 62.385 165.968 60.7333C165.776 60.3234 165.689 59.8723 165.714 59.4204C165.739 58.9685 165.876 58.5299 166.113 58.1441C166.219 57.1804 166.424 56.2304 166.727 55.3094V54.8853C166.727 54.8853 166.08 54.3384 166.37 53.7692C166.66 53.2001 168.39 51.4033 168.602 51.0908C168.814 50.7783 168.602 48.5686 169.227 47.4637C169.827 46.5319 170.482 45.6374 171.191 44.7853C171.191 44.7853 177.887 39.5511 183.166 44.7853C188.445 50.0194 180.487 59.6284 180.487 59.6284C180.487 59.6284 179.851 62.7421 178.255 63.9697C176.659 65.1973 172.307 65.5544 172.307 65.5544Z" fill="#FCD1C5"/>
<path d="M177.206 52.8207C177.202 52.6272 177.232 52.4345 177.295 52.2515C177.514 51.6578 177.522 51.0073 177.319 50.4083C177.116 49.8093 176.714 49.2978 176.179 48.9592C174.171 47.4972 170.599 46.1803 170.722 44.7183C170.845 43.2563 176.436 39.6181 180.577 41.56C184.717 43.5018 188.601 48.4124 185.777 53.613C182.954 58.8137 180.465 59.6507 180.465 59.6507C180.465 59.6507 179.628 59.4833 180.376 58.6128C181.123 57.7423 182.507 55.5661 181.369 54.8741C180.231 54.1822 178.255 55.6777 178.021 55.9902C177.92 56.1241 177.82 56.2803 177.731 56.4254C177.662 56.5464 177.55 56.6369 177.418 56.6783C177.285 56.7198 177.142 56.7092 177.016 56.6486H176.916C176.792 56.588 176.695 56.4839 176.644 56.3561C176.592 56.2284 176.59 56.0861 176.637 55.9567L177.128 54.6174C177.205 54.4142 177.242 54.1984 177.24 53.9813L177.206 52.8207Z" fill="#AA8383"/>
<path d="M172.485 67.0165C173.517 67.8358 174.33 68.8979 174.851 70.1079C174.123 69.3271 173.28 68.6611 172.351 68.1325C172.351 68.1325 170.599 68.9583 170.599 69.5052C170.55 71.3774 170.356 73.243 170.019 75.0853C169.726 77.7421 169.603 80.4148 169.651 83.0872L168.535 83.8126L167.999 81.0895L168.2 75.2639L169.238 69.9628C169.294 69.2553 169.387 68.5513 169.517 67.8535C169.606 67.7754 172.485 67.0165 172.485 67.0165Z" fill="#C4CCD6"/>
<path d="M172.486 67.0164C172.486 67.0164 170.778 65.1973 169.919 65.1638C169.668 65.1263 169.412 65.1561 169.177 65.2502C168.941 65.3444 168.735 65.4994 168.58 65.6995C168.58 65.7999 167.754 68.6347 167.754 68.6347C166.729 72.1152 166.244 75.7321 166.314 79.3597C166.47 85.1183 166.615 85.0737 166.615 85.0737L168.725 83.7344C168.415 80.7469 168.611 77.7285 169.305 74.8063C170.421 70.0297 169.439 69.3154 169.986 68.8244C170.533 68.3333 172.742 67.5968 172.486 67.0164Z" fill="#24126A"/>
<path d="M182.731 89.6828C181.749 90.9104 179.293 96.5798 178.501 98.4435C178.348 98.8149 178.272 99.2137 178.278 99.6154L177.954 99.8274L176.838 98.7784C176.838 98.7784 177.798 95.3187 179.338 91.0332C180.878 86.7476 186.949 85.7878 186.949 85.7878C185.462 86.9953 184.053 88.2963 182.731 89.6828V89.6828Z" fill="#24126A"/>
<path d="M181.09 100.263C180.433 99.2456 179.686 98.2895 178.858 97.4058C178.858 97.4058 178.981 98.12 177.987 98.5218C176.994 98.9236 171.827 100.966 171.648 101.2C171.47 101.435 171.648 101.725 171.994 101.792C171.507 101.967 171.002 102.087 170.488 102.149C170.041 102.149 169.461 102.696 169.751 103.176C170.041 103.656 170.298 103.622 170.298 103.622C170.298 103.622 170.164 104.147 170.488 104.269C170.854 104.353 171.228 104.398 171.604 104.403C171.604 104.403 171.459 104.939 171.883 105.151C172.712 105.358 173.555 105.504 174.405 105.586C174.405 105.586 176.045 105.408 176.514 105.396C177.671 105.612 178.842 105.742 180.018 105.787C181.455 105.442 182.862 104.983 184.226 104.414C184.438 104.269 181.09 100.263 181.09 100.263Z" fill="#FCD1C5"/>
<path d="M182.351 64.6951L182.139 68.099L180.298 68.6793L181.536 69.6949C181.536 69.6949 176.548 81.0337 170.175 84.6273C170.175 84.6273 176.246 82.4622 181.994 69.7953L181.213 68.8802L182.496 68.311L182.351 64.6951Z" fill="#24126A"/>
<path d="M166.035 64.3379C166.035 64.3379 163.803 75.9111 165.7 84.6272C165.7 84.6272 163.39 80.4309 165.477 64.3379H166.035Z" fill="#24126A"/>
<path d="M115.088 47.4301C115.406 47.0731 115.784 46.7746 116.204 46.5485C116.204 46.5485 118.615 47.5194 119.028 47.7203C119.073 47.7203 116.606 47.4525 115.088 47.4301Z" fill="#E2B1A6"/>
<path d="M128.927 53.9254C128.62 53.7584 128.323 53.5759 128.034 53.3786C129.63 51.2358 127.878 48.1221 127.867 48.111C131.416 49.4948 129.106 53.9924 128.927 53.9254Z" fill="#E2B1A6"/>
<path d="M184.137 104.448C183.103 104.883 182.045 105.255 180.967 105.564C180.595 104.202 180.389 102.801 180.354 101.39C180.532 100.341 180.967 100.095 180.967 100.095L181.09 100.263C181.09 100.263 184.438 104.269 184.137 104.448Z" fill="#E2B1A6"/>
<path d="M181.09 100.118C180.946 100.668 180.933 101.244 181.051 101.8C181.169 102.356 181.416 102.877 181.771 103.321C182.998 104.727 183.132 104.905 183.132 104.905H184.583C184.848 104.179 185.057 103.432 185.208 102.673C185.041 102.584 181.09 100.118 181.09 100.118Z" fill="#4846A5"/>
<path d="M168.01 67.7195C168.01 67.7195 166.671 75.6544 166.972 78.5672C167.156 80.5816 167.22 82.6053 167.162 84.6273L166.727 84.9621L166.604 85.0402C166.604 85.0402 166.459 85.0402 166.303 79.3262C166.232 75.6986 166.718 72.0817 167.742 68.6012L168.01 67.7195Z" fill="#24126A"/>
<path d="M167.575 150.026C167.141 149.779 166.737 149.483 166.37 149.145C167.609 145.055 168.417 140.847 168.78 136.589C167.653 134.107 166.796 131.51 166.225 128.844C166.403 129.57 168.613 133.498 169.573 137.504C170.532 141.511 167.575 150.026 167.575 150.026Z" fill="#160A5B"/>
<path d="M177.407 58.3784C177.112 59.9278 176.512 61.4033 175.644 62.7198C174.528 64.0925 173.557 65.4205 173.557 65.4205L172.307 65.5544C172.307 65.5544 171.191 66.0344 170.622 65.2643C170.044 64.3569 169.734 63.3045 169.729 62.2287C169.729 62.2287 173.97 61.7823 175.588 60.6551C176.453 60.1449 177.1 59.3347 177.407 58.3784Z" fill="#E2B1A6"/>
<path d="M178.936 97.4393C178.858 97.6158 178.768 97.7873 178.668 97.9526L178.568 97.5843C178.568 97.5843 178.758 97.1937 178.769 97.1937C178.78 97.1937 178.936 97.4393 178.936 97.4393Z" fill="#1B2B3A"/>
<path d="M166.615 85.0737C166.615 85.0737 163.658 94.5264 162.665 96.8255V99.0575C162.665 99.0575 166.493 87.3504 166.615 85.0737Z" fill="#24126A"/>
<path d="M163.758 88.4441C163.713 88.5686 163.692 88.7009 163.698 88.8334C163.705 88.9658 163.737 89.0956 163.794 89.2153C163.852 89.3349 163.932 89.4418 164.031 89.5298C164.131 89.6178 164.246 89.685 164.372 89.7275C164.628 89.782 164.896 89.7385 165.122 89.6056C165.348 89.4727 165.516 89.2601 165.593 89.0095C165.67 88.7589 165.65 88.4886 165.538 88.2518C165.426 88.0149 165.229 87.8288 164.986 87.7299C164.728 87.6618 164.454 87.6988 164.224 87.8328C163.994 87.9667 163.826 88.1866 163.758 88.4441V88.4441Z" fill="#24126A"/>
<path d="M162.263 92.5288C162.213 92.6537 162.19 92.7877 162.195 92.9221C162.2 93.0565 162.232 93.1884 162.291 93.3095C162.35 93.4306 162.433 93.5382 162.535 93.6255C162.637 93.7128 162.756 93.7779 162.885 93.8167C163.014 93.8555 163.149 93.8671 163.283 93.8508C163.416 93.8345 163.545 93.7906 163.661 93.722C163.776 93.6534 163.876 93.5615 163.955 93.4521C164.033 93.3428 164.088 93.2184 164.115 93.0868C164.165 92.9618 164.188 92.8278 164.183 92.6934C164.178 92.559 164.146 92.4271 164.087 92.306C164.029 92.185 163.946 92.0774 163.843 91.9901C163.741 91.9027 163.622 91.8376 163.493 91.7988C163.364 91.76 163.229 91.7484 163.095 91.7647C162.962 91.781 162.833 91.8249 162.718 91.8935C162.602 91.9621 162.502 92.054 162.423 92.1634C162.345 92.2727 162.29 92.3972 162.263 92.5288Z" fill="#24126A"/>
<path d="M177.128 54.5839C177.205 54.3806 177.242 54.1649 177.24 53.9477V52.8317C177.236 52.6382 177.266 52.4455 177.329 52.2625C177.405 52.0341 177.457 51.7985 177.485 51.5594C177.485 51.5594 182.094 54.9075 185.018 55.0526C182.552 58.981 180.554 59.6618 180.554 59.6618C180.554 59.6618 179.717 59.4944 180.465 58.6239C181.213 57.7534 182.597 55.5771 181.458 54.8852C180.32 54.1932 178.344 55.6887 178.11 56.0012C178.01 56.1351 177.909 56.2914 177.82 56.4365C177.752 56.5575 177.64 56.6479 177.507 56.6893C177.374 56.7308 177.231 56.7202 177.106 56.6597H177.005C176.882 56.5991 176.785 56.4949 176.733 56.3672C176.682 56.2394 176.679 56.0972 176.726 55.9677L177.128 54.5839Z" fill="#936D6D"/>
<path d="M185.856 178.228C184.51 178.544 183.14 178.742 181.76 178.82C179.74 178.898 174.26 180.003 174.405 182.045C174.55 184.087 177.396 187.045 180.99 187.48C184.583 187.915 189.192 186.888 191.536 186.955C192.086 186.96 192.628 186.827 193.113 186.568C193.598 186.308 194.009 185.931 194.31 185.471C194.612 185.011 194.792 184.483 194.836 183.935C194.88 183.387 194.785 182.837 194.561 182.335C193.657 180.058 185.856 178.228 185.856 178.228Z" fill="#160A5B"/>
<path d="M197.975 172.737C197.975 172.737 198.745 173.965 198.366 174.724C197.986 175.483 196.982 177.369 193.701 175.55C190.42 173.731 184.137 171.086 184.137 171.086C184.137 171.086 180.532 169.166 180.722 166.889C180.911 164.613 184.248 164.981 184.248 164.981L197.975 172.737Z" fill="#160A5B"/>
<path d="M176.659 140.562C176.659 140.562 178.054 155.294 181.012 160.874C183.969 166.454 184.851 176.945 185.476 178.931C186.101 180.918 188.054 183.797 191.123 184.4C194.192 185.002 194.705 182.915 194.549 181.665C194.393 180.416 193.545 178.384 193.534 177.034C193.572 176.154 193.692 175.28 193.891 174.422C193.891 174.422 197.406 175.46 197.942 172.737C197.796 172.346 197.684 171.943 197.607 171.532C197.607 171.13 197.909 161.265 197.998 160.07C197.875 156.421 197.359 152.795 196.458 149.256C195.487 146.109 195.81 139.413 195.81 139.413L185.766 138.018L176.659 140.562Z" fill="#24126A"/>
<path d="M196.458 149.256C195.487 146.109 195.81 139.413 195.81 139.413L194.94 139.29C194.94 140.216 194.694 146.098 195.576 148.988C196.471 152.524 196.98 156.146 197.094 159.791C197.016 160.986 196.647 170.84 196.703 171.242C196.778 171.652 196.886 172.055 197.027 172.447C196.491 175.17 192.976 174.132 192.976 174.132C192.778 174.99 192.658 175.864 192.619 176.744C192.619 178.094 193.478 180.092 193.634 181.364C193.79 182.636 193.277 184.712 190.197 184.098C190.106 184.077 190.017 184.051 189.929 184.02C190.311 184.193 190.712 184.321 191.123 184.4C194.203 185.014 194.706 182.915 194.549 181.665C194.393 180.415 193.545 178.384 193.534 177.034C193.575 176.114 193.694 175.199 193.891 174.3C193.891 174.3 197.406 175.416 197.942 172.737C197.796 172.346 197.684 171.943 197.607 171.532C197.607 171.13 197.909 161.265 197.998 160.07C197.875 156.421 197.359 152.795 196.458 149.256V149.256Z" fill="url(#paint16_linear_203_84)"/>
<path d="M192.842 140.473C192.789 141.938 192.452 143.378 191.849 144.714C191.876 148.656 191.615 152.595 191.067 156.499C191.067 156.499 192.362 164.468 193.177 166.979C193.724 169.42 193.964 171.921 193.891 174.423C194.205 174.523 194.532 174.58 194.862 174.59C195.442 174.59 195.476 164.858 194.594 163.139C193.712 161.421 193.054 153.832 193.389 151.511C193.724 149.189 193.601 142.582 194.036 141.466C194.179 141.15 194.204 140.794 194.108 140.46C194.012 140.127 193.8 139.839 193.511 139.647L192.842 140.473Z" fill="#160A5B"/>
<path d="M184.416 87.3392C183.547 88.0201 182.845 88.8913 182.365 89.8857C181.886 90.8802 181.64 91.9714 181.648 93.0756L183.813 92.618C183.813 92.618 183.177 88.5892 184.416 87.3392Z" fill="#160A5B"/>
<path d="M185.543 143.687C192.183 143.888 195.766 140.953 195.766 140.953C195.766 140.016 195.766 139.413 195.766 139.413L185.722 138.018L176.581 140.562C176.581 140.562 176.849 143.464 177.418 147.192C179.048 147.359 180.644 143.364 180.644 143.364L185.197 143.654C185.197 143.654 178.914 143.486 185.543 143.687Z" fill="#160A5B"/>
<path d="M177.887 140.763C177.887 140.763 192.328 146.656 199.304 135.473C199.508 135.138 199.605 134.749 199.583 134.357L199.538 131.835C199.524 131.509 199.574 131.183 199.683 130.875V130.875C199.904 130.203 199.954 129.485 199.828 128.788C199.281 125.887 197.819 117.963 197.473 115.775C197.06 113.097 198.478 102.383 200.877 97.7294C203.277 93.0756 197.172 82.8528 197.172 82.8528C196.704 82.1545 196.024 81.6249 195.233 81.3416C194.441 81.0584 193.58 81.0365 192.775 81.2792C192.775 81.2792 195.554 83.2211 194.025 85.2746C192.496 87.3281 187.931 88.9798 187.931 88.9798C187.931 88.9798 179.494 93.3657 176.615 98.6892C175.945 100.716 175.569 102.828 175.499 104.961C175.41 108.51 175.8 117.014 175.655 118.197C175.51 119.38 175.052 127.483 175.108 127.862C175.164 128.241 177.887 140.763 177.887 140.763Z" fill="#453C9E"/>
<path d="M194.125 82.73C194.236 82.4728 194.294 82.1955 194.294 81.9153C194.294 81.6351 194.236 81.3578 194.125 81.1006C193.685 81.0755 193.243 81.1246 192.819 81.2457C193.347 81.6506 193.791 82.1548 194.125 82.73V82.73Z" fill="url(#paint17_linear_203_84)"/>
<path d="M182.351 141.991C182.351 141.991 190.855 119.034 190.454 110.742C190.063 102.618 178.043 127.204 178.043 127.204L177.887 140.763C179.336 141.303 180.83 141.714 182.351 141.991V141.991Z" fill="#24126A"/>
<path d="M199.438 128.587C199.336 128.897 199.291 129.222 199.304 129.547L199.393 132.125C199.416 132.517 199.318 132.906 199.114 133.241C192.15 144.346 177.776 138.498 177.776 138.498C177.776 138.498 175.789 129.458 175.175 126.534C175.175 127.248 175.175 127.75 175.175 127.84C175.175 128.219 177.965 140.808 177.965 140.808C177.965 140.808 192.407 146.7 199.382 135.518C199.586 135.183 199.683 134.794 199.661 134.402L199.538 131.835C199.524 131.509 199.574 131.183 199.683 130.875C199.906 130.203 199.952 129.484 199.817 128.788C199.817 128.487 199.694 128.119 199.627 127.672C199.597 127.983 199.534 128.29 199.438 128.587V128.587Z" fill="url(#paint18_linear_203_84)"/>
<path d="M200.643 95.6535C198.254 100.263 196.837 110.921 197.295 113.577C197.295 113.822 197.384 114.146 197.451 114.525C197.451 110.675 198.79 101.803 200.922 97.6847C201.535 96.1352 201.637 94.4302 201.212 92.8188C201.266 93.7968 201.07 94.7724 200.643 95.6535V95.6535Z" fill="url(#paint19_linear_203_84)"/>
<path d="M177.72 114.871C178.035 113.009 178.207 111.125 178.233 109.236C178.233 105.977 179.193 100.564 185.097 101.502C193.445 102.83 189.873 114.526 188.958 116.568C188.043 118.61 184.382 127.895 184.193 128.42C184.003 128.945 178.233 140.473 176.18 143.252C176.138 143.311 176.085 143.36 176.023 143.397C175.961 143.434 175.892 143.458 175.82 143.466C175.749 143.474 175.676 143.468 175.607 143.446C175.538 143.425 175.475 143.389 175.421 143.341C174.584 142.638 172.709 140.942 172.463 139.87C172.151 138.487 173.356 133.476 173.356 133.476C173.356 133.476 176.604 120.976 176.883 120.396C177.162 119.815 177.229 117.907 177.72 114.871Z" fill="#4846A5"/>
<path d="M184.583 87.607C184.377 87.1665 184.065 86.7834 183.676 86.4914C183.287 86.1995 182.832 86.0078 182.351 85.933C180.822 85.7879 179.952 85.3527 179.796 84.817C179.691 84.1007 179.511 83.3975 179.26 82.7188C178.937 81.7544 178.713 80.7598 178.59 79.7502C178.59 79.7502 177.474 79.3484 177.374 78.8462C177.273 78.344 177.921 76.5026 177.854 76.3575C177.477 75.7089 177.27 74.9758 177.251 74.2259C177.3 73.1338 177.522 72.0564 177.909 71.0341C178.367 69.9181 181.615 63.4898 190.063 66.8267C198.511 70.1636 192.105 77.3619 192.953 82.0046C192.953 82.0046 193.712 82.9867 192.317 84.6496C190.922 86.3124 186.893 86.6584 184.583 87.607Z" fill="#FCD1C5"/>
<path d="M192.328 84.6272C193.723 82.9643 192.964 81.9822 192.964 81.9822C192.853 81.2985 192.853 80.6013 192.964 79.9176L189.616 80.5537C189.616 80.5537 184.684 76.1677 185.03 78.5114C185.376 80.855 184.181 81.2903 184.181 81.2903L185.197 82.5849C185.454 82.9085 185.297 83.2991 185.085 83.7009C183.679 86.1227 180.264 85.3861 180.253 85.3973C180.898 85.7398 181.611 85.9342 182.34 85.9664C182.821 86.0412 183.276 86.233 183.665 86.5249C184.054 86.8168 184.366 87.1999 184.572 87.6405C186.893 86.6583 190.933 86.2901 192.328 84.6272Z" fill="#E2B1A6"/>
<path d="M177.552 68.5455C177.552 68.5455 176.961 70.2753 177.921 71.0119C178.88 71.7484 179.74 72.4292 179.74 72.4292V74.6612C179.739 74.9788 179.832 75.2895 180.008 75.5541L181.235 77.3732C181.469 77.7365 181.596 78.1578 181.604 78.5897V79.4825C181.603 79.6095 181.649 79.7323 181.734 79.8271C181.818 79.9219 181.935 79.982 182.061 79.9958H182.374C182.44 80.0035 182.508 79.9977 182.573 79.9787C182.637 79.9597 182.697 79.928 182.75 79.8853C182.802 79.8426 182.845 79.7899 182.876 79.7303C182.907 79.6707 182.926 79.6054 182.932 79.5383L183.066 78.2883C183.066 78.2883 183.702 77.2839 185.086 78.4781L186.335 78.9914C186.509 79.0637 186.665 79.1716 186.794 79.3081C186.922 79.4446 187.021 79.6067 187.083 79.7838C187.429 80.7436 188.199 82.6408 188.735 82.9533C189.494 83.3774 192.418 81.8373 192.808 81.2012C193.199 80.565 194.181 76.0786 194.795 73.9582C195.409 71.8377 195.04 66.6371 188.746 65.2978C182.452 63.9586 178.423 66.6594 177.552 68.5455Z" fill="#AA8383"/>
<path d="M192.775 81.2346C193.165 80.565 194.147 76.112 194.761 73.9916C193.056 75.0477 191.16 75.7604 189.181 76.0897C186.012 76.5807 179.751 73.0206 179.751 73.0206V74.6277C179.75 74.9452 179.843 75.2559 180.019 75.5205L181.235 77.3731C181.469 77.7365 181.596 78.1578 181.603 78.5896V79.4824C181.603 79.6094 181.649 79.7322 181.733 79.8271C181.818 79.9219 181.935 79.982 182.061 79.9958H182.373C182.44 80.0035 182.508 79.9977 182.573 79.9787C182.637 79.9597 182.697 79.9279 182.749 79.8852C182.801 79.8425 182.844 79.7898 182.876 79.7302C182.907 79.6706 182.926 79.6053 182.931 79.5382L183.065 78.2883C183.065 78.2883 183.701 77.2839 185.085 78.478L186.893 79.2257C186.893 79.2257 188.009 82.5738 188.735 82.9533C189.46 83.3327 192.395 81.9042 192.775 81.2346Z" fill="#936D6D"/>
<path d="M192.898 81.4467C192.898 81.4467 195.342 82.9533 194.125 85.0849C192.909 87.2165 184.081 91.0668 183.59 91.6248C183.59 91.6248 183.244 88.4218 184.416 87.3393C184.416 87.3393 191.201 86.0112 192.228 84.2814C192.537 83.8849 192.757 83.4263 192.872 82.9371C192.988 82.4479 192.997 81.9395 192.898 81.4467V81.4467Z" fill="#F0F6FF"/>
<path d="M192.898 81.4467C193.001 81.9371 192.998 82.4441 192.888 82.9333C192.778 83.4224 192.565 83.8822 192.262 84.2814C191.458 85.5983 187.385 86.6696 185.443 87.116C186.261 87.7852 186.92 88.6276 187.373 89.5825C190.096 88.1651 193.411 86.346 194.069 85.1184C195.342 82.9533 192.898 81.4467 192.898 81.4467Z" fill="#C4CCD6"/>
<path d="M194.549 88.3102C194.549 88.3102 190.598 90.5422 188.679 91.5913C186.759 92.6404 184.639 93.9796 184.639 93.9796L183.902 93.243L183.01 95.1961C181.409 96.1531 179.912 97.2753 178.545 98.5441C177.463 99.7229 176.57 101.063 175.9 102.517C175.9 102.517 179.684 97.5508 182.664 96.0777L183.467 95.6648L183.925 94.1247L184.661 94.8947C184.661 94.8947 193.344 89.6271 194.549 88.3102Z" fill="#24126A"/>
<path d="M184.36 155.272C184.265 154.947 184.084 154.654 183.836 154.423L167.586 140.763C167.162 140.406 166.749 140.685 166.66 141.377L164.763 157.258C164.719 157.621 164.753 157.988 164.863 158.337C164.972 158.685 165.155 159.006 165.399 159.278L179.003 171.119L178.534 175.706L182.619 173.831C182.73 173.736 182.819 173.617 182.881 173.485C182.943 173.352 182.975 173.207 182.976 173.061L184.483 156.455C184.537 156.056 184.495 155.65 184.36 155.272V155.272Z" fill="url(#paint20_linear_203_84)"/>
<path d="M163.167 142.381L167.006 140.719H167.129C167.211 140.705 167.295 140.71 167.375 140.736C167.455 140.761 167.527 140.805 167.586 140.864L183.836 154.513C184.084 154.743 184.265 155.036 184.36 155.361L183.78 155.64L180.432 157.236L166.236 145.004L163.167 142.381Z" fill="#453C9E"/>
<path d="M161.392 161.097L178.01 175.605C178.467 176.007 178.903 175.706 178.97 174.936L180.588 158.251C180.623 157.887 180.58 157.52 180.463 157.174C180.345 156.828 180.156 156.51 179.907 156.242L163.702 142.527C163.267 142.169 162.854 142.448 162.765 143.152L160.767 159.111C160.726 159.467 160.761 159.828 160.868 160.17C160.976 160.513 161.154 160.828 161.392 161.097V161.097Z" fill="#24126A"/>
<path d="M181.034 173.92L182.597 157.28C182.633 156.918 182.592 156.552 182.474 156.207C182.357 155.862 182.166 155.547 181.916 155.283L165.689 141.611C165.585 141.514 165.451 141.455 165.309 141.444C165.399 141.417 165.494 141.416 165.585 141.439C165.675 141.463 165.757 141.511 165.823 141.578L182.061 155.272C182.308 155.538 182.497 155.854 182.614 156.198C182.731 156.542 182.775 156.907 182.742 157.269L181.235 173.887C181.179 174.422 180.978 174.746 180.699 174.757C180.856 174.668 181.001 174.356 181.034 173.92Z" fill="#160A5B"/>
<path d="M175.086 149.424L175.934 148.999C176.096 148.905 176.285 148.869 176.47 148.899H176.537C176.615 148.899 176.66 149.011 176.649 149.133V149.29L174.249 150.484V150.328C174.266 150.185 174.329 150.052 174.428 149.948L174.506 149.859C174.672 149.681 174.869 149.534 175.086 149.424V149.424Z" fill="#160A5B"/>
<path d="M175.399 151.477L174.249 150.506L176.615 148.966L177.753 149.915L175.399 151.477Z" fill="#160A5B"/>
<path d="M176.235 150.395L177.084 149.959C177.248 149.873 177.436 149.842 177.619 149.87H177.686C177.764 149.87 177.809 149.982 177.798 150.116V150.272L175.398 151.466V151.31C175.417 151.164 175.479 151.028 175.577 150.919L175.655 150.807C175.82 150.634 176.017 150.493 176.235 150.395V150.395Z" fill="url(#paint21_linear_203_84)"/>
<path d="M176.749 150.796L176.816 150.093L176.749 150.138L176.671 150.83L176.749 150.796Z" fill="#722318"/>
<path d="M176.816 150.093L175.644 149.145L175.577 149.178L176.749 150.138L176.816 150.093Z" fill="#722318"/>
<path d="M169.93 145.082L170.778 144.669C170.936 144.575 171.121 144.54 171.303 144.569H171.369C171.448 144.569 171.492 144.669 171.481 144.803V144.948L169.104 146.131V145.975C169.133 145.834 169.198 145.703 169.294 145.596L169.372 145.506C169.53 145.332 169.719 145.188 169.93 145.082V145.082Z" fill="#160A5B"/>
<path d="M170.209 147.113L169.082 146.154L171.448 144.636L172.564 145.573L170.209 147.113Z" fill="#160A5B"/>
<path d="M171.057 146.042L171.905 145.618C172.064 145.527 172.25 145.495 172.43 145.529H172.497C172.586 145.529 172.631 145.64 172.62 145.763V145.919L170.231 147.102V146.946C170.251 146.804 170.313 146.672 170.41 146.567L170.488 146.477C170.647 146.297 170.841 146.149 171.057 146.042V146.042Z" fill="url(#paint22_linear_203_84)"/>
<path d="M171.57 146.444L171.637 145.752L171.57 145.785L171.492 146.477L171.57 146.444Z" fill="#722318"/>
<path d="M171.637 145.752L170.477 144.814L170.421 144.837L171.57 145.785L171.637 145.752Z" fill="#722318"/>
<path d="M177.273 146.767L176.972 149.736L176.202 149.089L176.503 146.209C176.518 145.987 176.483 145.763 176.402 145.555C176.321 145.347 176.196 145.159 176.034 145.004L172.686 142.236C172.396 141.991 172.117 142.125 172.073 142.538L171.749 145.384L170.99 144.747L171.325 141.835C171.425 140.919 172.039 140.618 172.686 141.154L176.213 144.1C176.576 144.438 176.86 144.853 177.043 145.314C177.227 145.776 177.305 146.272 177.273 146.767V146.767Z" fill="#453C9E"/>
<path d="M171.57 142.036L172.932 141.902L176.871 145.573L177.05 147.805L176.972 149.703L176.09 150.138V147.783V146.165L175.275 144.993C175.275 144.993 173.791 143.81 173.78 143.777C173.769 143.743 171.57 142.036 171.57 142.036Z" fill="#453C9E"/>
<path d="M170.923 145.819L171.805 145.384L172.028 143.285L171.191 143.352L170.945 143.397L170.923 145.819Z" fill="#453C9E"/>
<path d="M170.945 141.388L171.894 140.931L171.637 141.444L171.325 141.544L170.945 141.388Z" fill="#453C9E"/>
<path d="M176.392 147.214L176.09 150.171L175.32 149.524L175.621 146.645C175.638 146.423 175.606 146.199 175.527 145.991C175.448 145.783 175.324 145.594 175.164 145.439L171.816 142.672C171.515 142.426 171.236 142.56 171.191 142.973L170.867 145.819L170.108 145.183L170.443 142.259C170.555 141.344 171.157 141.042 171.816 141.589L175.331 144.535C175.696 144.875 175.981 145.291 176.164 145.755C176.348 146.218 176.425 146.717 176.392 147.214V147.214Z" fill="#160A5B"/>
<path d="M172.697 139.748C172.444 140.937 172.31 142.148 172.296 143.364C172.77 144.423 173.615 145.273 174.673 145.752C175.51 146.009 175.164 145.015 175.354 144.39C175.48 143.736 175.532 143.07 175.51 142.404L172.697 139.748Z" fill="#FCD1C5"/>
<path d="M175.51 142.404L172.698 139.748C172.698 139.748 172.586 140.339 172.475 141.053C173.119 142.355 174.153 143.424 175.432 144.111C175.498 143.545 175.525 142.974 175.51 142.404V142.404Z" fill="#E2B1A6"/>
<path d="M172.485 139.96C172.485 139.96 173.49 143.084 175.99 143.375L175.141 139.96L172.965 139.357C172.898 139.346 172.485 139.96 172.485 139.96Z" fill="#4846A5"/>
<path d="M188.757 103.343C191.078 110.396 185.275 121.356 184.438 124.547C183.601 127.739 174.773 142.75 174.773 142.761L174.695 142.917C174.88 143.06 175.074 143.191 175.275 143.308C175.399 143.371 175.531 143.42 175.666 143.453C175.763 143.471 175.863 143.46 175.954 143.422C176.045 143.385 176.123 143.322 176.179 143.241C178.233 140.462 183.992 128.9 184.192 128.409C184.393 127.918 188.032 118.61 188.958 116.557C189.694 114.927 192.138 107.037 188.757 103.343Z" fill="url(#paint23_linear_203_84)"/>
<g style="mix-blend-mode:lighten">
<path d="M94.5758 171.208C94.0056 171.224 93.4409 171.093 92.9353 170.829L56.0061 149.502C55.7926 149.401 55.6109 149.244 55.481 149.047C55.351 148.85 55.2779 148.621 55.2695 148.386C55.2981 148.091 55.4039 147.808 55.5763 147.567C55.7488 147.326 55.9817 147.135 56.2516 147.013L92.6787 125.976C93.2467 125.66 93.8811 125.482 94.5306 125.457C95.1801 125.432 95.8265 125.56 96.4173 125.831L133.335 147.158C133.55 147.258 133.733 147.415 133.865 147.611C133.997 147.808 134.072 148.037 134.083 148.274C134.052 148.57 133.944 148.852 133.77 149.093C133.596 149.334 133.361 149.525 133.09 149.647L96.6628 170.684C96.0229 171.033 95.3047 171.213 94.5758 171.208V171.208ZM93.2143 170.327C93.7161 170.547 94.2616 170.649 94.809 170.626C95.3564 170.602 95.8913 170.454 96.3727 170.193L132.811 149.156C133.246 148.899 133.503 148.575 133.503 148.274C133.487 148.142 133.437 148.017 133.359 147.909C133.281 147.802 133.177 147.716 133.056 147.66L96.1271 126.344C95.6251 126.123 95.0788 126.022 94.5309 126.047C93.9831 126.072 93.4485 126.223 92.9688 126.489L56.5418 147.515C56.0954 147.772 55.8387 148.095 55.8387 148.397C55.8548 148.529 55.9043 148.654 55.9824 148.762C56.0605 148.869 56.1646 148.955 56.2851 149.011L93.2143 170.327Z" fill="#8686F2"/>
</g>
<path d="M133.793 132.728V137.259L94.5869 159.903L55.3699 137.259V132.728H133.793Z" fill="url(#paint24_linear_203_84)"/>
<path d="M94.5869 155.372L55.3699 132.728L94.5758 110.095L133.793 132.728L94.5869 155.372Z" fill="#66DBFF"/>
<path d="M94.5869 154.847L55.8274 132.471L55.3699 132.728L94.5869 155.372L133.793 132.728L133.335 132.471L94.5869 154.847Z" fill="white"/>
<path d="M94.5873 150.149L64.4211 132.739L94.5761 115.329L124.742 132.739L94.5873 150.149Z" fill="#0F054C"/>
<path opacity="0.5" d="M94.5873 150.149L64.4211 132.739L94.5761 115.329L124.742 132.739L94.5873 150.149Z" fill="url(#paint25_linear_203_84)"/>
<path opacity="0.5" d="M94.5759 110.932L124.742 128.353V132.739L94.5759 115.329V110.932Z" fill="url(#paint26_linear_203_84)"/>
<path opacity="0.5" d="M94.5873 115.329L64.4211 132.739V128.342L94.5761 110.932L94.5873 115.329Z" fill="url(#paint27_linear_203_84)"/>
<path opacity="0.5" d="M94.5873 145.763L64.4211 128.342L94.5761 110.932L124.742 128.353L94.5873 145.763Z" fill="url(#paint28_linear_203_84)"/>
<path opacity="0.5" d="M94.5761 135.306L82.5342 128.342L94.5761 121.389L106.629 128.353L94.5761 135.306Z" fill="#42E8E0"/>
<path opacity="0.5" d="M94.5761 122.025L106.082 128.666L106.629 128.353L94.5761 121.389L82.5342 128.342L83.081 128.666L94.5761 122.025Z" fill="#42E8E0"/>
<path opacity="0.5" d="M94.5872 145.763V150.149L124.742 132.739V128.353L94.5872 145.763Z" fill="url(#paint29_linear_203_84)"/>
<path opacity="0.5" d="M64.4211 128.342V132.739L94.5873 150.149V145.763L64.4211 128.342Z" fill="url(#paint30_linear_203_84)"/>
<path opacity="0.8" d="M94.5873 145.283L64.8341 128.108L64.4211 128.342L94.5873 145.763L124.742 128.353L124.329 128.108L94.5873 145.283Z" fill="#42E8E0"/>
<g style="mix-blend-mode:lighten">
<path d="M251.667 171.208C251.097 171.224 250.532 171.093 250.027 170.829L213.098 149.502C212.884 149.401 212.702 149.244 212.573 149.047C212.443 148.85 212.369 148.621 212.361 148.386C212.39 148.091 212.495 147.808 212.668 147.567C212.84 147.326 213.073 147.135 213.343 147.013L249.781 125.976C250.347 125.66 250.98 125.482 251.628 125.457C252.275 125.432 252.92 125.56 253.509 125.831L290.438 147.158C290.65 147.26 290.83 147.418 290.96 147.615C291.09 147.811 291.164 148.039 291.175 148.274C291.146 148.569 291.04 148.851 290.868 149.092C290.695 149.333 290.462 149.524 290.193 149.647L253.777 170.684C253.13 171.037 252.404 171.217 251.667 171.208V171.208ZM250.317 170.327C250.817 170.546 251.361 170.649 251.906 170.625C252.452 170.602 252.985 170.454 253.464 170.193L289.902 149.156C290.338 148.899 290.605 148.575 290.605 148.274C290.589 148.141 290.539 148.014 290.458 147.906C290.378 147.799 290.271 147.714 290.148 147.66L253.219 126.344C252.717 126.123 252.17 126.022 251.622 126.047C251.075 126.072 250.54 126.223 250.06 126.489L213.6 147.515C213.165 147.772 212.897 148.095 212.897 148.397C212.913 148.53 212.964 148.657 213.044 148.765C213.124 148.872 213.231 148.957 213.354 149.011L250.317 170.327Z" fill="#8686F2"/>
</g>
<path d="M290.884 132.728V137.259L251.678 159.903L212.461 137.259V132.728H290.884Z" fill="url(#paint31_linear_203_84)"/>
<path d="M251.678 155.372L212.461 132.728L251.678 110.095L290.884 132.728L251.678 155.372Z" fill="#66DBFF"/>
<path d="M251.678 154.847L212.919 132.471L212.461 132.728L251.678 155.372L290.884 132.728L290.427 132.471L251.678 154.847Z" fill="white"/>
<path d="M251.679 150.149L221.512 132.739L251.679 115.329L281.834 132.739L251.679 150.149Z" fill="#0F054C"/>
<path opacity="0.5" d="M251.679 150.149L221.512 132.739L251.679 115.329L281.834 132.739L251.679 150.149Z" fill="url(#paint32_linear_203_84)"/>
<path opacity="0.5" d="M251.678 110.932L281.833 128.353V132.739L251.678 115.329V110.932Z" fill="url(#paint33_linear_203_84)"/>
<path opacity="0.5" d="M251.679 115.329L221.512 132.739V128.342L251.679 110.932V115.329Z" fill="url(#paint34_linear_203_84)"/>
<path opacity="0.5" d="M251.679 145.763L221.512 128.342L251.679 110.932L281.834 128.353L251.679 145.763Z" fill="url(#paint35_linear_203_84)"/>
<path opacity="0.5" d="M251.679 135.306L239.625 128.342L251.679 121.389L263.732 128.353L251.679 135.306Z" fill="#42E8E0"/>
<path opacity="0.5" d="M251.679 122.025L263.174 128.666L263.732 128.353L251.679 121.389L239.625 128.342L240.172 128.666L251.679 122.025Z" fill="#42E8E0"/>
<path opacity="0.5" d="M251.678 145.763V150.149L281.833 132.739V128.353L251.678 145.763Z" fill="url(#paint36_linear_203_84)"/>
<path opacity="0.5" d="M221.512 128.342V132.739L251.679 150.149V145.763L221.512 128.342Z" fill="url(#paint37_linear_203_84)"/>
<path opacity="0.8" d="M251.679 145.283L221.925 128.108L221.512 128.342L251.679 145.763L281.834 128.353L281.421 128.108L251.679 145.283Z" fill="#42E8E0"/>
<g style="mix-blend-mode:lighten">
<path d="M251.667 274.217C251.096 274.229 250.531 274.095 250.027 273.827L213.098 252.511C212.885 252.409 212.704 252.252 212.574 252.055C212.444 251.858 212.371 251.63 212.361 251.395C212.392 251.102 212.498 250.822 212.671 250.583C212.843 250.344 213.075 250.154 213.343 250.033L249.781 228.996C250.346 228.675 250.979 228.494 251.627 228.469C252.276 228.444 252.921 228.575 253.509 228.851L290.438 250.134C290.649 250.237 290.829 250.395 290.959 250.591C291.088 250.787 291.163 251.015 291.175 251.25C291.145 251.544 291.039 251.826 290.866 252.067C290.694 252.308 290.462 252.499 290.193 252.622L253.777 273.693C253.13 274.045 252.404 274.226 251.667 274.217V274.217ZM250.317 273.336C250.817 273.556 251.362 273.658 251.908 273.633C252.454 273.608 252.986 273.456 253.464 273.191L289.902 252.154C290.086 252.075 290.248 251.95 290.371 251.792C290.494 251.634 290.574 251.447 290.605 251.25C290.59 251.116 290.54 250.989 290.46 250.881C290.379 250.773 290.272 250.688 290.148 250.636L253.219 229.342C252.715 229.127 252.17 229.028 251.623 229.054C251.076 229.079 250.542 229.227 250.06 229.487L213.6 250.524C213.165 250.781 212.897 251.104 212.897 251.395C212.911 251.53 212.961 251.659 213.041 251.769C213.122 251.879 213.23 251.965 213.354 252.02L250.317 273.336Z" fill="#8686F2"/>
</g>
<path d="M290.884 235.737V240.268L251.678 262.912L212.461 240.268V235.737H290.884Z" fill="url(#paint38_linear_203_84)"/>
<path d="M251.678 258.381L212.461 235.737L251.678 213.093L290.884 235.737L251.678 258.381Z" fill="#66DBFF"/>
<path d="M251.678 257.845L212.919 235.469L212.461 235.737L251.678 258.381L290.884 235.737L290.427 235.469L251.678 257.845Z" fill="white"/>
<path d="M251.679 253.158L221.512 235.737L251.679 218.327L281.834 235.737L251.679 253.158Z" fill="#0F054C"/>
<path opacity="0.5" d="M251.679 253.158L221.512 235.737L251.679 218.327L281.834 235.748L251.679 253.158Z" fill="url(#paint39_linear_203_84)"/>
<path opacity="0.5" d="M251.678 213.93L281.833 231.351V235.737L251.678 218.327V213.93Z" fill="url(#paint40_linear_203_84)"/>
<path opacity="0.5" d="M251.679 218.327L221.512 235.737V231.351L251.679 213.93V218.327Z" fill="url(#paint41_linear_203_84)"/>
<path opacity="0.5" d="M251.679 248.761L221.512 231.351L251.679 213.93L281.834 231.351L251.679 248.761Z" fill="url(#paint42_linear_203_84)"/>
<path opacity="0.5" d="M251.679 238.304L239.625 231.351L251.679 224.387L263.732 231.351L251.679 238.304Z" fill="#42E8E0"/>
<path opacity="0.5" d="M251.679 225.034L263.174 231.675L263.732 231.351L251.679 224.387L239.625 231.351L240.172 231.675L251.679 225.034Z" fill="#42E8E0"/>
<path opacity="0.5" d="M251.678 248.761V253.158L281.833 235.737V231.351L251.678 248.761Z" fill="url(#paint43_linear_203_84)"/>
<path opacity="0.5" d="M221.512 231.351V235.737L251.679 253.158V248.761L221.512 231.351Z" fill="url(#paint44_linear_203_84)"/>
<path opacity="0.8" d="M251.679 248.281L221.925 231.105L221.512 231.351L251.679 248.761L281.834 231.351L281.421 231.116L251.679 248.281Z" fill="#42E8E0"/>
<g style="mix-blend-mode:lighten">
<path d="M94.5758 274.217C94.0046 274.229 93.4399 274.095 92.9353 273.827L56.0061 252.511C55.7934 252.409 55.6124 252.252 55.4826 252.055C55.3528 251.858 55.2791 251.63 55.2695 251.395C55.3 251.102 55.4067 250.822 55.579 250.583C55.7513 250.344 55.9832 250.154 56.2516 250.033L92.6787 228.996C93.2449 228.675 93.8798 228.494 94.5303 228.469C95.1808 228.444 95.8279 228.575 96.4173 228.851L133.335 250.134C133.549 250.234 133.732 250.391 133.864 250.588C133.995 250.785 134.071 251.013 134.083 251.25C134.051 251.545 133.943 251.827 133.769 252.068C133.595 252.309 133.36 252.5 133.09 252.622L96.6628 273.659C96.026 274.02 95.3077 274.212 94.5758 274.217V274.217ZM93.2143 273.336C93.7164 273.556 94.2626 273.658 94.8105 273.633C95.3583 273.608 95.893 273.456 96.3727 273.191L132.811 252.154C132.992 252.082 133.151 251.963 133.273 251.811C133.394 251.658 133.474 251.476 133.503 251.283C133.488 251.151 133.439 251.025 133.36 250.917C133.282 250.81 133.177 250.724 133.056 250.669L96.1271 229.342C95.6239 229.126 95.0783 229.027 94.5314 229.052C93.9844 229.077 93.4501 229.226 92.9688 229.487L56.5418 250.524C56.0954 250.781 55.8387 251.104 55.8387 251.395C55.853 251.528 55.9016 251.656 55.9798 251.766C56.058 251.875 56.1631 251.963 56.2851 252.02L93.2143 273.336Z" fill="#8686F2"/>
</g>
<path d="M133.793 235.737V240.268L94.5869 262.912L55.3699 240.268V235.737H133.793Z" fill="url(#paint45_linear_203_84)"/>
<path d="M94.5869 258.381L55.3699 235.737L94.5758 213.093L133.793 235.737L94.5869 258.381Z" fill="#66DBFF"/>
<path d="M94.5869 257.845L55.8274 235.469L55.3699 235.737L94.5869 258.381L133.793 235.737L133.335 235.469L94.5869 257.845Z" fill="white"/>
<path d="M94.5873 253.158L64.4211 235.737L94.5761 218.327L124.742 235.737L94.5873 253.158Z" fill="#0F054C"/>
<path opacity="0.5" d="M94.5873 253.158L64.4211 235.737L94.5761 218.327L124.742 235.748L94.5873 253.158Z" fill="url(#paint46_linear_203_84)"/>
<path opacity="0.5" d="M94.5759 213.93L124.742 231.351V235.737L94.5759 218.327V213.93Z" fill="url(#paint47_linear_203_84)"/>
<path opacity="0.5" d="M94.5873 218.327L64.4211 235.737V231.351L94.5761 213.93L94.5873 218.327Z" fill="url(#paint48_linear_203_84)"/>
<path opacity="0.5" d="M94.5873 248.761L64.4211 231.351L94.5761 213.93L124.742 231.351L94.5873 248.761Z" fill="url(#paint49_linear_203_84)"/>
<path opacity="0.5" d="M94.5761 238.304L82.5342 231.351L94.5761 224.387L106.629 231.351L94.5761 238.304Z" fill="#42E8E0"/>
<path opacity="0.5" d="M94.5761 225.034L106.082 231.675L106.629 231.351L94.5761 224.387L82.5342 231.351L83.081 231.675L94.5761 225.034Z" fill="#42E8E0"/>
<path opacity="0.5" d="M94.5872 248.761V253.158L124.742 235.737V231.351L94.5872 248.761Z" fill="url(#paint50_linear_203_84)"/>
<path opacity="0.5" d="M64.4211 231.351V235.737L94.5873 253.158V248.761L64.4211 231.351Z" fill="url(#paint51_linear_203_84)"/>
<path opacity="0.8" d="M94.5873 248.281L64.8341 231.105L64.4211 231.351L94.5873 248.761L124.742 231.351L124.329 231.116L94.5873 248.281Z" fill="#42E8E0"/>
<g opacity="0.5">
<path opacity="0.5" d="M61.709 19.2841C88.7949 11.126 104.921 41.8278 89.0851 71.4247C75.6928 96.5464 42.904 114.682 34.333 88.299C29.2997 72.7863 33.4736 34.7299 59.0975 20.4001C52.2005 23.9714 47.1226 29.027 42.1563 37.2968C51.609 48.9257 52.379 49.8743 60.5372 59.2601C70.2019 36.4262 70.9943 34.5625 78.1369 19.0832C72.8225 17.1408 66.9827 17.2003 61.709 19.2506V19.2841ZM59.8006 20.0654L59.1868 20.3555L59.8006 20.0654ZM61.1845 19.485L61.6309 19.3065L61.1845 19.485ZM60.5372 19.7529L59.9011 20.0319L60.5372 19.7529ZM60.5372 19.7529L61.0506 19.5408L60.5372 19.7529Z" fill="#00BDFF"/>
<path d="M15.8962 48.4012C17.481 46.7383 19.1774 45.0531 20.9742 43.5018V122.516C19.1737 124.123 17.481 125.756 15.8962 127.416V48.4012Z" fill="#00BDFF"/>
<path d="M7.77173 86.4798C8.91748 84.6709 10.158 82.9238 11.4881 81.2457V132.482C10.158 134.16 8.91748 135.908 7.77173 137.716V86.4798Z" fill="#00BDFF"/>
<path opacity="0.5" d="M0.506104 146.042L0.584233 146.221L0.684637 141.031L0.506104 140.763V146.042V146.042ZM0.506104 161.32V82.306C0.506104 81.8038 0.506104 81.2904 0.506104 80.7882C0.652979 77.1724 1.2797 73.5921 2.36984 70.1414V149.156C1.28072 152.607 0.654029 156.187 0.506104 159.803C0.506104 160.316 0.506104 160.818 0.506104 161.32Z" fill="#00BDFF"/>
<path d="M0.506104 146.042L0.584225 146.221L0.684667 141.031L0.506104 140.752V146.042Z" fill="#00BDFF"/>
<path d="M59.187 20.3555H59.0977H59.187ZM61.6311 19.3065H61.7092H61.6311ZM59.9012 20.0319H59.8008H59.9012ZM61.0173 19.5409H61.1512L61.0173 19.5967V19.5409Z" fill="#00BDFF"/>
<path d="M60.5374 19.7529C66.0915 17.2325 72.4155 17.0039 78.1371 19.1168C68.0929 41.3814 66.9768 43.6693 60.5374 59.2936C50.5824 47.7204 49.0535 45.9013 42.1565 37.3303C44.0984 34.0826 50.0467 24.2058 60.5374 19.7864V19.7529Z" fill="#00BDFF"/>
<path opacity="0.5" d="M123.202 214.131C115.066 216.541 109.81 211.597 107.946 210.135C93.0247 197.502 79.9561 182.09 64.979 169.512C60.5149 165.796 57.8476 167.28 56.3075 167.738C28.4069 178.82 28.4069 178.82 23.9428 172.057C15.7401 157.548 15.4611 156.354 11.6666 147.281C10.7961 145.205 7.83864 142.069 6.52173 142.236C0.260837 144 1.09785 145.283 0.517517 146.042V140.763C7.89443 137.917 8.66449 137.571 11.6777 144.446C25.4718 173.719 27.8935 173.061 31.1077 172.347C60.4926 160.606 60.1243 161.454 67.6128 169.244C80.5699 182.726 106.674 208.986 114.765 211.084C117.696 211.332 120.648 211.121 123.514 210.459C151.873 200.95 163.133 194.98 190.889 183.027L193.378 187.056C183.099 191.52 152.085 203.796 123.47 212.724L123.202 214.131ZM211.859 245.993V166.967C203.132 167.459 194.241 167.671 185.186 167.604C82.5117 166.8 0.4729 128.744 0.4729 82.3059V161.32C0.4729 207.769 82.4894 245.814 185.186 246.629C194.226 246.696 203.117 246.484 211.859 245.993Z" fill="#00BDFF"/>
<path d="M123.202 214.131C115.892 215.994 108.984 217.769 65.9612 171.487C60.515 166.019 60.515 166.019 32.5809 177.157C29.4114 177.927 24.6237 179.087 11.3765 147.582C7.30298 138.286 0.506415 145.953 0.439453 146.042V140.763C2.2626 139.624 4.27252 138.815 6.3767 138.375C7.00979 138.185 7.69142 138.24 8.28513 138.531C9.21143 139.022 10.1488 140.116 11.7782 143.587C19.4118 159.791 19.4118 159.791 24.992 168.664C28.2173 173.463 28.2173 173.463 54.4438 163.084C56.2295 162.604 59.957 161.599 65.6041 166.086C81.3958 178.675 94.2412 194.433 109.832 207.245C115.68 211.408 119.218 213.941 190.945 183.027L193.433 187.056C183.155 191.52 151.895 205.169 123.314 214.175L123.202 214.131Z" fill="#00BDFF"/>
</g>
<defs>
<linearGradient id="paint0_linear_203_84" x1="101.06" y1="256.06" x2="244.491" y2="256.06" gradientUnits="userSpaceOnUse">
<stop stop-color="#5724D7"/>
<stop offset="0.06" stop-color="#5537D8"/>
<stop offset="0.24" stop-color="#4F6DDA"/>
<stop offset="0.41" stop-color="#4A99DC"/>
<stop offset="0.58" stop-color="#47BBDE"/>
<stop offset="0.74" stop-color="#44D4DF"/>
<stop offset="0.88" stop-color="#43E3E0"/>
<stop offset="1" stop-color="#42E8E0"/>
</linearGradient>
<linearGradient id="paint1_linear_203_84" x1="101.06" y1="243.515" x2="244.491" y2="243.515" gradientUnits="userSpaceOnUse">
<stop stop-color="#5724D7"/>
<stop offset="0.06" stop-color="#5537D8"/>
<stop offset="0.24" stop-color="#4F6DDA"/>
<stop offset="0.41" stop-color="#4A99DC"/>
<stop offset="0.58" stop-color="#47BBDE"/>
<stop offset="0.74" stop-color="#44D4DF"/>
<stop offset="0.88" stop-color="#43E3E0"/>
<stop offset="1" stop-color="#42E8E0"/>
</linearGradient>
<linearGradient id="paint2_linear_203_84" x1="101.06" y1="232.478" x2="244.491" y2="232.478" gradientUnits="userSpaceOnUse">
<stop stop-color="#5724D7"/>
<stop offset="0.06" stop-color="#5537D8"/>
<stop offset="0.24" stop-color="#4F6DDA"/>
<stop offset="0.41" stop-color="#4A99DC"/>
<stop offset="0.58" stop-color="#47BBDE"/>
<stop offset="0.74" stop-color="#44D4DF"/>
<stop offset="0.88" stop-color="#43E3E0"/>
<stop offset="1" stop-color="#42E8E0"/>
</linearGradient>
<linearGradient id="paint3_linear_203_84" x1="101.06" y1="221.441" x2="244.491" y2="221.441" gradientUnits="userSpaceOnUse">
<stop stop-color="#5724D7"/>
<stop offset="0.06" stop-color="#5537D8"/>
<stop offset="0.24" stop-color="#4F6DDA"/>
<stop offset="0.41" stop-color="#4A99DC"/>
<stop offset="0.58" stop-color="#47BBDE"/>
<stop offset="0.74" stop-color="#44D4DF"/>
<stop offset="0.88" stop-color="#43E3E0"/>
<stop offset="1" stop-color="#42E8E0"/>
</linearGradient>
<linearGradient id="paint4_linear_203_84" x1="101.06" y1="210.414" x2="244.491" y2="210.414" gradientUnits="userSpaceOnUse">
<stop stop-color="#5724D7"/>
<stop offset="0.06" stop-color="#5537D8"/>
<stop offset="0.24" stop-color="#4F6DDA"/>
<stop offset="0.41" stop-color="#4A99DC"/>
<stop offset="0.58" stop-color="#47BBDE"/>
<stop offset="0.74" stop-color="#44D4DF"/>
<stop offset="0.88" stop-color="#43E3E0"/>
<stop offset="1" stop-color="#42E8E0"/>
</linearGradient>
<linearGradient id="paint5_linear_203_84" x1="101.06" y1="226.965" x2="244.491" y2="226.965" gradientUnits="userSpaceOnUse">
<stop stop-color="#5724D7"/>
<stop offset="0.06" stop-color="#5537D8"/>
<stop offset="0.24" stop-color="#4F6DDA"/>
<stop offset="0.41" stop-color="#4A99DC"/>
<stop offset="0.58" stop-color="#47BBDE"/>
<stop offset="0.74" stop-color="#44D4DF"/>
<stop offset="0.88" stop-color="#43E3E0"/>
<stop offset="1" stop-color="#42E8E0"/>
</linearGradient>
<linearGradient id="paint6_linear_203_84" x1="101.06" y1="197.87" x2="244.491" y2="197.87" gradientUnits="userSpaceOnUse">
<stop stop-color="#5724D7"/>
<stop offset="0.06" stop-color="#5537D8"/>
<stop offset="0.24" stop-color="#4F6DDA"/>
<stop offset="0.41" stop-color="#4A99DC"/>
<stop offset="0.58" stop-color="#47BBDE"/>
<stop offset="0.74" stop-color="#44D4DF"/>
<stop offset="0.88" stop-color="#43E3E0"/>
<stop offset="1" stop-color="#42E8E0"/>
</linearGradient>
<linearGradient id="paint7_linear_203_84" x1="101.06" y1="186.833" x2="244.491" y2="186.833" gradientUnits="userSpaceOnUse">
<stop stop-color="#5724D7"/>
<stop offset="0.06" stop-color="#5537D8"/>
<stop offset="0.24" stop-color="#4F6DDA"/>
<stop offset="0.41" stop-color="#4A99DC"/>
<stop offset="0.58" stop-color="#47BBDE"/>
<stop offset="0.74" stop-color="#44D4DF"/>
<stop offset="0.88" stop-color="#43E3E0"/>
<stop offset="1" stop-color="#42E8E0"/>
</linearGradient>
<linearGradient id="paint8_linear_203_84" x1="101.06" y1="175.795" x2="244.491" y2="175.795" gradientUnits="userSpaceOnUse">
<stop stop-color="#5724D7"/>
<stop offset="0.06" stop-color="#5537D8"/>
<stop offset="0.24" stop-color="#4F6DDA"/>
<stop offset="0.41" stop-color="#4A99DC"/>
<stop offset="0.58" stop-color="#47BBDE"/>
<stop offset="0.74" stop-color="#44D4DF"/>
<stop offset="0.88" stop-color="#43E3E0"/>
<stop offset="1" stop-color="#42E8E0"/>
</linearGradient>
<linearGradient id="paint9_linear_203_84" x1="101.06" y1="164.769" x2="244.491" y2="164.769" gradientUnits="userSpaceOnUse">
<stop stop-color="#5724D7"/>
<stop offset="0.06" stop-color="#5537D8"/>
<stop offset="0.24" stop-color="#4F6DDA"/>
<stop offset="0.41" stop-color="#4A99DC"/>
<stop offset="0.58" stop-color="#47BBDE"/>
<stop offset="0.74" stop-color="#44D4DF"/>
<stop offset="0.88" stop-color="#43E3E0"/>
<stop offset="1" stop-color="#42E8E0"/>
</linearGradient>
<linearGradient id="paint10_linear_203_84" x1="101.06" y1="181.32" x2="244.491" y2="181.32" gradientUnits="userSpaceOnUse">
<stop stop-color="#5724D7"/>
<stop offset="0.06" stop-color="#5537D8"/>
<stop offset="0.24" stop-color="#4F6DDA"/>
<stop offset="0.41" stop-color="#4A99DC"/>
<stop offset="0.58" stop-color="#47BBDE"/>
<stop offset="0.74" stop-color="#44D4DF"/>
<stop offset="0.88" stop-color="#43E3E0"/>
<stop offset="1" stop-color="#42E8E0"/>
</linearGradient>
<linearGradient id="paint11_linear_203_84" x1="101.06" y1="164.769" x2="244.491" y2="164.769" gradientUnits="userSpaceOnUse">
<stop stop-color="#5724D7"/>
<stop offset="0.06" stop-color="#5537D8"/>
<stop offset="0.24" stop-color="#4F6DDA"/>
<stop offset="0.41" stop-color="#4A99DC"/>
<stop offset="0.58" stop-color="#47BBDE"/>
<stop offset="0.74" stop-color="#44D4DF"/>
<stop offset="0.88" stop-color="#43E3E0"/>
<stop offset="1" stop-color="#42E8E0"/>
</linearGradient>
<linearGradient id="paint12_linear_203_84" x1="101.06" y1="184.656" x2="244.491" y2="184.656" gradientUnits="userSpaceOnUse">
<stop stop-color="#5724D7"/>
<stop offset="0.06" stop-color="#5537D8"/>
<stop offset="0.24" stop-color="#4F6DDA"/>
<stop offset="0.41" stop-color="#4A99DC"/>
<stop offset="0.58" stop-color="#47BBDE"/>
<stop offset="0.74" stop-color="#44D4DF"/>
<stop offset="0.88" stop-color="#43E3E0"/>
<stop offset="1" stop-color="#42E8E0"/>
</linearGradient>
<linearGradient id="paint13_linear_203_84" x1="159.796" y1="135.752" x2="166.013" y2="135.752" gradientUnits="userSpaceOnUse">
<stop stop-color="#5761D7"/>
<stop offset="0.07" stop-color="#5472D8"/>
<stop offset="0.28" stop-color="#4E9CDB"/>
<stop offset="0.48" stop-color="#49BDDD"/>
<stop offset="0.67" stop-color="#45D5DF"/>
<stop offset="0.85" stop-color="#43E3E0"/>
<stop offset="1" stop-color="#42E8E0"/>
</linearGradient>
<linearGradient id="paint14_linear_203_84" x1="162.955" y1="122.114" x2="178.512" y2="122.114" gradientUnits="userSpaceOnUse">
<stop stop-color="#5761D7"/>
<stop offset="0.07" stop-color="#5472D8"/>
<stop offset="0.28" stop-color="#4E9CDB"/>
<stop offset="0.48" stop-color="#49BDDD"/>
<stop offset="0.67" stop-color="#45D5DF"/>
<stop offset="0.85" stop-color="#43E3E0"/>
<stop offset="1" stop-color="#42E8E0"/>
</linearGradient>
<linearGradient id="paint15_linear_203_84" x1="163.033" y1="106.791" x2="179.874" y2="106.791" gradientUnits="userSpaceOnUse">
<stop stop-color="#5761D7"/>
<stop offset="0.07" stop-color="#5472D8"/>
<stop offset="0.28" stop-color="#4E9CDB"/>
<stop offset="0.48" stop-color="#49BDDD"/>
<stop offset="0.67" stop-color="#45D5DF"/>
<stop offset="0.85" stop-color="#43E3E0"/>
<stop offset="1" stop-color="#42E8E0"/>
</linearGradient>
<linearGradient id="paint16_linear_203_84" x1="192.867" y1="162.124" x2="203.079" y2="161.205" gradientUnits="userSpaceOnUse">
<stop stop-color="#5761D7"/>
<stop offset="0.07" stop-color="#5472D8"/>
<stop offset="0.28" stop-color="#4E9CDB"/>
<stop offset="0.48" stop-color="#49BDDD"/>
<stop offset="0.67" stop-color="#45D5DF"/>
<stop offset="0.85" stop-color="#43E3E0"/>
<stop offset="1" stop-color="#42E8E0"/>
</linearGradient>
<linearGradient id="paint17_linear_203_84" x1="197.504" y1="81.3887" x2="198.944" y2="81.2591" gradientUnits="userSpaceOnUse">
<stop stop-color="#5761D7"/>
<stop offset="0.07" stop-color="#5472D8"/>
<stop offset="0.28" stop-color="#4E9CDB"/>
<stop offset="0.48" stop-color="#49BDDD"/>
<stop offset="0.67" stop-color="#45D5DF"/>
<stop offset="0.85" stop-color="#43E3E0"/>
<stop offset="1" stop-color="#42E8E0"/>
</linearGradient>
<linearGradient id="paint18_linear_203_84" x1="180.474" y1="134.551" x2="205.004" y2="132.343" gradientUnits="userSpaceOnUse">
<stop stop-color="#5761D7"/>
<stop offset="0.07" stop-color="#5472D8"/>
<stop offset="0.28" stop-color="#4E9CDB"/>
<stop offset="0.48" stop-color="#49BDDD"/>
<stop offset="0.67" stop-color="#45D5DF"/>
<stop offset="0.85" stop-color="#43E3E0"/>
<stop offset="1" stop-color="#42E8E0"/>
</linearGradient>
<linearGradient id="paint19_linear_203_84" x1="201.127" y1="103.395" x2="206.931" y2="102.873" gradientUnits="userSpaceOnUse">
<stop stop-color="#5761D7"/>
<stop offset="0.07" stop-color="#5472D8"/>
<stop offset="0.28" stop-color="#4E9CDB"/>
<stop offset="0.48" stop-color="#49BDDD"/>
<stop offset="0.67" stop-color="#45D5DF"/>
<stop offset="0.85" stop-color="#43E3E0"/>
<stop offset="1" stop-color="#42E8E0"/>
</linearGradient>
<linearGradient id="paint20_linear_203_84" x1="169.581" y1="158.651" x2="189.424" y2="156.865" gradientUnits="userSpaceOnUse">
<stop stop-color="#5761D7"/>
<stop offset="0.07" stop-color="#5472D8"/>
<stop offset="0.28" stop-color="#4E9CDB"/>
<stop offset="0.48" stop-color="#49BDDD"/>
<stop offset="0.67" stop-color="#45D5DF"/>
<stop offset="0.85" stop-color="#43E3E0"/>
<stop offset="1" stop-color="#42E8E0"/>
</linearGradient>
<linearGradient id="paint21_linear_203_84" x1="180.085" y1="150.483" x2="182.607" y2="150.256" gradientUnits="userSpaceOnUse">
<stop stop-color="#5761D7"/>
<stop offset="0.07" stop-color="#5472D8"/>
<stop offset="0.28" stop-color="#4E9CDB"/>
<stop offset="0.48" stop-color="#49BDDD"/>
<stop offset="0.67" stop-color="#45D5DF"/>
<stop offset="0.85" stop-color="#43E3E0"/>
<stop offset="1" stop-color="#42E8E0"/>
</linearGradient>
<linearGradient id="paint22_linear_203_84" x1="174.877" y1="146.114" x2="177.399" y2="145.887" gradientUnits="userSpaceOnUse">
<stop stop-color="#5761D7"/>
<stop offset="0.07" stop-color="#5472D8"/>
<stop offset="0.28" stop-color="#4E9CDB"/>
<stop offset="0.48" stop-color="#49BDDD"/>
<stop offset="0.67" stop-color="#45D5DF"/>
<stop offset="0.85" stop-color="#43E3E0"/>
<stop offset="1" stop-color="#42E8E0"/>
</linearGradient>
<linearGradient id="paint23_linear_203_84" x1="177.742" y1="123.827" x2="196.514" y2="122.138" gradientUnits="userSpaceOnUse">
<stop stop-color="#5761D7"/>
<stop offset="0.07" stop-color="#5472D8"/>
<stop offset="0.28" stop-color="#4E9CDB"/>
<stop offset="0.48" stop-color="#49BDDD"/>
<stop offset="0.67" stop-color="#45D5DF"/>
<stop offset="0.85" stop-color="#43E3E0"/>
<stop offset="1" stop-color="#42E8E0"/>
</linearGradient>
<linearGradient id="paint24_linear_203_84" x1="35.9734" y1="146.321" x2="136.482" y2="146.321" gradientUnits="userSpaceOnUse">
<stop stop-color="#443AD7"/>
<stop offset="0.1" stop-color="#4741D8"/>
<stop offset="0.26" stop-color="#4F55DC"/>
<stop offset="0.44" stop-color="#5C75E3"/>
<stop offset="0.65" stop-color="#6EA2EC"/>
<stop offset="0.87" stop-color="#85DAF8"/>
<stop offset="1" stop-color="#94FEFF"/>
</linearGradient>
<linearGradient id="paint25_linear_203_84" x1="64.4211" y1="132.739" x2="124.742" y2="132.739" gradientUnits="userSpaceOnUse">
<stop stop-color="#42E8E0"/>
<stop offset="0.15" stop-color="#43E3E0"/>
<stop offset="0.33" stop-color="#45D5DF"/>
<stop offset="0.52" stop-color="#49BDDD"/>
<stop offset="0.72" stop-color="#4E9CDB"/>
<stop offset="0.93" stop-color="#5472D8"/>
<stop offset="1" stop-color="#5761D7"/>
</linearGradient>
<linearGradient id="paint26_linear_203_84" x1="94.5759" y1="121.835" x2="124.742" y2="121.835" gradientUnits="userSpaceOnUse">
<stop stop-color="#42E8E0"/>
<stop offset="0.15" stop-color="#43E3E0"/>
<stop offset="0.33" stop-color="#45D5DF"/>
<stop offset="0.52" stop-color="#49BDDD"/>
<stop offset="0.72" stop-color="#4E9CDB"/>
<stop offset="0.93" stop-color="#5472D8"/>
<stop offset="1" stop-color="#5761D7"/>
</linearGradient>
<linearGradient id="paint27_linear_203_84" x1="64.4211" y1="121.835" x2="94.5761" y2="121.835" gradientUnits="userSpaceOnUse">
<stop stop-color="#42E8E0"/>
<stop offset="0.15" stop-color="#43E3E0"/>
<stop offset="0.33" stop-color="#45D5DF"/>
<stop offset="0.52" stop-color="#49BDDD"/>
<stop offset="0.72" stop-color="#4E9CDB"/>
<stop offset="0.93" stop-color="#5472D8"/>
<stop offset="1" stop-color="#5761D7"/>
</linearGradient>
<linearGradient id="paint28_linear_203_84" x1="64.4211" y1="128.342" x2="124.742" y2="128.342" gradientUnits="userSpaceOnUse">
<stop stop-color="#42E8E0"/>
<stop offset="0.15" stop-color="#43E3E0"/>
<stop offset="0.33" stop-color="#45D5DF"/>
<stop offset="0.52" stop-color="#49BDDD"/>
<stop offset="0.72" stop-color="#4E9CDB"/>
<stop offset="0.93" stop-color="#5472D8"/>
<stop offset="1" stop-color="#5761D7"/>
</linearGradient>
<linearGradient id="paint29_linear_203_84" x1="94.576" y1="139.245" x2="124.742" y2="139.245" gradientUnits="userSpaceOnUse">
<stop stop-color="#42E8E0"/>
<stop offset="0.15" stop-color="#43E3E0"/>
<stop offset="0.33" stop-color="#45D5DF"/>
<stop offset="0.52" stop-color="#49BDDD"/>
<stop offset="0.72" stop-color="#4E9CDB"/>
<stop offset="0.93" stop-color="#5472D8"/>
<stop offset="1" stop-color="#5761D7"/>
</linearGradient>
<linearGradient id="paint30_linear_203_84" x1="64.4211" y1="139.245" x2="94.5761" y2="139.245" gradientUnits="userSpaceOnUse">
<stop stop-color="#42E8E0"/>
<stop offset="0.15" stop-color="#43E3E0"/>
<stop offset="0.33" stop-color="#45D5DF"/>
<stop offset="0.52" stop-color="#49BDDD"/>
<stop offset="0.72" stop-color="#4E9CDB"/>
<stop offset="0.93" stop-color="#5472D8"/>
<stop offset="1" stop-color="#5761D7"/>
</linearGradient>
<linearGradient id="paint31_linear_203_84" x1="193.065" y1="146.321" x2="293.574" y2="146.321" gradientUnits="userSpaceOnUse">
<stop stop-color="#443AD7"/>
<stop offset="0.1" stop-color="#4741D8"/>
<stop offset="0.26" stop-color="#4F55DC"/>
<stop offset="0.44" stop-color="#5C75E3"/>
<stop offset="0.65" stop-color="#6EA2EC"/>
<stop offset="0.87" stop-color="#85DAF8"/>
<stop offset="1" stop-color="#94FEFF"/>
</linearGradient>
<linearGradient id="paint32_linear_203_84" x1="221.512" y1="132.739" x2="281.834" y2="132.739" gradientUnits="userSpaceOnUse">
<stop stop-color="#42E8E0"/>
<stop offset="0.15" stop-color="#43E3E0"/>
<stop offset="0.33" stop-color="#45D5DF"/>
<stop offset="0.52" stop-color="#49BDDD"/>
<stop offset="0.72" stop-color="#4E9CDB"/>
<stop offset="0.93" stop-color="#5472D8"/>
<stop offset="1" stop-color="#5761D7"/>
</linearGradient>
<linearGradient id="paint33_linear_203_84" x1="251.678" y1="121.835" x2="281.833" y2="121.835" gradientUnits="userSpaceOnUse">
<stop stop-color="#42E8E0"/>
<stop offset="0.15" stop-color="#43E3E0"/>
<stop offset="0.33" stop-color="#45D5DF"/>
<stop offset="0.52" stop-color="#49BDDD"/>
<stop offset="0.72" stop-color="#4E9CDB"/>
<stop offset="0.93" stop-color="#5472D8"/>
<stop offset="1" stop-color="#5761D7"/>
</linearGradient>
<linearGradient id="paint34_linear_203_84" x1="221.512" y1="121.835" x2="251.679" y2="121.835" gradientUnits="userSpaceOnUse">
<stop stop-color="#42E8E0"/>
<stop offset="0.15" stop-color="#43E3E0"/>
<stop offset="0.33" stop-color="#45D5DF"/>
<stop offset="0.52" stop-color="#49BDDD"/>
<stop offset="0.72" stop-color="#4E9CDB"/>
<stop offset="0.93" stop-color="#5472D8"/>
<stop offset="1" stop-color="#5761D7"/>
</linearGradient>
<linearGradient id="paint35_linear_203_84" x1="221.512" y1="128.342" x2="281.834" y2="128.342" gradientUnits="userSpaceOnUse">
<stop stop-color="#42E8E0"/>
<stop offset="0.15" stop-color="#43E3E0"/>
<stop offset="0.33" stop-color="#45D5DF"/>
<stop offset="0.52" stop-color="#49BDDD"/>
<stop offset="0.72" stop-color="#4E9CDB"/>
<stop offset="0.93" stop-color="#5472D8"/>
<stop offset="1" stop-color="#5761D7"/>
</linearGradient>
<linearGradient id="paint36_linear_203_84" x1="251.678" y1="139.245" x2="281.833" y2="139.245" gradientUnits="userSpaceOnUse">
<stop stop-color="#42E8E0"/>
<stop offset="0.15" stop-color="#43E3E0"/>
<stop offset="0.33" stop-color="#45D5DF"/>
<stop offset="0.52" stop-color="#49BDDD"/>
<stop offset="0.72" stop-color="#4E9CDB"/>
<stop offset="0.93" stop-color="#5472D8"/>
<stop offset="1" stop-color="#5761D7"/>
</linearGradient>
<linearGradient id="paint37_linear_203_84" x1="221.512" y1="139.245" x2="251.679" y2="139.245" gradientUnits="userSpaceOnUse">
<stop stop-color="#42E8E0"/>
<stop offset="0.15" stop-color="#43E3E0"/>
<stop offset="0.33" stop-color="#45D5DF"/>
<stop offset="0.52" stop-color="#49BDDD"/>
<stop offset="0.72" stop-color="#4E9CDB"/>
<stop offset="0.93" stop-color="#5472D8"/>
<stop offset="1" stop-color="#5761D7"/>
</linearGradient>
<linearGradient id="paint38_linear_203_84" x1="193.065" y1="249.319" x2="293.574" y2="249.319" gradientUnits="userSpaceOnUse">
<stop stop-color="#443AD7"/>
<stop offset="0.1" stop-color="#4741D8"/>
<stop offset="0.26" stop-color="#4F55DC"/>
<stop offset="0.44" stop-color="#5C75E3"/>
<stop offset="0.65" stop-color="#6EA2EC"/>
<stop offset="0.87" stop-color="#85DAF8"/>
<stop offset="1" stop-color="#94FEFF"/>
</linearGradient>
<linearGradient id="paint39_linear_203_84" x1="221.512" y1="235.737" x2="281.834" y2="235.737" gradientUnits="userSpaceOnUse">
<stop stop-color="#42E8E0"/>
<stop offset="0.15" stop-color="#43E3E0"/>
<stop offset="0.33" stop-color="#45D5DF"/>
<stop offset="0.52" stop-color="#49BDDD"/>
<stop offset="0.72" stop-color="#4E9CDB"/>
<stop offset="0.93" stop-color="#5472D8"/>
<stop offset="1" stop-color="#5761D7"/>
</linearGradient>
<linearGradient id="paint40_linear_203_84" x1="251.678" y1="224.833" x2="281.833" y2="224.833" gradientUnits="userSpaceOnUse">
<stop stop-color="#42E8E0"/>
<stop offset="0.15" stop-color="#43E3E0"/>
<stop offset="0.33" stop-color="#45D5DF"/>
<stop offset="0.52" stop-color="#49BDDD"/>
<stop offset="0.72" stop-color="#4E9CDB"/>
<stop offset="0.93" stop-color="#5472D8"/>
<stop offset="1" stop-color="#5761D7"/>
</linearGradient>
<linearGradient id="paint41_linear_203_84" x1="221.512" y1="224.833" x2="251.679" y2="224.833" gradientUnits="userSpaceOnUse">
<stop stop-color="#42E8E0"/>
<stop offset="0.15" stop-color="#43E3E0"/>
<stop offset="0.33" stop-color="#45D5DF"/>
<stop offset="0.52" stop-color="#49BDDD"/>
<stop offset="0.72" stop-color="#4E9CDB"/>
<stop offset="0.93" stop-color="#5472D8"/>
<stop offset="1" stop-color="#5761D7"/>
</linearGradient>
<linearGradient id="paint42_linear_203_84" x1="221.512" y1="231.351" x2="281.834" y2="231.351" gradientUnits="userSpaceOnUse">
<stop stop-color="#42E8E0"/>
<stop offset="0.15" stop-color="#43E3E0"/>
<stop offset="0.33" stop-color="#45D5DF"/>
<stop offset="0.52" stop-color="#49BDDD"/>
<stop offset="0.72" stop-color="#4E9CDB"/>
<stop offset="0.93" stop-color="#5472D8"/>
<stop offset="1" stop-color="#5761D7"/>
</linearGradient>
<linearGradient id="paint43_linear_203_84" x1="251.678" y1="242.254" x2="281.833" y2="242.254" gradientUnits="userSpaceOnUse">
<stop stop-color="#42E8E0"/>
<stop offset="0.15" stop-color="#43E3E0"/>
<stop offset="0.33" stop-color="#45D5DF"/>
<stop offset="0.52" stop-color="#49BDDD"/>
<stop offset="0.72" stop-color="#4E9CDB"/>
<stop offset="0.93" stop-color="#5472D8"/>
<stop offset="1" stop-color="#5761D7"/>
</linearGradient>
<linearGradient id="paint44_linear_203_84" x1="221.512" y1="242.254" x2="251.679" y2="242.254" gradientUnits="userSpaceOnUse">
<stop stop-color="#42E8E0"/>
<stop offset="0.15" stop-color="#43E3E0"/>
<stop offset="0.33" stop-color="#45D5DF"/>
<stop offset="0.52" stop-color="#49BDDD"/>
<stop offset="0.72" stop-color="#4E9CDB"/>
<stop offset="0.93" stop-color="#5472D8"/>
<stop offset="1" stop-color="#5761D7"/>
</linearGradient>
<linearGradient id="paint45_linear_203_84" x1="35.9734" y1="249.319" x2="136.482" y2="249.319" gradientUnits="userSpaceOnUse">
<stop stop-color="#443AD7"/>
<stop offset="0.1" stop-color="#4741D8"/>
<stop offset="0.26" stop-color="#4F55DC"/>
<stop offset="0.44" stop-color="#5C75E3"/>
<stop offset="0.65" stop-color="#6EA2EC"/>
<stop offset="0.87" stop-color="#85DAF8"/>
<stop offset="1" stop-color="#94FEFF"/>
</linearGradient>
<linearGradient id="paint46_linear_203_84" x1="64.4211" y1="235.737" x2="124.742" y2="235.737" gradientUnits="userSpaceOnUse">
<stop stop-color="#42E8E0"/>
<stop offset="0.15" stop-color="#43E3E0"/>
<stop offset="0.33" stop-color="#45D5DF"/>
<stop offset="0.52" stop-color="#49BDDD"/>
<stop offset="0.72" stop-color="#4E9CDB"/>
<stop offset="0.93" stop-color="#5472D8"/>
<stop offset="1" stop-color="#5761D7"/>
</linearGradient>
<linearGradient id="paint47_linear_203_84" x1="94.5759" y1="224.833" x2="124.742" y2="224.833" gradientUnits="userSpaceOnUse">
<stop stop-color="#42E8E0"/>
<stop offset="0.15" stop-color="#43E3E0"/>
<stop offset="0.33" stop-color="#45D5DF"/>
<stop offset="0.52" stop-color="#49BDDD"/>
<stop offset="0.72" stop-color="#4E9CDB"/>
<stop offset="0.93" stop-color="#5472D8"/>
<stop offset="1" stop-color="#5761D7"/>
</linearGradient>
<linearGradient id="paint48_linear_203_84" x1="64.4211" y1="224.833" x2="94.5761" y2="224.833" gradientUnits="userSpaceOnUse">
<stop stop-color="#42E8E0"/>
<stop offset="0.15" stop-color="#43E3E0"/>
<stop offset="0.33" stop-color="#45D5DF"/>
<stop offset="0.52" stop-color="#49BDDD"/>
<stop offset="0.72" stop-color="#4E9CDB"/>
<stop offset="0.93" stop-color="#5472D8"/>
<stop offset="1" stop-color="#5761D7"/>
</linearGradient>
<linearGradient id="paint49_linear_203_84" x1="64.4211" y1="231.351" x2="124.742" y2="231.351" gradientUnits="userSpaceOnUse">
<stop stop-color="#42E8E0"/>
<stop offset="0.15" stop-color="#43E3E0"/>
<stop offset="0.33" stop-color="#45D5DF"/>
<stop offset="0.52" stop-color="#49BDDD"/>
<stop offset="0.72" stop-color="#4E9CDB"/>
<stop offset="0.93" stop-color="#5472D8"/>
<stop offset="1" stop-color="#5761D7"/>
</linearGradient>
<linearGradient id="paint50_linear_203_84" x1="94.576" y1="242.254" x2="124.742" y2="242.254" gradientUnits="userSpaceOnUse">
<stop stop-color="#42E8E0"/>
<stop offset="0.15" stop-color="#43E3E0"/>
<stop offset="0.33" stop-color="#45D5DF"/>
<stop offset="0.52" stop-color="#49BDDD"/>
<stop offset="0.72" stop-color="#4E9CDB"/>
<stop offset="0.93" stop-color="#5472D8"/>
<stop offset="1" stop-color="#5761D7"/>
</linearGradient>
<linearGradient id="paint51_linear_203_84" x1="64.4211" y1="242.254" x2="94.5761" y2="242.254" gradientUnits="userSpaceOnUse">
<stop stop-color="#42E8E0"/>
<stop offset="0.15" stop-color="#43E3E0"/>
<stop offset="0.33" stop-color="#45D5DF"/>
<stop offset="0.52" stop-color="#49BDDD"/>
<stop offset="0.72" stop-color="#4E9CDB"/>
<stop offset="0.93" stop-color="#5472D8"/>
<stop offset="1" stop-color="#5761D7"/>
</linearGradient>
</defs>
</svg>
