<svg width="110" height="122" viewBox="0 0 110 122" fill="none" xmlns="http://www.w3.org/2000/svg">
<path d="M55.9468 0C56.9179 0.349879 57.736 1.02856 58.2591 1.91838C58.7823 2.8082 58.9776 3.85305 58.8112 4.87176C58.6984 6.40547 58.8112 7.95047 58.8112 9.48418C58.8143 9.98742 58.7166 10.4862 58.5237 10.951C58.3308 11.4159 58.0468 11.8373 57.6883 12.1905C57.3298 12.5437 56.9042 12.8215 56.4366 13.0075C55.969 13.1935 55.4688 13.2839 54.9657 13.2733C53.9696 13.2614 53.0185 12.8566 52.3195 12.147C51.6204 11.4373 51.2299 10.4803 51.2329 9.48418C51.2329 7.95047 51.3118 6.40547 51.2329 4.87176C51.0665 3.85305 51.2618 2.8082 51.7849 1.91838C52.3081 1.02856 53.1262 0.349879 54.0973 0H55.9468Z" fill="url(#paint0_linear_250_5952)"/>
<path d="M54.9432 121.185C52.4638 121.343 49.9763 121.321 47.5002 121.117C45.3618 120.763 43.4182 119.662 42.0143 118.01C40.6104 116.359 39.8372 114.263 39.8317 112.096C39.8317 111.385 39.8317 110.675 39.8317 109.964C39.9558 107.855 39.8317 105.995 38.0161 104.326C36.3922 102.848 36.0313 100.559 35.693 98.3712C34.5952 91.8257 31.6173 85.7407 27.1223 80.8577C20.5314 73.6783 16.9399 64.2477 17.0856 54.5028C17.2022 46.0029 20.1704 37.7884 25.5139 31.177C30.8573 24.5656 38.2665 19.9405 46.5529 18.0436C51.5889 16.8906 56.8074 16.7796 61.8878 17.7174C66.9682 18.6553 71.8032 20.6222 76.0956 23.4972C80.3879 26.3721 84.0471 30.0944 86.8481 34.4355C89.6491 38.7765 91.5328 43.6445 92.3835 48.7402C93.3926 54.3036 93.1132 60.0242 91.5669 65.4627C90.0206 70.9013 87.2484 75.9132 83.4632 80.1134C79.1554 84.8775 76.1049 90.6414 74.5881 96.8826C74.3513 98.0103 74.2385 99.0591 74.0129 100.142C73.5704 102.296 72.4805 104.263 70.8891 105.78C70.4882 106.218 70.2459 106.778 70.2012 107.37C70.111 108.904 70.2012 110.449 70.2012 111.983C70.1923 114.481 69.1966 116.875 67.4308 118.643C65.665 120.411 63.2722 121.41 60.7735 121.422C58.8451 121.422 56.9054 121.422 54.977 121.422L54.9432 121.185ZM45.459 71.9938C43.8408 72.1072 42.2167 72.1072 40.5985 71.9938C38.6591 71.7158 36.9038 70.6942 35.7042 69.1452C34.5045 67.5961 33.9545 65.6411 34.1705 63.6938C34.3863 61.7662 35.3286 59.9932 36.8058 58.7361C38.2829 57.479 40.1837 56.8322 42.121 56.9275C44.0744 57.032 45.912 57.8867 47.2505 59.3134C48.5889 60.7401 49.3248 62.6285 49.3046 64.5847C49.3046 65.8026 49.3046 67.0092 49.3046 68.2948H60.6833C60.6833 66.9641 60.6833 65.8252 60.6833 64.6749C60.6592 63.6656 60.8371 62.6616 61.2065 61.722C61.5758 60.7824 62.1292 59.926 62.8341 59.2032C63.5391 58.4804 64.3813 57.9058 65.3114 57.5131C66.2415 57.1203 67.2407 56.9174 68.2503 56.9162C69.2499 56.9176 70.2395 57.116 71.1625 57.4999C72.0854 57.8838 72.9238 58.4457 73.6296 59.1536C74.3354 59.8615 74.8948 60.7015 75.276 61.6256C75.6572 62.5497 75.8526 63.5399 75.8511 64.5396C75.8454 65.5488 75.6385 66.5467 75.2425 67.475C74.8465 68.4033 74.2693 69.2432 73.5448 69.9457C72.8202 70.6483 71.9628 71.1993 71.0227 71.5664C70.0826 71.9336 69.0787 72.1095 68.0698 72.084H64.5514V97.5029C66.2955 88.7377 70.3483 80.5971 76.2909 73.9222C79.0673 70.8215 81.1157 67.1396 82.2863 63.1456C83.457 59.1516 83.7204 54.9466 83.0573 50.8377C82.5251 47.0784 81.239 43.4652 79.2763 40.215C77.3135 36.9649 74.7144 34.1446 71.635 31.9235C68.5556 29.7024 65.0593 28.1262 61.3558 27.2895C57.6523 26.4527 53.8179 26.3726 50.0827 27.0541C39.3017 28.9937 31.8249 35.388 28.2274 45.7066C24.63 56.0253 26.705 65.4756 33.6969 73.832C37.7922 78.556 41.0218 83.9655 43.2374 89.8118C44.1509 92.3266 44.7937 94.9429 45.4929 97.2886L45.459 71.9938ZM60.6043 98.5629V72.1629H49.3271V98.5629H60.6043ZM45.5041 68.2498C45.5041 66.795 45.5718 65.4981 45.5041 64.2012C45.4402 63.225 44.9979 62.3123 44.2712 61.6573C43.5446 61.0023 42.5911 60.6567 41.6135 60.694C40.6795 60.7295 39.7908 61.1059 39.1154 61.7521C38.4401 62.3984 38.0249 63.2696 37.9484 64.2012C37.8728 65.1828 38.1846 66.155 38.8169 66.9096C39.4493 67.6641 40.3519 68.1412 41.3316 68.2385C42.6397 68.3512 44.0155 68.2498 45.5041 68.2498ZM64.4837 68.2498C65.8933 68.2498 67.1902 68.3061 68.4758 68.2498C68.9691 68.228 69.4533 68.1092 69.9007 67.9002C70.348 67.6911 70.7497 67.3958 71.0828 67.0313C71.4159 66.6668 71.6739 66.2401 71.8419 65.7758C72.0099 65.3114 72.0847 64.8186 72.062 64.3253C72.02 63.3699 71.6194 62.4655 70.94 61.7924C70.2607 61.1193 69.3526 60.7271 68.3969 60.694C67.4031 60.6633 66.4371 61.0245 65.7071 61.6996C64.9772 62.3746 64.5418 63.3096 64.495 64.3027C64.4386 65.5658 64.4837 66.8288 64.4837 68.261V68.2498Z" fill="url(#paint1_linear_250_5952)"/>
<path d="M6.6429 58.7995C5.65051 58.7995 4.6694 58.7995 3.68828 58.7995C2.71161 58.7706 1.78358 58.3667 1.09689 57.6716C0.410195 56.9765 0.0175937 56.0436 0.000623292 55.0667C-0.0175071 54.0696 0.360531 53.106 1.05182 52.3873C1.74311 51.6685 2.69124 51.2532 3.68828 51.2324C5.66179 51.2324 7.62403 51.2324 9.59755 51.2324C10.5749 51.2501 11.5065 51.6493 12.1935 52.3447C12.8804 53.04 13.2682 53.9765 13.2739 54.954C13.2951 55.9511 12.92 56.9159 12.2308 57.6368C11.5416 58.3577 10.5946 58.7758 9.59755 58.7995C8.61643 58.7995 7.62402 58.7995 6.6429 58.7995Z" fill="url(#paint2_linear_250_5952)"/>
<path d="M103.469 51.2099C104.416 51.2099 105.364 51.2099 106.311 51.2099C107.285 51.233 108.213 51.632 108.901 52.3235C109.588 53.015 109.981 53.9453 109.999 54.9201C110.012 55.4172 109.927 55.912 109.749 56.3762C109.571 56.8405 109.303 57.265 108.96 57.6255C108.618 57.9859 108.207 58.2751 107.753 58.4765C107.298 58.678 106.808 58.7877 106.311 58.7994C104.349 58.7994 102.375 58.7994 100.402 58.7994C99.908 58.7907 99.4209 58.6843 98.9686 58.4866C98.5162 58.2888 98.1074 58.0036 97.7657 57.6472C97.424 57.2908 97.1561 56.8704 96.9776 56.4101C96.799 55.9498 96.7132 55.4587 96.7252 54.9651C96.74 53.97 97.1458 53.0207 97.8548 52.3223C98.5638 51.6238 99.5191 51.2323 100.514 51.2324C101.495 51.1873 102.488 51.2099 103.469 51.2099Z" fill="url(#paint3_linear_250_5952)"/>
<path d="M19.5102 15.134C20.2586 15.4418 20.9667 15.8394 21.619 16.3181C22.961 17.4458 24.179 18.7878 25.4082 20.0622C25.7725 20.4126 26.0623 20.8328 26.2602 21.2979C26.4582 21.763 26.5602 22.2632 26.5602 22.7687C26.5602 23.2741 26.4582 23.7744 26.2602 24.2394C26.0623 24.7045 25.7725 25.1248 25.4082 25.4752C25.0593 25.8257 24.6445 26.1039 24.1878 26.2937C23.7311 26.4835 23.2413 26.5811 22.7468 26.5811C22.2522 26.5811 21.7625 26.4835 21.3057 26.2937C20.849 26.1039 20.4343 25.8257 20.0853 25.4752C18.7772 24.2234 17.4803 22.9379 16.2398 21.6184C15.6901 21.0933 15.3233 20.4057 15.1934 19.6567C15.0635 18.9076 15.1773 18.1367 15.5181 17.4571C16.1722 15.946 17.3788 15.2355 19.5102 15.134Z" fill="url(#paint4_linear_250_5952)"/>
<path d="M87.5797 26.6029C86.8112 26.6378 86.0489 26.4499 85.3847 26.0617C84.7205 25.6736 84.1826 25.1018 83.8356 24.4152C83.4744 23.7889 83.3233 23.0633 83.4045 22.3449C83.4856 21.6264 83.7948 20.9529 84.2867 20.423C85.6567 18.8933 87.1059 17.4365 88.6285 16.0587C89.3367 15.4399 90.2552 15.116 91.195 15.1538C92.1348 15.1915 93.0243 15.5881 93.6807 16.2618C94.3839 16.9188 94.8014 17.8254 94.8435 18.7869C94.8857 19.7484 94.5492 20.6881 93.9062 21.4042C92.5574 22.8958 91.1267 24.3114 89.6209 25.6443C88.9989 26.0758 88.3089 26.3998 87.5797 26.6029Z" fill="url(#paint5_linear_250_5952)"/>
<path d="M24.6977 87.8045C24.3831 88.554 23.9778 89.2623 23.4911 89.9134C22.3633 91.2554 21.0326 92.4733 19.747 93.7025C19.3981 94.053 18.9833 94.3312 18.5266 94.521C18.0699 94.7108 17.5802 94.8084 17.0856 94.8084C16.591 94.8084 16.1013 94.7108 15.6446 94.521C15.1878 94.3312 14.7731 94.053 14.4242 93.7025C14.0613 93.3513 13.7728 92.9307 13.5757 92.4658C13.3786 92.0008 13.2771 91.5009 13.2771 90.9959C13.2771 90.491 13.3786 89.9912 13.5757 89.5262C13.7728 89.0612 14.0613 88.6407 14.4242 88.2895C15.6872 86.9813 16.9616 85.6957 18.281 84.4439C18.8101 83.8997 19.4996 83.5393 20.2485 83.4155C20.9973 83.2917 21.7662 83.411 22.4423 83.756C23.9083 84.4665 24.5962 85.6956 24.6977 87.8045Z" fill="url(#paint6_linear_250_5952)"/>
<path d="M92.3384 94.8864C91.595 94.571 90.8911 94.1699 90.2408 93.6911C88.8988 92.5633 87.6809 91.2213 86.4517 89.9357C86.0988 89.5893 85.8184 89.176 85.6271 88.72C85.4357 88.264 85.3372 87.7745 85.3372 87.28C85.3372 86.7854 85.4357 86.2959 85.6271 85.8399C85.8184 85.3839 86.0988 84.9706 86.4517 84.6242C86.792 84.2584 87.2023 83.9646 87.6583 83.7602C88.1143 83.5559 88.6066 83.4452 89.1062 83.4347C89.6057 83.4241 90.1023 83.514 90.5665 83.699C91.0306 83.8839 91.4529 84.1602 91.8084 84.5114C93.1503 85.7857 94.4811 87.0939 95.7441 88.4471C96.2734 88.9921 96.6147 89.6921 96.7182 90.4447C96.8217 91.1974 96.6819 91.9634 96.3192 92.631C95.6764 94.0632 94.4698 94.7962 92.3384 94.8864Z" fill="url(#paint7_linear_250_5952)"/>
<defs>
<linearGradient id="paint0_linear_250_5952" x1="55.022" y1="0" x2="55.022" y2="13.2741" gradientUnits="userSpaceOnUse">
<stop stop-color="#0047FF"/>
<stop offset="1" stop-color="#00A3FF" stop-opacity="0.99"/>
</linearGradient>
<linearGradient id="paint1_linear_250_5952" x1="55.0294" y1="17.0879" x2="55.0294" y2="121.422" gradientUnits="userSpaceOnUse">
<stop stop-color="#0047FF"/>
<stop offset="1" stop-color="#00A3FF" stop-opacity="0.99"/>
</linearGradient>
<linearGradient id="paint2_linear_250_5952" x1="6.63738" y1="51.2324" x2="6.63738" y2="58.7995" gradientUnits="userSpaceOnUse">
<stop stop-color="#0047FF"/>
<stop offset="1" stop-color="#00A3FF" stop-opacity="0.99"/>
</linearGradient>
<linearGradient id="paint3_linear_250_5952" x1="103.362" y1="51.2042" x2="103.362" y2="58.7994" gradientUnits="userSpaceOnUse">
<stop stop-color="#0047FF"/>
<stop offset="1" stop-color="#00A3FF" stop-opacity="0.99"/>
</linearGradient>
<linearGradient id="paint4_linear_250_5952" x1="20.8507" y1="15.134" x2="20.8507" y2="26.5811" gradientUnits="userSpaceOnUse">
<stop stop-color="#0047FF"/>
<stop offset="1" stop-color="#00A3FF" stop-opacity="0.99"/>
</linearGradient>
<linearGradient id="paint5_linear_250_5952" x1="89.1151" y1="15.1508" x2="89.1151" y2="26.607" gradientUnits="userSpaceOnUse">
<stop stop-color="#0047FF"/>
<stop offset="1" stop-color="#00A3FF" stop-opacity="0.99"/>
</linearGradient>
<linearGradient id="paint6_linear_250_5952" x1="18.9874" y1="83.3679" x2="18.9874" y2="94.8084" gradientUnits="userSpaceOnUse">
<stop stop-color="#0047FF"/>
<stop offset="1" stop-color="#00A3FF" stop-opacity="0.99"/>
</linearGradient>
<linearGradient id="paint7_linear_250_5952" x1="91.0443" y1="83.4338" x2="91.0443" y2="94.8864" gradientUnits="userSpaceOnUse">
<stop stop-color="#0047FF"/>
<stop offset="1" stop-color="#00A3FF" stop-opacity="0.99"/>
</linearGradient>
</defs>
</svg>
