<svg width="124" height="123" viewBox="0 0 124 123" fill="none" xmlns="http://www.w3.org/2000/svg">
<path d="M109.514 0C113.812 4.27055 118.124 8.51342 122.381 12.8254C122.829 13.3329 123.075 13.987 123.072 14.6636C123.072 21.2836 123.072 27.9175 123.072 34.5376C123.072 36.1822 122.284 36.9147 120.584 36.9285H106.681C106.681 38.739 106.681 40.508 106.681 42.2771C106.712 42.8074 106.623 43.338 106.419 43.8287C106.216 44.3195 105.904 44.7578 105.506 45.1103C100.766 49.8093 96.0806 54.5497 91.3401 59.2349C91.2046 59.3271 91.0895 59.4459 91.0016 59.5842C90.9137 59.7225 90.8551 59.8773 90.8292 60.0391C90.8033 60.2008 90.8108 60.3662 90.8511 60.525C90.8914 60.6838 90.9638 60.8327 91.0637 60.9625C91.4846 61.8177 91.8494 62.6995 92.1555 63.6022C98.2642 63.6022 104.373 63.6022 110.482 63.6022C110.855 63.6022 111.338 63.0632 111.587 62.6624C112.082 61.787 112.784 61.0463 113.632 60.5052C114.479 59.9641 115.447 59.639 116.449 59.5586C117.451 59.4781 118.458 59.6446 119.381 60.0436C120.304 60.4426 121.115 61.0618 121.744 61.847C122.372 62.6323 122.798 63.5596 122.984 64.5477C123.171 65.5358 123.113 66.5546 122.814 67.5148C122.515 68.4751 121.986 69.3475 121.272 70.0557C120.558 70.7638 119.681 71.286 118.719 71.5767C117.407 71.9928 115.992 71.9453 114.711 71.442C113.43 70.9388 112.362 70.0104 111.684 68.8126C111.526 68.4554 111.255 68.1596 110.913 67.9701C110.572 67.7806 110.177 67.7076 109.791 67.7622C104.262 67.7622 98.8585 67.7622 93.3855 67.7622H92.2246L90.3727 71.9083C92.1555 71.9083 93.9245 71.9083 95.6798 71.9083C96.1964 71.8743 96.7139 71.9588 97.193 72.1552C97.672 72.3516 98.0998 72.6547 98.4439 73.0416C101.208 75.8887 104.096 78.5699 106.833 81.5136C107.69 82.3982 108.616 82.0941 109.597 82.1908C110.063 82.2885 110.549 82.2205 110.97 81.9985C111.391 81.7765 111.722 81.4143 111.905 80.9746C112.58 79.8097 113.635 78.9128 114.894 78.4346C116.152 77.9563 117.537 77.9261 118.815 78.3488C120.092 78.7352 121.208 79.5259 121.996 80.6019C122.784 81.6778 123.2 82.9808 123.183 84.3142C123.166 85.6476 122.716 86.9394 121.901 87.9947C121.085 89.0501 119.949 89.8119 118.663 90.1653C117.382 90.5436 116.011 90.4762 114.773 89.9741C113.536 89.472 112.505 88.565 111.85 87.4012C111.708 87.0085 111.427 86.6817 111.06 86.4829C110.693 86.2841 110.266 86.2272 109.86 86.3232C108.583 86.5449 107.27 86.4034 106.07 85.9146C104.87 85.4259 103.832 84.6096 103.074 83.5591C100.973 81.1405 98.5959 78.9845 96.3017 76.7317C95.9945 76.4037 95.5853 76.1895 95.1408 76.1237C90.8702 76.1237 86.5996 76.1237 82.1632 76.1237V82.3014C82.1632 83.5038 82.1632 84.6924 82.1632 85.8947C82.1632 87.7467 81.3064 88.5068 79.3991 88.4101C76.9033 88.2304 74.5577 87.1504 72.7985 85.3709C71.0393 83.5914 69.9863 81.2334 69.8353 78.7357C69.8353 77.9341 69.8353 77.1188 69.8353 76.2066H63.6022V87.0834C69.0199 89.502 74.3823 91.9482 79.7999 94.2562C80.5478 94.485 81.1901 94.9717 81.6128 95.6297C82.0354 96.2877 82.2109 97.0743 82.108 97.8496C81.9974 102.728 82.0389 107.524 82.108 112.472C82.1205 113.009 81.9646 113.536 81.6622 113.979C81.3598 114.423 80.9261 114.761 80.4219 114.946C74.5619 117.516 68.7435 120.17 62.8559 122.699C62.0451 123.003 61.1514 123.003 60.3406 122.699C54.453 120.17 48.6207 117.53 42.7608 114.959C42.2364 114.776 41.7871 114.424 41.4824 113.96C41.1776 113.495 41.0343 112.943 41.0747 112.389C41.0747 107.257 41.0747 102.129 41.0747 97.0065C41.0203 96.4305 41.163 95.853 41.4793 95.3685C41.7956 94.884 42.2669 94.5211 42.8161 94.3392C47.9712 92.0864 53.0986 89.7369 58.2675 87.5256C58.7172 87.4138 59.1086 87.1374 59.3645 86.751C59.6203 86.3647 59.722 85.8964 59.6496 85.4387C59.6496 82.3291 59.6496 79.2056 59.6496 75.9993C59.1658 75.9993 58.7512 75.9993 58.2675 75.9993C48.4411 75.9993 38.6008 75.9993 28.7744 75.9993C28.3991 75.9848 28.0251 76.0528 27.6789 76.1985C27.3327 76.3442 27.0226 76.5639 26.7704 76.8423C24.0754 79.6064 21.3113 82.2599 18.6301 85.024C18.2687 85.4709 17.801 85.8201 17.2699 86.0398C16.7388 86.2595 16.1611 86.3427 15.5896 86.2818C15.2855 86.2818 14.9815 86.2818 14.6913 86.2818C13.9714 86.1065 13.2147 86.1615 12.5279 86.4392C11.841 86.717 11.2587 87.2033 10.863 87.8297C10.2298 88.6958 9.37491 89.3753 8.38825 89.7967C7.40159 90.2181 6.3196 90.3659 5.25608 90.2245C4.19255 90.083 3.18678 89.6576 2.34455 88.993C1.50231 88.3284 0.854728 87.4491 0.469899 86.4476C0.317873 86.1021 0.152026 85.7704 0 85.4249V82.868C0.165847 82.4811 0.331692 82.0941 0.511359 81.721C0.933692 80.6841 1.64035 79.7876 2.54995 79.1347C3.45954 78.4818 4.53506 78.0992 5.65261 78.0308C6.77958 77.8703 7.92863 78.0617 8.94281 78.5786C9.95699 79.0956 10.7869 79.9131 11.319 80.9194C11.5091 81.356 11.8437 81.7138 12.2665 81.9328C12.6893 82.1518 13.1747 82.2185 13.6409 82.1218C14.5669 82.025 15.5067 82.3291 16.405 81.4446C19.1691 78.5975 21.9332 75.9163 24.6973 73.0693C25.0615 72.6531 25.5162 72.3258 26.0265 72.1126C26.5368 71.8993 27.0891 71.8059 27.6411 71.8393C29.3549 71.9222 31.0824 71.8393 32.8238 71.8393L30.9719 67.6931C24.9185 67.6931 18.8651 67.6931 12.7978 67.6931C12.5727 67.7359 12.3596 67.8274 12.1734 67.9611C11.9872 68.0947 11.8324 68.2674 11.7198 68.467C11.0411 69.7434 9.93705 70.7421 8.59918 71.2899C7.26132 71.8376 5.77396 71.8999 4.39494 71.4661C3.36879 71.1013 2.44528 70.4954 1.70211 69.6993C0.958935 68.9032 0.417852 67.9402 0.124385 66.8915V64.3347C0.22036 64.2048 0.303664 64.0659 0.373156 63.9201C0.692494 62.7085 1.38745 61.6292 2.3583 60.8371C3.32915 60.0451 4.52597 59.5809 5.777 59.5113C6.98885 59.426 8.19819 59.709 9.24639 60.3231C10.2946 60.9372 11.1327 61.8538 11.6507 62.9526C11.8021 63.1497 11.9939 63.3121 12.2132 63.4289C12.4325 63.5457 12.6742 63.6142 12.9222 63.6298C15.7831 63.6298 18.6439 63.6298 21.5048 63.6298H30.9304C31.2094 62.7456 31.5607 61.8858 31.9808 61.0592C32.0907 60.9214 32.1708 60.7623 32.2159 60.5919C32.2611 60.4215 32.2703 60.2436 32.243 60.0694C32.2157 59.8953 32.1525 59.7287 32.0574 59.5803C31.9623 59.4318 31.8374 59.3048 31.6905 59.2072C26.9501 54.5359 22.2649 49.7955 17.5383 45.1103C17.1497 44.767 16.8445 44.3396 16.6457 43.8606C16.4469 43.3817 16.3599 42.8638 16.3912 42.3462C16.3912 40.5772 16.3912 38.7943 16.3912 36.9147H15.0091C11.0012 36.9147 6.97938 36.9147 2.97142 36.9147C2.39777 36.9713 1.81943 36.8731 1.29675 36.63C0.774081 36.3869 0.326249 36.0078 0 35.5326V0H23.3429C23.6193 0.24877 23.9096 0.483689 24.1722 0.74628C28.1663 4.7266 32.1743 8.69309 36.0993 12.7425C36.6079 13.3522 36.8909 14.1185 36.9009 14.9124C36.9009 21.3666 36.9009 27.8208 36.9009 34.2611C36.9009 36.2513 36.2099 36.9285 34.1368 36.9285H20.4544C20.4544 38.6284 20.4544 40.1211 20.4544 41.6137C20.4721 41.9852 20.6132 42.3402 20.8552 42.6226C25.4621 47.2847 30.115 51.9331 34.814 56.5676C34.9677 56.6785 35.145 56.7525 35.332 56.7837C35.5189 56.8148 35.7106 56.8024 35.892 56.7472C36.8871 56.3879 37.8269 55.9179 38.822 55.4895C39.0293 49.519 45.8981 43.2307 52.2003 45.5802C52.373 45.6133 52.5511 45.6042 52.7196 45.5537C52.888 45.5032 53.0417 45.4126 53.1677 45.2899C54.6858 43.2547 56.8736 41.8207 59.3455 41.2405V36.9285H45.9672C43.6039 36.9285 43.0096 36.3342 43.0096 33.9847C43.0096 23.6469 43.0096 13.2539 43.0096 2.97137C42.9439 2.40543 43.0296 1.83221 43.2578 1.31019C43.486 0.788165 43.8487 0.336087 44.3087 0H66.4216C66.698 0.24877 66.9883 0.483689 67.2647 0.74628C71.245 4.7266 75.2668 8.69309 79.1918 12.7425C79.7015 13.3506 79.9804 14.1189 79.9796 14.9124C80.0487 21.3666 79.9796 27.8208 79.9796 34.2611C79.9796 36.2375 79.2747 36.9147 77.2155 36.9147H63.6575V41.2268C66.1587 41.8229 68.3645 43.2934 69.8768 45.3729C70.0426 45.5941 70.6093 45.6217 70.9824 45.6079C72.4479 45.4109 73.9272 45.3368 75.405 45.3867C79.4544 45.898 84.029 50.6661 84.2225 55.5724C85.1015 55.8872 85.96 56.2566 86.7931 56.6781C86.9134 56.777 87.0528 56.85 87.2026 56.8926C87.3524 56.9352 87.5093 56.9464 87.6636 56.9256C87.8179 56.9049 87.9663 56.8526 88.0995 56.7719C88.2327 56.6913 88.3479 56.5841 88.4378 56.457C92.9433 51.91 97.4902 47.3907 102.01 42.8437C102.291 42.599 102.485 42.2691 102.562 41.904C102.562 40.3008 102.562 38.6838 102.562 36.9838H89.1288C86.7655 36.9838 86.1712 36.3895 86.1712 34.0401C86.1712 23.7023 86.1712 13.3092 86.1712 3.02671C86.1056 2.45937 86.1927 1.8848 86.4235 1.3624C86.6544 0.840008 87.0205 0.388724 87.4842 0.0552519L109.514 0ZM77.9618 83.6835V82.3014C77.9618 79.5373 77.9618 76.9114 77.9618 74.2164C77.9166 73.8961 77.9459 73.5697 78.0475 73.2626C78.1492 72.9555 78.3204 72.676 78.5478 72.4459C78.7752 72.2159 79.0526 72.0414 79.3585 71.9362C79.6644 71.8309 79.9905 71.7978 80.3113 71.8393C80.947 71.8393 81.5966 71.8393 82.2324 71.8393C83.8504 71.754 85.3735 71.0488 86.4853 69.8701C87.5971 68.6914 88.2122 67.1297 88.2028 65.5094C88.1456 63.912 87.4715 62.399 86.322 61.2882C85.1726 60.1774 83.6373 59.5553 82.0389 59.5528C80.2837 59.5528 79.5373 58.53 79.7999 56.7886C79.9578 56.0856 79.9859 55.3596 79.8829 54.6465C79.6972 53.6574 79.2788 52.7267 78.6624 51.9313C78.046 51.1358 77.2492 50.4985 76.3378 50.0718C75.4264 49.6451 74.4265 49.4415 73.4208 49.4775C72.4152 49.5136 71.4325 49.7884 70.554 50.2792C70.278 50.488 69.9551 50.6259 69.6134 50.6807C69.2717 50.7356 68.9218 50.7058 68.5944 50.5939C68.2669 50.4821 67.9719 50.2915 67.7352 50.0391C67.4986 49.7866 67.3275 49.4799 67.237 49.1459C66.8187 47.9898 66.0513 46.9923 65.041 46.2915C64.0308 45.5908 62.8277 45.2215 61.5983 45.2347C60.3527 45.2014 59.1281 45.5595 58.0967 46.2586C57.0654 46.9578 56.2792 47.9627 55.8489 49.1321C55.7603 49.4692 55.5886 49.7787 55.3496 50.0324C55.1106 50.2861 54.8119 50.4759 54.4807 50.5845C54.1494 50.6931 53.7963 50.7169 53.4535 50.6539C53.1107 50.5909 52.7891 50.4431 52.5181 50.2239C51.604 49.5696 50.5024 49.2295 49.3786 49.2544C48.2547 49.2793 47.1693 49.668 46.2851 50.3621C44.2396 51.993 42.5535 53.8864 43.286 56.9131C43.3921 57.2314 43.4165 57.5714 43.357 57.9016C43.2975 58.2319 43.156 58.5419 42.9456 58.8033C42.7351 59.0646 42.4624 59.2689 42.1524 59.3975C41.8424 59.526 41.5051 59.5747 41.1715 59.539C39.5956 59.5131 38.0691 60.0891 36.9032 61.1497C35.7374 62.2102 35.0198 63.6755 34.8969 65.2468C34.8327 66.035 34.925 66.8281 35.1685 67.5805C35.412 68.3328 35.8019 69.0297 36.3156 69.6308C36.8294 70.2319 37.457 70.7255 38.1623 71.0832C38.8676 71.4409 39.6366 71.6556 40.4251 71.7149C44.0185 72.0051 47.6533 71.7149 51.2466 71.7149C51.6336 69.7386 51.4263 68.0524 49.6711 66.8224C49.0574 66.3537 48.5089 65.8053 48.0403 65.1916C47.6748 64.8412 47.4242 64.3882 47.3216 63.8924C47.2525 61.7641 47.3216 59.6495 47.3216 57.5212H51.3158C51.3591 57.6694 51.3823 57.8228 51.3849 57.9773C51.048 59.4953 51.178 61.0795 51.7576 62.5224C52.3372 63.9652 53.3394 65.1991 54.6327 66.0623C55.1448 66.612 55.4395 67.3292 55.4619 68.0801C55.5242 69.2955 55.5242 70.5133 55.4619 71.7287H59.6081V53.4303H63.7543V71.8116H67.9834C66.8639 68.0386 68.5224 65.5094 71.1897 63.3672C71.5874 62.9531 71.8187 62.407 71.8393 61.8332C71.9222 60.4511 71.8393 58.9723 71.8393 57.535H75.9855C75.9089 58.7592 75.9089 59.987 75.9855 61.2112C76.1885 62.2619 76.0733 63.3493 75.6548 64.3341C75.2362 65.319 74.5333 66.1565 73.636 66.7395C72.8544 67.2677 72.2676 68.0377 71.9655 68.9314C71.6635 69.8251 71.6628 70.7932 71.9637 71.6872C73.6498 72.3921 73.8986 72.7514 73.8986 74.631C73.8986 75.7781 73.8986 76.9391 73.8986 78.0862C73.9091 79.326 74.3062 80.5316 75.0345 81.535C75.7629 82.5384 76.7862 83.2894 77.9618 83.6835ZM4.15999 32.7823H32.7271V16.405H23.5502C21.0902 16.405 20.5235 15.8384 20.5235 13.406C20.5235 10.3516 20.5235 7.28338 20.5235 4.17375H4.15999V32.7823ZM63.5884 4.22909H47.2525V32.7962H75.8334V16.405H66.3111C64.2933 16.405 63.6161 15.7278 63.547 13.7376L63.5884 4.22909ZM90.3174 32.7823H118.898V16.405H109.721C107.261 16.405 106.695 15.8384 106.695 13.406V4.17375H90.3312L90.3174 32.7823ZM45.1794 111.56L59.4837 117.903C59.4837 113.978 59.4837 110.302 59.4837 106.626C59.4837 106.28 59 105.783 58.6268 105.617C54.4807 103.723 50.3345 101.885 46.1883 100.088C45.9257 99.9779 45.6493 99.9226 45.29 99.7982L45.1794 111.56ZM63.5884 117.724C63.7577 117.751 63.9305 117.751 64.0998 117.724C68.5085 115.775 72.9173 113.84 77.3122 111.836C77.4941 111.697 77.6429 111.52 77.7481 111.317C77.8532 111.114 77.9121 110.89 77.9203 110.661C77.9203 108.008 77.9203 105.354 77.9203 102.714V99.6601C74.0368 101.401 70.4434 103.212 66.698 104.58C64.1827 105.492 63.2014 106.75 63.4917 109.459C63.6782 112.201 63.7151 114.95 63.6022 117.696L63.5884 117.724ZM48.137 96.4398L56.1115 100.006C57.9082 100.793 59.7048 102.175 61.5015 102.175C63.2982 102.175 65.1916 100.793 67.0297 99.9917C69.5865 98.8861 72.1295 97.6975 74.8936 96.426L63.5055 91.3539V96.3569H59.4975V91.3954L48.137 96.4398ZM29.2858 12.245L24.6835 7.6704V12.1897L29.2858 12.245ZM67.8728 7.4493V12.2312H72.5718L67.8728 7.4493ZM110.827 7.15904V12.1897H115.858L110.827 7.15904ZM6.0534 67.6931C6.32388 67.7042 6.5939 67.6618 6.848 67.5685C7.10211 67.4752 7.33531 67.3326 7.53428 67.1491C7.73325 66.9655 7.89407 66.7446 8.00754 66.4988C8.12102 66.253 8.18492 65.9873 8.19559 65.7168C8.19975 65.1773 7.9948 64.6571 7.62374 64.2654C7.25269 63.8738 6.74437 63.641 6.20543 63.616C5.66628 63.6085 5.14568 63.8127 4.75547 64.1848C4.36526 64.5569 4.13657 65.0673 4.11853 65.6062C4.11099 66.1453 4.31521 66.6659 4.68734 67.0561C5.05946 67.4463 5.56979 67.675 6.10869 67.6931H6.0534ZM118.995 65.7168C118.998 65.3122 118.88 64.9159 118.658 64.5781C118.436 64.2402 118.118 63.9759 117.745 63.8185C117.372 63.6612 116.961 63.618 116.564 63.6942C116.167 63.7704 115.801 63.9628 115.513 64.2469C115.225 64.531 115.028 64.8941 114.946 65.2903C114.865 65.6866 114.902 66.0981 115.055 66.4729C115.207 66.8477 115.467 67.169 115.802 67.396C116.137 67.623 116.531 67.7456 116.936 67.7483C117.475 67.7414 117.991 67.526 118.375 67.1472C118.758 66.7685 118.981 66.2559 118.995 65.7168ZM6.10869 86.2127C6.64912 86.2166 7.16972 86.0093 7.55954 85.6349C7.94936 85.2606 8.17759 84.7488 8.19559 84.2087C8.20306 83.6709 7.99839 83.1518 7.6259 82.7638C7.25342 82.3758 6.74309 82.1501 6.20543 82.1356C5.66628 82.1281 5.14568 82.3323 4.75547 82.7044C4.36526 83.0765 4.13657 83.5869 4.11853 84.1258C4.12534 84.6553 4.33594 85.1619 4.70656 85.5403C5.07719 85.9186 5.57935 86.1396 6.10869 86.1573V86.2127ZM116.908 86.2127C117.312 86.2341 117.714 86.135 118.062 85.928C118.41 85.721 118.689 85.4152 118.863 85.0497C119.037 84.6841 119.099 84.2751 119.04 83.8745C118.982 83.4738 118.806 83.0995 118.534 82.799C118.263 82.4986 117.908 82.2854 117.516 82.1865C117.123 82.0877 116.71 82.1076 116.328 82.2437C115.947 82.3799 115.615 82.6262 115.374 82.9514C115.132 83.2766 114.993 83.6661 114.973 84.0705C114.969 84.5996 115.166 85.1104 115.526 85.4984C115.886 85.8864 116.38 86.1221 116.908 86.1573V86.2127Z" fill="url(#paint0_linear_250_5942)"/>
<path d="M22.6519 94.4359H26.6045V98.3747H22.6519V94.4359Z" fill="url(#paint1_linear_250_5942)"/>
<path d="M100.434 98.4577H96.5229V94.4635H100.434V98.4577Z" fill="url(#paint2_linear_250_5942)"/>
<path d="M22.6382 102.632H26.5909V106.612H22.6382V102.632Z" fill="url(#paint3_linear_250_5942)"/>
<path d="M30.8611 102.645H34.8138V106.584H30.8611V102.645Z" fill="url(#paint4_linear_250_5942)"/>
<path d="M92.2522 106.667H88.3271V102.673H92.2522V106.667Z" fill="url(#paint5_linear_250_5942)"/>
<path d="M96.4954 106.612V102.673H100.462V106.612H96.4954Z" fill="url(#paint6_linear_250_5942)"/>
<path d="M22.6519 110.841H26.6045V114.794H22.6519V110.841Z" fill="url(#paint7_linear_250_5942)"/>
<path d="M100.448 114.835H96.4954V110.896H100.448V114.835Z" fill="url(#paint8_linear_250_5942)"/>
<defs>
<linearGradient id="paint0_linear_250_5942" x1="61.5918" y1="0" x2="61.5918" y2="122.927" gradientUnits="userSpaceOnUse">
<stop stop-color="#0047FF"/>
<stop offset="1" stop-color="#00A3FF" stop-opacity="0.99"/>
</linearGradient>
<linearGradient id="paint1_linear_250_5942" x1="24.6282" y1="94.4359" x2="24.6282" y2="98.3747" gradientUnits="userSpaceOnUse">
<stop stop-color="#0047FF"/>
<stop offset="1" stop-color="#00A3FF" stop-opacity="0.99"/>
</linearGradient>
<linearGradient id="paint2_linear_250_5942" x1="98.4786" y1="94.4635" x2="98.4786" y2="98.4577" gradientUnits="userSpaceOnUse">
<stop stop-color="#0047FF"/>
<stop offset="1" stop-color="#00A3FF" stop-opacity="0.99"/>
</linearGradient>
<linearGradient id="paint3_linear_250_5942" x1="24.6145" y1="102.632" x2="24.6145" y2="106.612" gradientUnits="userSpaceOnUse">
<stop stop-color="#0047FF"/>
<stop offset="1" stop-color="#00A3FF" stop-opacity="0.99"/>
</linearGradient>
<linearGradient id="paint4_linear_250_5942" x1="32.8374" y1="102.645" x2="32.8374" y2="106.584" gradientUnits="userSpaceOnUse">
<stop stop-color="#0047FF"/>
<stop offset="1" stop-color="#00A3FF" stop-opacity="0.99"/>
</linearGradient>
<linearGradient id="paint5_linear_250_5942" x1="90.2897" y1="102.673" x2="90.2897" y2="106.667" gradientUnits="userSpaceOnUse">
<stop stop-color="#0047FF"/>
<stop offset="1" stop-color="#00A3FF" stop-opacity="0.99"/>
</linearGradient>
<linearGradient id="paint6_linear_250_5942" x1="98.4786" y1="102.673" x2="98.4786" y2="106.612" gradientUnits="userSpaceOnUse">
<stop stop-color="#0047FF"/>
<stop offset="1" stop-color="#00A3FF" stop-opacity="0.99"/>
</linearGradient>
<linearGradient id="paint7_linear_250_5942" x1="24.6282" y1="110.841" x2="24.6282" y2="114.794" gradientUnits="userSpaceOnUse">
<stop stop-color="#0047FF"/>
<stop offset="1" stop-color="#00A3FF" stop-opacity="0.99"/>
</linearGradient>
<linearGradient id="paint8_linear_250_5942" x1="98.4717" y1="110.896" x2="98.4717" y2="114.835" gradientUnits="userSpaceOnUse">
<stop stop-color="#0047FF"/>
<stop offset="1" stop-color="#00A3FF" stop-opacity="0.99"/>
</linearGradient>
</defs>
</svg>
