<svg width="119" height="94" viewBox="0 0 119 94" fill="none" xmlns="http://www.w3.org/2000/svg">
<path fill-rule="evenodd" clip-rule="evenodd" d="M111.539 10.0052C112.99 10.6635 114.542 11.0731 116.129 11.2171C117.867 11.3439 118.863 12.4626 118.855 13.6634C118.426 22.1544 117.222 29.978 114.421 37.492C112.162 43.7171 108.603 49.3894 103.98 54.131C100.964 57.1612 97.5536 59.7714 93.8408 61.8912C93.4305 62.1479 92.9562 62.284 92.4722 62.284C91.9883 62.284 91.514 62.1479 91.1037 61.8912C83.1571 57.2858 77.0116 50.98 72.8724 42.7425C70.0301 37.024 68.1299 30.884 67.2452 24.5596C66.8296 21.7207 66.562 18.8625 66.2944 16.004C66.2498 15.5283 66.2053 15.0526 66.1601 14.577C65.9587 12.4701 66.9022 11.4148 68.9867 11.1761C69.742 11.0995 70.4901 10.9636 71.2241 10.7696C73.648 10.1059 75.8258 8.88647 77.9625 7.61113C78.9565 7.01792 79.9409 6.40933 80.9249 5.80095C82.4585 4.85279 83.9912 3.90513 85.5586 3.01696C86.6901 2.38309 87.8824 1.84672 89.0733 1.31094C89.5779 1.08394 90.0822 0.857052 90.5816 0.622896C91.1747 0.34577 91.8214 0.202148 92.476 0.202148C93.1306 0.202148 93.7773 0.34577 94.3703 0.622896C97.5358 1.94571 100.577 3.54807 103.458 5.41098C106.065 7.09279 108.682 8.75224 111.539 10.0052ZM93.3038 40.4305C97.5251 34.2154 101.739 28.0003 105.945 21.7853C106.587 20.8269 106.408 19.9394 105.475 19.2868C104.865 18.8598 104.242 18.4416 103.621 18.0245C103.548 17.9754 103.475 17.9263 103.402 17.8772C102.168 17.0382 101.362 17.1911 100.531 18.4216L91.6034 31.6038L90.4474 33.2968C90.3435 33.0566 90.2108 32.83 90.0521 32.6219C88.3119 30.8668 86.5654 29.1191 84.8128 27.3788C84.0856 26.6554 83.1683 26.5845 82.4635 27.2371C81.6829 27.978 80.9196 28.7449 80.1738 29.538C79.8853 29.8361 79.7262 30.236 79.7311 30.6509C79.736 31.0657 79.9045 31.4618 80.1999 31.753C80.3715 31.9444 80.5562 32.1258 80.741 32.3073C80.8334 32.3981 80.9258 32.4888 81.0166 32.5808C83.709 35.2881 86.4101 37.988 89.1198 40.6804C90.6077 42.1571 92.1851 42.0676 93.3038 40.4305ZM61.9835 23.5454H56.5838C55.2041 23.5379 54.4694 22.8033 54.4545 21.4348V19.9431C54.4769 18.6417 55.2302 17.8735 56.5241 17.8735H63.1507H64.9071C64.9761 18.5602 65.0413 19.2474 65.1064 19.9345C65.2206 21.1392 65.3348 22.3438 65.4701 23.5454H61.9835ZM90.067 64.4643C89.3212 64.028 88.5754 63.5768 87.8743 63.1144C87.2971 69.5665 84.3236 75.5682 79.54 79.9363C74.7564 84.3043 68.5099 86.7217 62.032 86.7118C55.159 86.7069 48.5695 83.9721 43.7128 79.109C38.856 74.246 36.1298 67.6529 36.1337 60.78C36.1357 57.3712 36.8096 53.9964 38.1169 50.8483C39.4242 47.7002 41.3392 44.8407 43.7525 42.4333C46.1658 40.0259 49.0299 38.1178 52.1812 36.8182C55.3325 35.5186 58.709 34.853 62.1178 34.8594C63.8626 34.8553 65.6003 35.081 67.2862 35.5306C66.6343 33.2559 66.1102 30.9465 65.7163 28.6132H65.6007C64.9071 30.6456 64.2731 31.5964 62.0022 31.5666C59.8356 31.5368 58.3887 30.5337 57.7921 28.6132C43.6776 30.1272 29.5557 42.7165 29.5333 60.8061C29.5257 65.2081 30.4129 69.5656 32.1411 73.6142C33.8693 77.6627 36.4024 81.3177 39.5866 84.3572C42.7708 87.3966 46.5396 89.757 50.6641 91.2952C54.7886 92.8333 59.1827 93.5171 63.5796 93.3048C71.4807 92.9497 78.9805 89.7228 84.6711 84.2299C90.3617 78.7371 93.8517 71.356 94.4859 63.4724C93.9303 63.8229 93.3672 64.166 92.8004 64.4979C92.3874 64.7488 91.9121 64.8787 91.4289 64.8727C90.9456 64.8668 90.4738 64.7253 90.067 64.4643ZM22.8807 62.1299C24.3276 62.1299 25.4053 61.1007 25.3978 59.762C25.3921 59.4435 25.3228 59.1294 25.194 58.8381C25.0653 58.5468 24.8795 58.2843 24.6478 58.0657C24.4161 57.8472 24.1431 57.6772 23.8447 57.5657C23.5464 57.4542 23.2288 57.4035 22.9106 57.4164H19.2859H19.2693C13.8491 57.4164 8.42884 57.4164 3.00861 57.4388C2.44252 57.4586 1.89285 57.634 1.42003 57.9459C1.02117 58.2254 0.725903 58.6289 0.580219 59.0936C0.434534 59.5583 0.446596 60.0581 0.614541 60.5152C0.775307 60.9948 1.08543 61.4104 1.49946 61.7009C1.9135 61.9915 2.4097 62.1418 2.91538 62.1299H12.9279H22.8807ZM24.969 74.1412H16.6197V74.1226H8.20693C6.74514 74.1188 5.67862 73.1045 5.68235 71.7621C5.68608 70.4196 6.70784 69.4165 8.15471 69.4165H25.0398C26.5165 69.4202 27.5607 70.4084 27.557 71.7844C27.5532 73.1604 26.4867 74.1412 24.969 74.1412ZM8.22567 50.182H16.6384H24.9878C26.4794 50.182 27.5608 49.1789 27.5533 47.8066C27.5459 46.4343 26.5017 45.4647 25.0213 45.4647H8.19583C6.70421 45.4647 5.67127 46.4641 5.68619 47.8252C5.7011 49.1863 6.74524 50.1782 8.22567 50.182ZM24.3761 38.5362H17.0075C16.4382 38.5401 15.8868 38.3374 15.4555 37.9657C15.0242 37.5941 14.7423 37.0787 14.662 36.515C14.5846 35.9939 14.6873 35.4619 14.9531 35.007C15.2189 34.5521 15.6318 34.2014 16.1237 34.0129C16.45 33.8939 16.7946 33.8333 17.1418 33.8339C21.9522 33.819 26.7627 33.819 31.5732 33.8339C31.8865 33.8287 32.1976 33.8871 32.4876 34.0056C32.7777 34.1242 33.0406 34.3003 33.2606 34.5234C33.4806 34.7465 33.653 35.012 33.7674 35.3037C33.8818 35.5954 33.9359 35.9072 33.9262 36.2204C33.9263 36.5287 33.8648 36.8338 33.7454 37.118C33.6261 37.4021 33.4511 37.6596 33.2309 37.8753C33.0107 38.091 32.7497 38.2605 32.4631 38.374C32.1765 38.4875 31.8702 38.5427 31.562 38.5362H24.3761ZM31.521 80.9804H17.153C15.6614 80.9804 14.606 82.032 14.6359 83.4155C14.6657 84.7244 15.7546 85.6864 17.1791 85.6902H24.2419C25.0536 85.6902 25.8653 85.6922 26.677 85.6943C28.3003 85.6985 29.9237 85.7026 31.5471 85.6902C31.8662 85.6971 32.1834 85.6385 32.479 85.5182C32.7746 85.3979 33.0425 85.2183 33.2661 84.9905C33.4896 84.7627 33.6642 84.4915 33.779 84.1937C33.8939 83.8959 33.9465 83.5778 33.9337 83.2588C33.9275 82.95 33.8598 82.6455 33.7347 82.3631C33.6096 82.0807 33.4295 81.826 33.2049 81.6139C32.9803 81.4019 32.7158 81.2366 32.4267 81.1278C32.1375 81.0191 31.8297 80.9689 31.521 80.9804ZM59.4777 28.2924C59.4582 28.6887 59.5843 29.0785 59.8323 29.3883C60.0802 29.6981 60.4329 29.9064 60.8239 29.9742C61.6436 30.1103 62.4802 30.1103 63.3 29.9742C64.1838 29.8176 64.6201 29.1427 64.6387 28.2328C64.6504 27.6783 64.6499 27.1238 64.6494 26.5693C64.6489 26.061 64.6484 25.5527 64.6573 25.0444C64.6573 24.6007 64.4821 24.4776 64.0756 24.4925C63.6379 24.5075 63.2019 24.5025 62.7664 24.4975C62.5489 24.495 62.3315 24.4925 62.1141 24.4925H59.9662C59.5933 24.4925 59.4479 24.6193 59.4553 24.9959C59.4615 25.4511 59.4613 25.9081 59.461 26.366V26.3661V26.3662V26.3664C59.4607 27.0077 59.4603 27.6507 59.4777 28.2924ZM59.3638 59.7249C59.7263 59.0396 60.3243 58.5085 61.0475 58.2293C61.2284 58.1808 61.3844 58.0661 61.4846 57.9079C61.5847 57.7496 61.6217 57.5595 61.5882 57.3753V40.8668V40.0837H63.0052V40.8072V57.379C62.9704 57.5628 63.0058 57.753 63.1046 57.9119C63.2034 58.0708 63.3582 58.1867 63.5385 58.2367C64.2533 58.5106 64.8468 59.0308 65.212 59.7036C65.5771 60.3764 65.6898 61.1575 65.5298 61.9061C65.3862 62.6574 64.9844 63.3349 64.394 63.8211C63.8035 64.3074 63.0616 64.5718 62.2967 64.5687C61.5415 64.5702 60.8087 64.3115 60.2219 63.8361C59.6351 63.3606 59.23 62.6975 59.0748 61.9583C58.8987 61.2034 59.0013 60.4102 59.3638 59.7249ZM67.3049 58.427L72.8574 52.9155L70.6797 50.7042L65.1085 56.2567C66.2533 56.5699 66.8723 57.4612 67.3049 58.427Z" fill="url(#paint0_linear_250_5911)"/>
<defs>
<linearGradient id="paint0_linear_250_5911" x1="7.22242" y1="29.1166" x2="138.116" y2="120.096" gradientUnits="userSpaceOnUse">
<stop stop-color="#9200ED"/>
<stop offset="0.98" stop-color="#2F0054"/>
</linearGradient>
</defs>
</svg>
