<svg width="100" height="98" viewBox="0 0 100 98" fill="none" xmlns="http://www.w3.org/2000/svg">
<path fill-rule="evenodd" clip-rule="evenodd" d="M76.7065 0.898916H97.1529C98.8198 0.902645 99.2337 1.34268 99.23 3.05059V48.0117C99.23 49.7271 98.831 50.1336 97.1343 50.1336C95.7087 50.1343 94.2832 50.1354 92.8577 50.1366H92.8561C86.4325 50.1419 80.0089 50.1471 73.5853 50.1075C72.5412 50.1 72.3473 50.4468 72.269 51.4014C72.1168 53.0036 71.8678 54.5951 71.5231 56.1672C71.2994 57.2598 70.5349 57.7185 69.64 57.4574C68.8233 57.2188 68.484 56.4767 68.7525 55.4139C70.1454 50.2267 69.5731 44.7079 67.1454 39.9169C64.7177 35.126 60.6057 31.4007 55.5991 29.4564C50.5924 27.5121 45.044 27.4859 40.0192 29.3826C34.9943 31.2794 30.8473 34.9655 28.3743 39.7333C28.3388 39.8032 28.3038 39.8738 28.2688 39.9444L28.2688 39.9445L28.2687 39.9447L28.2687 39.9448L28.2686 39.9449C28.175 40.1338 28.0811 40.3234 27.9753 40.5051C27.4793 41.3815 26.6962 41.6574 25.9504 41.251C25.7746 41.1651 25.6189 41.043 25.4936 40.8927C25.3682 40.7424 25.2761 40.5673 25.2233 40.3789C25.1705 40.1905 25.1581 39.993 25.187 39.7994C25.2159 39.6059 25.2855 39.4207 25.3911 39.2559C26.0324 37.9544 26.7664 36.7008 27.5875 35.5045C31.9505 29.5343 37.8125 26.0812 45.1886 25.2571C45.4109 25.2318 45.6212 25.1963 45.8718 25.1539L45.8718 25.1539L45.8719 25.1539L45.8719 25.1539L45.8719 25.1539L45.872 25.1539L45.872 25.1539C45.9912 25.1338 46.1195 25.1121 46.2626 25.0893V3.11395C46.2626 1.33519 46.6578 0.928732 48.4105 0.928732H68.7786C68.853 0.928732 68.9278 0.926256 69.0028 0.923775L69.0029 0.923774C69.1533 0.918797 69.3042 0.913802 69.4535 0.928732C70.3448 1.01823 70.9526 1.62979 70.9265 2.42035C70.9004 3.21091 70.2888 3.80386 69.3678 3.80386H65.2994H49.2197V25.0855L51.886 25.3988V21.7406C51.9121 20.372 52.3931 19.8761 53.7766 19.8761H61.4323C62.8494 19.8835 63.3528 20.3907 63.3528 21.8226C63.3566 22.7405 63.3552 23.6589 63.3538 24.5775C63.351 26.3385 63.3483 28.1005 63.3826 29.8625C63.428 30.3474 63.6371 30.8024 63.9755 31.1527C64.6784 31.8802 65.4256 32.5653 66.1981 33.2734L66.1981 33.2735C66.4749 33.5272 66.7548 33.7838 67.0371 34.0465V11.8251C67.0371 9.85984 67.3503 9.55403 69.3566 9.55403H76.6245C77.9856 9.55403 78.489 10.0537 78.489 11.4186V42.4219C78.489 43.8464 78.008 44.32 76.5574 44.32H71.8625C72.0042 45.3156 72.1347 46.2143 72.2727 47.1615H96.2803V3.80013H76.8557C76.501 3.81582 76.1456 3.80332 75.7929 3.7628C75.4829 3.71134 75.199 3.55806 74.9858 3.32717C74.7727 3.09628 74.6426 2.80095 74.6161 2.48786C74.5896 2.17477 74.6682 1.86179 74.8394 1.59834C75.0107 1.33489 75.2648 1.13602 75.5617 1.03316C75.9338 0.928315 76.3202 0.883012 76.7065 0.898916ZM60.1951 28.3805C60.2569 28.3991 60.319 28.4178 60.3807 28.4379L60.377 22.8369H54.7834C54.7834 23.113 54.7798 23.3831 54.7763 23.6488V23.649V23.6491V23.6491V23.6492V23.6493V23.6493C54.7673 24.3199 54.7588 24.9619 54.8095 25.6001C54.8543 25.751 54.9311 25.8904 55.0347 26.0088C55.1384 26.1273 55.2663 26.2219 55.4099 26.2863C56.5785 26.836 57.764 27.3543 58.9489 27.8723L58.9491 27.8724L58.9494 27.8725C59.2352 27.9975 59.521 28.1224 59.8065 28.2478C59.931 28.3011 60.0624 28.3406 60.1949 28.3805L60.195 28.3805L60.1951 28.3805ZM71.002 41.3249C71.067 41.371 71.1422 41.4007 71.2211 41.4113C72.4183 41.4238 73.6128 41.4232 74.8027 41.4227L75.5132 41.4225V12.5149H69.9644C69.9583 12.6266 69.9503 12.7233 69.943 12.8116C69.9324 12.9384 69.9234 13.0479 69.9234 13.16C69.9234 15.0856 69.9218 17.0111 69.9203 18.9366C69.915 25.4349 69.9097 31.9326 69.9644 38.4281C69.9697 39.0739 70.2492 39.7197 70.5271 40.3615C70.6407 40.6239 70.754 40.8857 70.8482 41.1465C70.8843 41.2175 70.9371 41.2788 71.002 41.3249ZM12.9883 29.594C14.041 30.9215 15.0478 32.2903 16.0519 33.6554C16.3283 34.0313 16.6045 34.4068 16.8814 34.7811C17.892 36.1347 18.8019 36.1459 19.8087 34.8072C20.29 34.1677 20.7664 33.5244 21.2429 32.881L21.243 32.8809C22.0919 31.7347 22.9409 30.5884 23.8175 29.4635C24.1512 29.0516 24.5927 28.7405 25.0928 28.5647C27.2827 27.8805 29.3414 26.8316 31.1823 25.4622C34.1656 23.1353 36.2725 20.2415 36.6342 16.3521C37.0593 11.7728 35.1426 8.14822 31.6522 5.38127C26.4315 1.21965 20.3755 0.190418 13.9205 1.36134C9.54637 2.15563 5.74647 4.09847 2.83781 7.57022C1.3089 9.39745 0.477319 11.5342 0 13.835V16.7437C0.133764 17.1369 0.247855 17.536 0.361723 17.9342C0.565294 18.6462 0.76815 19.3557 1.08143 20.0253C3.19207 24.5001 6.96214 26.9762 11.4892 28.5312C12.0762 28.7426 12.5945 29.11 12.9883 29.594ZM6.35803 8.07363C10.0573 4.82563 14.4687 3.66587 19.2755 3.85605C23.2767 4.01267 26.9424 5.19482 30.0636 7.81262C34.8256 11.8027 35.0456 17.881 30.5708 22.1806C28.5645 24.1085 26.1257 25.2235 23.4856 26.0253C22.9168 26.2102 22.4116 26.5514 22.0275 27.0098C21.108 28.1544 20.2349 29.3394 19.331 30.5663L19.3309 30.5664L19.3306 30.5668L19.33 30.5676L19.3293 30.5687L19.3285 30.5697C19.0052 31.0085 18.6779 31.4527 18.3432 31.9023C17.9817 31.4168 17.6242 30.9433 17.2718 30.4765L17.2718 30.4765C16.4576 29.3979 15.6706 28.3554 14.9237 27.2857C14.437 26.5623 13.6929 26.0515 12.8429 25.8575C10.233 25.1978 7.84645 23.8539 5.92919 21.9643C1.75638 17.8624 1.93538 11.9518 6.35803 8.07363ZM68.5137 63.0325C69.047 62.1934 68.8866 61.3656 68.2042 60.8957C67.5218 60.4259 66.7126 60.631 66.1122 61.4141C65.9987 61.5663 65.8945 61.7232 65.7906 61.8797L65.7902 61.8803L65.79 61.8806L65.7897 61.881L65.7895 61.8814C65.7334 61.9659 65.6774 62.0503 65.62 62.1338C63.584 65.1477 60.7923 67.5742 57.5242 69.1705C56.3123 69.7559 55.8611 70.498 55.9244 71.7995C55.9845 72.9878 55.9714 74.1816 55.9582 75.3886V75.3886V75.3887V75.3888V75.3888V75.3889V75.389V75.389C55.9525 75.9053 55.9468 76.4239 55.9468 76.9455H49.1972V70.7255C49.2429 70.4714 49.3421 70.2299 49.4881 70.017L59.5304 50.3798C59.6505 50.167 59.7812 49.9604 59.922 49.7608C61.1638 50.2829 61.9319 50.1337 62.3272 49.3245C62.7225 48.5153 62.3869 47.7919 61.298 47.1505C60.87 46.8986 60.4397 46.6504 60.0094 46.4022L60.0093 46.4022L60.0093 46.4021L60.0092 46.4021L60.0091 46.402L60.009 46.402L60.0089 46.402L60.0083 46.4016L60.0081 46.4015C59.2091 45.9406 58.4099 45.4796 57.6249 44.9951C57.3215 44.7796 56.9585 44.6638 56.5864 44.6638C56.2142 44.6638 55.8512 44.7796 55.5478 44.9951C54.6156 45.5768 53.6833 46.1474 52.6988 46.6396C52.5248 46.7133 52.3378 46.7513 52.1488 46.7513C51.9598 46.7513 51.7727 46.7133 51.5987 46.6396C50.6946 46.2044 49.8223 45.706 48.9884 45.148C48.6235 44.8513 48.1686 44.6875 47.6983 44.6834C47.2281 44.6793 46.7704 44.8352 46.4005 45.1256C45.968 45.4178 45.5121 45.6743 45.0562 45.9309L45.0562 45.931L45.0562 45.931L45.0561 45.931L45.0561 45.931L45.0561 45.931L45.056 45.9311L45.056 45.9311C44.6393 46.1656 44.2225 46.4002 43.8237 46.6619C43.6511 46.8015 43.4359 46.8777 43.214 46.8777C42.992 46.8777 42.7768 46.8015 42.6043 46.6619C41.6611 46.041 40.6824 45.4757 39.6732 44.9689C39.2556 44.7638 38.5955 44.6184 38.2301 44.8049C36.6005 45.6476 35.0194 46.5948 33.4532 47.5607C32.8267 47.9336 32.7297 48.6309 33.0169 49.2835C33.1477 49.6029 33.3947 49.861 33.7082 50.0056C34.0216 50.1502 34.3782 50.1706 34.7062 50.0628C34.9788 49.9843 35.2465 49.8897 35.5079 49.7794C35.5685 49.8952 35.6256 50.0028 35.6801 50.1055C35.773 50.2807 35.8582 50.4414 35.9405 50.6036C36.8549 52.3915 37.7585 54.1853 38.662 55.9791L38.6624 55.9799L38.6628 55.9807L38.6632 55.9815L38.6636 55.9823L38.664 55.983L38.6644 55.9838L38.6648 55.9846L38.6649 55.9848C40.8077 60.2388 42.9505 64.4926 45.237 68.6671C46.2459 70.5055 46.2164 72.3456 46.1867 74.1918C46.172 75.1093 46.1573 76.0283 46.2699 76.9493H39.4458C39.4458 76.413 39.4403 75.8819 39.4348 75.3545C39.4222 74.1475 39.4099 72.9605 39.4644 71.7771C39.5241 70.5204 39.0915 69.7932 37.9169 69.2115C33.8563 67.1841 30.5327 63.9359 28.4125 59.9231C26.2924 55.9102 25.4822 51.3341 26.0958 46.8372C26.2487 45.6961 25.8198 44.9727 24.9398 44.831C24.0597 44.6893 23.3885 45.2374 23.2319 46.2518C21.7104 56.2046 26.7931 66.4707 35.6571 71.2811C35.9496 71.3973 36.196 71.606 36.359 71.8753C36.5219 72.1446 36.5923 72.4597 36.5595 72.7728C36.5537 73.687 36.5458 74.6015 36.5378 75.5159V75.5162V75.5165V75.5169V75.5172V75.5175V75.5178V75.5182V75.5186V75.5188C36.5044 79.3513 36.4711 83.1845 36.6005 87.0103C36.7571 91.6753 39.2108 94.9531 43.4508 96.8139C44.1842 97.1348 44.9803 97.3131 45.776 97.4913L45.7761 97.4913C46.1455 97.574 46.5148 97.6567 46.8778 97.7537H48.4291C48.5482 97.6948 48.6732 97.6486 48.802 97.6157C55.2234 96.5343 58.8331 92.2831 58.8368 85.7834C58.8368 84.6359 58.8387 83.4883 58.8406 82.3408V82.3399C58.8458 79.2254 58.8509 76.1109 58.8182 72.9965C58.7747 72.6243 58.8525 72.248 59.0399 71.9235C59.2274 71.599 59.5145 71.3437 59.8586 71.1954C63.3865 69.2487 66.364 66.4404 68.5137 63.0325ZM38.0772 48.3214C38.5098 47.6986 38.9535 47.7956 39.4868 48.1349C39.9651 48.4366 40.4561 48.7182 40.9474 49L40.9478 49.0002L40.9479 49.0003C41.3795 49.2478 41.8114 49.4955 42.2351 49.7571C42.5381 49.9736 42.9012 50.09 43.2736 50.09C43.6461 50.09 44.0092 49.9736 44.3122 49.7571C45.2444 49.1791 46.1767 48.6122 47.1649 48.1237C47.3382 48.0499 47.5247 48.0118 47.7131 48.0118C47.9015 48.0118 48.0879 48.0499 48.2612 48.1237C49.1834 48.5865 50.0774 49.1033 50.9387 49.6713C51.2879 49.9345 51.7134 50.0769 52.1507 50.0769C52.5879 50.0769 53.0134 49.9345 53.3626 49.6713C54.2264 49.1062 55.1202 48.5883 56.04 48.12C56.4315 47.9929 56.8404 47.9275 57.252 47.9261C57.2762 47.9783 57.2995 48.0314 57.3228 48.0845L57.3393 48.1221L57.3595 48.1677C57.3707 48.1929 57.3821 48.2181 57.3937 48.2431C55.8689 51.2284 54.3433 54.213 52.8058 57.2207L52.8 57.2319C51.1245 60.5097 49.4348 63.8151 47.7168 67.1792C44.4166 60.7466 41.232 54.5265 38.0772 48.3214ZM47.631 94.7816C43.7155 94.7182 40.0834 91.6716 39.7143 88.0693H55.7492C55.2308 91.8245 51.554 94.845 47.6161 94.7816H47.631ZM55.9021 85.0413H39.5315V79.9773H55.9021V85.0413ZM26.1031 77.0127C25.3797 76.3079 24.5779 76.2967 23.9589 76.912C23.3399 77.5273 23.366 78.3365 24.0708 79.0562C24.4639 79.4568 24.8839 79.8239 25.3094 80.1957L25.3095 80.1957C25.5177 80.3776 25.7271 80.5606 25.9353 80.7492L25.7749 81.0065C24.6609 81.0065 23.5465 81.0115 22.4321 81.0166H22.432H22.4319H22.4318H22.4316H22.4315C19.7152 81.0289 16.9986 81.0412 14.2857 80.9804C12.7121 80.9468 11.3995 80.1339 10.3441 78.9481C9.15829 77.6094 8.82268 76.0208 8.82641 74.283C8.84132 60.8833 8.84132 47.4836 8.82641 34.0839C8.84851 33.6333 8.81974 33.1818 8.74064 32.7377C8.57283 32.0217 8.0172 31.5444 7.33106 31.7122C6.83137 31.8352 6.38015 32.3386 6.01843 32.7675C5.88951 32.9193 5.90366 33.2032 5.91713 33.4738C5.9212 33.5554 5.92521 33.6358 5.92521 33.7109V74.4881C5.92521 80.1563 9.76613 83.9487 15.4306 83.9636H24.9247H25.7712L25.8383 84.2209C25.7352 84.3153 25.6313 84.4089 25.5273 84.5025L25.5269 84.5029C25.319 84.6901 25.1111 84.8773 24.9098 85.0712L24.9098 85.0712C24.6077 85.3621 24.3057 85.6529 24.0223 85.9624C23.3809 86.6635 23.3511 87.454 23.9179 88.0395C24.0567 88.1873 24.225 88.3044 24.4119 88.3831C24.5988 88.4618 24.8001 88.5005 25.0028 88.4967C25.2056 88.4928 25.4053 88.4465 25.589 88.3607C25.7727 88.2748 25.9364 88.1514 26.0695 87.9985C27.5612 86.559 29.0229 85.0985 30.4549 83.6168C31.1821 82.871 31.2007 82.1252 30.4549 81.398C29.0453 79.9176 27.5798 78.4596 26.1031 77.0127ZM86.7824 57.6587C87.5096 56.9651 88.2927 56.9764 89.0198 57.6849C90.5015 59.1268 91.9583 60.5848 93.3903 62.059C93.5369 62.1874 93.6562 62.344 93.7408 62.5196C93.8254 62.6951 93.8737 62.886 93.8828 63.0807C93.8918 63.2753 93.8615 63.4698 93.7935 63.6525C93.7255 63.8351 93.6214 64.0022 93.4872 64.1436C92.9018 64.7589 92.0627 64.7477 91.3356 64.0951C91.0238 63.8131 90.7263 63.5157 90.4443 63.2038C90.2554 62.9975 90.0764 62.7812 89.8974 62.565L89.8973 62.5648C89.8078 62.4567 89.7184 62.3486 89.6277 62.2418L89.3405 62.3387V63.3008V74.6371C89.3293 80.1337 85.5145 83.9858 80.0403 84.0082H66.0862C65.2322 84.0082 64.5312 83.833 64.3149 82.8895C64.0837 81.8603 64.7885 81.1145 66.034 81.1145H73.9806C74.6685 81.1145 75.356 81.1165 76.0432 81.1186L76.0499 81.1186H76.0508H76.0516H76.0524H76.0532C77.4302 81.1228 78.8061 81.1269 80.182 81.1145C83.8215 81.0772 86.4132 78.5042 86.4319 74.8795V62.4021L86.1261 62.2007C85.9515 62.3965 85.7798 62.5955 85.6081 62.7946C85.2333 63.229 84.8583 63.6638 84.4517 64.0653C83.7395 64.7663 82.9079 64.7812 82.3038 64.192C81.6997 63.6029 81.7072 62.7414 82.3933 62.0404C83.8278 60.5587 85.2908 59.0982 86.7824 57.6587ZM12.2946 11.2956H24.4066C25.5253 11.2956 26.1891 10.7027 26.1629 9.80403C26.1368 8.90533 25.4917 8.40936 24.4215 8.40563H18.414H12.3095C11.1908 8.40563 10.527 8.97618 10.5531 9.89725C10.5792 10.8183 11.2281 11.2956 12.2946 11.2956ZM24.4252 16.699C20.3879 16.7139 16.3518 16.7139 12.317 16.699C11.2057 16.6952 10.5382 16.0874 10.5569 15.1962C10.5755 14.3049 11.2206 13.8015 12.3878 13.8015H18.3953H24.3991C25.4917 13.809 26.1219 14.2714 26.1592 15.1701C26.1965 16.0688 25.5439 16.699 24.4252 16.699ZM21.2481 22.0725C22.337 22.0725 22.9187 21.4982 22.9038 20.5809C22.8888 19.6635 22.3183 19.1862 21.1921 19.1713H16.7173H12.2424C11.1647 19.1713 10.5308 19.7269 10.5196 20.5884C10.5084 21.4498 11.1423 22.0539 12.2014 22.08C15.2294 22.0974 18.2449 22.0949 21.2481 22.0725ZM91.7271 44.3387H83.9781C82.6468 44.3163 82.177 43.8427 82.1732 42.5264V29.7395V17.2434C82.1732 15.6511 82.6058 15.2073 84.1608 15.2073H91.7159C93.1441 15.2111 93.6251 15.6959 93.6251 17.1316V42.4145C93.6251 43.8688 93.1702 44.3387 91.7271 44.3387ZM90.6568 18.1496H85.1639V41.4002H90.6568V18.1496Z" fill="url(#paint0_linear_203_271)"/>
<defs>
<linearGradient id="paint0_linear_203_271" x1="-0.584173" y1="20.4886" x2="80.7544" y2="111.051" gradientUnits="userSpaceOnUse">
<stop stop-color="#0427A3"/>
<stop offset="0.98" stop-color="#0055F9"/>
</linearGradient>
</defs>
</svg>
