<svg width="107" height="99" viewBox="0 0 107 99" fill="none" xmlns="http://www.w3.org/2000/svg">
<path d="M106.698 43.3181C102.79 48.0498 98.892 52.7975 94.9515 57.5026C94.7546 57.7746 94.496 57.9961 94.1969 58.1488C93.8978 58.3015 93.5667 58.3811 93.2309 58.3811C92.8951 58.3811 92.564 58.3015 92.2649 58.1488C91.9659 57.9961 91.7072 57.7746 91.5103 57.5026C87.7929 53.0683 84.0755 48.6021 80.3581 44.1413C80.0575 43.8203 79.8638 43.414 79.8039 42.9784C79.744 42.5427 79.8207 42.0992 80.0236 41.709C80.2155 41.296 80.5287 40.9513 80.9215 40.7207C81.3143 40.4902 81.768 40.3848 82.2222 40.4186H88.7541C87.931 38.0342 87.299 35.7294 86.3591 33.5627C82.5056 24.4394 75.4036 17.0706 66.4286 12.8834C61.7157 10.6347 56.6002 9.35269 51.3838 9.11292C44.4019 8.75809 37.4475 10.2229 31.2019 13.3638C24.9563 16.5048 19.6337 21.2142 15.7554 27.0307C12.1057 32.5232 9.8574 38.8263 9.20723 45.3886C8.55707 51.951 9.5248 58.5728 12.0258 64.6746C14.5268 70.7765 18.4848 76.1725 23.5537 80.3908C28.6226 84.6091 34.6479 87.5211 41.1026 88.872C51.2776 90.9962 60.9216 89.3181 69.8964 84.0553C75.6381 80.6678 80.4555 75.9161 83.9215 70.2214C84.5305 69.2248 85.3678 68.3875 86.3644 67.7785C88.0637 66.8067 90.1508 67.359 91.4784 68.8406C92.1584 69.5526 92.5732 70.4765 92.6534 71.4577C92.7336 72.4389 92.4744 73.4179 91.9192 74.2308C90.1455 76.8861 88.4089 79.5945 86.306 81.9736C79.08 90.2779 69.2444 95.8774 58.415 97.8521C32.4676 102.817 6.98232 86.084 1.20976 60.3437C-4.63184 34.1734 11.2201 8.17827 37.1515 1.6516C40.2954 0.860333 43.5826 0.642602 46.8008 0.159342L47.9266 0H50.0137C50.3137 0.0749391 50.6191 0.12645 50.9271 0.154027C55.9557 0.266355 60.9341 1.18064 65.6745 2.86239C73.0303 5.46031 79.6661 9.76379 85.0383 15.4203C90.4105 21.0769 94.3664 27.9255 96.5819 35.4054C97.0598 37.0252 97.4262 38.682 97.867 40.3973C99.816 40.3973 101.76 40.4557 103.709 40.3973C105.116 40.3442 106.136 40.7903 106.73 42.0914L106.698 43.3181Z" fill="url(#paint0_linear_250_5939)"/>
<path d="M53.7681 28.8628C53.7681 33.1697 53.7681 37.4765 53.7681 41.7781C53.7378 42.1336 53.7957 42.4911 53.9365 42.819C54.0773 43.1469 54.2967 43.4351 54.5753 43.658C55.814 44.6919 56.6334 46.1419 56.8801 47.7365C56.9178 48.0406 57.0308 48.3305 57.2089 48.58C57.3869 48.8294 57.6243 49.0305 57.8997 49.165C62.7217 51.9159 67.5312 54.688 72.3284 57.4814C74.3995 58.6816 75.2333 60.3916 74.8297 62.4892C74.7031 63.102 74.4485 63.6811 74.0824 64.1885C73.7163 64.6959 73.2471 65.1203 72.7056 65.4337C72.164 65.747 71.5623 65.9424 70.94 66.007C70.3176 66.0716 69.6887 66.0039 69.0943 65.8083C68.5404 65.5997 68.0071 65.3402 67.5012 65.033C62.7801 62.3246 58.0696 59.5843 53.3273 56.9025C52.8603 56.6675 52.3221 56.6163 51.8191 56.7591C50.1477 57.3286 48.3327 57.3158 46.6695 56.7228C45.0063 56.1298 43.5926 54.9916 42.6584 53.4932C41.6727 51.9391 41.2744 50.084 41.5353 48.2623C41.7962 46.4406 42.6993 44.772 44.0816 43.5571C44.3262 43.3592 44.5195 43.1053 44.6452 42.8169C44.7709 42.5285 44.8253 42.2141 44.8039 41.9002C44.7826 33.3609 44.7826 24.8197 44.8039 16.2768C44.8039 13.8393 46.0094 12.0603 48.0221 11.4973C48.6894 11.2913 49.3961 11.2459 50.0843 11.3651C50.7725 11.4842 51.4228 11.7644 51.982 12.1828C52.5413 12.6012 52.9937 13.146 53.3022 13.7726C53.6108 14.3992 53.7668 15.0899 53.7575 15.7883C53.8106 20.1589 53.7575 24.5347 53.7575 28.9106L53.7681 28.8628ZM49.286 52.7072C49.7362 52.7251 50.1854 52.652 50.6066 52.492C51.0279 52.3321 51.4125 52.0888 51.7374 51.7766C52.0623 51.4644 52.3207 51.0898 52.4973 50.6752C52.6739 50.2607 52.7649 49.8148 52.7649 49.3642C52.7649 48.9136 52.6739 48.4677 52.4973 48.0532C52.3207 47.6386 52.0623 47.264 51.7374 46.9518C51.4125 46.6396 51.0279 46.3963 50.6066 46.2363C50.1854 46.0764 49.7362 46.0033 49.286 46.0212C48.4224 46.0556 47.6057 46.4229 47.0069 47.0461C46.408 47.6692 46.0736 48.4999 46.0736 49.3642C46.0736 50.2284 46.408 51.0592 47.0069 51.6823C47.6057 52.3055 48.4224 52.6727 49.286 52.7072Z" fill="url(#paint1_linear_250_5939)"/>
<defs>
<linearGradient id="paint0_linear_250_5939" x1="53.3652" y1="0" x2="53.3652" y2="98.7243" gradientUnits="userSpaceOnUse">
<stop stop-color="#0047FF"/>
<stop offset="1" stop-color="#00A3FF" stop-opacity="0.99"/>
</linearGradient>
<linearGradient id="paint1_linear_250_5939" x1="58.1929" y1="11.3002" x2="58.1929" y2="66.0307" gradientUnits="userSpaceOnUse">
<stop stop-color="#0047FF"/>
<stop offset="1" stop-color="#00A3FF" stop-opacity="0.99"/>
</linearGradient>
</defs>
</svg>
