<svg width="96" height="96" viewBox="0 0 96 96" fill="none" xmlns="http://www.w3.org/2000/svg">
<path fill-rule="evenodd" clip-rule="evenodd" d="M89.0282 1.01842C88.7711 0.744636 88.4574 0.530115 88.1091 0.389733C87.7607 0.249351 87.3859 0.186454 87.0108 0.205465C84.8205 0.225355 82.6285 0.218723 80.437 0.212093C79.3415 0.208779 78.2462 0.205465 77.1512 0.205465C75.3948 0.205465 74.9138 0.675338 74.9138 2.40935V24.8918C74.9138 26.5773 75.3911 27.0584 77.0766 27.0584H93.1451C94.1109 27.0584 94.8717 26.8533 95.431 26.0515V7.49205L94.7505 6.80929L94.7496 6.80839L94.7481 6.80693C92.8448 4.89767 90.9231 2.96994 89.0282 1.01842ZM87.559 20.7414C87.0122 20.7687 86.4637 20.7596 85.9147 20.7505C85.64 20.7459 85.3652 20.7414 85.0903 20.7414C84.8429 20.7414 84.593 20.7451 84.342 20.7488L84.3418 20.7488C83.8363 20.7563 83.3263 20.7638 82.8231 20.7414C82.6163 20.7433 82.4112 20.7043 82.2197 20.6264C82.0282 20.5485 81.854 20.4334 81.7073 20.2877C81.5605 20.142 81.4442 19.9687 81.365 19.7777C81.2857 19.5867 81.2452 19.3819 81.2457 19.1751C81.2416 18.9682 81.2794 18.7625 81.3566 18.5705C81.4338 18.3784 81.549 18.2039 81.6952 18.0574C81.8414 17.9108 82.0156 17.7953 82.2075 17.7176C82.3994 17.6399 82.6049 17.6017 82.8119 17.6052C84.388 17.5679 85.9667 17.5679 87.5478 17.6052C87.9632 17.6052 88.3615 17.7702 88.6553 18.0639C88.949 18.3577 89.114 18.756 89.114 19.1714C89.114 19.5868 88.949 19.9852 88.6553 20.2789C88.3615 20.5726 87.9632 20.7376 87.5478 20.7376L87.559 20.7414ZM87.4918 14.4243C85.948 14.4591 84.4017 14.4591 82.8529 14.4243C82.6467 14.4229 82.4429 14.3808 82.253 14.3006C82.0631 14.2203 81.8908 14.1034 81.7461 13.9566C81.4538 13.6601 81.2912 13.2596 81.2942 12.8432C81.2971 12.4269 81.4654 12.0287 81.7619 11.7364C82.0584 11.4441 82.4589 11.2815 82.8753 11.2845C83.4022 11.2646 83.9274 11.2712 84.4532 11.2779C84.7163 11.2812 84.9796 11.2845 85.2432 11.2845C85.5103 11.2845 85.7696 11.2815 86.0252 11.2786L86.0254 11.2786H86.0254H86.0255H86.0256H86.0257H86.0258H86.0259H86.026H86.0261H86.0262C86.5269 11.2728 87.0132 11.2672 87.5142 11.2845C87.7266 11.2758 87.9385 11.3102 88.1371 11.3858C88.3358 11.4614 88.517 11.5766 88.6698 11.7243C88.8226 11.872 88.9439 12.0492 89.0262 12.2452C89.1085 12.4411 89.1501 12.6518 89.1486 12.8643C89.1471 13.0768 89.1024 13.2868 89.0173 13.4816C88.9322 13.6764 88.8085 13.8518 88.6536 13.9974C88.4987 14.1429 88.3158 14.2554 88.1161 14.3282C87.9164 14.4009 87.7041 14.4324 87.4918 14.4206V14.4243ZM71.4363 78.9706V77.8519H63.6314C61.4201 77.8519 60.3871 76.8078 60.3834 74.5853V61.5634V60.5379H54.4505C53.6748 63.7113 51.7581 65.7101 48.5362 66.1315C47.2873 66.3363 46.0057 66.158 44.8601 65.6201C43.7145 65.0823 42.7587 64.2101 42.1185 63.1184C40.2764 60.2135 40.7127 57.3757 42.9687 54.5416C42.0946 54.3634 41.2104 54.2388 40.3211 54.1687C36.7039 54.1314 33.0868 54.1463 29.4696 54.1687C26.2477 54.1687 24.0624 56.3353 24.0587 59.5385V89.8259C24.0504 90.2534 24.0854 90.6807 24.1631 91.1012C24.6218 93.3386 26.1432 94.5543 28.198 95.2405H67.2933C70.4034 94.2262 71.5929 92.0409 71.4661 88.8377C71.3752 86.5618 71.3965 84.2643 71.4178 81.9677V81.9671V81.9666V81.966V81.9655V81.9649V81.9644V81.9638V81.9633V81.9627V81.9622V81.9616V81.9611V81.9605C71.427 80.9631 71.4363 79.9658 71.4363 78.9706ZM87.1076 30.2615C87.7179 30.2606 88.3097 30.4715 88.7819 30.8582C90.3047 32.3234 91.7921 33.8256 93.2782 35.3264L93.279 35.3272L93.2793 35.3275L93.2796 35.3278L93.2799 35.3281L93.2802 35.3284L93.2806 35.3287L93.2824 35.3306L93.2833 35.3315L93.2841 35.3324L93.285 35.3332L93.2859 35.3341L93.2868 35.335L93.2876 35.3359L93.2885 35.3368C94.0116 36.067 94.7343 36.7969 95.4606 37.522V56.0815C94.9013 56.8795 94.1405 57.0883 93.1747 57.0883H77.1062C75.4244 57.0883 74.9322 56.596 74.9322 54.9217V32.2416C74.9359 30.7575 75.4617 30.2354 76.9533 30.2354C77.6785 30.2346 78.4036 30.2328 79.1288 30.2309C81.7895 30.2242 84.4497 30.2176 87.1076 30.2615ZM87.5326 41.2995C85.9553 41.2622 84.3742 41.2585 82.7968 41.2995V41.307C82.5898 41.3043 82.3844 41.3437 82.1931 41.4226C82.0017 41.5015 81.8283 41.6183 81.6833 41.7661C81.5384 41.9138 81.4248 42.0894 81.3496 42.2822C81.2743 42.4751 81.2389 42.6812 81.2455 42.8881C81.2469 43.0945 81.2893 43.2986 81.3701 43.4886C81.4509 43.6786 81.5686 43.8507 81.7163 43.995C81.864 44.1392 82.0388 44.2528 82.2307 44.329C82.4225 44.4053 82.6276 44.4428 82.8341 44.4393C83.335 44.4591 83.8213 44.4527 84.3221 44.4461L84.3229 44.4461C84.5786 44.4427 84.838 44.4393 85.105 44.4393C85.3685 44.4393 85.6316 44.4426 85.8946 44.446L85.8951 44.446H85.8952C86.421 44.4526 86.9462 44.4592 87.473 44.4393C88.4724 44.402 89.125 43.742 89.125 42.8471C89.1245 42.6402 89.0827 42.4354 89.002 42.2449C88.9212 42.0544 88.8032 41.882 88.6549 41.7378C88.5065 41.5936 88.3308 41.4805 88.138 41.4052C87.9453 41.33 87.7395 41.294 87.5326 41.2995ZM82.8117 50.7489C84.3903 50.7862 85.9689 50.7862 87.5476 50.7489L87.5588 50.7414C87.9741 50.7414 88.3725 50.5764 88.6662 50.2827C88.9599 49.989 89.125 49.5906 89.125 49.1753C89.125 48.7599 88.9599 48.3615 88.6662 48.0678C88.3725 47.7741 87.9741 47.609 87.5588 47.609C87.0317 47.5891 86.5047 47.5958 85.9787 47.6024H85.9787H85.9786H85.9785H85.9785H85.9784H85.9783H85.9783H85.9782H85.9781H85.9781H85.978H85.9779C85.7152 47.6057 85.4528 47.609 85.1908 47.609H82.8191C82.403 47.611 82.0044 47.7769 81.7098 48.0708C81.4153 48.3647 81.2484 48.7629 81.2455 49.179C81.2409 49.3861 81.2783 49.5919 81.3553 49.7842C81.4324 49.9765 81.5475 50.1513 81.6938 50.2979C81.8401 50.4446 82.0146 50.5601 82.2067 50.6376C82.3988 50.7151 82.6046 50.753 82.8117 50.7489ZM87.0103 60.2357C84.7977 60.2556 82.5852 60.249 80.3726 60.2423C79.2663 60.239 78.16 60.2357 77.0537 60.2357C75.4316 60.2357 74.9207 60.7354 74.9207 62.3389V84.9221C74.9207 86.5964 75.4129 87.0886 77.0947 87.0886H93.1632C94.1291 87.0886 94.8898 86.8798 95.4492 86.0818V67.5223C94.9128 66.9803 94.3757 66.439 93.8386 65.8977C92.2287 64.2752 90.6188 62.6527 89.0277 61.0114C88.7678 60.7435 88.4528 60.5354 88.1044 60.4015C87.756 60.2675 87.3827 60.2109 87.0103 60.2357ZM87.4913 80.7828H85.1234C84.876 80.7828 84.6262 80.7857 84.3751 80.7886C83.8692 80.7944 83.3583 80.8003 82.8524 80.7828C82.436 80.7794 82.0381 80.6106 81.7461 80.3138C81.4541 80.0169 81.2921 79.6162 81.2955 79.1998C81.299 78.7835 81.4677 78.3855 81.7646 78.0936C82.0614 77.8016 82.4621 77.6395 82.8785 77.6429C84.4223 77.6131 85.9674 77.6131 87.5137 77.6429C87.7206 77.636 87.9268 77.6703 88.1202 77.7439C88.3137 77.8174 88.4906 77.9288 88.6405 78.0715C88.7905 78.2142 88.9105 78.3853 88.9937 78.5748C89.0768 78.7644 89.1213 78.9686 89.1247 79.1756C89.147 80.0594 88.4833 80.7157 87.4913 80.7828ZM87.4913 74.4434H85.1234C84.8765 74.4434 84.6272 74.4459 84.3765 74.4483L84.3751 74.4484H84.3748H84.3745H84.3742H84.3739H84.3736H84.3733H84.373H84.3727H84.3725H84.3722H84.3719C83.8671 74.4533 83.3572 74.4584 82.8524 74.4434C82.6401 74.4519 82.4282 74.4171 82.2297 74.3412C82.0312 74.2654 81.8502 74.15 81.6975 74.0021C81.5449 73.8542 81.4239 73.6769 81.3419 73.4809C81.2598 73.2848 81.2185 73.0741 81.2202 72.8616C81.222 72.6491 81.2669 72.4392 81.3522 72.2446C81.4375 72.0499 81.5614 71.8746 81.7165 71.7293C81.8715 71.584 82.0545 71.4716 82.2542 71.3991C82.4539 71.3266 82.6663 71.2953 82.8785 71.3073C84.4223 71.2725 85.9674 71.2725 87.5137 71.3073C87.7205 71.2993 87.9269 71.3328 88.1205 71.4057C88.3142 71.4787 88.4913 71.5897 88.6414 71.7322C88.7915 71.8747 88.9117 72.0458 88.9946 72.2354C89.0776 72.425 89.1218 72.6292 89.1247 72.8362C89.147 73.7423 88.4833 74.3987 87.4913 74.4621V74.4434ZM19.3468 27.0695H2.5661C1.24974 27.0695 0.701576 26.4803 0.705306 25.1118V13.6636V2.31608C0.705306 0.75361 1.21991 0.22409 2.75255 0.22409C3.50622 0.223261 4.25971 0.220957 5.01305 0.218652C7.64794 0.210594 10.2811 0.20254 12.9142 0.257639C13.5851 0.295059 14.2236 0.55785 14.7265 1.00345C16.6905 2.85554 18.5973 4.76232 20.4469 6.7238C20.8963 7.2228 21.1598 7.86167 21.1927 8.53243C21.2302 12.5254 21.2234 16.5204 21.2167 20.5144V20.5146V20.5147V20.5148V20.515V20.5151V20.5152V20.5154V20.5155V20.5156V20.5163V20.5167V20.5171V20.5174V20.5178V20.5182V20.5186V20.519V20.5194V20.5198V20.5202C21.214 22.082 21.2114 23.6436 21.2114 25.205C21.2114 26.4915 20.6408 27.0695 19.3468 27.0695ZM11.7038 20.7352C12.2075 20.7401 12.7026 20.745 13.1976 20.7301L13.2014 20.7488C14.2157 20.7152 14.872 20.0775 14.8906 19.1788C14.8951 18.9636 14.855 18.7497 14.7727 18.5507C14.6904 18.3517 14.5678 18.1719 14.4126 18.0227C14.2574 17.8734 14.073 17.758 13.8709 17.6835C13.6689 17.6091 13.4536 17.5773 13.2386 17.5903C11.7284 17.5604 10.2144 17.5642 8.70039 17.5903C7.68609 17.6052 7.02604 18.2391 7.01112 19.1378C6.9962 20.0365 7.65999 20.6928 8.65938 20.7301C9.16193 20.745 9.65626 20.7401 10.1587 20.7352H10.1588H10.1589H10.159H10.1591H10.1593H10.1594H10.1595H10.1596H10.1597H10.1598H10.16H10.1601C10.414 20.7327 10.6701 20.7301 10.9304 20.7301C11.1912 20.7301 11.4486 20.7327 11.7038 20.7352ZM13.2386 11.2658C11.7271 11.2385 10.2144 11.2385 8.70039 11.2658L8.70412 11.2845C7.68982 11.3031 7.02604 11.9184 7.01112 12.8134C6.9962 13.7083 7.65626 14.3684 8.65938 14.4057C9.16193 14.4205 9.65626 14.4157 10.1587 14.4107H10.1588H10.1588H10.1588H10.1588H10.1588H10.1588H10.1589H10.1589H10.1589H10.1589C10.4133 14.4082 10.6697 14.4057 10.9304 14.4057C11.1911 14.4057 11.4485 14.4086 11.7036 14.4116H11.7036H11.7036H11.7036H11.7037H11.7037H11.7037H11.7037H11.7037H11.7037H11.7038C12.2075 14.4173 12.7026 14.423 13.1976 14.4057C14.2119 14.3758 14.8906 13.7456 14.8906 12.8544C14.8951 12.6391 14.855 12.4252 14.7727 12.2262C14.6904 12.0273 14.5678 11.8475 14.4126 11.6982C14.2574 11.549 14.073 11.4334 13.8709 11.359C13.6689 11.2846 13.4536 11.2529 13.2386 11.2658ZM20.4656 36.7502C18.6011 34.7887 16.7105 32.8757 14.7452 31.0335C14.2154 30.5719 13.5454 30.3025 12.8434 30.2691C10.2619 30.2117 7.68036 30.2205 5.09882 30.2294C4.32421 30.232 3.54961 30.2347 2.775 30.2355C1.21999 30.2355 0.697917 30.7539 0.697917 32.2977V43.6489V54.9964C0.697917 56.5552 1.21625 57.0847 2.74889 57.0884H19.1232C20.7192 57.0884 21.2263 56.5701 21.2263 54.9442V54.9435C21.2263 49.4844 21.2263 44.0253 21.1816 38.5662C21.1554 37.8973 20.903 37.257 20.4656 36.7502ZM13.235 50.764C12.7378 50.7814 12.2306 50.7756 11.7235 50.7698C11.4699 50.7669 11.2163 50.764 10.964 50.764C10.7115 50.764 10.4591 50.7664 10.2067 50.7689C9.70248 50.7739 9.19878 50.7789 8.69674 50.764C7.68616 50.7267 7.02611 50.0815 7.02984 49.1866C7.03357 48.2916 7.6899 47.639 8.70047 47.6203C10.2145 47.5905 11.7285 47.5905 13.2424 47.6203C14.2493 47.639 14.9093 48.2953 14.9093 49.194C14.9093 50.0927 14.2306 50.7267 13.2201 50.764H13.235ZM11.7228 44.4304H11.7225H11.7222H11.722H11.7217H11.7214H11.7211H11.7209H11.7206H11.7203H11.7201C11.4657 44.4275 11.209 44.4246 10.9491 44.4246C10.6884 44.4246 10.432 44.4271 10.1776 44.4296C9.67509 44.4346 9.18071 44.4394 8.67809 44.4246C7.67871 44.3873 7.01492 43.7272 7.02984 42.8323C7.04475 41.9373 7.70481 41.2996 8.71911 41.281C10.2331 41.2536 11.7458 41.2536 13.2574 41.281C13.4723 41.268 13.6876 41.2998 13.8896 41.3742C14.0917 41.4486 14.2761 41.5641 14.4314 41.7134C14.5866 41.8626 14.7092 42.0424 14.7914 42.2414C14.8737 42.4404 14.9138 42.6543 14.9093 42.8695C14.872 43.7832 14.2157 44.4134 13.2014 44.4432L13.2163 44.4246C12.7215 44.4419 12.2267 44.4362 11.7231 44.4304H11.7231H11.7231H11.723H11.723H11.7229H11.7229H11.7228H11.7228ZM49.6753 52.5203H46.5131V31.8204H40.7592V28.7439H55.8917V31.8129H49.6753V52.5203ZM67.9141 60.4595C67.045 60.2806 66.1408 60.2523 65.2161 60.2234L65.2159 60.2234L65.2157 60.2234H65.2156C64.7914 60.2102 64.3629 60.1968 63.9314 60.1686V74.3875H71.7625C71.7625 73.3361 71.7671 72.2935 71.7717 71.2569V71.2561V71.2553V71.2544V71.2536V71.2528V71.252V71.2511C71.7807 69.1977 71.7897 67.1677 71.7625 65.1394C71.7439 64.0393 71.3535 62.978 70.6547 62.1282C69.9558 61.2783 68.9899 60.6902 67.9141 60.4595ZM60.7728 36.8619L63.8604 37.0036L63.8455 44.4394H71.6765V47.5606H63.8753V57.4575H60.7728V36.8619ZM32.3053 23.5717H35.4265C35.4265 22.6832 35.4295 21.8109 35.4324 20.9494V20.9491V20.9488V20.9486V20.9483V20.9481C35.4382 19.2572 35.4438 17.6081 35.4265 15.9607C35.4265 15.0433 34.7665 14.4691 33.8155 14.4467C33.0275 14.4243 32.2394 14.4318 31.4513 14.4392C31.0573 14.443 30.6633 14.4467 30.2692 14.4467H24.4631V17.6537H32.2941L32.3053 23.5717ZM63.8495 23.4635L60.7058 23.6052L60.717 19.4734C60.717 19.1005 60.7141 18.7276 60.7112 18.3547C60.7054 17.6089 60.6996 16.8631 60.717 16.1173C60.7394 15.103 61.3025 14.4429 62.2646 14.4429C64.3377 14.4281 66.4091 14.433 68.5009 14.4379H68.501H68.5011H68.5013H68.5014H68.5016H68.5019H68.5021H68.5023C69.5556 14.4404 70.6141 14.4429 71.6805 14.4429V17.5567H63.8495V23.4635ZM33.9538 46.0057C34.1387 46.0148 34.3234 45.9863 34.497 45.9221C34.6706 45.8579 34.8294 45.7593 34.9639 45.6322C35.0983 45.505 35.2057 45.352 35.2795 45.1822C35.3533 45.0125 35.392 44.8297 35.3933 44.6446C35.4387 42.8152 35.4305 40.9857 35.4222 39.1275V39.1272L35.4222 39.1254C35.4189 38.3897 35.4156 37.6496 35.4156 36.9031H32.2497V42.9031H24.4187V46.0206C25.3054 46.0206 26.1861 46.0223 27.0622 46.024C29.3803 46.0284 31.6671 46.0328 33.9538 46.0057ZM64.1808 33.5252C63.5313 33.9656 62.7661 34.2041 61.9814 34.2107C61.4552 34.2127 60.9337 34.1107 60.447 33.9107C59.9603 33.7107 59.5178 33.4166 59.145 33.0452C58.7723 32.6738 58.4765 32.2324 58.2746 31.7464C58.0728 31.2604 57.9689 30.7394 57.9689 30.2132C57.9726 29.4285 58.2083 28.6623 58.6462 28.0112C59.0842 27.3601 59.705 26.853 60.4304 26.5537C61.1558 26.2545 61.9535 26.1764 62.7232 26.3293C63.4928 26.4822 64.2001 26.8594 64.756 27.4132C65.3119 27.9671 65.6917 28.6729 65.8475 29.442C66.0033 30.2111 65.9282 31.0091 65.6316 31.7356C65.335 32.4622 64.8303 33.0848 64.1808 33.5252ZM30.1277 30.1645C30.1087 30.9563 30.325 31.7359 30.7491 32.4048C31.1732 33.0737 31.7861 33.6019 32.5103 33.9225C33.2345 34.2431 34.0376 34.3418 34.8179 34.2061C35.5982 34.0703 36.3207 33.7063 36.8941 33.1599C37.4675 32.6136 37.8661 31.9095 38.0394 31.1367C38.2128 30.3639 38.1531 29.5571 37.8679 28.8182C37.5827 28.0793 37.0848 27.4415 36.4373 26.9856C35.7897 26.5296 35.0214 26.2759 34.2296 26.2565C33.7033 26.2421 33.1792 26.332 32.6877 26.5209C32.1962 26.7098 31.7469 26.994 31.3657 27.3572C30.9845 27.7205 30.6788 28.1555 30.4664 28.6372C30.2539 29.119 30.1388 29.6381 30.1277 30.1645ZM44.2894 61.2272C43.8496 60.571 43.6151 59.7988 43.6157 59.0088C43.6117 57.9643 44.0205 56.9604 44.7532 56.2159C45.4858 55.4713 46.483 55.0464 47.5275 55.0336C48.3173 55.0203 49.0932 55.2424 49.7564 55.6716C50.4196 56.1008 50.94 56.7176 51.2514 57.4436C51.5627 58.1696 51.6509 58.9719 51.5048 59.7482C51.3586 60.5245 50.9847 61.2397 50.4306 61.8028C49.8766 62.3658 49.1674 62.7512 48.3936 62.9098C47.6197 63.0685 46.8161 62.9931 46.0852 62.6935C45.3543 62.3938 44.7292 61.8834 44.2894 61.2272Z" fill="url(#paint0_linear_250_5883)"/>
<defs>
<linearGradient id="paint0_linear_250_5883" x1="-13.4052" y1="-8.41706" x2="83.8656" y2="94.7236" gradientUnits="userSpaceOnUse">
<stop offset="0.152278" stop-color="#005FED"/>
<stop offset="0.98" stop-color="#00BFF9"/>
</linearGradient>
</defs>
</svg>
