<svg width="16" height="16" viewBox="0 0 16 16" fill="none" xmlns="http://www.w3.org/2000/svg">
<path fill-rule="evenodd" clip-rule="evenodd" d="M15.1527 6.17231C15.1942 6.25145 15.2141 6.34016 15.2104 6.42945C15.2104 9.16676 15.2114 11.902 15.2134 14.6353C15.2144 14.9916 15.0398 15.1651 14.6825 15.1651H0.542598C0.161946 15.1651 0.0117178 15.0159 0.0117178 14.6353C0.00968765 11.8987 0.00596102 9.16236 0.000547314 6.42641C-0.0038177 6.32908 0.0179902 6.23235 0.0636918 6.1463C0.109393 6.06026 0.177318 5.98803 0.260405 5.93714C0.642493 5.67711 1.02253 5.41434 1.4025 5.15161C1.67664 4.96205 1.95076 4.77252 2.22559 4.58405C2.26103 4.56379 2.29015 4.53408 2.30968 4.49823C2.32922 4.46239 2.33841 4.42181 2.33623 4.38104C2.34029 3.09528 2.34232 1.80953 2.34232 0.523773C2.34232 0.174589 2.51725 0 2.86711 0H12.3468C12.7255 0 12.893 0.170528 12.893 0.554224C12.8916 1.83389 12.8879 3.1166 12.8818 4.40236C12.8798 4.44309 12.8891 4.48357 12.9086 4.51938C12.9282 4.55519 12.9571 4.58494 12.9924 4.60537C13.4214 4.9001 13.849 5.19738 14.2768 5.49473C14.509 5.65619 14.7413 5.81766 14.9738 5.97876C15.0495 6.02641 15.1112 6.09317 15.1527 6.17231ZM13.9111 6.36753L12.896 5.65698V7.07808L13.9111 6.36753ZM3.26502 0.919653V1.06683H3.26096C3.26028 3.23976 3.25723 5.411 3.25182 7.58054C3.24781 7.62757 3.25711 7.67478 3.27865 7.71678C3.30018 7.75878 3.3331 7.79388 3.37363 7.81807C4.27028 8.43388 5.16489 9.05239 6.05748 9.67362C6.06977 9.6862 6.08445 9.6962 6.10066 9.70303C6.11687 9.70985 6.13429 9.71337 6.15188 9.71337C6.16947 9.71337 6.18688 9.70985 6.20309 9.70303C6.2193 9.6962 6.23399 9.6862 6.24628 9.67362C6.59681 9.39616 6.94938 9.12209 7.30398 8.85141C7.38839 8.77256 7.49959 8.7287 7.6151 8.7287C7.73061 8.7287 7.84181 8.77256 7.92622 8.85141C8.28048 9.12345 8.63372 9.39549 8.98493 9.6726C8.99589 9.68368 9.00893 9.69248 9.0233 9.69848C9.03768 9.70448 9.0531 9.70757 9.06868 9.70757C9.08426 9.70757 9.09968 9.70448 9.11406 9.69848C9.12843 9.69248 9.14147 9.68368 9.15242 9.6726C10.0531 9.04326 10.9579 8.41764 11.8667 7.79574C11.901 7.7749 11.9288 7.74478 11.9467 7.70886C11.9647 7.67295 11.9721 7.63269 11.9682 7.59272V1.05161C11.9682 1.03066 11.9668 1.00947 11.9653 0.98791C11.9637 0.965594 11.9621 0.942886 11.9621 0.919653H3.26502ZM2.33318 7.09635V5.63465L1.27548 6.3655L2.33318 7.09635ZM5.39463 10.3365L0.942535 7.25876V13.7877L5.39463 10.3365ZM1.84595 14.2506H13.3467L13.3477 14.2211L7.61459 9.77411L1.84595 14.2506ZM9.83151 10.3324L14.2867 13.7836V7.23542L9.83151 10.3324ZM9.49021 7.54393C8.58273 7.91443 7.6509 8.01188 6.70485 7.73273C5.37004 7.33787 4.52651 6.0335 4.60569 4.63677C4.70923 3.08878 6.05724 1.87679 7.58999 1.84938C8.61724 1.83213 9.47701 2.16913 10.1104 2.99844C10.4391 3.43233 10.6084 3.96613 10.5899 4.51014C10.5714 5.05415 10.3663 5.57522 10.0089 5.98579C9.776 6.26015 9.45133 6.44052 9.09534 6.49333C8.73702 6.54205 8.41931 6.47404 8.18178 6.15125C8.02576 6.34161 7.80623 6.46922 7.5636 6.51058C7.08956 6.57859 6.73936 6.37456 6.46733 6.00305C6.09073 5.48232 6.03694 4.32615 6.67034 3.72523C7.09464 3.32428 7.75342 3.23292 8.17264 3.56282C8.18877 3.57249 8.20576 3.58065 8.2234 3.58718C8.23252 3.54562 8.24063 3.51114 8.24874 3.47667L8.24877 3.47654C8.25399 3.43564 8.27402 3.39807 8.30507 3.37095C8.33612 3.34382 8.37605 3.32902 8.41728 3.32936C8.46556 3.32936 8.51472 3.32858 8.56434 3.3278C8.66493 3.32621 8.76736 3.3246 8.86797 3.32936C8.9979 3.33443 9.05576 3.41665 9.03952 3.5547L8.8365 5.2722C8.82263 5.38505 8.81483 5.49856 8.81315 5.61225C8.81214 5.75842 8.88624 5.81831 9.03139 5.79699C9.18985 5.76963 9.3336 5.68733 9.43742 5.56454C9.80589 5.16968 9.88811 4.68854 9.813 4.181C9.69322 3.3659 9.06388 2.74975 8.20614 2.58125C7.66853 2.46517 7.10706 2.54825 6.6261 2.81506C6.14515 3.08186 5.77743 3.51423 5.59132 4.03178C5.24214 4.99813 5.55376 6.12587 6.34146 6.72375C6.84087 7.10339 7.41743 7.18865 8.02647 7.15211C8.43582 7.1212 8.83718 7.02241 9.2141 6.85977C9.44554 6.76435 9.6516 6.82729 9.73687 7.03639C9.82213 7.2455 9.72469 7.44851 9.49021 7.54393ZM7.0916 5.39705C7.21239 5.75537 7.53823 5.84368 7.82143 5.59195H7.81737C7.95887 5.47392 8.0647 5.3188 8.12297 5.14399C8.18124 4.96917 8.18965 4.78158 8.14727 4.60225C8.12285 4.49233 8.06612 4.39222 7.98436 4.3148C7.9026 4.23738 7.79955 4.18619 7.68846 4.1678C7.58088 4.15393 7.47166 4.17419 7.37622 4.22573C7.28078 4.27728 7.20394 4.3575 7.15656 4.45507C7.06543 4.62526 7.01505 4.81429 7.00938 5.00726C7.02826 5.13885 7.05573 5.26905 7.0916 5.39705Z" fill="url(#paint0_linear_324_1162)"/>
<defs>
<linearGradient id="paint0_linear_324_1162" x1="7.60671" y1="0" x2="7.60671" y2="70.9203" gradientUnits="userSpaceOnUse">
<stop stop-color="#871ADD"/>
<stop offset="1" stop-color="#0094FF"/>
</linearGradient>
</defs>
</svg>
