<svg width="37" height="29" viewBox="0 0 37 29" fill="none" xmlns="http://www.w3.org/2000/svg">
<path d="M0.39801 22.143C0.499372 21.7566 0.622153 21.3761 0.765793 21.0033C1.08361 20.3214 1.58203 19.739 2.20725 19.3189C2.32747 19.2316 2.41316 19.1049 2.4494 18.961C2.54699 18.3732 2.81553 17.8269 3.22166 17.3901C3.62779 16.9532 4.15361 16.645 4.73378 16.5039C5.2998 16.3744 5.89145 16.4134 6.43551 16.6159C6.97957 16.8185 7.45217 17.1758 7.79485 17.6435C7.84551 17.725 7.91778 17.7909 8.00365 17.834C8.08953 17.877 8.18566 17.8955 8.28142 17.8875C13.3177 17.8875 18.354 17.8875 23.3903 17.8875C23.8289 17.8992 24.2649 17.8177 24.6694 17.6483C25.0739 17.4789 25.4376 17.2255 25.7364 16.905C26.0764 16.559 26.2669 16.0938 26.2669 15.6092C26.2669 15.1246 26.0764 14.6594 25.7364 14.3134C25.2633 14.8876 24.5995 15.2734 23.8655 15.4006C23.2705 15.49 22.6623 15.3999 22.119 15.142C21.5756 14.8841 21.1218 14.4702 20.8158 13.9533C20.5154 13.4455 20.3748 12.8593 20.4123 12.2707C20.4498 11.6822 20.6636 11.1186 21.026 10.6528C21.8644 9.61793 23.0637 9.22356 24.2767 9.58597C24.8542 9.77203 25.3637 10.1243 25.7413 10.5983C26.1189 11.0724 26.3477 11.6472 26.3989 12.2506C26.4294 12.385 26.5052 12.5049 26.6136 12.5902C27.4748 13.3196 28.0368 14.2108 28.1007 15.3596C28.183 16.88 27.4954 18.0151 26.2732 18.8585C25.4173 19.4431 24.4001 19.7474 23.3629 19.7291H8.4025C8.33307 20.3337 8.08239 20.9032 7.68326 21.3633C7.28414 21.8233 6.75515 22.1525 6.16549 22.3076C5.57584 22.4628 4.95298 22.4367 4.37839 22.2329C3.80381 22.029 3.30426 21.6569 2.9451 21.1651C2.09988 21.7578 2.03135 23.0685 2.77606 23.8776C3.07941 24.2007 3.44807 24.4557 3.85764 24.6258C4.26722 24.796 4.70834 24.8773 5.15181 24.8646C7.49331 24.8759 9.8348 24.8646 12.1763 24.8646C12.2158 24.871 12.2562 24.8695 12.2952 24.86C12.3341 24.8506 12.3707 24.8335 12.4029 24.8097C12.435 24.7859 12.4621 24.7559 12.4824 24.7215C12.5028 24.687 12.516 24.6489 12.5212 24.6093C12.6628 24.0327 12.9809 23.5144 13.4312 23.1263C13.8815 22.7383 14.4417 22.4997 15.0341 22.4439C16.2471 22.2752 17.2294 22.763 17.8964 23.7705C18.5634 24.778 18.5817 25.9085 17.9398 26.973C17.6722 27.4089 17.2962 27.7683 16.8482 28.0163C16.4003 28.2643 15.8956 28.3925 15.3834 28.3884C14.8711 28.3843 14.3686 28.248 13.9247 27.9928C13.4808 27.7376 13.1107 27.3721 12.8502 26.9319C12.813 26.8558 12.753 26.793 12.6786 26.7521C12.6041 26.7113 12.5188 26.6945 12.4344 26.704C9.99014 26.704 7.54357 26.7382 5.09928 26.704C3.27177 26.6744 1.76865 25.9404 0.850328 24.2856C0.666329 23.8829 0.518038 23.465 0.407157 23.0365L0.39801 22.143Z" fill="url(#paint0_linear_324_76)"/>
<path d="M14.7602 2.45622C15.1416 2.57863 15.516 2.72165 15.8818 2.88471C16.4309 3.17278 16.8605 3.64502 17.0948 4.21816C17.1206 4.29345 17.1719 4.35741 17.2399 4.39902C17.3079 4.44063 17.3883 4.45727 17.4672 4.4461C19.1622 4.4461 20.8595 4.4461 22.5545 4.4461C23.2832 4.4461 23.7241 4.788 23.7356 5.35784C23.747 5.92768 23.2947 6.30147 22.5522 6.30147C20.9075 6.30147 19.2627 6.30147 17.6203 6.30147C17.5113 6.28203 17.399 6.30465 17.3061 6.36475C17.2132 6.42485 17.1466 6.51791 17.12 6.62513C16.8952 7.162 16.5163 7.62058 16.031 7.94311C15.5456 8.26563 14.9755 8.43771 14.3924 8.43771C13.8093 8.43771 13.2392 8.26563 12.7539 7.94311C12.2685 7.62058 11.8896 7.162 11.6649 6.62513C11.6377 6.51894 11.5712 6.42697 11.4788 6.36775C11.3864 6.30853 11.2749 6.28649 11.1669 6.30604C9.79624 6.31971 8.43931 6.30604 7.07782 6.30604C6.67613 6.29781 6.27682 6.36937 5.90308 6.5165C5.52935 6.66363 5.18865 6.8834 4.9008 7.16308C3.94136 8.10446 4.06015 9.47209 5.15437 10.2539C5.73975 10.6772 6.44629 10.9011 7.1692 10.8921H17.6911C17.8437 10.8898 17.9963 10.8974 18.1479 10.9149C18.3726 10.9401 18.5794 11.0494 18.7265 11.2207C18.8736 11.392 18.9501 11.6126 18.9406 11.8381C18.9352 12.063 18.8466 12.278 18.6918 12.4417C18.537 12.6054 18.327 12.7062 18.1023 12.7247C18.02 12.7247 17.9355 12.7247 17.8533 12.7247C14.2714 12.7247 10.6917 12.7247 7.11666 12.7247C5.54729 12.7247 4.19721 12.1571 3.21493 10.9012C1.79632 9.10052 2.26919 6.61601 4.23604 5.31221C5.16699 4.71028 6.25904 4.40432 7.36794 4.43469C8.67917 4.43469 9.99042 4.43469 11.3017 4.43469C11.4638 4.43469 11.5849 4.43467 11.6694 4.24092C11.8601 3.78906 12.1618 3.39243 12.5467 3.08766C12.9316 2.7829 13.3873 2.57985 13.8716 2.49723C13.9175 2.48253 13.9618 2.46345 14.0041 2.44025L14.7602 2.45622Z" fill="url(#paint1_linear_324_76)"/>
<path d="M29.389 0.343262C28.0506 0.343262 26.7423 0.739256 25.6296 1.48122C24.5168 2.22318 23.6495 3.27776 23.1375 4.51156C22.6254 5.74536 22.4915 7.10297 22.7528 8.41269C23.0141 9.72241 23.6587 10.9254 24.6052 11.8695C25.5518 12.8136 26.7576 13.4565 28.0703 13.7167C29.383 13.977 30.7436 13.843 31.9799 13.3316C33.2163 12.8203 34.2729 11.9545 35.0161 10.844C35.7593 9.7334 36.1558 8.42784 36.1553 7.09243C36.1553 6.20592 35.9803 5.32811 35.6402 4.50911C35.3002 3.69011 34.8017 2.94598 34.1734 2.31923C33.545 1.69248 32.7991 1.19539 31.9782 0.856341C31.1573 0.517297 30.2774 0.342963 29.389 0.343262ZM32.4889 9.47891C32.5823 9.57285 32.6348 9.69986 32.6348 9.83222C32.6348 9.96459 32.5823 10.0916 32.4889 10.1855C32.3947 10.2788 32.2675 10.3311 32.1348 10.3311C32.0022 10.3311 31.8749 10.2788 31.7807 10.1855L29.389 7.79905L26.9995 10.181C26.9056 10.2747 26.7782 10.3273 26.6454 10.3273C26.5126 10.3273 26.3852 10.2747 26.2913 10.181C26.1974 10.0873 26.1447 9.96018 26.1447 9.82766C26.1447 9.69515 26.1974 9.56805 26.2913 9.47435L28.6808 7.08786L26.2913 4.7105C26.1974 4.6168 26.1447 4.4897 26.1447 4.35719C26.1447 4.22468 26.1974 4.09758 26.2913 4.00388C26.3852 3.91018 26.5126 3.85758 26.6454 3.85758C26.7782 3.85758 26.9056 3.91018 26.9995 4.00388L29.389 6.38814L31.7807 4.00388C31.8746 3.91018 32.002 3.85758 32.1348 3.85758C32.2676 3.85758 32.395 3.91018 32.4889 4.00388C32.5828 4.09758 32.6356 4.22468 32.6356 4.35719C32.6356 4.4897 32.5828 4.6168 32.4889 4.7105L30.0971 7.09471L32.4889 9.47891Z" fill="#7900B9"/>
<defs>
<linearGradient id="paint0_linear_324_76" x1="14.2527" y1="9.45416" x2="14.2527" y2="28.3885" gradientUnits="userSpaceOnUse">
<stop stop-color="#40048D"/>
<stop offset="1" stop-color="#AD00FF"/>
</linearGradient>
<linearGradient id="paint1_linear_324_76" x1="13.0652" y1="2.44025" x2="13.0652" y2="12.7247" gradientUnits="userSpaceOnUse">
<stop stop-color="#40048D"/>
<stop offset="1" stop-color="#AD00FF"/>
</linearGradient>
</defs>
</svg>
