<svg width="126" height="119" viewBox="0 0 126 119" fill="none" xmlns="http://www.w3.org/2000/svg">
<path d="M0 89.917C0.457647 88.1554 1.01278 86.4207 1.66282 84.7207C3.11226 81.6136 5.37896 78.9589 8.22052 77.0406C8.77135 76.6508 9.16262 76.0749 9.32213 75.4193C9.76555 72.7376 10.9869 70.2453 12.8344 68.2518C14.682 66.2583 17.0745 64.8514 19.7147 64.2058C22.2898 63.6155 24.9814 63.7931 27.4565 64.7166C29.9317 65.6402 32.0818 67.2692 33.6407 69.402C33.8746 69.7728 34.2055 70.0724 34.5975 70.2684C34.9896 70.4644 35.4278 70.5493 35.8647 70.514C58.77 70.514 81.6821 70.514 104.601 70.514C106.595 70.5668 108.576 70.1946 110.415 69.4223C112.253 68.65 113.906 67.4953 115.264 66.0349C116.806 64.4518 117.665 62.3262 117.655 60.116C117.646 57.9058 116.768 55.7878 115.212 54.2184C113.067 56.8394 110.048 58.5994 106.711 59.1757C104.004 59.5819 101.237 59.172 98.7639 57.9984C96.2908 56.8248 94.2237 54.9408 92.8264 52.5868C91.4697 50.2664 90.8359 47.5941 91.0063 44.9115C91.1766 42.229 92.1432 39.6582 93.7825 37.528C97.6069 32.8098 103.053 31.0222 108.582 32.6642C111.207 33.5161 113.523 35.1229 115.24 37.2837C116.957 39.4444 117.999 42.0634 118.236 44.8132C118.373 45.4298 118.718 45.9804 119.213 46.3721C123.131 49.6977 125.677 53.7508 125.968 58.9887C126.353 65.9309 123.225 71.1064 117.654 74.9516C113.756 77.6158 109.125 78.9997 104.404 78.9111H36.4051C36.0893 81.6674 34.9489 84.2642 33.1331 86.3618C31.3173 88.4593 28.9107 89.9599 26.2281 90.6674C23.5455 91.3748 20.7119 91.256 18.0979 90.3266C15.4839 89.3972 13.2113 87.7006 11.5773 85.4585C7.74247 88.1606 7.42029 94.1467 10.8187 97.8257C12.1962 99.3017 13.873 100.467 15.7369 101.243C17.6008 102.019 19.6089 102.388 21.6269 102.326C32.2793 102.326 42.9317 102.326 53.5841 102.326C53.764 102.357 53.9484 102.351 54.1261 102.308C54.3037 102.266 54.4709 102.188 54.6176 102.079C54.7643 101.97 54.8874 101.833 54.9794 101.675C55.0715 101.518 55.1307 101.343 55.1533 101.162C55.8017 98.5347 57.2498 96.174 59.2976 94.4055C61.3454 92.6369 63.8918 91.5478 66.5852 91.2887C72.1036 90.5197 76.5724 92.7438 79.607 97.3373C82.6417 101.931 82.7248 107.085 79.8045 111.949C78.5869 113.938 76.8751 115.579 74.8356 116.71C72.7961 117.842 70.4984 118.426 68.1661 118.406C65.8339 118.386 63.5464 117.763 61.5265 116.597C59.5066 115.431 57.823 113.762 56.6395 111.752C56.472 111.405 56.2011 111.119 55.8642 110.933C55.5273 110.747 55.1409 110.67 54.7584 110.712C43.628 110.712 32.508 110.868 21.3879 110.712C13.0219 110.577 6.23554 107.241 2.04734 99.6859C1.21985 97.8508 0.548884 95.9492 0.0415791 94.0012L0 89.917Z" fill="url(#paint0_linear_280_2912)"/>
<path d="M65.3391 0.155914C67.0708 0.71406 68.7708 1.3663 70.4314 2.10972C72.9347 3.42139 74.8905 5.57976 75.9499 8.19975C76.0672 8.54302 76.3006 8.83453 76.6098 9.02423C76.919 9.21393 77.2847 9.28994 77.6439 9.23901C85.3655 9.23901 93.0872 9.23901 100.799 9.23901C104.114 9.23901 106.12 10.7979 106.171 13.396C106.223 15.9942 104.166 17.6986 100.788 17.6986C93.3055 17.6986 85.8228 17.6986 78.3402 17.6986C77.846 17.6128 77.3376 17.7172 76.9173 17.991C76.497 18.2648 76.1959 18.6875 76.0746 19.1742C75.0319 21.6021 73.3002 23.671 71.0937 25.1247C68.8873 26.5784 66.303 27.3532 63.6607 27.3532C61.0184 27.3532 58.4341 26.5784 56.2276 25.1247C54.0212 23.671 52.2895 21.6021 51.2468 19.1742C51.1345 18.6853 50.8394 18.2578 50.422 17.9796C50.0046 17.7013 49.4965 17.5934 49.002 17.6778C42.7664 17.7401 36.5932 17.6778 30.3889 17.6778C28.5619 17.639 26.7456 17.9656 25.0466 18.6384C23.3477 19.3112 21.8002 20.3167 20.4952 21.5958C16.1303 25.8775 16.6707 32.113 21.6488 35.688C24.3136 37.6148 27.5267 38.6349 30.815 38.598H78.6831C79.3777 38.591 80.072 38.6292 80.7616 38.7123C81.7746 38.8266 82.7076 39.3174 83.3756 40.0874C84.0436 40.8574 84.3978 41.8504 84.3679 42.8693C84.3431 43.8951 83.9399 44.8754 83.2358 45.6217C82.5317 46.3681 81.5764 46.8277 80.5538 46.9121C80.1693 46.9121 79.7951 46.9121 79.4106 46.9121C63.1255 46.9121 46.8403 46.9121 30.5656 46.9121C23.4259 46.9121 17.2839 44.3243 12.8047 38.598C6.3509 30.3775 8.50216 19.0496 17.4502 13.1154C21.6872 10.3653 26.6593 8.9664 31.7088 9.1039C37.6741 9.1039 43.6394 9.1039 49.6048 9.1039C50.3426 9.1039 50.8934 9.10391 51.2779 8.21015C52.1437 6.14885 53.5159 4.33946 55.2672 2.94968C57.0185 1.5599 59.0923 0.634683 61.2964 0.259814C61.5069 0.197362 61.7092 0.110147 61.8991 0L65.3391 0.155914Z" fill="url(#paint1_linear_280_2912)"/>
<defs>
<linearGradient id="paint0_linear_280_2912" x1="63" y1="32.0676" x2="63" y2="118.407" gradientUnits="userSpaceOnUse">
<stop stop-color="#61049A"/>
<stop offset="1" stop-color="#A700FF"/>
</linearGradient>
<linearGradient id="paint1_linear_280_2912" x1="57.6227" y1="0" x2="57.6227" y2="46.9121" gradientUnits="userSpaceOnUse">
<stop stop-color="#61049A"/>
<stop offset="1" stop-color="#A700FF"/>
</linearGradient>
</defs>
</svg>
