<svg width="36" height="31" viewBox="0 0 36 31" fill="none" xmlns="http://www.w3.org/2000/svg">
<path d="M22.5241 14.027C22.3181 14.0464 22.1232 14.1317 21.9672 14.2709C21.6719 14.5283 21.3974 14.8097 21.1461 15.1122C21.0222 15.2593 20.9472 15.4429 20.9319 15.6366C20.9153 17.3437 20.9319 19.0313 20.9319 20.7286C20.9199 20.8193 20.9286 20.9116 20.9574 20.9982C20.9861 21.0848 21.0341 21.1634 21.0976 21.2277C21.1611 21.292 21.2383 21.3404 21.3231 21.3689C21.4079 21.3974 21.4981 21.4053 21.5864 21.392C22.793 21.392 23.9973 21.392 25.2039 21.392H25.5061V22.665H2.58756V21.392H6.43113C6.96661 21.392 7.15937 21.192 7.15937 20.636V14.7537C7.15937 14.2123 6.96898 14.0221 6.44539 14.0221H2.59947C2.58528 13.9743 2.57493 13.9254 2.56853 13.8758C2.56853 12.8564 2.56853 11.837 2.56853 10.8176C2.56853 10.5104 2.70656 10.3616 3.00405 10.3591C4.3963 10.3591 5.78856 10.3591 7.17843 10.3591C7.20947 10.3632 7.23987 10.3715 7.26886 10.3835V12.115C7.16653 12.0199 7.09034 11.937 7.00467 11.8711C6.96894 11.8368 6.92689 11.8101 6.88097 11.7925C6.83504 11.775 6.78618 11.767 6.73722 11.7691C6.68825 11.7711 6.64018 11.7832 6.59579 11.8045C6.55141 11.8258 6.5116 11.8559 6.47872 11.8931C6.44094 11.9255 6.41012 11.9655 6.38816 12.0106C6.36621 12.0558 6.35361 12.1051 6.35115 12.1555C6.34869 12.2059 6.35642 12.2563 6.37387 12.3035C6.39132 12.3506 6.41811 12.3936 6.45254 12.4296C6.76907 12.7808 7.09989 13.1174 7.44259 13.4442C7.47778 13.4795 7.51971 13.5069 7.56574 13.5248C7.61178 13.5427 7.66093 13.5506 7.7101 13.5481C7.75927 13.5455 7.8074 13.5326 7.85147 13.5101C7.89553 13.4876 7.93459 13.456 7.96616 13.4173C8.28269 13.1027 8.59685 12.7857 8.8991 12.4589C8.93673 12.4231 8.96672 12.3797 8.98724 12.3314C9.00776 12.2832 9.01836 12.2311 9.01836 12.1784C9.01836 12.1258 9.00776 12.0737 8.98724 12.0255C8.96672 11.9772 8.93673 11.9338 8.8991 11.898C8.86242 11.8585 8.8183 11.8271 8.76941 11.8056C8.72053 11.7842 8.66787 11.7731 8.61468 11.7731C8.56149 11.7731 8.50887 11.7842 8.45998 11.8056C8.4111 11.8271 8.36697 11.8585 8.3303 11.898C8.2589 11.9614 8.19226 12.0321 8.09231 12.1272V10.3591H8.55399C9.02998 10.3591 9.50596 10.3591 9.98194 10.3591C10.1533 10.3591 10.2199 10.4128 10.2199 10.603C10.2199 10.9176 10.2199 11.2347 10.2199 11.5493C10.2095 11.6379 10.2191 11.7278 10.2481 11.812C10.2771 11.8961 10.3246 11.9723 10.387 12.0346C10.4494 12.0969 10.525 12.1436 10.6079 12.1711C10.6908 12.1986 10.7787 12.2061 10.8649 12.1931C11.6836 12.1931 12.5047 12.1931 13.3234 12.1931H13.6304V15.2732L13.578 15.3025C13.5322 15.253 13.4922 15.1982 13.459 15.1391C13.3495 14.8952 13.2472 14.6245 13.1401 14.3685C13.093 14.2356 13.0052 14.122 12.8898 14.0446C12.7744 13.9672 12.6376 13.9302 12.4999 13.9392C11.6289 13.9392 10.7554 13.9392 9.88201 13.9392C9.79324 13.9287 9.70327 13.9385 9.61871 13.9681C9.53415 13.9977 9.45711 14.0464 9.39324 14.1104C9.32937 14.1745 9.28028 14.2523 9.24955 14.3383C9.21882 14.4243 9.20722 14.5163 9.21562 14.6075C9.21562 16.7893 9.21562 18.9736 9.21562 21.1603C9.20752 21.2447 9.21803 21.3298 9.24636 21.4095C9.27468 21.4891 9.32012 21.5612 9.3793 21.6204C9.43847 21.6797 9.50987 21.7245 9.58823 21.7517C9.6666 21.7788 9.7499 21.7876 9.83201 21.7773C12.6403 21.7773 15.4494 21.7773 18.2593 21.7773C18.3416 21.788 18.4252 21.7795 18.5038 21.7525C18.5825 21.7256 18.6542 21.6808 18.7137 21.6215C18.7731 21.5622 18.8188 21.49 18.8472 21.4101C18.8757 21.3303 18.8862 21.2449 18.8781 21.1603C18.8781 19.4093 18.8781 17.6583 18.8781 15.9073C18.8781 15.4902 18.6401 15.2927 18.2046 15.2903H14.4538V12.1906H17.205C17.6643 12.1906 17.869 11.9858 17.8761 11.52C17.8761 11.2054 17.8761 10.8884 17.8761 10.5738C17.8761 10.5055 17.9642 10.3811 18.0142 10.3811C18.7067 10.3689 19.3993 10.3811 20.1061 10.3811V12.1419C20.0085 12.0516 19.9419 11.9858 19.8681 11.9248C19.7958 11.8479 19.6967 11.8035 19.5925 11.8014C19.4883 11.7994 19.3875 11.8398 19.3124 11.9138C19.2373 11.9879 19.194 12.0895 19.192 12.1963C19.19 12.3031 19.2294 12.4063 19.3017 12.4833C19.6063 12.8084 19.9181 13.1271 20.237 13.4393C20.2716 13.4814 20.3148 13.5152 20.3635 13.5384C20.4122 13.5616 20.4653 13.5736 20.519 13.5736C20.5727 13.5736 20.6258 13.5616 20.6745 13.5384C20.7232 13.5152 20.7664 13.4814 20.8011 13.4393C21.1128 13.1344 21.4174 12.8198 21.7173 12.5004C21.757 12.464 21.7887 12.4195 21.8105 12.3697C21.8322 12.3199 21.8434 12.2659 21.8434 12.2113C21.8434 12.1568 21.8322 12.1029 21.8105 12.0531C21.7887 12.0033 21.757 11.9588 21.7173 11.9224C21.6806 11.8829 21.6365 11.8515 21.5876 11.83C21.5387 11.8085 21.4861 11.7974 21.4329 11.7974C21.3797 11.7974 21.3271 11.8085 21.2782 11.83C21.2293 11.8515 21.1852 11.8829 21.1485 11.9224C21.0771 11.9858 21.0105 12.0541 20.9105 12.1492V10.3933C20.9938 10.3933 21.0724 10.3811 21.1485 10.3811C20.7689 9.47934 20.5737 8.50743 20.5749 7.52535C20.5763 7.23186 20.5946 6.93867 20.6297 6.64738C20.5919 6.63471 20.5527 6.62737 20.5131 6.62547C20.4554 6.62323 20.398 6.63387 20.3447 6.65667C20.2915 6.67948 20.2437 6.7139 20.2047 6.75753C20.1658 6.80116 20.1366 6.85293 20.1191 6.9093C20.1017 6.96567 20.0964 7.02527 20.1037 7.08393C20.1037 7.57168 20.1037 8.03988 20.1037 8.51788V9.54463H17.8523V9.17638C17.8523 8.87886 17.8523 8.57885 17.8523 8.28377C17.853 8.23353 17.8437 8.1837 17.8249 8.1373C17.8061 8.0909 17.7782 8.04895 17.743 8.01399C17.7078 7.97904 17.6659 7.9518 17.6201 7.93403C17.5742 7.91627 17.5253 7.9083 17.4763 7.91063C17.4253 7.90662 17.374 7.91345 17.3257 7.93058C17.2773 7.94771 17.2329 7.9748 17.1952 8.01024C17.1574 8.04568 17.1273 8.08869 17.1064 8.13659C17.0856 8.18448 17.0746 8.23622 17.0741 8.28865C17.0741 8.36913 17.0741 8.44961 17.0741 8.53252C17.0741 9.37958 17.0741 10.2275 17.0741 11.0762C17.0741 11.1713 17.0741 11.2688 17.0598 11.3688H10.9982V11.0298C10.9982 9.35844 10.9982 7.68871 10.9982 6.02061C10.9982 5.53287 10.8768 5.00858 11.0458 4.60131C11.2148 4.19404 11.6622 3.88187 11.9978 3.54776C12.1033 3.45009 12.2388 3.39319 12.3809 3.38682C13.8517 3.37463 15.3225 3.38682 16.7933 3.38682H17.0646V3.74775C17.0646 4.60619 17.0646 5.45488 17.0646 6.32063C17.0646 6.64498 17.2121 6.80838 17.462 6.80838C17.7119 6.80838 17.8547 6.63278 17.8547 6.30599C17.8547 5.27684 17.8547 4.24847 17.8547 3.22095C17.8547 2.76978 17.6405 2.56494 17.1979 2.56494C15.5153 2.56494 13.8326 2.56494 12.15 2.56494C11.944 2.5814 11.7491 2.66713 11.5955 2.80882C11.2147 3.15512 10.8816 3.54044 10.5032 3.90869C10.3979 4.00329 10.3149 4.12114 10.2605 4.25336C10.206 4.38558 10.1816 4.52875 10.189 4.67204C10.189 6.18894 10.189 7.70581 10.189 9.22026V9.54219H8.04707V7.25707C8.04707 7.19366 8.04707 7.13025 8.04707 7.06684C8.04707 6.79126 7.89002 6.62303 7.65679 6.62059C7.60115 6.61964 7.54591 6.63072 7.49474 6.65316C7.44358 6.67559 7.39763 6.70884 7.35988 6.75074C7.32213 6.79265 7.29346 6.84226 7.27572 6.89632C7.25798 6.95037 7.25158 7.00764 7.25695 7.0644C7.25695 7.79602 7.25695 8.52764 7.25695 9.25926V9.5641H6.90711C5.61958 9.5641 4.33441 9.5641 3.04925 9.5641C2.23056 9.5641 1.74983 10.0519 1.74745 10.8908C1.74745 11.9809 1.74745 13.0735 1.74745 14.166C1.74745 14.5684 1.74746 14.9342 1.37858 15.1878C1.31573 15.2491 1.26343 15.3209 1.22388 15.4V20.9774C1.35715 21.1115 1.49755 21.2383 1.6213 21.3822C1.68307 21.4497 1.72369 21.5347 1.73792 21.6261C1.73792 22.6016 1.73792 23.5771 1.73792 24.5526C1.73792 25.2842 2.08539 25.633 2.78747 25.633H10.5079V27.701H8.49211C8.32447 27.6931 8.15705 27.7207 8.00024 27.7819C7.84343 27.8432 7.70059 27.9368 7.58062 28.0571C7.20697 28.4351 7.06419 29.352 7.35692 29.7959C7.52511 29.9849 7.71812 30.1491 7.93046 30.2836H20.0823C20.3199 30.2056 20.5218 30.0421 20.6509 29.8233C20.7799 29.6045 20.8273 29.3453 20.7844 29.0935C20.7844 28.996 20.7844 28.896 20.7844 28.796C20.7617 28.5429 20.6608 28.3038 20.4965 28.1135C20.3322 27.9232 20.1129 27.7915 19.8705 27.7376C19.7228 27.7115 19.5729 27.7001 19.4231 27.7035C18.7924 27.7035 18.1593 27.7035 17.5191 27.7035V25.6354H25.1896C25.9536 25.6354 26.2891 25.2964 26.2891 24.5233C26.2891 23.5844 26.2891 22.6455 26.2891 21.7066V21.4188C26.6152 21.3188 26.808 21.1384 26.808 20.7969C26.808 20.0653 26.808 19.3167 26.808 18.5753C26.8141 18.5184 26.8084 18.4608 26.7913 18.4063C26.7742 18.3518 26.7462 18.3016 26.7089 18.259C26.6716 18.2163 26.626 18.1822 26.575 18.1589C26.524 18.1355 26.4687 18.1235 26.4129 18.1235C26.357 18.1235 26.3018 18.1355 26.2508 18.1589C26.1998 18.1822 26.1542 18.2163 26.1169 18.259C26.0796 18.3016 26.0515 18.3518 26.0345 18.4063C26.0174 18.4608 26.0117 18.5184 26.0178 18.5753C26.0178 19.063 26.0178 19.5508 26.0178 20.0385V20.5579H21.7006V20.2409C21.7006 19.0215 21.7411 17.8022 21.684 16.5828C21.6531 15.8999 21.8101 15.3634 22.3599 14.9903C22.466 14.9064 22.593 14.8549 22.7264 14.8416C23.607 14.8269 24.4875 14.8416 25.3681 14.8416H25.9821C26.0012 14.8855 26.013 14.9001 26.013 14.9172C26.013 15.4391 26.013 15.9634 26.013 16.4853C26.013 16.8486 26.1535 17.0364 26.4176 17.0315C26.6818 17.0267 26.8056 16.8438 26.8056 16.4999C26.8056 15.939 26.7913 15.3781 26.8056 14.8196C26.8079 14.7741 26.8079 14.7285 26.8056 14.683C26.0325 14.5936 25.2795 14.3718 24.578 14.027C23.9092 14.0124 23.2167 14.0099 22.5241 14.027ZM10.0081 14.7318H12.0144C12.4904 14.7318 12.4904 14.7318 12.6046 15.2561H10.0081V14.7318ZM12.8117 18.8655C13.129 19.2069 13.4527 19.5385 13.7827 19.8604C13.8188 19.8982 13.8624 19.9277 13.9105 19.9468C13.9586 19.966 14.0101 19.9745 14.0616 19.9717C14.1131 19.969 14.1635 19.955 14.2094 19.9308C14.2553 19.9065 14.2956 19.8726 14.3277 19.8312C14.6371 19.5239 14.9441 19.2142 15.2416 18.8947C15.2807 18.8577 15.3118 18.8128 15.3331 18.7629C15.3545 18.7129 15.3655 18.659 15.3655 18.6045C15.3655 18.55 15.3545 18.4961 15.3331 18.4461C15.3118 18.3962 15.2807 18.3513 15.2416 18.3143C15.2041 18.2758 15.1595 18.2456 15.1102 18.2254C15.061 18.2052 15.0083 18.1955 14.9553 18.1969C14.9023 18.1982 14.8501 18.2106 14.8019 18.2333C14.7538 18.2561 14.7106 18.2886 14.6752 18.329C14.6109 18.3851 14.5514 18.4484 14.4538 18.5387V16.0999H18.0594V20.9335H10.0129V16.1048H13.6161V18.5435C13.5114 18.4436 13.44 18.368 13.3614 18.2997C13.3244 18.2636 13.2806 18.2357 13.2327 18.2176C13.1848 18.1994 13.1338 18.1916 13.0828 18.1943C13.0318 18.197 12.9819 18.2104 12.9361 18.2335C12.8903 18.2567 12.8496 18.2892 12.8164 18.329C12.7804 18.3631 12.7516 18.4044 12.7317 18.4503C12.7118 18.4963 12.7013 18.5459 12.7009 18.5961C12.7004 18.6464 12.71 18.6962 12.7291 18.7425C12.7481 18.7888 12.7762 18.8307 12.8117 18.8655ZM2.04255 20.2921C2.04255 18.8289 2.04255 17.3657 2.04255 15.8829C2.05721 15.7386 2.1117 15.6015 2.19964 15.4878C2.5709 14.9367 3.07781 14.7562 3.73467 14.8147C4.59144 14.8757 5.45536 14.8294 6.33355 14.8294V20.5579H2.0497C2.0497 20.4653 2.04255 20.3775 2.04255 20.2921ZM19.4159 28.4985C19.9395 28.4985 20.1728 28.8253 20.0014 29.3325C19.9858 29.3612 19.9646 29.3864 19.9393 29.4065C19.9139 29.4266 19.8849 29.4413 19.8538 29.4496C19.7844 29.4594 19.7139 29.4594 19.6444 29.4496C15.9032 29.4496 12.1612 29.4496 8.41835 29.4496C8.27556 29.4496 8.06611 29.5422 8.04469 29.2545C8.00661 28.796 8.08754 28.5765 8.35409 28.5228C8.44907 28.5054 8.54565 28.4989 8.64205 28.5034H13.8446C13.9231 28.5034 14.004 28.5034 14.0826 28.5034C14.3634 28.4887 14.5205 28.3473 14.5252 28.1083C14.53 27.8693 14.3634 27.6961 14.073 27.6937C13.2805 27.6937 12.488 27.6937 11.6931 27.6937H11.3504V25.6452H16.6981V27.6937H16.1816C15.777 27.6937 15.5914 27.8254 15.5938 28.1058C15.5962 28.3863 15.7747 28.5058 16.1912 28.5058L19.4159 28.4985ZM25.4966 24.6306C25.4966 24.6892 25.3919 24.7647 25.3205 24.7989C25.2513 24.8124 25.1803 24.8124 25.1111 24.7989H2.94693C2.55425 24.7989 2.55424 24.7989 2.55424 24.4063V23.5015H25.5061C25.5133 23.8942 25.5204 24.2624 25.5038 24.6306H25.4966Z" fill="url(#paint0_linear_534_2)"/>
<path d="M15.8905 6.82506C15.9282 6.82279 15.9648 6.81455 15.9983 6.80088C16.0318 6.7872 16.0615 6.76836 16.0855 6.74546C16.1095 6.72257 16.1273 6.6961 16.138 6.66765C16.1486 6.6392 16.1518 6.60932 16.1474 6.57987C16.1078 6.47637 16.0346 6.38273 15.9351 6.30805C15.899 6.27469 15.8056 6.27803 15.7228 6.26302C15.7228 5.85943 15.7228 5.45918 15.7228 5.05892C15.7228 4.82544 15.5975 4.69871 15.3724 4.69704C15.1474 4.69537 15.0179 4.8221 15.0158 5.05558C15.0158 5.41915 15.0158 5.78272 15.0158 6.14628C15.0158 6.24802 15.0009 6.32471 14.8247 6.24632C14.8247 5.99783 14.8247 5.746 14.8247 5.49251C14.8247 5.29405 14.6781 5.16898 14.4679 5.17065C14.2577 5.17231 14.1218 5.29739 14.1197 5.50419C14.1176 5.71099 14.1197 5.94781 14.1197 6.17128C14.1197 6.28469 14.0709 6.31971 13.9307 6.25133V5.2774C13.9307 5.02391 13.814 4.89882 13.5825 4.89549C13.3511 4.89215 13.2237 5.0189 13.2237 5.26739C13.2237 5.56424 13.2237 5.85944 13.2237 6.1563C13.2237 6.25136 13.2067 6.32306 13.0347 6.26469V5.80439C13.0347 5.58759 12.901 5.45916 12.6844 5.45582C12.4678 5.45249 12.3298 5.58424 12.3277 5.78937C12.3277 5.95614 12.3277 6.10458 12.3277 6.26135C12.264 6.26931 12.201 6.27988 12.1387 6.29302C12.0569 6.30708 11.9853 6.34558 11.9389 6.40035C11.8926 6.45512 11.8751 6.52187 11.8903 6.58655C11.8935 6.64928 11.9268 6.70875 11.9835 6.75299C12.0402 6.79724 12.1161 6.823 12.196 6.82506C12.2512 6.82755 12.3065 6.82755 12.3617 6.82506H15.6824C15.7516 6.83061 15.8214 6.83061 15.8905 6.82506Z" fill="url(#paint1_linear_534_2)"/>
<path d="M15.2357 7.24824C14.8784 7.23187 14.5194 7.23187 14.1586 7.24824C14.1394 7.24454 14.1204 7.25942 14.1026 7.29193C14.0848 7.32444 14.0687 7.37384 14.0554 7.43687C14.042 7.49989 14.0318 7.57517 14.0252 7.65768C14.0187 7.74018 14.0161 7.82813 14.0175 7.91567C14.0175 8.3251 14.0773 8.5871 14.1898 8.59529C14.3577 8.59529 14.5265 8.59529 14.6944 8.59529C14.8731 8.59529 15.0517 8.59529 15.2303 8.59529C15.2495 8.60106 15.2687 8.5883 15.2868 8.5579C15.3048 8.52751 15.3213 8.4801 15.3351 8.41876C15.3489 8.35742 15.3597 8.28358 15.3669 8.20185C15.3741 8.12012 15.3775 8.03232 15.3768 7.94426C15.3792 7.85445 15.3772 7.76338 15.3711 7.67737C15.365 7.59135 15.3549 7.51252 15.3414 7.44626C15.328 7.38001 15.3116 7.32792 15.2933 7.29373C15.2751 7.25953 15.2554 7.24403 15.2357 7.24824Z" fill="url(#paint2_linear_534_2)"/>
<path d="M14.7024 8.59656C14.5337 8.59656 14.3651 8.59656 14.1965 8.59656C14.0754 8.59656 14.0171 8.83422 14.0171 9.27274C14.0171 9.71127 14.079 9.95314 14.1965 9.95724C14.5301 9.95724 14.8647 9.95724 15.1984 9.95724C15.3159 9.95724 15.3778 9.68266 15.3778 9.25233C15.3778 8.82201 15.3132 8.60475 15.1984 8.59656C15.0333 8.59656 14.8656 8.59656 14.7024 8.59656Z" fill="url(#paint3_linear_534_2)"/>
<path d="M26.1615 18.882C26.2411 18.8988 26.3218 18.8852 26.3984 18.8421C26.4751 18.799 26.5461 18.7272 26.6069 18.6313C26.6678 18.5354 26.7173 18.4173 26.7523 18.2847C26.7873 18.152 26.8071 18.0074 26.8104 17.8601C26.8115 17.7055 26.7946 17.5524 26.761 17.4108C26.7273 17.2692 26.6776 17.1425 26.6152 17.0391C26.5528 16.9357 26.4791 16.858 26.3991 16.8113C26.319 16.7645 26.2345 16.7497 26.1511 16.7679C25.1657 16.7679 24.1792 16.7679 23.1914 16.7679C23.1112 16.752 23.0301 16.7669 22.9532 16.8116C22.8763 16.8563 22.8052 16.9299 22.7446 17.0277C22.6839 17.1256 22.635 17.2455 22.6008 17.38C22.5666 17.5144 22.548 17.6605 22.546 17.8089C22.546 18.4476 22.7854 18.8756 23.2018 18.8884C23.691 18.8884 24.1768 18.8884 24.6626 18.8884C25.1484 18.8884 25.6619 18.9012 26.1615 18.882Z" fill="url(#paint4_linear_534_2)"/>
<path d="M2.78351 16.7647C2.28218 16.7647 1.78084 16.7647 1.27951 16.7647C1.23979 16.7533 1.19988 16.7723 1.16225 16.8204C1.12462 16.8685 1.09009 16.9448 1.06085 17.0444C1.03161 17.144 1.00828 17.2647 0.992321 17.399C0.976366 17.5334 0.96814 17.6785 0.96814 17.8251C0.96814 17.9717 0.976366 18.1167 0.992321 18.2511C1.00828 18.3854 1.03161 18.5063 1.06085 18.6058C1.09009 18.7054 1.12462 18.7815 1.16225 18.8297C1.19988 18.8778 1.23979 18.8969 1.27951 18.8855C1.52843 18.8855 1.77911 18.8855 2.02978 18.8855C2.28044 18.8855 2.5311 18.8855 2.78177 18.8855C2.82194 18.9028 2.86266 18.8883 2.90121 18.8433C2.93976 18.7983 2.97526 18.7236 3.00537 18.6243C3.03549 18.5249 3.05953 18.4031 3.0759 18.267C3.09227 18.1309 3.10061 17.9835 3.10034 17.8347C3.1005 17.6857 3.0922 17.5383 3.07599 17.4018C3.05977 17.2653 3.03598 17.1428 3.00616 17.042C2.97634 16.9413 2.94115 16.8645 2.9028 16.8168C2.86446 16.769 2.82382 16.7513 2.78351 16.7647Z" fill="url(#paint5_linear_534_2)"/>
<path d="M27.8555 0.432861C26.0396 0.432807 24.2863 1.09898 22.9262 2.30583C21.5661 3.51268 20.6931 5.17686 20.4717 6.98469C20.4346 7.28567 20.4154 7.58856 20.4139 7.89183C20.4134 9.30031 20.8104 10.6802 21.5592 11.8717C22.3079 13.0633 23.3777 14.0179 24.6447 14.6251C25.3852 14.9814 26.1801 15.2106 26.9963 15.303C28.0057 15.427 29.0297 15.342 30.0051 15.0534C30.9805 14.7648 31.8865 14.2787 32.6672 13.625C33.4479 12.9714 34.0868 12.1642 34.5442 11.2532C35.0017 10.3422 35.2681 9.34681 35.3269 8.32851C35.3858 7.31021 35.2358 6.29067 34.8864 5.33277C34.5369 4.37487 33.9954 3.49897 33.2952 2.75925C32.595 2.01953 31.751 1.43167 30.8154 1.03196C29.8798 0.632256 28.8724 0.429238 27.8555 0.435384V0.432861ZM31.2622 10.5327C31.3655 10.6363 31.4235 10.7768 31.4235 10.9233C31.4235 11.0698 31.3655 11.2103 31.2622 11.3139C31.1589 11.4175 31.0189 11.4757 30.8728 11.4757C30.7268 11.4757 30.5867 11.4175 30.4834 11.3139L27.8555 8.67556L26.122 10.4143L25.5266 11.0141L25.2251 11.3139C25.1215 11.417 24.9816 11.4749 24.8357 11.4749C24.6898 11.4749 24.5498 11.417 24.4462 11.3139C24.344 11.2098 24.2868 11.0695 24.2868 10.9233C24.2868 10.7772 24.344 10.6369 24.4462 10.5327L24.9739 10.0036L27.0767 7.89435L24.4462 5.26103C24.343 5.15744 24.285 5.01693 24.285 4.87043C24.285 4.72393 24.343 4.58342 24.4462 4.47983C24.5495 4.37624 24.6896 4.31809 24.8357 4.31809C24.9817 4.31809 25.1218 4.37624 25.2251 4.47983L27.8555 7.11573L30.4834 4.47983C30.5867 4.37624 30.7268 4.31809 30.8728 4.31809C31.0189 4.31809 31.1589 4.37624 31.2622 4.47983C31.3655 4.58342 31.4235 4.72393 31.4235 4.87043C31.4235 5.01693 31.3655 5.15744 31.2622 5.26103L28.6343 7.89687L31.2622 10.5327Z" fill="#7900B9"/>
<defs>
<linearGradient id="paint0_linear_534_2" x1="14.0171" y1="2.56494" x2="14.0171" y2="30.2836" gradientUnits="userSpaceOnUse">
<stop stop-color="#40048D"/>
<stop offset="1" stop-color="#AD00FF"/>
</linearGradient>
<linearGradient id="paint1_linear_534_2" x1="14.0172" y1="4.69702" x2="14.0172" y2="6.82923" gradientUnits="userSpaceOnUse">
<stop stop-color="#40048D"/>
<stop offset="1" stop-color="#AD00FF"/>
</linearGradient>
<linearGradient id="paint2_linear_534_2" x1="14.6974" y1="7.23596" x2="14.6974" y2="8.59664" gradientUnits="userSpaceOnUse">
<stop stop-color="#40048D"/>
<stop offset="1" stop-color="#AD00FF"/>
</linearGradient>
<linearGradient id="paint3_linear_534_2" x1="14.6974" y1="8.59656" x2="14.6974" y2="9.95724" gradientUnits="userSpaceOnUse">
<stop stop-color="#40048D"/>
<stop offset="1" stop-color="#AD00FF"/>
</linearGradient>
<linearGradient id="paint4_linear_534_2" x1="24.6782" y1="16.7604" x2="24.6782" y2="18.8926" gradientUnits="userSpaceOnUse">
<stop stop-color="#40048D"/>
<stop offset="1" stop-color="#AD00FF"/>
</linearGradient>
<linearGradient id="paint5_linear_534_2" x1="2.03424" y1="16.7604" x2="2.03424" y2="18.8926" gradientUnits="userSpaceOnUse">
<stop stop-color="#40048D"/>
<stop offset="1" stop-color="#AD00FF"/>
</linearGradient>
</defs>
</svg>
