<svg width="126" height="126" viewBox="0 0 126 126" fill="none" xmlns="http://www.w3.org/2000/svg">
<path d="M0 97.9354V23.8655C0.0887499 23.6877 0.166249 23.5045 0.232038 23.3171C1.33158 19.4753 3.83389 17.2524 7.83125 16.8807C9.36322 16.7409 10.9163 16.8596 12.5775 16.8596C12.5775 14.0619 12.5643 11.4911 12.5775 8.91759C12.5986 6.06459 13.4792 3.5412 15.8629 1.84575C16.9993 1.03626 18.3995 0.601187 19.6836 0H106.318C106.496 0.0883687 106.68 0.164997 106.869 0.229399C110.661 1.29993 112.933 3.7574 113.3 7.69675C113.521 10.0962 113.398 12.5273 113.424 14.9453C113.424 15.5385 113.424 16.1345 113.424 16.6539C115.589 16.7884 117.587 16.6987 119.488 17.0732C123.444 17.8484 125.978 21.3184 125.988 25.6348C126.004 34.8178 126.004 44.0017 125.988 53.1865C125.988 67.4111 125.988 81.6374 125.988 95.8655C125.988 97.9749 125.561 99.9288 124.258 101.635C122.36 104.127 119.75 105.018 116.72 105.015C103.764 105.005 90.8091 105.005 77.8537 105.015H76.3111C77.9829 110.573 79.5728 115.902 81.2182 121.216C81.3026 121.479 81.8589 121.759 82.2096 121.777C83.4647 121.846 84.7251 121.804 86.0171 121.804V125.925H39.9631V121.798C41.2815 121.798 42.497 121.756 43.7179 121.817C44.4298 121.851 44.7146 121.59 44.9071 120.923C45.7403 118.022 46.6315 115.122 47.5017 112.221C48.2057 109.877 48.9071 107.531 49.6585 105.015H48.058C35.143 105.015 22.2281 105.015 9.31312 105.015C6.76599 105.015 4.30324 104.548 2.61306 102.56C1.48715 101.231 0.846407 99.4911 0 97.9354ZM109.218 83.9103V82.1674C109.218 57.8475 109.218 33.5276 109.218 9.20763C109.218 5.82727 107.604 4.19774 104.274 4.19774C76.7568 4.19774 49.2384 4.19774 21.7192 4.19774C21.227 4.17986 20.7342 4.20987 20.2479 4.28738C17.9881 4.73036 16.7937 6.44954 16.7937 9.23135C16.7937 33.5917 16.7937 57.9521 16.7937 82.3124V83.8734H12.5432V20.9809H9.23929C5.81147 20.9809 4.20567 22.592 4.20567 26.0356C4.20567 46.2931 4.20567 66.5524 4.20567 86.8134V88.0896H121.806V26.0145C121.819 25.646 121.81 25.2771 121.78 24.9097C121.579 23.114 120.683 21.6717 118.932 21.292C117.181 20.9123 115.317 21.0046 113.374 20.8833V83.9024L109.218 83.9103ZM4.20039 92.4641V95.5781C4.20039 99.2696 5.72182 100.802 9.42914 100.802C45.14 100.802 80.8499 100.802 116.559 100.802C117.088 100.808 117.616 100.778 118.141 100.712C120.103 100.448 121.569 99.0323 121.735 97.0731C121.862 95.5755 121.759 94.0567 121.759 92.4667L4.20039 92.4641ZM76.8622 121.753C76.8501 121.56 76.8246 121.368 76.7858 121.179C75.2485 116.042 73.6849 110.914 72.1872 105.769C71.9578 104.978 71.4964 105.002 70.9057 105.002C65.6585 105.002 60.4113 105.028 55.1641 104.983C54.3046 104.983 53.9539 105.247 53.7192 106.054C52.4799 110.339 51.1852 114.608 49.9117 118.882C49.6348 119.813 49.3606 120.744 49.0626 121.751L76.8622 121.753Z" fill="url(#paint0_linear_280_2936)"/>
<path d="M45.724 62.0087C46.6337 66.0773 47.4959 69.9454 48.3608 73.8109C48.6245 74.9711 48.9066 76.1234 49.1334 77.2889C49.397 78.5835 48.8169 79.6172 47.5513 79.9257C44.6913 80.6288 41.8163 81.2775 38.9264 81.8716C37.608 82.1353 36.7009 81.4708 36.3581 80.0259C35.5328 76.5189 34.7761 72.9988 33.985 69.4787C33.6713 68.0812 33.2705 66.6969 33.0701 65.281C32.9435 64.3897 32.4715 64.1629 31.7279 64.0126C25.9508 62.8445 21.7794 58.3014 21.1808 52.5558C20.461 45.6791 24.8169 39.7622 31.7939 38.1432C33.1123 37.8373 34.4175 37.4497 35.749 37.273C40.1525 36.685 43.9442 34.7971 47.6146 32.3554C54.0641 28.0733 60.6746 24.0311 67.2507 19.9467C68.1498 19.3877 68.3555 18.8498 68.0734 17.8795C67.3693 15.48 67.2375 13.1069 68.8881 10.9738C70.486 8.91181 72.6324 8.02848 75.1716 8.45828C77.7108 8.88807 79.6014 10.3594 80.25 12.8933C81.4076 17.4101 82.3885 21.9744 83.4142 26.5282C86.2601 39.2322 89.0973 51.9379 91.9257 64.6455C92.8301 68.6824 91.2639 71.8914 87.7649 73.0832C86.1531 73.6198 84.3957 73.5069 82.8659 72.7684C81.3361 72.0298 80.1546 70.7239 79.5724 69.128C79.523 69.015 79.4918 68.8948 79.4801 68.772C79.4405 65.9401 77.8005 65.3047 75.2243 65.0331C66.3436 64.1049 57.4946 62.8736 48.6271 61.8083C47.7095 61.7028 46.7682 61.927 45.724 62.0087ZM77.7003 61.1702C74.8815 48.5427 72.1129 36.1366 69.3285 23.6541C69.0437 23.7938 68.8196 23.8782 68.6192 24.0047C61.0279 28.7879 53.4498 33.5921 45.8374 38.3383C45.0463 38.8287 45.2045 39.3561 45.3469 39.9889C46.5651 45.4629 47.8202 50.9289 48.9857 56.4134C49.2098 57.4682 49.6976 57.7318 50.697 57.8531C55.0134 58.3277 59.3192 58.9078 63.6172 59.4352C68.221 60.0047 72.8117 60.5664 77.7003 61.1702V61.1702ZM41.1439 40.3554C38.2434 41.0014 35.4959 41.6105 32.7537 42.2355C32.1975 42.3687 31.6498 42.5351 31.1136 42.7338C27.2401 44.1181 24.8275 48.2052 25.397 52.4029C25.956 56.5189 29.5051 60.1498 33.6027 59.9652C37.4287 59.7938 41.2204 58.8129 45.1202 58.1722C43.757 52.0601 42.4676 46.2935 41.1439 40.3554V40.3554ZM71.8018 15.2084C71.8361 15.4062 71.8993 15.8518 71.9969 16.2895C74.646 28.1568 77.2977 40.0223 79.9521 51.8861C81.0938 57.0014 82.2171 62.1194 83.3984 67.2243C83.7464 68.7246 84.867 69.4207 86.2039 69.1544C87.4775 68.8907 88.163 67.7305 87.9178 66.217C87.873 65.9349 87.8202 65.6527 87.757 65.3732C84.5928 51.1487 81.419 36.9232 78.2355 22.6969C77.6185 19.9415 77.0332 17.1781 76.3529 14.4359C76.0127 13.0753 74.8947 12.3792 73.7029 12.5901C72.5796 12.7826 71.8071 13.7477 71.8018 15.2084V15.2084ZM44.6165 76.2974C43.5908 71.7648 42.6073 67.4115 41.6185 63.0291L37.0648 64.0838C38.0589 68.5347 39.0239 72.8696 40.018 77.3258L44.6165 76.2974Z" fill="url(#paint1_linear_280_2936)"/>
<path d="M101.157 34.057L102.075 38.1386L91.2341 40.5711C90.9175 39.1702 90.6221 37.8747 90.3055 36.4738L101.157 34.057Z" fill="url(#paint2_linear_280_2936)"/>
<path d="M93.5562 58.5706L95.4374 54.8241L103.817 59.0138L101.97 62.7708L93.5562 58.5706Z" fill="url(#paint3_linear_280_2936)"/>
<path d="M90.9642 11.2542L93.6659 13.9162L87.4156 20.1137L84.8459 17.3646L90.9642 11.2542Z" fill="url(#paint4_linear_280_2936)"/>
<defs>
<linearGradient id="paint0_linear_280_2936" x1="63" y1="0" x2="63" y2="125.925" gradientUnits="userSpaceOnUse">
<stop stop-color="#61049A"/>
<stop offset="1" stop-color="#A700FF"/>
</linearGradient>
<linearGradient id="paint1_linear_280_2936" x1="56.6404" y1="8.35217" x2="56.6404" y2="81.9282" gradientUnits="userSpaceOnUse">
<stop stop-color="#61049A"/>
<stop offset="1" stop-color="#A700FF"/>
</linearGradient>
<linearGradient id="paint2_linear_280_2936" x1="96.1903" y1="34.057" x2="96.1903" y2="40.5711" gradientUnits="userSpaceOnUse">
<stop stop-color="#61049A"/>
<stop offset="1" stop-color="#A700FF"/>
</linearGradient>
<linearGradient id="paint3_linear_280_2936" x1="98.6865" y1="54.8241" x2="98.6865" y2="62.7708" gradientUnits="userSpaceOnUse">
<stop stop-color="#61049A"/>
<stop offset="1" stop-color="#A700FF"/>
</linearGradient>
<linearGradient id="paint4_linear_280_2936" x1="89.2559" y1="11.2542" x2="89.2559" y2="20.1137" gradientUnits="userSpaceOnUse">
<stop stop-color="#61049A"/>
<stop offset="1" stop-color="#A700FF"/>
</linearGradient>
</defs>
</svg>
