<svg width="39" height="30" viewBox="0 0 39 30" fill="none" xmlns="http://www.w3.org/2000/svg">
<path d="M0.656582 23.9073C0.72107 23.6999 0.853272 23.5199 1.03213 23.3961C1.21099 23.2723 1.42625 23.2118 1.64358 23.2242C2.0505 23.1803 2.42706 22.9888 2.70167 22.6859C3.13522 22.2687 3.68192 21.9874 4.27406 21.877C4.8662 21.7666 5.47776 21.832 6.03307 22.0649C6.44824 22.2398 6.82946 22.486 7.15936 22.7924C7.87958 23.4253 8.7213 23.443 9.42966 22.7924C9.73005 22.4923 10.0872 22.2546 10.4803 22.0931C10.8734 21.9317 11.2947 21.8497 11.7198 21.8519C12.1449 21.8541 12.5653 21.9404 12.9567 22.106C13.3481 22.2715 13.7027 22.5128 14 22.8161C14.1435 22.9627 14.315 23.0793 14.5044 23.1588C14.6937 23.2384 14.8971 23.2794 15.1025 23.2794C15.308 23.2794 15.5114 23.2384 15.7007 23.1588C15.89 23.0793 16.0616 22.9627 16.2051 22.8161C17.3373 21.7781 18.7333 21.5474 19.9989 22.2246C20.2786 22.379 20.5392 22.5656 20.7754 22.7806C21.5193 23.4549 22.3433 23.4578 23.0843 22.7806C23.6386 22.2408 24.3695 21.9188 25.1427 21.8737C25.9159 21.8286 26.6794 22.0635 27.293 22.5351C27.4293 22.6386 27.5509 22.7569 27.6753 22.8723C27.9564 23.1408 28.3268 23.2966 28.7157 23.3099C28.8305 23.3082 28.9444 23.3296 29.0506 23.3731C29.1568 23.4166 29.2531 23.4812 29.3336 23.5629C29.414 23.6446 29.477 23.7418 29.5187 23.8485C29.5604 23.9552 29.58 24.0693 29.5761 24.1838C29.5723 24.2983 29.5452 24.4108 29.4965 24.5145C29.4478 24.6182 29.3785 24.711 29.2927 24.7872C29.207 24.8634 29.1067 24.9215 28.9978 24.9578C28.8889 24.9941 28.7737 25.008 28.6593 24.9986C27.8126 24.9733 27.009 24.6201 26.4187 24.0138C26.2118 23.7978 25.9441 23.6494 25.651 23.5881C25.3579 23.5269 25.053 23.5557 24.7767 23.6707C24.555 23.7589 24.3534 23.8907 24.1839 24.0582C23.5802 24.6538 22.7655 24.9878 21.9165 24.9878C21.0675 24.9878 20.2528 24.6538 19.6492 24.0582C18.9082 23.375 18.0961 23.3721 17.364 24.0582C17.0657 24.3571 16.7112 24.5943 16.3209 24.7561C15.9305 24.918 15.512 25.0013 15.0892 25.0013C14.6665 25.0013 14.2479 24.918 13.8575 24.7561C13.4672 24.5943 13.1127 24.3571 12.8144 24.0582C12.6705 23.9047 12.4966 23.7823 12.3033 23.6987C12.1101 23.615 11.9017 23.5719 11.6911 23.5719C11.4805 23.5719 11.2721 23.615 11.0789 23.6987C10.8856 23.7823 10.7117 23.9047 10.5678 24.0582C10.2685 24.3626 9.91122 24.6045 9.51708 24.7696C9.12293 24.9347 8.69977 25.0197 8.2723 25.0197C7.84482 25.0197 7.42163 24.9347 7.02748 24.7696C6.63333 24.6045 6.27614 24.3626 5.97677 24.0582C5.83383 23.9073 5.6615 23.7871 5.47039 23.7049C5.27928 23.6228 5.07341 23.5804 4.86532 23.5804C4.65722 23.5804 4.45131 23.6228 4.2602 23.7049C4.06909 23.7871 3.8968 23.9073 3.75386 24.0582C3.25482 24.5327 2.62153 24.8424 1.93997 24.9454C1.25531 25.0548 0.973739 24.9454 0.641785 24.3539L0.656582 23.9073Z" fill="url(#paint0_linear_324_42)"/>
<path d="M0.656324 27.9679C0.737323 27.7731 0.876185 27.6077 1.05423 27.494C1.23228 27.3803 1.44097 27.3238 1.65218 27.332C2.06022 27.2904 2.43728 27.0959 2.70734 26.7879C3.00534 26.5059 3.35675 26.286 3.74101 26.1413C4.12527 25.9966 4.53461 25.9299 4.94505 25.9451C5.36518 25.9506 5.78005 26.0392 6.16566 26.2057C6.55127 26.3722 6.90001 26.6133 7.1917 26.9151C7.36819 27.1144 7.59809 27.2593 7.85434 27.3327C8.11058 27.406 8.3825 27.4047 8.63807 27.3291C8.968 27.2174 9.27087 27.0381 9.52724 26.8027C10.0517 26.3236 10.7198 26.0304 11.4281 25.9684C12.1364 25.9064 12.8454 26.079 13.4455 26.4596C13.6562 26.6024 13.8545 26.7627 14.0383 26.9387C14.1803 27.0805 14.3489 27.193 14.5345 27.2698C14.7202 27.3466 14.9191 27.3861 15.1201 27.3861C15.321 27.3861 15.52 27.3466 15.7056 27.2698C15.8912 27.193 16.0599 27.0805 16.2019 26.9387C17.6512 25.6138 19.4177 25.6138 20.8581 26.9387C21.525 27.5539 22.3727 27.5302 23.0811 26.8766C23.516 26.4326 24.0745 26.1289 24.6842 26.005C25.294 25.8811 25.927 25.9427 26.5014 26.1817C26.9272 26.3779 27.3208 26.6371 27.6691 26.9506C27.9681 27.2108 28.3435 27.3674 28.7391 27.3971C28.9417 27.3906 29.14 27.457 29.2976 27.5842C29.4552 27.7114 29.5617 27.891 29.5977 28.0901C29.6336 28.2892 29.5966 28.4945 29.4934 28.6686C29.3902 28.8427 29.2277 28.974 29.0355 29.0384L28.9377 29.0917H28.4309C28.3889 29.072 28.3453 29.0562 28.3004 29.0444C27.6284 28.9443 27.0056 28.6336 26.5221 28.1572C25.7693 27.4503 24.9572 27.4503 24.2014 28.1572C23.8365 28.5113 23.3911 28.7721 22.9032 28.9172C22.6632 28.9882 22.4112 29.0296 22.1652 29.0828H21.7443C20.947 28.9957 20.2003 28.6498 19.6192 28.098C19.4791 27.9475 19.3095 27.8275 19.1208 27.7454C18.9321 27.6633 18.7285 27.621 18.5226 27.621C18.3168 27.621 18.1131 27.6633 17.9244 27.7454C17.7358 27.8275 17.5661 27.9475 17.426 28.098C16.968 28.5429 16.3939 28.8504 15.7692 28.9852C15.615 29.0178 15.4728 29.0414 15.3009 29.071H14.9067C14.8546 29.0521 14.801 29.0373 14.7466 29.0266C14.0404 28.948 13.381 28.6357 12.8734 28.1394C12.1176 27.4356 11.3056 27.4326 10.5527 28.1394C10.1879 28.4928 9.74386 28.7543 9.25751 28.9024C9.01447 28.9704 8.76551 29.0148 8.51951 29.068H8.11049C8.05721 29.0504 8.00272 29.0366 7.94746 29.0266C7.23076 28.9515 6.55989 28.6392 6.04171 28.1394C5.26221 27.4208 4.47677 27.4178 3.70024 28.1394C3.27311 28.5395 2.74582 28.8174 2.17383 28.9438C1.33802 29.1331 1.02088 29.0178 0.650391 28.3967L0.656324 27.9679Z" fill="url(#paint1_linear_324_42)"/>
<path d="M15.129 16.925C12.5406 16.925 9.9511 16.925 7.36067 16.925C7.0448 16.9421 6.72887 16.8926 6.43345 16.7797C6.13802 16.6669 5.8697 16.4932 5.64602 16.27C5.42233 16.0468 5.2483 15.7791 5.13519 15.4843C5.02209 15.1895 4.97245 14.8743 4.98957 14.5591C4.98957 14.012 4.98957 13.4679 4.98957 12.9237C4.98106 12.7174 4.98901 12.5107 5.0133 12.3056C5.09257 11.7855 5.35055 11.3091 5.74309 10.9579C6.13563 10.6067 6.63831 10.4025 7.16508 10.3804C7.25103 10.3804 7.33698 10.3804 7.41997 10.3804H22.8322C23.914 10.3804 24.7498 10.9098 25.0906 11.8384C25.1853 12.1126 25.2363 12.4 25.2418 12.6901C25.2625 13.32 25.2418 13.9499 25.2418 14.5798C25.2552 14.891 25.2037 15.2016 25.0904 15.4918C24.9772 15.782 24.8048 16.0456 24.5841 16.2658C24.3634 16.4861 24.0992 16.6581 23.8083 16.7711C23.5175 16.8841 23.2062 16.9355 22.8944 16.9221C20.3099 16.928 17.7214 16.929 15.129 16.925ZM16.8392 14.5H21.285C21.4021 14.5109 21.5202 14.4975 21.6319 14.4606C21.7436 14.4236 21.8463 14.364 21.9337 14.2854C22.0211 14.2068 22.0912 14.111 22.1396 14.004C22.188 13.897 22.2136 13.7812 22.2148 13.6638C22.2161 13.5464 22.1929 13.4301 22.1468 13.3221C22.1007 13.2141 22.0326 13.1169 21.9469 13.0365C21.8611 12.9561 21.7597 12.8943 21.6488 12.855C21.5379 12.8158 21.4201 12.7999 21.3028 12.8084H12.3756C12.2098 12.7961 12.044 12.832 11.8983 12.9118C11.7526 12.9915 11.6332 13.1118 11.5546 13.2579C11.4827 13.3884 11.4469 13.5357 11.4511 13.6846C11.4553 13.8335 11.4992 13.9786 11.5784 14.1048C11.6575 14.2311 11.769 14.3341 11.9013 14.403C12.0336 14.4719 12.182 14.5044 12.3311 14.497C13.8249 14.503 15.3305 14.5 16.8392 14.5ZM8.05128 13.6512C8.0501 13.7616 8.07084 13.8712 8.11228 13.9735C8.15372 14.0759 8.21505 14.1691 8.29275 14.2477C8.37044 14.3263 8.46292 14.3888 8.56493 14.4316C8.66693 14.4744 8.77642 14.4967 8.88708 14.497C9.11166 14.4986 9.32778 14.4115 9.48825 14.2547C9.64872 14.0979 9.74052 13.8842 9.74364 13.6601C9.73991 13.4369 9.64999 13.2237 9.49262 13.0651C9.33526 12.9064 9.12259 12.8144 8.89894 12.8084C8.67512 12.8099 8.46085 12.8991 8.3023 13.0568C8.14375 13.2144 8.0536 13.4279 8.05128 13.6512Z" fill="url(#paint2_linear_324_42)"/>
<path d="M15.1025 8.68875H7.42016C5.93822 8.68875 5.00459 7.74534 5.00162 6.27553C5.00162 5.66335 5.00162 5.05415 5.00162 4.44198C4.99632 4.13778 5.05279 3.83566 5.16765 3.55383C5.28252 3.272 5.45341 3.01627 5.66998 2.8021C5.88656 2.58794 6.14434 2.41974 6.42781 2.30767C6.71128 2.19559 7.01455 2.14199 7.31936 2.15002H22.9301C23.2325 2.14406 23.5329 2.19871 23.8136 2.31077C24.0944 2.42284 24.3497 2.59002 24.5645 2.80239C24.7792 3.01476 24.9491 3.26802 25.0639 3.54711C25.1788 3.82621 25.2363 4.12548 25.2331 4.42717C25.2331 5.09357 25.2331 5.76095 25.2331 6.42932C25.2355 6.72857 25.1778 7.02526 25.0633 7.30187C24.9489 7.57848 24.78 7.8294 24.5667 8.03977C24.3534 8.25014 24.0999 8.4157 23.8214 8.52666C23.5428 8.63762 23.2448 8.69173 22.945 8.68579C20.3397 8.69466 17.7196 8.68875 15.1025 8.68875ZM16.8068 6.26369H21.2704C21.4455 6.27884 21.621 6.23949 21.7728 6.15105C21.9246 6.06261 22.0452 5.92945 22.118 5.76983C22.3966 5.17836 21.961 4.58688 21.2644 4.58688H12.6485C12.518 4.58688 12.3846 4.58688 12.2542 4.58688C12.141 4.58974 12.0295 4.61519 11.9263 4.66176C11.8231 4.70833 11.7303 4.77508 11.6534 4.85804C11.5765 4.94099 11.517 5.03847 11.4785 5.14475C11.44 5.25102 11.4232 5.36394 11.4291 5.4768C11.4351 5.58966 11.4636 5.70015 11.5131 5.80182C11.5626 5.90348 11.6319 5.99425 11.7171 6.06871C11.8023 6.14317 11.9017 6.19982 12.0092 6.23535C12.1167 6.27087 12.2303 6.28453 12.3432 6.27553L16.8068 6.26369ZM8.05147 5.41789C8.04989 5.64013 8.13665 5.85396 8.29276 6.0125C8.44886 6.17104 8.66157 6.26135 8.8843 6.26369C8.99679 6.26408 9.10824 6.24238 9.21231 6.19979C9.31638 6.1572 9.41105 6.09455 9.49086 6.01546C9.57068 5.93637 9.63407 5.84237 9.67748 5.73882C9.72089 5.63527 9.74345 5.5242 9.74383 5.41196C9.73698 5.18961 9.64438 4.9785 9.48536 4.82259C9.32634 4.66667 9.11316 4.57799 8.89023 4.57504C8.66772 4.57813 8.45528 4.66812 8.29847 4.82569C8.14167 4.98326 8.053 5.19584 8.05147 5.41789Z" fill="url(#paint3_linear_324_42)"/>
<path d="M5.14673 20.0688C5.27955 19.714 5.50134 19.3991 5.79088 19.1542C6.08042 18.9093 6.42804 18.7426 6.80056 18.67C6.97493 18.6329 7.15285 18.6151 7.33111 18.6167H22.8945C23.3795 18.6007 23.8568 18.7415 24.2552 19.0181C24.6536 19.2946 24.9519 19.6922 25.1055 20.1516C23.927 20.209 22.8078 20.684 21.949 21.4913C19.6549 19.6961 17.3787 19.6932 15.0906 21.4913C14.1727 20.6426 12.9686 20.1693 11.7173 20.1655C10.4659 20.1616 9.2589 20.6275 8.33587 21.4706C7.85533 21.1418 7.3533 20.8454 6.83316 20.5834C6.28245 20.3765 5.71919 20.2046 5.14673 20.0688Z" fill="url(#paint4_linear_324_42)"/>
<path d="M30.1168 0.970093C28.4845 0.969542 26.8888 1.45304 25.5313 2.35947C24.1739 3.26589 23.1158 4.55453 22.4908 6.06237C21.8658 7.57021 21.702 9.22952 22.02 10.8305C22.3381 12.4314 23.1239 13.9021 24.2778 15.0565C25.4318 16.2108 26.9022 16.9971 28.5031 17.3157C30.1039 17.6343 31.7633 17.4711 33.2713 16.8466C34.7794 16.2221 36.0684 15.1644 36.9753 13.8073C37.8821 12.4501 38.3662 10.8545 38.3662 9.22229C38.3662 7.03415 37.4972 4.93558 35.9502 3.38807C34.4032 1.84056 32.3049 0.970832 30.1168 0.970093ZM33.8946 12.1365C33.9518 12.1929 33.9971 12.2602 34.028 12.3343C34.059 12.4084 34.0749 12.488 34.0749 12.5683C34.0749 12.6486 34.059 12.7281 34.028 12.8022C33.9971 12.8764 33.9518 12.9436 33.8946 13.0001C33.8383 13.0572 33.771 13.1025 33.6968 13.1331C33.6226 13.1638 33.5431 13.1791 33.4628 13.1784C33.3826 13.1787 33.3032 13.163 33.2291 13.1324C33.1549 13.1018 33.0876 13.0569 33.031 13.0001L30.1168 10.0804L27.1998 13.0001C27.1432 13.0569 27.0758 13.1018 27.0017 13.1324C26.9276 13.163 26.8482 13.1787 26.768 13.1784C26.6877 13.1791 26.6081 13.1638 26.534 13.1331C26.4598 13.1025 26.3925 13.0572 26.3362 13.0001C26.2791 12.9436 26.2337 12.8764 26.2028 12.8022C26.1718 12.7281 26.1559 12.6486 26.1559 12.5683C26.1559 12.488 26.1718 12.4084 26.2028 12.3343C26.2337 12.2602 26.2791 12.1929 26.3362 12.1365L29.2503 9.22229L26.3362 6.3053C26.2216 6.19077 26.1573 6.03545 26.1573 5.87348C26.1573 5.71152 26.2216 5.55617 26.3362 5.44164C26.4507 5.32711 26.606 5.26278 26.768 5.26278C26.93 5.26278 27.0853 5.32711 27.1998 5.44164L30.114 8.35859L33.0282 5.44164C33.1427 5.32711 33.298 5.26278 33.46 5.26278C33.622 5.26278 33.7773 5.32711 33.8919 5.44164C34.0064 5.55617 34.0707 5.71152 34.0707 5.87348C34.0707 6.03545 34.0064 6.19077 33.8919 6.3053L30.9777 9.22229L33.8946 12.1365Z" fill="#7900B9"/>
<defs>
<linearGradient id="paint0_linear_324_42" x1="15.1092" y1="21.8248" x2="15.1092" y2="25.0197" gradientUnits="userSpaceOnUse">
<stop stop-color="#40048D"/>
<stop offset="1" stop-color="#AD00FF"/>
</linearGradient>
<linearGradient id="paint1_linear_324_42" x1="15.1307" y1="25.9426" x2="15.1307" y2="29.0917" gradientUnits="userSpaceOnUse">
<stop stop-color="#40048D"/>
<stop offset="1" stop-color="#AD00FF"/>
</linearGradient>
<linearGradient id="paint2_linear_324_42" x1="15.1186" y1="10.3804" x2="15.1186" y2="16.9283" gradientUnits="userSpaceOnUse">
<stop stop-color="#40048D"/>
<stop offset="1" stop-color="#AD00FF"/>
</linearGradient>
<linearGradient id="paint3_linear_324_42" x1="15.1172" y1="2.14923" x2="15.1172" y2="8.69068" gradientUnits="userSpaceOnUse">
<stop stop-color="#40048D"/>
<stop offset="1" stop-color="#AD00FF"/>
</linearGradient>
<linearGradient id="paint4_linear_324_42" x1="15.1261" y1="18.6155" x2="15.1261" y2="21.4913" gradientUnits="userSpaceOnUse">
<stop stop-color="#40048D"/>
<stop offset="1" stop-color="#AD00FF"/>
</linearGradient>
</defs>
</svg>
