<svg width="43" height="29" viewBox="0 0 43 29" fill="none" xmlns="http://www.w3.org/2000/svg">
<path d="M5.43911 19.7541C4.84481 19.2908 4.25515 18.897 3.71657 18.4337C2.23314 17.1574 1.12812 15.6286 0.724179 13.6782C0.428337 12.2647 0.590947 10.7938 1.18848 9.47859C1.93367 7.783 3.15708 6.48582 4.6498 5.4226C6.52989 4.12373 8.65421 3.21835 10.8946 2.76109C12.3734 2.435 13.8838 2.27268 15.3983 2.277C16.3408 2.277 17.2833 2.36966 18.2235 2.45768C19.6067 2.6045 20.9675 2.91555 22.2768 3.38424C24.4683 4.13938 26.4555 5.23729 28.0619 6.92361C29.2389 8.14898 30.0607 9.57356 30.3138 11.2738C30.5564 12.8645 30.2398 14.4899 29.4177 15.8741C28.3962 17.6554 26.8942 18.9364 25.1322 19.9487C23.2405 21.0148 21.17 21.7282 19.0221 22.0542C17.4235 22.3142 15.8004 22.3919 14.1841 22.2859C13.006 22.2125 11.8354 22.0468 10.6833 21.7902C10.6203 21.7782 10.555 21.7897 10.4999 21.8226C8.83079 22.9808 6.99681 23.8077 5.13963 24.6022C3.89608 25.1569 2.61161 25.6154 1.29758 25.9735C0.984654 26.0525 0.66663 26.1098 0.345776 26.145C0.236667 26.1566 0.11363 26.0731 -0.00012207 26.0337C0.0463075 25.9295 0.0648783 25.8021 0.143809 25.728C0.541019 25.3596 0.958782 25.0139 1.39509 24.6926C2.91566 23.6386 4.04389 22.2442 4.95856 20.6597C5.12338 20.3517 5.28125 20.0436 5.43911 19.7541ZM16.6728 15.6564V13.9075C16.6659 13.6728 16.7159 13.4399 16.8186 13.2286C16.9213 13.0173 17.0735 12.8338 17.2624 12.6937C17.4946 12.5108 17.7522 12.3578 18.0006 12.198C18.6971 11.7486 19.2728 11.2089 19.5839 10.426C20.1875 8.90183 19.6071 7.09275 18.2119 6.04343C17.3434 5.39722 16.2759 5.07432 15.194 5.13074C14.6401 5.13109 14.0923 5.24571 13.585 5.46734C13.0776 5.68897 12.6216 6.01285 12.2457 6.41866C11.5419 7.14388 11.1119 8.09026 11.0292 9.09641C10.9921 9.53188 10.9851 9.96966 10.9642 10.4051H13.3275C13.3275 10.0461 13.3112 9.71023 13.3275 9.3674C13.3623 8.77209 13.5341 8.20921 14.0448 7.85712C14.3135 7.67411 14.6168 7.5477 14.9361 7.48557C15.2554 7.42344 15.5841 7.42694 15.902 7.49581C16.3457 7.5551 16.7529 7.77223 17.0488 8.10731C17.5828 8.73505 17.3947 9.77281 16.6681 10.2731C16.1852 10.6067 15.6908 10.9217 15.2102 11.2576C14.9896 11.3957 14.802 11.5802 14.6604 11.7982C14.5188 12.0163 14.4268 12.2627 14.3907 12.52C14.3636 12.8157 14.3527 13.1126 14.3582 13.4095C14.3582 14.1553 14.3582 14.9013 14.3582 15.6564H16.6728ZM16.6728 18.9364V16.5899H14.3513V18.9364H16.6728Z" fill="url(#paint0_linear_324_71)"/>
<path d="M20.7958 22.2905C21.4784 22.0913 22.1237 21.9198 22.7575 21.7091C24.5329 21.1444 26.1865 20.2527 27.6326 19.08C29.1648 17.8106 30.3348 16.3003 30.7945 14.3152C30.9152 13.7894 30.957 13.245 31.0266 12.6937C33.1159 12.9671 35.0614 13.6318 36.7282 14.9985C37.7078 15.8023 38.4577 16.7798 38.7479 18.0376C39.0961 19.5525 38.7061 20.9053 37.7589 22.1121C37.1796 22.8302 36.4769 23.4396 35.6835 23.9119C36.0132 24.4354 36.3173 24.9636 36.6655 25.4593C37.2201 26.214 37.9057 26.8636 38.6898 27.3772C38.9118 27.5524 39.1235 27.7404 39.3236 27.9401C39.2278 28.0145 39.1128 28.0602 38.992 28.0721C38.8713 28.084 38.7496 28.0615 38.6411 28.0073C37.6243 27.6621 36.6028 27.3263 35.6092 26.9255C34.5104 26.498 33.4624 25.9503 32.4845 25.2925C32.4224 25.2535 32.3477 25.2394 32.2756 25.2531C31.106 25.525 29.9048 25.6364 28.7051 25.5844C26.2885 25.4732 24.0157 24.8894 22.0262 23.444C21.7555 23.2395 21.4959 23.0206 21.2485 22.7885C21.1069 22.6425 20.9583 22.4665 20.7958 22.2905Z" fill="url(#paint1_linear_324_71)"/>
<path d="M35.2143 6.10352e-05C33.8543 6.10352e-05 32.5249 0.402475 31.3941 1.15638C30.2633 1.91029 29.3819 2.98183 28.8615 4.23554C28.3411 5.48924 28.2049 6.86881 28.4702 8.19974C28.7355 9.53066 29.3904 10.7532 30.3521 11.7127C31.3137 12.6722 32.539 13.3257 33.8728 13.5905C35.2067 13.8552 36.5893 13.7193 37.8457 13.2C39.1022 12.6807 40.1761 11.8013 40.9317 10.673C41.6872 9.54469 42.0905 8.2182 42.0905 6.8612C42.0905 5.04152 41.3661 3.29635 40.0765 2.00964C38.787 0.722935 37.038 6.10352e-05 35.2143 6.10352e-05ZM38.3645 9.28412C38.4595 9.37959 38.5128 9.5086 38.5128 9.64312C38.5128 9.77763 38.4595 9.90671 38.3645 10.0022C38.2689 10.0969 38.1396 10.1502 38.0047 10.1502C37.8699 10.1502 37.7406 10.0969 37.6449 10.0022L35.2143 7.57924L32.7861 10.0022C32.7388 10.0493 32.6827 10.0868 32.621 10.1123C32.5592 10.1378 32.493 10.1509 32.4262 10.1509C32.3594 10.1509 32.2932 10.1378 32.2315 10.1123C32.1697 10.0868 32.1136 10.0493 32.0664 10.0022C32.0191 9.95502 31.9817 9.89903 31.9561 9.83743C31.9305 9.77583 31.9173 9.7098 31.9173 9.64312C31.9173 9.57644 31.9305 9.51046 31.9561 9.44886C31.9817 9.38726 32.0191 9.33127 32.0664 9.28412L34.4947 6.8612L32.0664 4.4359C31.9709 4.34068 31.9173 4.21158 31.9173 4.07691C31.9173 3.94224 31.9709 3.81308 32.0664 3.71786C32.1618 3.62264 32.2912 3.56913 32.4262 3.56913C32.5612 3.56913 32.6906 3.62264 32.7861 3.71786L35.2143 6.1431L37.6449 3.71786C37.7403 3.62264 37.8698 3.56913 38.0047 3.56913C38.1397 3.56913 38.2691 3.62264 38.3645 3.71786C38.46 3.81308 38.5136 3.94224 38.5136 4.07691C38.5136 4.21158 38.46 4.34068 38.3645 4.4359L35.934 6.8612L38.3645 9.28412Z" fill="#7900B9"/>
<defs>
<linearGradient id="paint0_linear_324_71" x1="15.1966" y1="2.27692" x2="15.1966" y2="26.1461" gradientUnits="userSpaceOnUse">
<stop stop-color="#40048D"/>
<stop offset="1" stop-color="#8000FF"/>
</linearGradient>
<linearGradient id="paint1_linear_324_71" x1="30.0597" y1="12.6937" x2="30.0597" y2="28.0752" gradientUnits="userSpaceOnUse">
<stop stop-color="#40048D"/>
<stop offset="1" stop-color="#8000FF"/>
</linearGradient>
</defs>
</svg>
