<svg width="126" height="132" viewBox="0 0 126 132" fill="none" xmlns="http://www.w3.org/2000/svg">
<path d="M21.0647 0H80.308C80.9834 0.594324 81.6587 1.16158 82.2936 1.80318C89.3714 9.0071 96.438 16.211 103.493 23.4149C107.991 28.0345 107.066 26.1164 107.161 32.3365C107.194 34.7341 107.161 37.1249 107.161 39.6643C109.011 39.6643 110.72 39.6035 112.422 39.6643C113.179 39.691 113.919 39.9018 114.576 40.2789C117.953 42.413 121.269 44.6214 124.592 46.8299C126.469 48.0726 126.469 49.6732 124.592 50.8821C121.33 53.023 118.068 55.1708 114.752 57.2374C114.018 57.6502 113.196 57.8818 112.354 57.9128C110.666 58.0141 108.977 57.9464 107.147 57.9464V59.77C107.147 76.4651 107.147 93.1602 107.147 109.855C107.147 115.427 104.513 119.56 99.3804 121.377C98.6056 121.604 97.8972 122.015 97.3151 122.575C96.7331 123.135 96.2948 123.827 96.0373 124.592C93.8424 129.677 89.6146 131.859 84.2184 131.866C60.4859 131.866 36.7513 131.866 13.0143 131.866C11.7719 131.884 10.5325 131.741 9.32683 131.44C3.30255 129.839 0 125.463 0 119.223C0 102.951 0 86.6835 0 70.4206C0 54.3649 0 38.3113 0 22.2601C0 15.9251 3.31606 11.5961 9.41463 9.98195C9.72531 9.93093 10.0113 9.78115 10.2303 9.5549C10.4492 9.32865 10.5895 9.03789 10.6303 8.7257C11.1371 6.81002 12.1521 5.06692 13.5681 3.68072C15.6415 1.54656 18.2552 0.58757 21.0647 0ZM43.0007 61.4044H44.581C52.1361 61.4044 59.6913 61.4044 67.2464 61.4044C67.8467 61.3858 68.4471 61.4357 69.0361 61.5529C69.4635 61.6346 69.8491 61.8628 70.1264 62.1981C70.4038 62.5334 70.5556 62.9548 70.5557 63.3899C70.6222 63.8425 70.5218 64.3037 70.2733 64.6877C70.0247 65.0717 69.645 65.3522 69.2049 65.4769C68.6686 65.6243 68.1128 65.6882 67.557 65.666C59.5337 65.666 51.508 65.666 43.4802 65.666C40.387 65.666 38.6581 63.9236 38.6243 60.7831C38.6243 59.8646 38.6243 58.9392 38.6243 57.9464H35.1124C32.9242 57.9464 32.573 57.7033 31.7693 55.5826C29.9188 55.5826 28.0278 55.5826 26.1435 55.5826C24.3943 55.5826 23.5973 54.7992 23.5568 53.0838C23.4893 50.2923 23.4578 47.5031 23.4623 44.7161C23.4623 42.8048 24.3335 42.0146 26.2515 42.0146H31.7896C32.7283 39.7656 32.9242 39.6441 35.5243 39.6441H102.886V30.0741H101.393C96.1589 30.0741 90.918 30.0741 85.6839 30.0741C80.855 30.0741 77.9982 27.1632 77.9915 22.3681C77.9915 16.8301 77.9915 11.2922 77.9915 5.75415V4.36285C77.5187 4.32908 77.2216 4.28173 76.9244 4.28173C58.9371 4.28173 40.9521 4.28173 22.9693 4.28173C21.6858 4.26383 20.411 4.49312 19.2142 4.95709C15.7969 6.36861 14.4123 9.15114 14.4123 12.7373C14.4123 20.423 14.4123 28.1065 14.4123 35.7877C14.4123 60.3846 14.4123 84.9815 14.4123 109.578C14.3927 111.072 14.7138 112.55 15.3511 113.901C16.9585 117.001 19.8153 118.027 23.1989 118.027C41.5734 118 59.9456 118 78.3157 118.027C83.7186 118.027 89.1215 118.061 94.5245 118.027C99.9274 117.993 102.926 114.84 102.933 109.585V58.0411H42.9804L43.0007 61.4044ZM92.4849 122.329H23.3947C20.5007 122.449 17.6443 121.639 15.243 120.02C11.7379 117.514 10.1373 114.097 10.144 109.774C10.171 78.4868 10.171 47.1947 10.144 15.8982V14.2502C8.45817 14.6167 6.95246 15.5586 5.88527 16.9142C4.81808 18.2698 4.25595 19.9544 4.29534 21.6792C4.29534 31.2514 4.29534 40.8236 4.29534 50.3959C4.29534 73.3584 4.30885 96.3209 4.33586 119.283C4.31425 120.773 4.64517 122.248 5.30163 123.586C6.94953 126.672 9.85362 127.638 13.2102 127.638C36.812 127.638 60.4184 127.638 84.0293 127.638C84.7064 127.651 85.3835 127.615 86.0554 127.53C87.5126 127.37 88.8933 126.795 90.0331 125.873C91.1729 124.951 92.0239 123.721 92.4849 122.329V122.329ZM36.274 53.6038H110.855V43.9393H36.274V53.6038ZM99.8059 25.7652L82.2463 7.71265C82.2463 13.1156 82.1788 18.1876 82.2868 23.2461C82.3206 24.813 83.462 25.7179 85.0423 25.7314C89.8374 25.7922 94.6325 25.7652 99.8059 25.7652V25.7652ZM31.8166 51.2468V46.4383H27.8252V51.2468H31.8166ZM115.211 51.9222L119.939 48.8898L115.211 45.8439V51.9222Z" fill="url(#paint0_linear_280_2921)"/>
<path d="M56.0891 91.9846C65.8774 91.9846 75.659 91.9846 85.4338 91.9846C86.0318 91.9658 86.6294 92.0295 87.21 92.1737C87.648 92.2864 88.0306 92.5534 88.2874 92.9256C88.5443 93.2978 88.6581 93.7504 88.608 94.1998C88.6167 94.6338 88.4747 95.0573 88.2063 95.3984C87.9379 95.7394 87.5596 95.977 87.1357 96.0706C86.6361 96.1908 86.1233 96.2475 85.6094 96.2394H26.6633C26.152 96.2501 25.6413 96.1957 25.1437 96.0774C24.6946 95.9915 24.2918 95.7456 24.0099 95.3855C23.728 95.0254 23.5862 94.5753 23.6107 94.1187C23.5688 93.6579 23.6966 93.1976 23.9703 92.8245C24.2439 92.4514 24.6444 92.1911 25.0965 92.0926C25.6387 91.9673 26.1949 91.9128 26.7511 91.9305C36.5349 91.9575 46.3143 91.9756 56.0891 91.9846Z" fill="url(#paint1_linear_280_2921)"/>
<path d="M55.9608 106.633H26.7443C26.148 106.657 25.5515 106.591 24.9749 106.437C24.751 106.392 24.5386 106.302 24.3505 106.172C24.1625 106.043 24.0027 105.876 23.8808 105.683C23.759 105.49 23.6776 105.274 23.6416 105.048C23.6056 104.823 23.6157 104.592 23.6714 104.371C23.9804 103.629 24.499 102.992 25.164 102.541C25.5084 102.277 26.1568 102.365 26.6633 102.365H85.6094C86.1231 102.35 86.6365 102.405 87.1357 102.527C87.5596 102.621 87.9379 102.858 88.2063 103.199C88.4747 103.54 88.6167 103.964 88.608 104.398C88.6713 104.832 88.5775 105.275 88.3435 105.646C88.1095 106.018 87.7507 106.293 87.3316 106.424C86.757 106.59 86.16 106.665 85.5621 106.647C75.6973 106.647 65.8301 106.642 55.9608 106.633Z" fill="url(#paint2_linear_280_2921)"/>
<path d="M56.2389 81.6386H85.5769C86.049 81.6075 86.523 81.6348 86.9884 81.7198C87.4841 81.7998 87.9294 82.0691 88.2305 82.471C88.5316 82.8728 88.665 83.3759 88.6025 83.8741C88.611 84.3527 88.4371 84.8166 88.1159 85.1716C87.7948 85.5266 87.3507 85.7461 86.8736 85.7855C86.3626 85.8452 85.848 85.8676 85.3338 85.8529H26.9077C26.3935 85.8676 25.8788 85.8452 25.3679 85.7855C24.8901 85.7464 24.4447 85.5286 24.1205 85.1756C23.7963 84.8225 23.6171 84.3602 23.6187 83.8809C23.5545 83.3824 23.6872 82.8784 23.9886 82.4761C24.29 82.0738 24.7363 81.805 25.2328 81.7265C25.7381 81.6326 26.2532 81.603 26.7659 81.6386H56.2389Z" fill="url(#paint3_linear_280_2921)"/>
<path d="M43.2652 71.2849H59.6023C60.0739 71.2702 60.5458 71.2928 61.0138 71.3525C61.4914 71.4029 61.9331 71.6293 62.2527 71.9876C62.5724 72.346 62.7471 72.8107 62.7428 73.2909C62.7867 73.7907 62.6398 74.2886 62.3316 74.6845C62.0234 75.0804 61.5767 75.345 61.0814 75.425C60.6575 75.4951 60.2271 75.5178 59.7982 75.4926H26.4823C26.0598 75.5212 25.6355 75.4962 25.2193 75.4182C24.7253 75.3289 24.285 75.052 23.9904 74.6454C23.6959 74.2388 23.5699 73.7341 23.639 73.2368C23.6412 72.7584 23.824 72.2985 24.1508 71.9491C24.4777 71.5997 24.9245 71.3866 25.4017 71.3525C25.8699 71.2952 26.3418 71.2748 26.8132 71.2917L43.2652 71.2849Z" fill="url(#paint4_linear_280_2921)"/>
<defs>
<linearGradient id="paint0_linear_280_2921" x1="63" y1="0" x2="63" y2="131.867" gradientUnits="userSpaceOnUse">
<stop stop-color="#61049A"/>
<stop offset="1" stop-color="#A700FF"/>
</linearGradient>
<linearGradient id="paint1_linear_280_2921" x1="56.1112" y1="91.9272" x2="56.1112" y2="96.2408" gradientUnits="userSpaceOnUse">
<stop stop-color="#61049A"/>
<stop offset="1" stop-color="#A700FF"/>
</linearGradient>
<linearGradient id="paint2_linear_280_2921" x1="56.1239" y1="102.351" x2="56.1239" y2="106.65" gradientUnits="userSpaceOnUse">
<stop stop-color="#61049A"/>
<stop offset="1" stop-color="#A700FF"/>
</linearGradient>
<linearGradient id="paint3_linear_280_2921" x1="56.1102" y1="81.624" x2="56.1102" y2="85.8573" gradientUnits="userSpaceOnUse">
<stop stop-color="#61049A"/>
<stop offset="1" stop-color="#A700FF"/>
</linearGradient>
<linearGradient id="paint4_linear_280_2921" x1="43.1854" y1="71.2805" x2="43.1854" y2="75.5041" gradientUnits="userSpaceOnUse">
<stop stop-color="#61049A"/>
<stop offset="1" stop-color="#A700FF"/>
</linearGradient>
</defs>
</svg>
