<svg width="33" height="31" viewBox="0 0 33 31" fill="none" xmlns="http://www.w3.org/2000/svg">
<path d="M8.08093 11.3433H17.9825C17.8621 11.0449 17.7609 10.7392 17.6792 10.428H7.92172C7.36574 10.428 7.32533 10.4532 7.12568 10.9323H5.94294C5.53354 10.9323 5.34906 11.1013 5.34906 11.5098C5.34906 12.1024 5.34905 12.6975 5.36674 13.2901C5.36674 13.6557 5.54618 13.8145 5.92021 13.8221C6.29423 13.8297 6.72385 13.8221 7.11809 13.8221C7.29247 14.2735 7.3708 14.3264 7.83327 14.3264H8.59143V14.9039C8.59143 15.6049 8.95789 15.9705 9.6554 15.9705H14.7654C14.883 15.975 15.0006 15.9614 15.1141 15.9302C15.2029 15.8996 15.2794 15.8413 15.3324 15.764C15.3854 15.6866 15.4121 15.5943 15.4084 15.5007C15.4047 15.407 15.3709 15.3171 15.312 15.2441C15.2531 15.1712 15.1722 15.119 15.0813 15.0955C14.9555 15.072 14.8276 15.061 14.6996 15.0627H9.52145V14.3466H20.2064C19.8557 14.0614 19.5317 13.7448 19.2385 13.401H8.08852L8.08093 11.3433ZM7.13074 12.8992H6.28158V11.8754H7.13074V12.8992Z" fill="url(#paint0_linear_324_82)"/>
<path d="M24.9092 0.926615C23.8248 0.925396 22.7532 1.16005 21.769 1.61428C20.7848 2.0685 19.9116 2.73135 19.2104 3.55666C19.0134 3.78715 18.8311 4.02967 18.6645 4.28286C17.9609 5.34184 17.5423 6.56368 17.4489 7.83081C17.4363 8.01741 17.4262 8.20401 17.4262 8.39313C17.4261 9.02514 17.5059 9.65469 17.6637 10.2668C17.7454 10.5779 17.8467 10.8836 17.967 11.1821C18.3561 12.1443 18.9415 13.0152 19.6858 13.7397C20.4302 14.4642 21.3174 15.0264 22.291 15.3907C23.1294 15.6993 24.0156 15.8589 24.9092 15.8622C25.9036 15.8805 26.8917 15.7008 27.8157 15.3337C28.7398 14.9665 29.5812 14.4194 30.291 13.7241C31.0007 13.0289 31.5644 12.1995 31.9492 11.2844C32.3341 10.3693 32.5323 9.38683 32.5323 8.39443C32.5323 7.40202 32.3341 6.41957 31.9492 5.50446C31.5644 4.58936 31.0007 3.75997 30.291 3.06471C29.5812 2.36945 28.7398 1.82224 27.8157 1.45514C26.8917 1.08803 25.9036 0.908381 24.9092 0.926615ZM28.3386 11.0333C28.442 11.1372 28.5 11.2777 28.5 11.4241C28.5 11.5706 28.442 11.7111 28.3386 11.815C28.2872 11.8664 28.2261 11.9071 28.1589 11.9348C28.0917 11.9625 28.0196 11.9766 27.9469 11.9764C27.8741 11.977 27.8019 11.9631 27.7346 11.9354C27.6673 11.9076 27.6063 11.8667 27.5552 11.815L24.9092 9.17486L23.8124 10.2693L22.8975 11.1821L22.2657 11.815C22.1729 11.9062 22.0507 11.9619 21.9208 11.9721C21.7909 11.9822 21.6615 11.9464 21.5555 11.8707C21.4495 11.7951 21.3737 11.6845 21.3413 11.5585C21.309 11.4326 21.3222 11.2993 21.3787 11.1821C21.4044 11.1269 21.4394 11.0765 21.4823 11.0333L22.2405 10.2768L22.2632 10.2541L23.1781 9.34127L24.1157 8.40323L21.4722 5.76561C21.4208 5.71428 21.38 5.65334 21.3521 5.58628C21.3243 5.51922 21.31 5.44733 21.31 5.37475C21.31 5.30216 21.3243 5.23028 21.3521 5.16322C21.38 5.09615 21.4208 5.03521 21.4722 4.98388C21.5237 4.93255 21.5847 4.89186 21.6519 4.86408C21.7191 4.8363 21.7912 4.82203 21.8639 4.82203C21.9367 4.82203 22.0087 4.8363 22.0759 4.86408C22.1431 4.89186 22.2042 4.93255 22.2557 4.98388L24.8991 7.62156L27.545 4.98388C27.5965 4.93255 27.6576 4.89186 27.7248 4.86408C27.792 4.8363 27.864 4.82203 27.9368 4.82203C28.0095 4.82203 28.0816 4.8363 28.1488 4.86408C28.216 4.89186 28.277 4.93255 28.3285 4.98388C28.3799 5.03521 28.4207 5.09615 28.4486 5.16322C28.4764 5.23028 28.4907 5.30216 28.4907 5.37475C28.4907 5.44733 28.4764 5.51922 28.4486 5.58628C28.4207 5.65334 28.3799 5.71428 28.3285 5.76561L25.6825 8.40323L28.3386 11.0333Z" fill="#7900B9"/>
<path d="M22.309 25.3158C22.309 26.4228 21.6519 27.0935 20.54 27.1111C19.9259 27.1111 19.3143 27.1111 18.7002 27.1111C14.2506 27.1111 9.80027 27.1111 5.34905 27.1111C5.04817 27.1162 4.74849 27.0719 4.46201 26.98C4.14867 26.8716 3.87795 26.6666 3.68898 26.3947C3.50002 26.1227 3.40256 25.7978 3.41069 25.467C3.41069 24.8997 3.41069 24.3323 3.41069 23.7674C3.41069 17.4348 3.41069 11.103 3.41069 4.77203C3.41069 4.00294 3.66341 3.38514 4.42157 3.07246C4.68347 2.96765 4.96326 2.91453 5.24543 2.91608C9.08507 2.906 12.9222 2.906 16.7568 2.91608C16.82 2.91608 16.8832 2.9161 16.9868 2.93375V3.23129C16.9868 4.40889 16.9868 5.58649 16.9868 6.76157C16.9746 6.9915 17.0119 7.22136 17.096 7.43575C17.1801 7.65015 17.3091 7.84412 17.4745 8.00472C17.5229 7.34291 17.6606 6.69065 17.8839 6.0656C17.8839 5.27885 17.8839 4.47952 17.8839 3.63225L18.6876 4.4543C18.8548 4.20237 19.0371 3.96067 19.2334 3.73057C18.8897 3.38258 18.5485 3.03462 18.2023 2.68664C17.3835 1.85702 17.7247 2.00833 16.5723 2.00581C12.8068 2.00581 9.04211 2.00581 5.27829 2.00581C4.69234 1.96591 4.11035 2.12726 3.62901 2.46304C3.14767 2.79882 2.79597 3.28879 2.63233 3.8516C2.6151 3.92478 2.57668 3.99132 2.52186 4.04288C2.46704 4.09444 2.39825 4.12878 2.32402 4.14162C1.86857 4.23675 1.44976 4.45947 1.11673 4.78373C0.783691 5.10799 0.550234 5.52035 0.443775 5.97233C0.381123 6.23832 0.352264 6.51111 0.35786 6.78429C0.35786 13.6381 0.35786 20.4919 0.35786 27.3457C0.35786 28.8158 1.17667 29.7816 2.63233 30.0413C2.65815 30.0499 2.68278 30.0618 2.70563 30.0766H18.7406C19.3312 29.9906 19.8815 29.7267 20.3176 29.3201C20.6283 29.0205 20.8496 28.6408 20.957 28.2232C20.968 28.1603 20.9981 28.1024 21.0434 28.0572C21.0886 28.0121 21.1467 27.982 21.2097 27.9711C22.4884 27.6357 23.191 26.7253 23.1935 25.4015C23.1935 23.3085 23.1935 21.2156 23.1935 19.1226V15.8445C22.8889 15.7741 22.5892 15.6839 22.2964 15.5747L22.309 25.3158ZM18.7052 29.131C18.5511 29.1461 18.3944 29.1537 18.2377 29.1537C13.2221 29.1537 8.20476 29.1537 3.18577 29.1537C2.45794 29.1537 1.82869 28.957 1.47489 28.2888C1.33613 28.0028 1.26603 27.6885 1.27017 27.3709C1.26006 21.1223 1.26006 14.8737 1.27017 8.62509C1.27017 7.9493 1.27017 7.27097 1.27017 6.59517C1.26657 6.22799 1.38818 5.87047 1.61504 5.58134C1.84189 5.29221 2.16052 5.08864 2.51862 5.004V5.35202C2.51862 12.0142 2.51862 18.6746 2.51862 25.3334C2.49833 25.7639 2.5884 26.1924 2.78031 26.5785C2.97223 26.9646 3.25965 27.2955 3.61541 27.5399C4.12985 27.8813 4.73932 28.0516 5.35664 28.0265H20.0522C19.9669 28.3255 19.7923 28.5913 19.5516 28.7887C19.3109 28.986 19.0157 29.1054 18.7052 29.131Z" fill="url(#paint1_linear_324_82)"/>
<path d="M18.7963 21.571C18.7155 21.571 18.6321 21.571 18.5436 21.571H6.05176C5.92413 21.5665 5.7965 21.5802 5.67268 21.6114C5.58374 21.6412 5.50677 21.6988 5.45316 21.7757C5.39955 21.8525 5.37212 21.9445 5.37496 22.038C5.37779 22.1316 5.41073 22.2218 5.46889 22.2953C5.52706 22.3688 5.60736 22.4216 5.69795 22.446C5.82242 22.473 5.9497 22.4849 6.07703 22.4814H18.5436C18.6345 22.4877 18.7257 22.4877 18.8166 22.4814C18.9328 22.4774 19.0428 22.4282 19.1231 22.3443C19.2034 22.2604 19.2476 22.1485 19.2462 22.0325C19.2472 21.9727 19.2363 21.9133 19.2142 21.8577C19.1921 21.802 19.1593 21.7513 19.1175 21.7084C19.0757 21.6655 19.0258 21.6314 18.9706 21.6078C18.9155 21.5842 18.8563 21.5717 18.7963 21.571Z" fill="url(#paint2_linear_324_82)"/>
<path d="M18.9327 23.8104C18.826 23.7854 18.7164 23.7743 18.6067 23.7776C14.4167 23.7776 10.2249 23.7776 6.03145 23.7776C5.92278 23.7776 5.77873 23.7574 5.71302 23.8154C5.57086 23.9107 5.46008 24.0458 5.39459 24.2037C5.38231 24.2508 5.37986 24.2999 5.38737 24.348C5.39488 24.3961 5.41221 24.4421 5.43827 24.4833C5.46433 24.5244 5.49857 24.5597 5.53887 24.5871C5.57918 24.6145 5.6247 24.6334 5.67261 24.6425C5.79606 24.6759 5.92388 24.6903 6.05168 24.6854H18.5991C18.7264 24.69 18.8537 24.6738 18.9757 24.6375C19.0649 24.6102 19.1414 24.5519 19.1914 24.4733C19.2415 24.3948 19.2618 24.3009 19.2486 24.2087C19.2502 24.1161 19.2196 24.0259 19.162 23.9533C19.1044 23.8806 19.0234 23.8302 18.9327 23.8104Z" fill="url(#paint3_linear_324_82)"/>
<path d="M5.78147 19.3748C5.6711 19.3843 5.56842 19.4351 5.49392 19.5169C5.41943 19.5987 5.37861 19.7056 5.37966 19.8161C5.37681 19.9269 5.41707 20.0345 5.49198 20.1163C5.5669 20.1981 5.67065 20.2477 5.78147 20.2549C5.89089 20.2612 6.0006 20.2612 6.11002 20.2549H18.5741C19.0441 20.2549 19.2489 20.1162 19.2514 19.806C19.2539 19.4958 19.0467 19.3546 18.5766 19.3546H6.05696C5.96478 19.355 5.87272 19.3618 5.78147 19.3748Z" fill="url(#paint4_linear_324_82)"/>
<path d="M5.64731 18.0133C5.76081 18.0489 5.87973 18.0643 5.99859 18.0586H10.4161C11.3588 18.0586 12.2989 18.0586 13.2415 18.0586C13.3029 18.0633 13.3646 18.0552 13.4227 18.0349C13.4809 18.0146 13.5342 17.9826 13.5793 17.9408C13.6245 17.899 13.6605 17.8484 13.6851 17.7921C13.7097 17.7358 13.7224 17.675 13.7224 17.6136C13.7224 17.5522 13.7097 17.4914 13.6851 17.4351C13.6605 17.3788 13.6245 17.3281 13.5793 17.2863C13.5342 17.2445 13.4809 17.2125 13.4227 17.1923C13.3646 17.172 13.3029 17.1639 13.2415 17.1685C13.1859 17.1685 13.1303 17.1685 13.0772 17.1685H6.02389C5.93273 17.1663 5.84151 17.1706 5.75093 17.1811C5.65362 17.1893 5.56245 17.2319 5.49386 17.3013C5.42528 17.3706 5.3838 17.4622 5.37691 17.5594C5.35869 17.6549 5.37612 17.7538 5.42593 17.8374C5.47574 17.9211 5.55448 17.9836 5.64731 18.0133Z" fill="url(#paint5_linear_324_82)"/>
<defs>
<linearGradient id="paint0_linear_324_82" x1="12.7777" y1="10.428" x2="12.7777" y2="15.9714" gradientUnits="userSpaceOnUse">
<stop stop-color="#40048D"/>
<stop offset="1" stop-color="#AD00FF"/>
</linearGradient>
<linearGradient id="paint1_linear_324_82" x1="11.7753" y1="1.99652" x2="11.7753" y2="30.0766" gradientUnits="userSpaceOnUse">
<stop stop-color="#4C066C"/>
<stop offset="1" stop-color="#7203FF"/>
</linearGradient>
<linearGradient id="paint2_linear_324_82" x1="12.3105" y1="21.5702" x2="12.3105" y2="22.4861" gradientUnits="userSpaceOnUse">
<stop stop-color="#40048D"/>
<stop offset="1" stop-color="#AD00FF"/>
</linearGradient>
<linearGradient id="paint3_linear_324_82" x1="12.3178" y1="23.7742" x2="12.3178" y2="24.6863" gradientUnits="userSpaceOnUse">
<stop stop-color="#40048D"/>
<stop offset="1" stop-color="#AD00FF"/>
</linearGradient>
<linearGradient id="paint4_linear_324_82" x1="12.3155" y1="19.3546" x2="12.3155" y2="20.2596" gradientUnits="userSpaceOnUse">
<stop stop-color="#4C066C"/>
<stop offset="1" stop-color="#7203FF"/>
</linearGradient>
<linearGradient id="paint5_linear_324_82" x1="9.54615" y1="17.1672" x2="9.54615" y2="18.0599" gradientUnits="userSpaceOnUse">
<stop stop-color="#4C066C"/>
<stop offset="1" stop-color="#7203FF"/>
</linearGradient>
</defs>
</svg>
