<svg width="126" height="98" viewBox="0 0 126 98" fill="none" xmlns="http://www.w3.org/2000/svg">
<path d="M17.7075 80.3943H108.327V71.7288C108.327 57.459 108.327 43.1934 108.327 28.9322C108.327 24.3724 106.492 22.537 101.932 22.537C101.196 22.537 100.346 22.7289 99.7576 22.4284C99.4177 22.2564 99.1189 22.0131 98.8816 21.7151C98.6443 21.4172 98.4741 21.0715 98.3826 20.7017C98.4492 20.346 98.6067 20.0136 98.8398 19.7368C99.0729 19.46 99.3737 19.2483 99.7128 19.1221C106.952 18.1117 111.902 21.597 111.864 28.7149C111.774 45.6557 111.864 62.6093 111.8 79.5437C111.744 80.0738 111.866 80.6073 112.144 81.0616C112.423 81.5159 112.843 81.8657 113.341 82.0569C116.507 83.6877 119.621 85.4272 122.748 87.1731C125.402 88.6248 126.477 90.8311 125.805 93.3828C125.134 95.9344 123.081 97.3862 120.126 97.3926H52.4141C36.8866 97.3926 21.3613 97.3926 5.83806 97.3926C1.65562 97.3926 -1.13906 93.7026 0.45334 90.1213C1.03499 88.9661 1.9391 88.0042 3.05618 87.3522C6.2026 85.472 9.45134 83.7453 12.7193 82.0826C13.8768 81.4942 14.1966 80.8035 14.1966 79.5245C14.1582 62.4707 14.1582 45.4169 14.1966 28.3631C14.1966 23.458 17.068 19.864 21.4998 19.1477C22.9835 18.9047 23.9684 19.525 24.0132 20.7529C24.0579 21.9808 23.3736 22.3836 22.312 22.6202C19.1144 23.3301 17.7203 25.0249 17.7139 28.2352C17.7139 45.2336 17.7139 62.2277 17.7139 79.2175L17.7075 80.3943ZM63.0301 93.8242C81.9086 93.8242 100.785 93.8242 119.659 93.8242C120.887 93.8242 122.045 93.7473 122.358 92.2764C122.671 90.8055 121.527 90.5113 120.619 90.0189C117.421 88.2538 114.223 86.4632 110.936 84.7813C110.066 84.3277 109.103 84.0805 108.122 84.0587C78.0268 84.0203 47.9289 84.0203 17.829 84.0587C17.2574 83.9909 16.6778 84.0543 16.1343 84.2442C12.1949 86.329 8.28103 88.4522 4.40555 90.6394C4.16878 90.8162 3.97946 91.0489 3.85448 91.3167C3.72951 91.5845 3.67275 91.8791 3.6893 92.1742C3.93722 92.8254 4.40874 93.3671 5.0195 93.7025C5.56718 93.8748 6.14755 93.9165 6.7142 93.8242H63.0301Z" fill="url(#paint0_linear_280_2927)"/>
<path d="M57.282 12.9444C57.9726 13.1299 58.3819 13.2259 58.7784 13.3538C64.4765 15.1508 70.1618 16.9798 75.8663 18.7449C76.423 18.8714 76.9337 19.1502 77.3413 19.5499C77.749 19.9496 78.0376 20.4546 78.175 21.0088C79.9465 26.7644 81.7883 32.5201 83.6493 38.2373C83.87 38.7679 83.9152 39.3552 83.7783 39.9133C83.6413 40.4713 83.3295 40.9709 82.8882 41.3391C78.8145 45.3424 74.7792 49.3969 70.7374 53.4579C70.3905 53.8788 69.9257 54.1866 69.4027 54.3416C68.8797 54.4966 68.3223 54.4917 67.802 54.3277C61.4452 52.7417 55.0735 51.2174 48.6868 49.755C48.0684 49.6729 47.4943 49.3891 47.0538 48.9474C46.6132 48.5057 46.3308 47.9309 46.2503 47.3122C44.9712 41.4223 43.6027 35.5514 42.2022 29.6871C42.0287 29.1426 42.0185 28.5593 42.1731 28.0091C42.3277 27.459 42.6402 26.9662 43.0719 26.5918C47.2927 22.4349 51.456 18.2206 55.6704 14.0509C56.1707 13.6311 56.7104 13.2604 57.282 12.9444V12.9444ZM78.9296 40.3606C73.8647 38.749 69.241 37.2461 64.5853 35.8456C64.2946 35.8215 64.0022 35.8598 63.7275 35.958C63.4529 36.0561 63.2024 36.2119 62.9928 36.4148C59.6737 39.4525 56.4058 42.5477 53.1251 45.6366C52.767 45.9691 52.4536 46.3528 51.974 46.8644C57.3523 48.1435 62.4748 49.3906 67.6102 50.5929C67.8028 50.6416 68.0036 50.6498 68.1995 50.6167C68.3955 50.5837 68.5824 50.5102 68.7485 50.401C72.074 47.165 75.3675 43.8779 78.9296 40.3606ZM56.6105 18.0095C53.464 21.2071 50.6566 24.2319 47.6572 27.0394C46.1735 28.4207 45.7387 29.6678 46.2951 31.6503C47.4206 35.756 48.2648 39.9641 49.2944 44.3832C53.3489 40.578 57.1924 36.9712 61.0103 33.3387C61.1035 33.1956 61.1639 33.0337 61.1871 32.8645C61.2103 32.6954 61.1958 32.5231 61.1447 32.3602C59.6866 27.7173 58.2157 23.0873 56.6105 18.0095V18.0095ZM60.4476 17.6129C60.4233 17.8254 60.4233 18.0399 60.4476 18.2524C61.8225 22.6395 63.1847 27.0394 64.6364 31.4073C64.9246 31.9302 65.4071 32.3184 65.9794 32.4881C69.1066 33.5305 72.2595 34.4961 75.3995 35.4938L79.4732 36.7728C77.9192 31.8805 76.4995 27.3465 74.9966 22.8379C74.8719 22.5998 74.7016 22.3884 74.4953 22.2162C74.289 22.0439 74.0508 21.914 73.7943 21.8338C70.9676 20.8873 68.1154 20.0112 65.2759 19.1094L60.4476 17.6129Z" fill="url(#paint1_linear_280_2927)"/>
<path d="M49.575 54.8752C45.5333 56.2309 41.8496 57.5612 37.8719 56.3461C36.7219 56.0124 35.7367 55.2639 35.107 54.2455C34.4773 53.2271 34.2479 52.0112 34.4632 50.8334C34.9429 47.1178 37.0213 44.176 39.2148 41.2406C40.8648 43.2231 40.9927 44.7068 39.8991 46.7085C39.2789 47.7948 38.7649 48.9385 38.3643 50.1236C37.7248 52.2148 38.3643 53.0973 40.5706 53.0845C41.8254 53.1039 43.0759 52.9335 44.2798 52.5792C45.7507 52.0932 46.8762 52.2467 47.8931 53.4362C48.4178 53.9563 48.98 54.4372 49.575 54.8752V54.8752Z" fill="url(#paint2_linear_280_2927)"/>
<path d="M86.5949 27.5312C85.6421 25.4144 84.3183 23.6941 86.1537 21.6285C86.8328 20.6971 87.3218 19.641 87.5926 18.5205C88.2705 16.3845 87.6629 15.5019 85.4566 15.5211C84.0972 15.5035 82.7424 15.6824 81.434 16.0519C80.1102 16.4676 79.1446 16.3078 78.2365 15.2973C77.6673 14.7651 77.065 14.2695 76.433 13.8136C78.9191 12.7232 81.5683 12.0511 84.2735 11.8247C85.0042 11.7628 85.7394 11.7779 86.467 11.8695C90.2338 12.3427 92.1012 14.8752 91.353 18.5972C90.6687 21.9483 88.8141 24.6918 86.5949 27.5312Z" fill="url(#paint3_linear_280_2927)"/>
<path d="M76.4158 54.6857C77.5733 53.7264 78.4111 52.9462 79.3448 52.3067C79.6453 52.102 80.2145 52.2172 80.6238 52.3067C82.3165 52.6111 84.0244 52.8246 85.7399 52.9462C87.5817 52.9462 88.2021 52.0445 87.6585 50.2731C87.29 48.9644 86.7273 47.7184 85.9894 46.5766C85.1004 45.2976 84.9022 44.204 85.7016 42.8802C86.0249 42.2214 86.3048 41.5421 86.5393 40.8466C89.0398 44.268 91.4061 47.3824 91.4956 51.5329C91.5292 52.7033 91.1335 53.8456 90.3831 54.7444C89.6327 55.6432 88.5795 56.2366 87.4219 56.4125C83.7063 57.0712 80.2081 56.131 76.4158 54.6857Z" fill="url(#paint4_linear_280_2927)"/>
<path d="M39.3564 27.7402C36.8559 24.2676 34.4577 21.1084 34.4577 16.8684C34.4577 14.5022 36.0309 12.7435 38.3779 12.1999C42.215 11.3238 45.6876 12.5388 49.2497 13.7219C47.9131 15.909 46.4551 16.4975 44.2359 16.0498C42.9593 15.781 41.6587 15.6416 40.3541 15.634C38.3076 15.634 37.7257 16.4655 38.3204 18.4608C38.5765 19.636 39.0753 20.7446 39.7849 21.7158C41.6587 23.839 40.2645 25.5211 39.3564 27.7402Z" fill="url(#paint5_linear_280_2927)"/>
<path d="M71.4856 57.3782C70.5646 60.6653 69.4711 63.7093 67.2903 66.2162C64.6299 69.2731 61.1573 69.1708 58.5673 66.0371C56.6487 63.7413 54.9284 59.9362 54.6471 57.4549C57.2051 57.3398 58.3371 58.0944 59.4051 60.3455C59.9898 61.6247 60.7355 62.8239 61.6242 63.9141C62.6346 65.0972 63.5427 65.0267 64.4828 63.7924C65.2701 62.7503 65.9474 61.6294 66.5037 60.4478C67.6804 57.9473 68.1729 57.5893 71.4856 57.3782Z" fill="url(#paint6_linear_280_2927)"/>
<path d="M54.4727 11.0828C55.3232 7.96197 56.3913 5.07137 58.3482 2.62842C61.1621 -0.876138 64.7753 -0.876138 67.5892 2.62842C69.5653 5.07777 70.6141 7.96842 71.4263 10.9741C69.0537 11.2427 67.5892 10.3346 66.6299 8.35206C65.9742 7.00113 65.1904 5.71621 64.2893 4.51496C63.5219 3.47894 62.4411 3.46615 61.6417 4.51496C60.8089 5.58053 60.0848 6.72676 59.4801 7.93644C58.2458 10.5009 57.7342 10.9037 54.4727 11.0828Z" fill="url(#paint7_linear_280_2927)"/>
<defs>
<linearGradient id="paint0_linear_280_2927" x1="63" y1="18.9505" x2="63" y2="97.3926" gradientUnits="userSpaceOnUse">
<stop stop-color="#61049A"/>
<stop offset="1" stop-color="#A700FF"/>
</linearGradient>
<linearGradient id="paint1_linear_280_2927" x1="62.96" y1="12.9444" x2="62.96" y2="54.4544" gradientUnits="userSpaceOnUse">
<stop stop-color="#61049A"/>
<stop offset="1" stop-color="#A700FF"/>
</linearGradient>
<linearGradient id="paint2_linear_280_2927" x1="41.9797" y1="41.2406" x2="41.9797" y2="56.8235" gradientUnits="userSpaceOnUse">
<stop stop-color="#61049A"/>
<stop offset="1" stop-color="#A700FF"/>
</linearGradient>
<linearGradient id="paint3_linear_280_2927" x1="83.9743" y1="11.7874" x2="83.9743" y2="27.5312" gradientUnits="userSpaceOnUse">
<stop stop-color="#61049A"/>
<stop offset="1" stop-color="#A700FF"/>
</linearGradient>
<linearGradient id="paint4_linear_280_2927" x1="83.9567" y1="40.8466" x2="83.9567" y2="56.6268" gradientUnits="userSpaceOnUse">
<stop stop-color="#61049A"/>
<stop offset="1" stop-color="#A700FF"/>
</linearGradient>
<linearGradient id="paint5_linear_280_2927" x1="41.8537" y1="11.9011" x2="41.8537" y2="27.7402" gradientUnits="userSpaceOnUse">
<stop stop-color="#61049A"/>
<stop offset="1" stop-color="#A700FF"/>
</linearGradient>
<linearGradient id="paint6_linear_280_2927" x1="63.0663" y1="57.3782" x2="63.0663" y2="68.4493" gradientUnits="userSpaceOnUse">
<stop stop-color="#61049A"/>
<stop offset="1" stop-color="#A700FF"/>
</linearGradient>
<linearGradient id="paint7_linear_280_2927" x1="62.9495" y1="0" x2="62.9495" y2="11.0828" gradientUnits="userSpaceOnUse">
<stop stop-color="#61049A"/>
<stop offset="1" stop-color="#A700FF"/>
</linearGradient>
</defs>
</svg>
