<svg width="38" height="29" viewBox="0 0 38 29" fill="none" xmlns="http://www.w3.org/2000/svg">
<path d="M26.2362 14.5282C26.2362 17.1827 26.2167 19.8347 26.2362 22.4891C26.2478 22.9996 26.1502 23.5067 25.9499 23.9766C25.7497 24.4465 25.4513 24.8684 25.0748 25.2142C24.0461 26.1844 22.8006 26.8961 21.4414 27.2905C15.9203 29.0105 10.4066 29.0178 4.92958 27.0855C3.67057 26.6749 2.53427 25.957 1.62381 24.9971C1.00512 24.3514 0.664551 23.4896 0.675104 22.5964C0.688144 17.1753 0.688144 11.7551 0.675104 6.3356C0.675104 5.23041 1.16412 4.38382 1.95878 3.6519C3.32315 2.41496 4.98093 1.73671 6.73407 1.30488C11.8688 0.0337786 16.9864 0.0850332 22.0111 1.90507C23.2668 2.32538 24.399 3.04863 25.3071 4.01056C25.9213 4.66075 26.2558 5.52522 26.2387 6.41858C26.2191 9.11692 26.2387 11.8177 26.2387 14.516L26.2362 14.5282ZM14.4997 10.7198C15.6709 10.5271 17.896 10.2319 20.0868 9.77565C21.5979 9.45848 23.0454 8.8656 24.1995 7.76773C25.2484 6.76744 25.2875 5.57199 24.1799 4.64733C23.4324 4.02446 22.5906 3.52377 21.6859 3.16395C18.2823 1.81478 14.7173 1.54887 11.101 1.84164C8.96645 2.01486 6.86122 2.40034 4.90269 3.30548C4.05706 3.68431 3.27519 4.19123 2.58473 4.80833C1.66537 5.64516 1.68493 6.77477 2.58473 7.62623C3.16237 8.17029 3.82254 8.61986 4.54082 8.95831C7.35513 10.2636 10.3748 10.6027 14.5071 10.7198H14.4997ZM24.9721 13.9256C21.4438 16.4654 17.495 17.0216 13.4239 17.0192C9.35277 17.0168 5.4186 16.4459 1.93188 13.9256C1.93188 14.9015 1.96366 15.77 1.93188 16.6435C1.89023 17.0762 1.9691 17.512 2.15979 17.9029C2.35048 18.2938 2.6456 18.6245 3.01262 18.8588C3.83079 19.4263 4.71506 19.8924 5.64599 20.247C10.0716 21.7767 14.5877 21.8865 19.143 20.8837C20.8325 20.5104 22.4757 19.9884 23.8792 18.9124C24.4513 18.4708 24.9354 17.9365 24.9697 17.1827C25.0161 16.1263 24.9795 15.065 24.9795 13.9256H24.9721ZM1.93188 19.637C1.93188 20.6129 1.971 21.4644 1.93188 22.3207C1.87319 23.3552 2.26687 24.1896 3.11776 24.6848C4.15438 25.3255 5.26001 25.8477 6.41376 26.2414C10.3944 27.4783 14.4533 27.5564 18.5293 26.7659C20.3362 26.417 22.1016 25.9023 23.6444 24.8361C24.2752 24.4018 24.867 23.8602 24.9403 23.0868C25.0308 21.9743 24.9648 20.852 24.9648 19.6858C19.8814 23.8602 6.83432 23.7309 1.93922 19.637H1.93188ZM1.93188 8.79976C1.93188 9.58779 1.95877 10.2636 1.93188 10.9394C1.89296 11.3492 1.96582 11.762 2.14272 12.1339C2.31962 12.5058 2.59401 12.8231 2.93683 13.0522C3.6843 13.5994 4.49751 14.051 5.35747 14.3965C9.85158 16.0287 14.4484 16.1702 19.0965 15.1504C20.6516 14.8112 22.1627 14.3282 23.4977 13.4425C24.1726 12.9961 24.8254 12.4667 24.9232 11.6225C25.0259 10.7223 24.9452 9.79758 24.9452 8.83633C19.9474 12.9814 6.87344 12.9205 1.93922 8.79976H1.93188Z" fill="url(#paint0_linear_324_49)"/>
<path d="M29.8624 2.38318C28.4299 2.38318 27.0297 2.80699 25.8387 3.60105C24.6477 4.39511 23.7194 5.52374 23.1712 6.84421C22.6231 8.16467 22.4796 9.61768 22.7591 11.0195C23.0385 12.4213 23.7283 13.7089 24.7412 14.7195C25.7541 15.7302 27.0445 16.4185 28.4494 16.6973C29.8543 16.9761 31.3105 16.833 32.6339 16.2861C33.9573 15.7391 35.0884 14.8129 35.8842 13.6245C36.68 12.4361 37.1048 11.0389 37.1048 9.60966C37.1048 7.69308 36.3417 5.85501 34.9835 4.49978C33.6253 3.14455 31.7832 2.38318 29.8624 2.38318ZM33.1803 12.1616C33.2804 12.2622 33.3365 12.3981 33.3365 12.5398C33.3365 12.6815 33.2804 12.8174 33.1803 12.918C33.0796 13.0178 32.9434 13.0738 32.8014 13.0738C32.6594 13.0738 32.5231 13.0178 32.4224 12.918L29.8624 10.366L27.3048 12.918C27.2043 13.0182 27.0679 13.0746 26.9258 13.0746C26.7836 13.0746 26.6473 13.0182 26.5468 12.918C26.4463 12.8177 26.3898 12.6816 26.3898 12.5398C26.3898 12.3979 26.4463 12.2619 26.5468 12.1616L29.1044 9.60966L26.5468 7.05527C26.4463 6.95498 26.3898 6.81894 26.3898 6.6771C26.3898 6.53526 26.4463 6.39925 26.5468 6.29896C26.6473 6.19867 26.7836 6.14231 26.9258 6.14231C27.0679 6.14231 27.2043 6.19867 27.3048 6.29896L29.8624 8.85335L32.4224 6.29896C32.5229 6.19867 32.6592 6.14231 32.8014 6.14231C32.9435 6.14231 33.0798 6.19867 33.1803 6.29896C33.2809 6.39925 33.3373 6.53526 33.3373 6.6771C33.3373 6.81894 33.2809 6.95498 33.1803 7.05527L30.6203 9.60966L33.1803 12.1616Z" fill="#7900B9"/>
<defs>
<linearGradient id="paint0_linear_324_49" x1="13.4571" y1="0.432861" x2="13.4571" y2="28.5586" gradientUnits="userSpaceOnUse">
<stop stop-color="#40048D"/>
<stop offset="1" stop-color="#AD00FF"/>
</linearGradient>
</defs>
</svg>
