<svg width="126" height="118" viewBox="0 0 126 118" fill="none" xmlns="http://www.w3.org/2000/svg">
<path d="M0 94.8724C0.281083 93.9656 0.858209 93.1793 1.63904 92.6392C2.41987 92.0992 3.35927 91.8368 4.30694 91.8938C6.07275 91.6995 7.70604 90.8644 8.89758 89.5468C10.7833 87.7266 13.1611 86.4988 15.737 86.0153C18.3129 85.5317 20.9741 85.8135 23.3916 86.8259C25.1989 87.5867 26.8578 88.6607 28.2917 89.9982C31.4252 92.7578 35.0874 92.848 38.1822 89.9982C39.4891 88.6902 41.0423 87.6542 42.7521 86.9501C44.4618 86.2461 46.2941 85.8879 48.1431 85.8963C49.9921 85.9047 51.8211 86.2794 53.5244 86.9989C55.2276 87.7185 56.7714 88.7686 58.0664 90.0884C58.6846 90.7333 59.4259 91.2477 60.2464 91.601C61.0669 91.9543 61.9499 92.1394 62.8432 92.1455C63.7366 92.1515 64.622 91.9782 65.4472 91.6359C66.2724 91.2937 67.0205 90.7895 67.6474 90.153C72.5862 85.6268 78.6468 84.621 84.1659 87.5739C85.3921 88.2133 86.5317 89.0062 87.5573 89.9337C90.794 92.8738 94.3788 92.8866 97.6025 89.9337C100.015 87.5767 103.197 86.1704 106.564 85.9737C109.931 85.7771 113.256 86.8033 115.926 88.8635C116.501 89.3256 117.052 89.8162 117.577 90.3335C118.8 91.5044 120.411 92.1838 122.103 92.2419C122.603 92.2327 123.099 92.325 123.562 92.5135C124.025 92.702 124.445 92.9827 124.796 93.3385C125.147 93.6942 125.422 94.1176 125.605 94.5829C125.787 95.0483 125.873 95.5458 125.858 96.0454C125.842 96.545 125.725 97.0363 125.513 97.4892C125.302 97.9421 125.001 98.3473 124.628 98.6802C124.255 99.0131 123.818 99.2669 123.344 99.4258C122.87 99.5848 122.369 99.6457 121.871 99.605C118.185 99.5054 114.684 97.9636 112.122 95.311C111.222 94.369 110.058 93.7218 108.782 93.4548C107.507 93.1878 106.181 93.3134 104.979 93.8151C104.016 94.2019 103.139 94.776 102.4 95.5043C99.7753 98.1006 96.2328 99.557 92.5412 99.557C88.8497 99.557 85.3072 98.1006 82.683 95.5043C79.4463 92.5384 75.9131 92.5126 72.728 95.5043C71.4313 96.8092 69.8893 97.8449 68.1908 98.5516C66.4922 99.2583 64.6707 99.6221 62.8311 99.6221C60.9914 99.6221 59.1699 99.2583 57.4714 98.5516C55.7729 97.8449 54.2309 96.8092 52.9341 95.5043C52.3081 94.8351 51.5513 94.3017 50.7106 93.9369C49.8699 93.5722 48.9633 93.384 48.0469 93.384C47.1305 93.384 46.2239 93.5722 45.3832 93.9369C44.5426 94.3017 43.7857 94.8351 43.1597 95.5043C41.844 96.8153 40.2803 97.8511 38.5598 98.5509C36.8393 99.2508 34.9966 99.6007 33.1394 99.5802C31.2821 99.5598 29.4476 99.1696 27.7429 98.4321C26.0382 97.6946 24.4976 96.6248 23.2111 95.2852C22.5892 94.6272 21.8396 94.1031 21.0081 93.7449C20.1766 93.3867 19.2808 93.2018 18.3754 93.2018C17.4701 93.2018 16.5743 93.3867 15.7428 93.7449C14.9113 94.1031 14.1617 94.6272 13.5398 95.2852C11.3735 97.3538 8.6224 98.7046 5.66092 99.1537C2.66927 99.6308 1.45714 99.1537 0 96.5747V94.8724Z" fill="url(#paint0_linear_280_2915)"/>
<path d="M0 112.577C0.351618 111.724 0.957448 111 1.73503 110.504C2.51261 110.008 3.42417 109.764 4.34563 109.804C6.11629 109.619 7.75156 108.772 8.92337 107.431C10.2213 106.203 11.7502 105.245 13.4215 104.611C15.0927 103.978 16.873 103.683 18.6591 103.744C20.4936 103.769 22.3049 104.158 23.989 104.886C25.673 105.614 27.1966 106.667 28.4722 107.986C29.2391 108.853 30.2371 109.483 31.3494 109.803C32.4617 110.123 33.642 110.119 34.7521 109.791C36.1866 109.302 37.5039 108.521 38.6206 107.496C40.9038 105.404 43.8139 104.125 46.8988 103.857C49.9838 103.588 53.0709 104.346 55.6808 106.013C56.594 106.636 57.4564 107.33 58.2598 108.089C58.8766 108.707 59.6093 109.197 60.4158 109.532C61.2223 109.866 62.0869 110.039 62.96 110.039C63.8332 110.039 64.6978 109.866 65.5043 109.532C66.3108 109.197 67.0434 108.707 67.6603 108.089C73.9788 102.312 81.6514 102.312 87.9184 108.089C90.8327 110.771 94.5077 110.668 97.6026 107.806C99.4973 105.873 101.928 104.552 104.58 104.015C107.233 103.477 109.986 103.746 112.483 104.788C114.327 105.647 116.035 106.773 117.551 108.128C118.848 109.271 120.482 109.959 122.206 110.088C123.088 110.059 123.95 110.349 124.636 110.904C125.322 111.459 125.785 112.241 125.942 113.109C126.098 113.978 125.937 114.873 125.488 115.632C125.039 116.391 124.332 116.964 123.496 117.245C123.35 117.314 123.208 117.392 123.07 117.477H120.749C120.57 117.383 120.379 117.314 120.182 117.27C117.258 116.834 114.548 115.479 112.445 113.402C109.169 110.32 105.636 110.32 102.348 113.402C100.758 114.944 98.8212 116.081 96.6999 116.716C95.6425 117.013 94.5593 117.206 93.489 117.438H91.7353C88.2806 117.047 85.0478 115.54 82.5283 113.144C81.924 112.481 81.1882 111.952 80.3678 111.59C79.5474 111.227 78.6604 111.04 77.7635 111.04C76.8667 111.04 75.9797 111.227 75.1593 111.59C74.3389 111.952 73.603 112.481 72.9988 113.144C71.0071 115.085 68.5089 116.426 65.7905 117.013L63.7531 117.387H61.9865C61.7597 117.304 61.5269 117.24 61.2901 117.193C58.2218 116.836 55.357 115.476 53.1405 113.325C49.8522 110.243 46.319 110.243 43.0565 113.325C41.4807 114.917 39.5362 116.095 37.3956 116.755C36.3511 117.064 35.2679 117.245 34.1976 117.49H32.4826C32.2516 117.41 32.0144 117.35 31.7734 117.309C28.66 116.978 25.7464 115.616 23.4948 113.441C20.1034 110.294 16.6862 110.294 13.3077 113.441C11.4461 115.181 9.15334 116.391 6.66674 116.948C3.01744 117.773 1.65057 117.27 0.0257907 114.562L0 112.577Z" fill="url(#paint1_linear_280_2915)"/>
<path d="M63.004 64.4139H29.2061C27.8328 64.4843 26.46 64.2657 25.1766 63.7722C23.8931 63.2786 22.7275 62.5212 21.7552 61.5489C20.7828 60.5766 20.0254 59.4109 19.5319 58.1274C19.0383 56.844 18.8197 55.4712 18.8901 54.0979C18.8901 51.7252 18.8901 49.3525 18.8901 46.9798C18.8662 46.0759 18.9007 45.1714 18.9932 44.2719C19.351 42.0098 20.4797 39.9409 22.1882 38.4158C23.8967 36.8906 26.0799 36.0028 28.3679 35.903H96.4537C101.16 35.903 104.81 38.2113 106.28 42.2603C106.691 43.4569 106.917 44.7093 106.95 45.9741C107.041 48.7079 106.95 51.4674 106.95 54.2012C107.009 55.5585 106.784 56.913 106.292 58.1792C105.8 59.4454 105.05 60.5955 104.09 61.5568C103.129 62.518 101.98 63.2695 100.715 63.7635C99.4492 64.2576 98.0948 64.4834 96.7374 64.4268L63.004 64.4139ZM70.4315 53.8401H89.7741C90.2843 53.8828 90.7979 53.8192 91.2823 53.6532C91.7667 53.4873 92.2113 53.2226 92.5882 52.8759C92.965 52.5293 93.2659 52.1083 93.4716 51.6395C93.6774 51.1706 93.7837 50.6641 93.7837 50.1521C93.7837 49.6401 93.6774 49.1336 93.4716 48.6647C93.2659 48.1959 92.965 47.7749 92.5882 47.4283C92.2113 47.0816 91.7667 46.8169 91.2823 46.651C90.7979 46.485 90.2843 46.4214 89.7741 46.4641C82.1531 46.4641 74.5322 46.4641 66.9112 46.4641H50.96C50.2415 46.4163 49.5243 46.5754 48.8935 46.9228C48.2627 47.2702 47.7447 47.7914 47.401 48.4242C47.0888 48.9923 46.9336 49.6333 46.9512 50.2813C46.9689 50.9293 47.1589 51.561 47.5017 52.1112C47.8444 52.6615 48.3276 53.1105 48.9014 53.4121C49.4752 53.7137 50.119 53.8569 50.7666 53.8272C57.3302 53.8272 63.8809 53.8272 70.4315 53.8272V53.8401ZM32.2364 50.1392C32.2313 50.6184 32.3207 51.094 32.4994 51.5387C32.6781 51.9834 32.9426 52.3885 33.2779 52.7309C33.6132 53.0734 34.0126 53.3466 34.4534 53.5347C34.8943 53.7228 35.3678 53.8221 35.8471 53.8272C36.8209 53.8273 37.7559 53.4449 38.4505 52.7623C39.1452 52.0797 39.5439 51.1516 39.5608 50.1779C39.5479 49.2059 39.1595 48.2765 38.4769 47.5843C37.7943 46.8921 36.8704 46.4907 35.8986 46.4641C34.9272 46.4709 33.9977 46.8606 33.312 47.5487C32.6263 48.2368 32.2398 49.1678 32.2364 50.1392V50.1392Z" fill="url(#paint2_linear_280_2915)"/>
<path d="M62.889 28.514H29.4522C23.0047 28.514 18.9427 24.3875 18.9298 17.9787C18.9298 15.3223 18.9298 12.6531 18.9298 9.99675C18.9068 8.67146 19.1521 7.35513 19.6511 6.12713C20.15 4.89914 20.8923 3.78491 21.8332 2.85127C22.774 1.91763 23.8941 1.18391 25.1259 0.694438C26.3577 0.20497 27.6758 -0.0301574 29.0009 0.00309297H96.9835C98.3058 -0.028392 99.6208 0.207819 100.85 0.697429C102.078 1.18704 103.195 1.91995 104.134 2.85222C105.072 3.78448 105.812 4.8967 106.31 6.12225C106.807 7.3478 107.052 8.66136 107.029 9.98384C107.029 12.8852 107.029 15.7995 107.029 18.7009C107.041 20.0068 106.791 21.302 106.294 22.5096C105.797 23.7172 105.062 24.8128 104.134 25.7315C103.206 26.6501 102.103 27.373 100.89 27.8576C99.6771 28.3422 98.3795 28.5787 97.0738 28.5527C85.6574 28.5441 74.2624 28.5312 62.889 28.514ZM70.3037 17.9401C76.7512 17.9401 83.1987 17.9401 89.7236 17.9401C90.4834 18.0035 91.2442 17.8305 91.902 17.4451C92.5598 17.0596 93.0825 16.4804 93.3987 15.7866C94.6108 13.2076 92.7281 10.6286 89.6978 10.6286H52.2119C51.6316 10.6286 51.0643 10.6286 50.484 10.6286C49.9926 10.6437 49.5092 10.7567 49.0621 10.9614C48.6151 11.166 48.2135 11.458 47.8809 11.82C47.5483 12.1821 47.2915 12.6071 47.1255 13.0699C46.9596 13.5326 46.8878 14.0238 46.9145 14.5147C46.9411 15.0056 47.0656 15.4864 47.2807 15.9284C47.4958 16.3705 47.7971 16.7651 48.167 17.089C48.5368 17.413 48.9676 17.6597 49.4342 17.8147C49.9008 17.9697 50.3936 18.0298 50.8837 17.9916L70.3037 17.9401ZM32.2375 14.2522C32.2324 14.7314 32.3217 15.2068 32.5004 15.6515C32.6791 16.0963 32.9437 16.5015 33.2789 16.8439C33.6142 17.1864 34.0137 17.4594 34.4545 17.6475C34.8953 17.8356 35.3689 17.9351 35.8481 17.9401C36.3499 17.9698 36.8525 17.8965 37.325 17.725C37.7974 17.5534 38.2299 17.2871 38.5957 16.9423C38.9615 16.5975 39.2529 16.1815 39.4521 15.72C39.6513 15.2585 39.7541 14.7611 39.7541 14.2585C39.7541 13.7558 39.6513 13.2586 39.4521 12.7971C39.2529 12.3356 38.9615 11.9196 38.5957 11.5748C38.2299 11.23 37.7974 10.9637 37.325 10.7921C36.8525 10.6206 36.3499 10.5472 35.8481 10.577C34.8836 10.5905 33.9633 10.9841 33.2873 11.6722C32.6113 12.3603 32.234 13.2875 32.2375 14.2522V14.2522Z" fill="url(#paint3_linear_280_2915)"/>
<path d="M19.5886 78.1336C20.1686 76.5879 21.1342 75.2161 22.3935 74.1486C23.6529 73.0811 25.1642 72.3533 26.7841 72.0343C27.547 71.8729 28.3253 71.795 29.1052 71.8021H96.8041C98.9163 71.7317 100.995 72.3451 102.73 73.5509C104.466 74.7567 105.766 76.4907 106.437 78.4947C101.304 78.7362 96.4271 80.8086 92.6906 84.3362C82.7098 76.5089 72.8064 76.483 62.8644 84.2716C58.8712 80.571 53.6323 78.5075 48.1881 78.4908C42.7438 78.474 37.4924 80.5054 33.4766 84.1814C31.3833 82.7449 29.1946 81.4524 26.9259 80.3129C24.5316 79.4235 22.0803 78.6953 19.5886 78.1336V78.1336Z" fill="url(#paint4_linear_280_2915)"/>
<defs>
<linearGradient id="paint0_linear_280_2915" x1="62.9297" y1="85.785" x2="62.9297" y2="99.6221" gradientUnits="userSpaceOnUse">
<stop stop-color="#61049A"/>
<stop offset="1" stop-color="#A700FF"/>
</linearGradient>
<linearGradient id="paint1_linear_280_2915" x1="63" y1="103.736" x2="63" y2="117.49" gradientUnits="userSpaceOnUse">
<stop stop-color="#61049A"/>
<stop offset="1" stop-color="#A700FF"/>
</linearGradient>
<linearGradient id="paint2_linear_280_2915" x1="62.9338" y1="35.903" x2="62.9338" y2="64.4354" gradientUnits="userSpaceOnUse">
<stop stop-color="#61049A"/>
<stop offset="1" stop-color="#A700FF"/>
</linearGradient>
<linearGradient id="paint3_linear_280_2915" x1="62.9793" y1="0" x2="62.9793" y2="28.5546" gradientUnits="userSpaceOnUse">
<stop stop-color="#61049A"/>
<stop offset="1" stop-color="#A700FF"/>
</linearGradient>
<linearGradient id="paint4_linear_280_2915" x1="63.0127" y1="71.7966" x2="63.0127" y2="84.3362" gradientUnits="userSpaceOnUse">
<stop stop-color="#61049A"/>
<stop offset="1" stop-color="#A700FF"/>
</linearGradient>
</defs>
</svg>
