<svg width="16" height="19" viewBox="0 0 16 19" fill="none" xmlns="http://www.w3.org/2000/svg">
<path fill-rule="evenodd" clip-rule="evenodd" d="M15.503 7.74674C15.5724 3.47076 12.1284 0.00793317 7.61545 0C7.53002 0.0105364 7.42504 0.0194372 7.30668 0.0294736C7.01285 0.054387 6.63652 0.0862972 6.27177 0.167588C3.42772 0.828025 1.45038 2.5158 0.557901 5.30629C-0.339539 8.11563 0.259415 10.683 2.27444 12.8309C3.41745 14.0508 4.61724 15.2181 5.81686 16.3852C6.28766 16.8432 6.75843 17.3012 7.22573 17.7624C7.68585 18.2126 7.99624 18.2155 8.45438 17.7624C8.81449 17.408 9.17533 17.0543 9.53624 16.7006C10.849 15.4139 12.1625 14.1264 13.4443 12.8041C14.8019 11.4109 15.4713 9.6864 15.503 7.74674ZM7.90252 16.5025L12.0957 12.2012C12.1356 12.1604 12.1761 12.12 12.2166 12.0797C12.3049 11.9917 12.3932 11.9037 12.4755 11.8105C13.7646 10.3399 14.3319 8.64715 14.0463 6.69262C13.6645 4.07765 11.6177 1.94065 9.04143 1.46863C7.75154 1.221 6.41654 1.38174 5.22229 1.92847C4.02805 2.47521 3.03401 3.38071 2.37856 4.51893C1.05273 6.81459 1.3056 9.72011 3.12924 11.6955C4.16294 12.8146 5.25037 13.8843 6.37073 14.9864C6.87528 15.4827 7.38651 15.9855 7.90252 16.5025ZM5.93474 10.5358C6.50914 10.9138 7.18289 11.1126 7.8705 11.1071C8.32525 11.1081 8.77566 11.0187 9.19562 10.8443C9.61559 10.6699 9.99675 10.4138 10.317 10.091C10.6373 9.76813 10.8903 9.38492 11.0613 8.96357C11.2324 8.54222 11.3181 8.0911 11.3135 7.63638C11.3135 6.94875 11.1092 6.27662 10.7266 5.70527C10.344 5.13392 9.80027 4.6891 9.16445 4.42724C8.52863 4.16538 7.82936 4.09829 7.15535 4.23448C6.48134 4.37067 5.86297 4.70399 5.3787 5.19217C4.89443 5.68034 4.56608 6.30136 4.43531 6.97644C4.30454 7.65153 4.37725 8.35024 4.64421 8.98394C4.91116 9.61763 5.36034 10.1577 5.93474 10.5358ZM5.73548 7.62944C5.75135 6.49004 6.74697 5.51327 7.8705 5.5331H7.86654C9.00395 5.55194 9.98766 6.5664 9.95593 7.67902C9.91924 8.80851 8.9514 9.75949 7.84571 9.75255C6.70829 9.7466 5.71863 8.75 5.73548 7.62944Z" fill="url(#paint0_linear_324_1155)"/>
<defs>
<linearGradient id="paint0_linear_324_1155" x1="7.82803" y1="-55.2128" x2="7.82803" y2="18.1011" gradientUnits="userSpaceOnUse">
<stop stop-color="#871ADD"/>
<stop offset="1" stop-color="#0094FF"/>
</linearGradient>
</defs>
</svg>
