<svg width="16" height="17" viewBox="0 0 16 17" fill="none" xmlns="http://www.w3.org/2000/svg">
<path opacity="0.6" d="M15.2133 7.65349C15.2158 7.06257 15.1476 6.47346 15.0099 5.89865C14.6882 4.55579 13.9994 3.32784 13.0198 2.3509C12.0401 1.37396 10.8079 0.686188 9.45979 0.363812C9.31721 0.322506 9.16933 0.302197 9.02085 0.303528C8.8393 0.314454 8.66837 0.392442 8.54153 0.522232C8.41468 0.652021 8.34103 0.82427 8.335 1.00527C8.32888 1.18401 8.3868 1.35909 8.49841 1.49921C8.61002 1.63933 8.76804 1.73536 8.94422 1.77013C10.4417 2.09416 11.6583 2.86184 12.5579 4.09672C13.5786 5.49833 13.9268 7.06195 13.6136 8.76875C13.5884 8.88899 13.5849 9.01274 13.6032 9.13422C13.6352 9.30203 13.7254 9.45332 13.858 9.56163C13.9906 9.66993 14.1573 9.72836 14.3288 9.7267C14.5003 9.72671 14.6666 9.66775 14.7995 9.5598C14.9324 9.45184 15.0237 9.30152 15.0582 9.13422C15.1623 8.6475 15.2144 8.15114 15.2133 7.65349ZM12.7377 7.98034C12.7377 6.9866 12.5485 6.16805 12.1388 5.40696C11.3347 3.91304 10.105 2.97487 8.44001 2.61882C8.32505 2.59656 8.20641 2.60187 8.09392 2.63431C7.98143 2.66675 7.8783 2.72538 7.79308 2.80536C7.70785 2.88535 7.64297 2.98438 7.6038 3.09428C7.56462 3.20418 7.55229 3.32178 7.5678 3.43736C7.61226 3.77081 7.83741 4.00253 8.19594 4.08354C8.56354 4.16173 8.91786 4.29244 9.24789 4.47161C9.93888 4.85492 10.4959 5.43905 10.8447 6.14597C11.1934 6.85289 11.3172 7.64894 11.1995 8.42776C11.1715 8.55597 11.1559 8.68656 11.1531 8.81773C11.1617 8.9999 11.2376 9.17248 11.3664 9.30222C11.4951 9.43196 11.6675 9.50968 11.8503 9.52042C12.0303 9.53054 12.2078 9.47573 12.3505 9.36604C12.4931 9.25635 12.5913 9.09914 12.627 8.92323C12.694 8.6132 12.7308 8.29743 12.7367 7.98034H12.7377ZM10.2582 8.07454C10.2498 7.36603 10.0081 6.67984 9.5703 6.12124C9.1325 5.56264 8.52275 5.16248 7.83457 4.98215C7.68207 4.93239 7.51955 4.92106 7.36158 4.94918C7.19876 4.98705 7.05337 5.07813 6.94861 5.20788C6.84384 5.33763 6.78574 5.49858 6.78357 5.66505C6.78301 5.82971 6.83703 5.98996 6.93726 6.12093C7.03749 6.2519 7.17833 6.34627 7.33793 6.38941C7.47103 6.42277 7.60185 6.46461 7.72957 6.51468C8.09073 6.67455 8.38571 6.95321 8.56501 7.30393C8.74432 7.65466 8.79704 8.05611 8.71435 8.44095C8.69579 8.53603 8.69645 8.63384 8.71628 8.72867C8.73611 8.82349 8.77472 8.91343 8.82985 8.99323C8.88498 9.07303 8.95553 9.1411 9.03738 9.19344C9.11922 9.24579 9.21072 9.28137 9.30654 9.29812C9.49336 9.3346 9.68712 9.29758 9.84711 9.19483C10.0071 9.09208 10.1209 8.9316 10.1646 8.74708C10.2119 8.52667 10.227 8.29966 10.2573 8.07642L10.2582 8.07454Z" fill="url(#paint0_linear_324_1158)"/>
<path opacity="0.6" d="M3.50934 0.00634766C3.56893 0.0195348 3.62853 0.0308374 3.68813 0.0468504C3.87198 0.0967112 4.04212 0.18735 4.18579 0.311978C4.32947 0.436606 4.44296 0.591991 4.51776 0.766493C4.76824 1.30377 4.96562 1.86404 5.10712 2.43938C5.20172 2.79638 5.28496 3.1562 5.35024 3.51884C5.37721 3.69238 5.37721 3.86902 5.35024 4.04256C5.30956 4.34022 5.12982 4.55592 4.88576 4.72264C4.60945 4.89937 4.3148 5.04591 4.00693 5.1597C3.75529 5.26238 3.50366 5.36693 3.25013 5.47149C3.20136 5.48618 3.1563 5.51105 3.11794 5.54445C3.07958 5.57785 3.04882 5.61901 3.02769 5.66518C3.00656 5.71135 2.99556 5.76147 2.99543 5.81221C2.99529 5.86295 3.00601 5.91313 3.02688 5.95941C3.58986 7.59181 4.41056 9.12442 5.45808 10.4996C6.00401 11.229 6.61371 11.9089 7.28006 12.5313C7.49386 12.731 7.70198 12.7197 7.88361 12.4889C8.16423 12.1132 8.49819 11.78 8.87501 11.4999C9.11637 11.3141 9.40779 11.2039 9.71221 11.1834C9.89845 11.1719 10.084 11.2152 10.2458 11.3078C11.1501 11.8569 11.9807 12.4965 12.6628 13.3113C12.7571 13.428 12.839 13.5543 12.9068 13.688C13.0011 13.8596 13.0485 14.0528 13.0444 14.2483C13.0402 14.4439 12.9847 14.6349 12.8832 14.8024C12.6766 15.1577 12.392 15.462 12.0507 15.6925C11.6302 15.9989 11.1532 16.2199 10.647 16.3427C10.1407 16.4656 9.61508 16.4879 9.10015 16.4084C8.29606 16.2953 7.57805 15.9647 6.88842 15.554C5.2055 14.5556 3.85179 13.2124 2.73268 11.6195C1.8724 10.419 1.18435 9.10488 0.688385 7.71519C0.39869 6.89508 0.193922 6.04764 0.0772738 5.18608C-8.94444e-05 4.65976 -0.0194396 4.12659 0.0195681 3.59608C0.0927047 2.67796 0.491783 1.81577 1.1453 1.16399C1.59296 0.692342 2.14675 0.333339 2.76106 0.116555C2.90485 0.0666317 3.0581 0.0421414 3.20756 0.00634766H3.50934Z" fill="url(#paint1_linear_324_1158)"/>
<path opacity="0.6" d="M15.2131 7.65349C15.2141 8.15114 15.1621 8.6475 15.058 9.13422C15.0235 9.30152 14.9321 9.45185 14.7993 9.5598C14.6664 9.66775 14.5001 9.72671 14.3286 9.7267C14.1574 9.72792 13.9912 9.66929 13.859 9.56102C13.7267 9.45275 13.6368 9.30171 13.6049 9.13422C13.5866 9.01275 13.5901 8.889 13.6153 8.76875C13.9284 7.06195 13.5803 5.49833 12.5596 4.09672C11.66 2.86184 10.4434 2.09416 8.9459 1.77013C8.76972 1.73536 8.6117 1.63933 8.50009 1.49921C8.38848 1.35909 8.33056 1.18401 8.33668 1.00527C8.34271 0.82427 8.41636 0.652021 8.54321 0.522232C8.67005 0.392442 8.84098 0.314454 9.02253 0.303528C9.17101 0.302197 9.31889 0.322506 9.46147 0.363812C10.8096 0.686188 12.0418 1.37396 13.0214 2.3509C14.0011 3.32784 14.6899 4.55579 15.0116 5.89866C15.1486 6.47354 15.2163 7.06265 15.2131 7.65349Z" fill="url(#paint2_linear_324_1158)"/>
<defs>
<linearGradient id="paint0_linear_324_1158" x1="10.9985" y1="-14.9213" x2="10.9985" y2="27.6185" gradientUnits="userSpaceOnUse">
<stop stop-color="#871ADD"/>
<stop offset="1" stop-color="#0094FF"/>
</linearGradient>
<linearGradient id="paint1_linear_324_1158" x1="6.52232" y1="-26.569" x2="6.52232" y2="47.6856" gradientUnits="userSpaceOnUse">
<stop stop-color="#871ADD"/>
<stop offset="1" stop-color="#0094FF"/>
</linearGradient>
<linearGradient id="paint2_linear_324_1158" x1="11.7747" y1="-14.9213" x2="11.7747" y2="27.6184" gradientUnits="userSpaceOnUse">
<stop stop-color="#871ADD"/>
<stop offset="1" stop-color="#0094FF"/>
</linearGradient>
</defs>
</svg>
