<svg width="197" height="89" viewBox="0 0 197 89" fill="none" xmlns="http://www.w3.org/2000/svg">
<g filter="url(#filter0_d)">
<rect x="10" y="18" width="134" height="41" rx="20.5" fill="white"/>
</g>
<path d="M31.664 27.912C31.664 28.104 31.6 28.252 31.472 28.356C31.352 28.46 31.188 28.512 30.98 28.512H27.92C27.976 28.688 28.012 28.872 28.028 29.064C28.052 29.248 28.064 29.468 28.064 29.724V31.368H31.04C31.072 31.464 31.088 31.568 31.088 31.68C31.088 31.872 31.024 32.02 30.896 32.124C30.776 32.228 30.612 32.28 30.404 32.28H28.064V35.292C28.064 35.532 28 35.724 27.872 35.868C27.752 36.004 27.58 36.072 27.356 36.072C27.244 36.072 27.128 36.056 27.008 36.024V29.724C27.008 29.212 26.992 28.832 26.96 28.584C26.928 28.328 26.856 28.084 26.744 27.852L26.84 27.6H31.616C31.648 27.696 31.664 27.8 31.664 27.912ZM34.6286 36.144C33.9726 36.144 33.4566 35.976 33.0806 35.64C32.7126 35.296 32.5286 34.836 32.5286 34.26C32.5286 33.652 32.7366 33.164 33.1526 32.796C33.5686 32.428 34.1406 32.244 34.8686 32.244C35.1886 32.244 35.4526 32.276 35.6606 32.34C35.8766 32.404 36.0806 32.496 36.2726 32.616V32.04C36.2726 31.56 36.1446 31.192 35.8886 30.936C35.6326 30.672 35.2606 30.54 34.7726 30.54C34.4046 30.54 34.0806 30.616 33.8006 30.768C33.5286 30.912 33.2846 31.132 33.0686 31.428C32.8046 31.332 32.6726 31.148 32.6726 30.876C32.6726 30.524 32.8846 30.248 33.3086 30.048C33.7406 29.848 34.2446 29.748 34.8206 29.748C35.6126 29.748 36.2126 29.952 36.6206 30.36C37.0286 30.76 37.2326 31.32 37.2326 32.04V35.34C37.2326 35.564 37.1726 35.744 37.0526 35.88C36.9406 36.008 36.7806 36.072 36.5726 36.072C36.4766 36.072 36.3686 36.056 36.2486 36.024V35.4C36.0726 35.656 35.8566 35.844 35.6006 35.964C35.3446 36.084 35.0206 36.144 34.6286 36.144ZM34.7846 35.376C35.2406 35.376 35.6006 35.268 35.8646 35.052C36.1366 34.836 36.2726 34.544 36.2726 34.176V33.876C36.2726 33.596 36.1646 33.38 35.9486 33.228C35.7326 33.068 35.4166 32.988 35.0006 32.988C34.5206 32.988 34.1526 33.096 33.8966 33.312C33.6406 33.528 33.5126 33.84 33.5126 34.248C33.5126 34.616 33.6206 34.896 33.8366 35.088C34.0526 35.28 34.3686 35.376 34.7846 35.376ZM39.2011 36.072C39.0811 36.072 38.9691 36.056 38.8651 36.024V28.02C38.8651 27.796 38.9211 27.62 39.0331 27.492C39.1451 27.356 39.3051 27.288 39.5131 27.288C39.6331 27.288 39.7451 27.304 39.8491 27.336V35.34C39.8491 35.564 39.7931 35.744 39.6811 35.88C39.5691 36.008 39.4091 36.072 39.2011 36.072ZM43.9936 36.144C43.4416 36.144 42.9536 36.016 42.5296 35.76C42.1056 35.504 41.7776 35.136 41.5456 34.656C41.3136 34.176 41.1976 33.616 41.1976 32.976C41.1976 32.328 41.3136 31.76 41.5456 31.272C41.7856 30.784 42.1136 30.408 42.5296 30.144C42.9536 29.872 43.4416 29.736 43.9936 29.736C44.7776 29.736 45.3896 30.004 45.8296 30.54C46.2776 31.068 46.5016 31.788 46.5016 32.7C46.5016 32.924 46.4696 33.076 46.4056 33.156C46.3496 33.236 46.2296 33.276 46.0456 33.276H42.1816C42.1816 33.908 42.3416 34.412 42.6616 34.788C42.9896 35.164 43.4256 35.352 43.9696 35.352C44.3696 35.352 44.7296 35.264 45.0496 35.088C45.3776 34.912 45.6376 34.68 45.8296 34.392C46.0696 34.48 46.1896 34.66 46.1896 34.932C46.1896 35.148 46.0816 35.348 45.8656 35.532C45.6496 35.716 45.3696 35.864 45.0256 35.976C44.6896 36.088 44.3456 36.144 43.9936 36.144ZM45.5176 32.472C45.5016 31.824 45.3736 31.336 45.1336 31.008C44.8936 30.672 44.5296 30.504 44.0416 30.504C43.5296 30.504 43.1176 30.68 42.8056 31.032C42.4936 31.384 42.2936 31.896 42.2056 32.568L45.5176 32.472ZM53.1577 36.144C52.5897 36.144 52.0937 36.016 51.6697 35.76C51.2457 35.496 50.9217 35.124 50.6977 34.644C50.4737 34.156 50.3617 33.588 50.3617 32.94C50.3617 32.292 50.4737 31.728 50.6977 31.248C50.9217 30.76 51.2457 30.388 51.6697 30.132C52.0937 29.868 52.5897 29.736 53.1577 29.736C53.5497 29.736 53.9137 29.796 54.2497 29.916C54.5937 30.028 54.8697 30.184 55.0777 30.384C55.2857 30.584 55.3897 30.804 55.3897 31.044C55.3897 31.308 55.2657 31.48 55.0177 31.56C54.8177 31.256 54.5537 31.02 54.2257 30.852C53.9057 30.684 53.5497 30.6 53.1577 30.6C52.5497 30.6 52.0977 30.804 51.8017 31.212C51.5137 31.62 51.3697 32.196 51.3697 32.94C51.3697 33.684 51.5137 34.26 51.8017 34.668C52.0977 35.076 52.5497 35.28 53.1577 35.28C53.5497 35.28 53.9057 35.196 54.2257 35.028C54.5537 34.86 54.8177 34.624 55.0177 34.32C55.2657 34.4 55.3897 34.572 55.3897 34.836C55.3897 35.076 55.2857 35.296 55.0777 35.496C54.8697 35.696 54.5937 35.856 54.2497 35.976C53.9137 36.088 53.5497 36.144 53.1577 36.144ZM58.9922 36.144C58.4402 36.144 57.9562 36.016 57.5402 35.76C57.1322 35.496 56.8162 35.124 56.5922 34.644C56.3682 34.156 56.2562 33.588 56.2562 32.94C56.2562 32.292 56.3682 31.728 56.5922 31.248C56.8162 30.76 57.1322 30.388 57.5402 30.132C57.9562 29.868 58.4402 29.736 58.9922 29.736C59.5442 29.736 60.0242 29.868 60.4322 30.132C60.8482 30.388 61.1682 30.76 61.3922 31.248C61.6162 31.728 61.7282 32.292 61.7282 32.94C61.7282 33.588 61.6162 34.156 61.3922 34.644C61.1682 35.124 60.8482 35.496 60.4322 35.76C60.0242 36.016 59.5442 36.144 58.9922 36.144ZM58.9922 35.28C59.5202 35.28 59.9402 35.068 60.2522 34.644C60.5642 34.22 60.7202 33.652 60.7202 32.94C60.7202 32.228 60.5642 31.66 60.2522 31.236C59.9402 30.812 59.5202 30.6 58.9922 30.6C58.4642 30.6 58.0442 30.812 57.7322 31.236C57.4202 31.66 57.2642 32.228 57.2642 32.94C57.2642 33.652 57.4202 34.22 57.7322 34.644C58.0442 35.068 58.4642 35.28 58.9922 35.28ZM69.2921 29.736C69.8601 29.736 70.3161 29.932 70.6601 30.324C71.0121 30.716 71.1881 31.276 71.1881 32.004V35.34C71.1881 35.564 71.1321 35.744 71.0201 35.88C70.9081 36.008 70.7481 36.072 70.5401 36.072C70.4201 36.072 70.3081 36.056 70.2041 36.024V31.932C70.2041 31.5 70.1001 31.164 69.8921 30.924C69.6841 30.676 69.3881 30.552 69.0041 30.552C68.5721 30.552 68.2321 30.792 67.9841 31.272C67.7361 31.744 67.6121 32.376 67.6121 33.168V35.34C67.6121 35.564 67.5561 35.744 67.4441 35.88C67.3321 36.008 67.1721 36.072 66.9641 36.072C66.8441 36.072 66.7321 36.056 66.6281 36.024V31.932C66.6281 31.5 66.5241 31.164 66.3161 30.924C66.1081 30.676 65.8121 30.552 65.4281 30.552C64.9961 30.552 64.6561 30.792 64.4081 31.272C64.1601 31.744 64.0361 32.376 64.0361 33.168V35.34C64.0361 35.564 63.9801 35.744 63.8681 35.88C63.7561 36.008 63.5961 36.072 63.3881 36.072C63.2681 36.072 63.1561 36.056 63.0521 36.024V30.54C63.0521 30.316 63.1081 30.14 63.2201 30.012C63.3321 29.876 63.4921 29.808 63.7001 29.808C63.8201 29.808 63.9321 29.824 64.0361 29.856V31.116C64.2921 30.196 64.8481 29.736 65.7041 29.736C66.1521 29.736 66.5321 29.856 66.8441 30.096C67.1641 30.328 67.3841 30.672 67.5041 31.128C67.8321 30.2 68.4281 29.736 69.2921 29.736ZM76.1498 36.072C76.0298 36.072 75.9178 36.056 75.8138 36.024V30.54C75.8138 30.316 75.8698 30.14 75.9818 30.012C76.0938 29.876 76.2538 29.808 76.4618 29.808C76.5818 29.808 76.6938 29.824 76.7978 29.856V31.116C76.9258 30.652 77.1298 30.308 77.4098 30.084C77.6898 29.852 78.0618 29.736 78.5258 29.736C79.1418 29.736 79.6338 29.932 80.0018 30.324C80.3778 30.716 80.5658 31.276 80.5658 32.004V35.34C80.5658 35.564 80.5098 35.744 80.3978 35.88C80.2858 36.008 80.1258 36.072 79.9178 36.072C79.7978 36.072 79.6858 36.056 79.5818 36.024V31.932C79.5818 31.5 79.4658 31.164 79.2338 30.924C79.0098 30.676 78.6938 30.552 78.2858 30.552C77.8138 30.552 77.4458 30.78 77.1818 31.236C76.9258 31.692 76.7978 32.336 76.7978 33.168V35.34C76.7978 35.564 76.7418 35.744 76.6298 35.88C76.5178 36.008 76.3578 36.072 76.1498 36.072ZM84.4571 36.144C83.9051 36.144 83.4211 36.016 83.0051 35.76C82.5971 35.496 82.2811 35.124 82.0571 34.644C81.8331 34.156 81.7211 33.588 81.7211 32.94C81.7211 32.292 81.8331 31.728 82.0571 31.248C82.2811 30.76 82.5971 30.388 83.0051 30.132C83.4211 29.868 83.9051 29.736 84.4571 29.736C85.0091 29.736 85.4891 29.868 85.8971 30.132C86.3131 30.388 86.6331 30.76 86.8571 31.248C87.0811 31.728 87.1931 32.292 87.1931 32.94C87.1931 33.588 87.0811 34.156 86.8571 34.644C86.6331 35.124 86.3131 35.496 85.8971 35.76C85.4891 36.016 85.0091 36.144 84.4571 36.144ZM84.4571 35.28C84.9851 35.28 85.4051 35.068 85.7171 34.644C86.0291 34.22 86.1851 33.652 86.1851 32.94C86.1851 32.228 86.0291 31.66 85.7171 31.236C85.4051 30.812 84.9851 30.6 84.4571 30.6C83.9291 30.6 83.5091 30.812 83.1971 31.236C82.8851 31.66 82.7291 32.228 82.7291 32.94C82.7291 33.652 82.8851 34.22 83.1971 34.644C83.5091 35.068 83.9291 35.28 84.4571 35.28ZM90.1249 36.144C89.7329 36.144 89.3729 36.088 89.0449 35.976C88.7169 35.864 88.4569 35.716 88.2649 35.532C88.0809 35.348 87.9889 35.152 87.9889 34.944C87.9889 34.704 88.1009 34.556 88.3249 34.5C88.5489 34.74 88.8169 34.944 89.1289 35.112C89.4489 35.272 89.7889 35.352 90.1489 35.352C90.5009 35.352 90.7769 35.268 90.9769 35.1C91.1769 34.932 91.2769 34.7 91.2769 34.404C91.2769 34.14 91.1809 33.92 90.9889 33.744C90.7969 33.568 90.4609 33.404 89.9809 33.252C89.2849 33.02 88.7929 32.764 88.5049 32.484C88.2249 32.196 88.0849 31.808 88.0849 31.32C88.0849 30.752 88.2689 30.348 88.6369 30.108C89.0129 29.86 89.4849 29.736 90.0529 29.736C90.6529 29.736 91.1329 29.852 91.4929 30.084C91.8609 30.316 92.0449 30.6 92.0449 30.936C92.0449 31.176 91.9329 31.324 91.7089 31.38C91.4849 31.116 91.2409 30.904 90.9769 30.744C90.7209 30.584 90.4249 30.504 90.0889 30.504C89.7689 30.504 89.5049 30.58 89.2969 30.732C89.0969 30.876 88.9969 31.068 88.9969 31.308C88.9969 31.58 89.1009 31.804 89.3089 31.98C89.5169 32.156 89.8769 32.332 90.3889 32.508C91.0689 32.732 91.5449 32.984 91.8169 33.264C92.0969 33.544 92.2369 33.908 92.2369 34.356C92.2369 34.956 92.0409 35.404 91.6489 35.7C91.2569 35.996 90.7489 36.144 90.1249 36.144ZM95.1171 36.144C94.7251 36.144 94.3651 36.088 94.0371 35.976C93.7091 35.864 93.4491 35.716 93.2571 35.532C93.0731 35.348 92.9811 35.152 92.9811 34.944C92.9811 34.704 93.0931 34.556 93.3171 34.5C93.5411 34.74 93.8091 34.944 94.1211 35.112C94.4411 35.272 94.7811 35.352 95.1411 35.352C95.4931 35.352 95.7691 35.268 95.9691 35.1C96.1691 34.932 96.2691 34.7 96.2691 34.404C96.2691 34.14 96.1731 33.92 95.9811 33.744C95.7891 33.568 95.4531 33.404 94.9731 33.252C94.2771 33.02 93.7851 32.764 93.4971 32.484C93.2171 32.196 93.0771 31.808 93.0771 31.32C93.0771 30.752 93.2611 30.348 93.6291 30.108C94.0051 29.86 94.4771 29.736 95.0451 29.736C95.6451 29.736 96.1251 29.852 96.4851 30.084C96.8531 30.316 97.0371 30.6 97.0371 30.936C97.0371 31.176 96.9251 31.324 96.7011 31.38C96.4771 31.116 96.2331 30.904 95.9691 30.744C95.7131 30.584 95.4171 30.504 95.0811 30.504C94.7611 30.504 94.4971 30.58 94.2891 30.732C94.0891 30.876 93.9891 31.068 93.9891 31.308C93.9891 31.58 94.0931 31.804 94.3011 31.98C94.5091 32.156 94.8691 32.332 95.3811 32.508C96.0611 32.732 96.5371 32.984 96.8091 33.264C97.0891 33.544 97.2291 33.908 97.2291 34.356C97.2291 34.956 97.0331 35.404 96.6411 35.7C96.2491 35.996 95.7411 36.144 95.1171 36.144ZM100.781 36.144C100.229 36.144 99.7453 36.016 99.3293 35.76C98.9213 35.496 98.6053 35.124 98.3813 34.644C98.1573 34.156 98.0453 33.588 98.0453 32.94C98.0453 32.292 98.1573 31.728 98.3813 31.248C98.6053 30.76 98.9213 30.388 99.3293 30.132C99.7453 29.868 100.229 29.736 100.781 29.736C101.333 29.736 101.813 29.868 102.221 30.132C102.637 30.388 102.957 30.76 103.181 31.248C103.405 31.728 103.517 32.292 103.517 32.94C103.517 33.588 103.405 34.156 103.181 34.644C102.957 35.124 102.637 35.496 102.221 35.76C101.813 36.016 101.333 36.144 100.781 36.144ZM100.781 35.28C101.309 35.28 101.729 35.068 102.041 34.644C102.353 34.22 102.509 33.652 102.509 32.94C102.509 32.228 102.353 31.66 102.041 31.236C101.729 30.812 101.309 30.6 100.781 30.6C100.253 30.6 99.8333 30.812 99.5213 31.236C99.2093 31.66 99.0533 32.228 99.0533 32.94C99.0533 33.652 99.2093 34.22 99.5213 34.644C99.8333 35.068 100.253 35.28 100.781 35.28ZM106.449 36.144C106.057 36.144 105.697 36.088 105.369 35.976C105.041 35.864 104.781 35.716 104.589 35.532C104.405 35.348 104.313 35.152 104.313 34.944C104.313 34.704 104.425 34.556 104.649 34.5C104.873 34.74 105.141 34.944 105.453 35.112C105.773 35.272 106.113 35.352 106.473 35.352C106.825 35.352 107.101 35.268 107.301 35.1C107.501 34.932 107.601 34.7 107.601 34.404C107.601 34.14 107.505 33.92 107.313 33.744C107.121 33.568 106.785 33.404 106.305 33.252C105.609 33.02 105.117 32.764 104.829 32.484C104.549 32.196 104.409 31.808 104.409 31.32C104.409 30.752 104.593 30.348 104.961 30.108C105.337 29.86 105.809 29.736 106.377 29.736C106.977 29.736 107.457 29.852 107.817 30.084C108.185 30.316 108.369 30.6 108.369 30.936C108.369 31.176 108.257 31.324 108.033 31.38C107.809 31.116 107.565 30.904 107.301 30.744C107.045 30.584 106.749 30.504 106.413 30.504C106.093 30.504 105.829 30.58 105.621 30.732C105.421 30.876 105.321 31.068 105.321 31.308C105.321 31.58 105.425 31.804 105.633 31.98C105.841 32.156 106.201 32.332 106.713 32.508C107.393 32.732 107.869 32.984 108.141 33.264C108.421 33.544 108.561 33.908 108.561 34.356C108.561 34.956 108.365 35.404 107.973 35.7C107.581 35.996 107.073 36.144 106.449 36.144ZM29.228 49.144C28.676 49.144 28.188 49.016 27.764 48.76C27.34 48.504 27.012 48.136 26.78 47.656C26.548 47.176 26.432 46.616 26.432 45.976C26.432 45.328 26.548 44.76 26.78 44.272C27.02 43.784 27.348 43.408 27.764 43.144C28.188 42.872 28.676 42.736 29.228 42.736C30.012 42.736 30.624 43.004 31.064 43.54C31.512 44.068 31.736 44.788 31.736 45.7C31.736 45.924 31.704 46.076 31.64 46.156C31.584 46.236 31.464 46.276 31.28 46.276H27.416C27.416 46.908 27.576 47.412 27.896 47.788C28.224 48.164 28.66 48.352 29.204 48.352C29.604 48.352 29.964 48.264 30.284 48.088C30.612 47.912 30.872 47.68 31.064 47.392C31.304 47.48 31.424 47.66 31.424 47.932C31.424 48.148 31.316 48.348 31.1 48.532C30.884 48.716 30.604 48.864 30.26 48.976C29.924 49.088 29.58 49.144 29.228 49.144ZM30.752 45.472C30.736 44.824 30.608 44.336 30.368 44.008C30.128 43.672 29.764 43.504 29.276 43.504C28.764 43.504 28.352 43.68 28.04 44.032C27.728 44.384 27.528 44.896 27.44 45.568L30.752 45.472ZM34.871 49.144C34.479 49.144 34.119 49.088 33.791 48.976C33.463 48.864 33.203 48.716 33.011 48.532C32.827 48.348 32.735 48.152 32.735 47.944C32.735 47.704 32.847 47.556 33.071 47.5C33.295 47.74 33.563 47.944 33.875 48.112C34.195 48.272 34.535 48.352 34.895 48.352C35.247 48.352 35.523 48.268 35.723 48.1C35.923 47.932 36.023 47.7 36.023 47.404C36.023 47.14 35.927 46.92 35.735 46.744C35.543 46.568 35.207 46.404 34.727 46.252C34.031 46.02 33.539 45.764 33.251 45.484C32.971 45.196 32.831 44.808 32.831 44.32C32.831 43.752 33.015 43.348 33.383 43.108C33.759 42.86 34.231 42.736 34.799 42.736C35.399 42.736 35.879 42.852 36.239 43.084C36.607 43.316 36.791 43.6 36.791 43.936C36.791 44.176 36.679 44.324 36.455 44.38C36.231 44.116 35.987 43.904 35.723 43.744C35.467 43.584 35.171 43.504 34.835 43.504C34.515 43.504 34.251 43.58 34.043 43.732C33.843 43.876 33.743 44.068 33.743 44.308C33.743 44.58 33.847 44.804 34.055 44.98C34.263 45.156 34.623 45.332 35.135 45.508C35.815 45.732 36.291 45.984 36.563 46.264C36.843 46.544 36.983 46.908 36.983 47.356C36.983 47.956 36.787 48.404 36.395 48.7C36.003 48.996 35.495 49.144 34.871 49.144ZM38.5792 51.472C38.4672 51.472 38.3592 51.456 38.2552 51.424V43.552C38.2552 43.328 38.3112 43.152 38.4232 43.024C38.5432 42.888 38.7072 42.82 38.9152 42.82C39.0112 42.82 39.1192 42.836 39.2392 42.868V43.804C39.4712 43.452 39.7392 43.188 40.0432 43.012C40.3472 42.828 40.7032 42.736 41.1112 42.736C41.5992 42.736 42.0272 42.864 42.3952 43.12C42.7632 43.368 43.0432 43.728 43.2352 44.2C43.4352 44.664 43.5352 45.208 43.5352 45.832C43.5352 46.496 43.4232 47.08 43.1992 47.584C42.9832 48.08 42.6712 48.464 42.2632 48.736C41.8552 49.008 41.3792 49.144 40.8352 49.144C40.4912 49.144 40.1912 49.092 39.9352 48.988C39.6872 48.876 39.4552 48.724 39.2392 48.532V50.74C39.2392 50.964 39.1792 51.14 39.0592 51.268C38.9472 51.404 38.7872 51.472 38.5792 51.472ZM40.7272 48.352C41.2952 48.352 41.7352 48.132 42.0472 47.692C42.3672 47.244 42.5272 46.616 42.5272 45.808C42.5272 45.072 42.3952 44.508 42.1312 44.116C41.8672 43.724 41.4872 43.528 40.9912 43.528C40.4632 43.528 40.0352 43.744 39.7072 44.176C39.3792 44.608 39.2152 45.196 39.2152 45.94V46.564C39.2152 47.124 39.3432 47.564 39.5992 47.884C39.8632 48.196 40.2392 48.352 40.7272 48.352ZM47.1928 49.144C46.6408 49.144 46.1528 49.016 45.7288 48.76C45.3048 48.504 44.9768 48.136 44.7448 47.656C44.5128 47.176 44.3968 46.616 44.3968 45.976C44.3968 45.328 44.5128 44.76 44.7448 44.272C44.9848 43.784 45.3128 43.408 45.7288 43.144C46.1528 42.872 46.6408 42.736 47.1928 42.736C47.9768 42.736 48.5888 43.004 49.0288 43.54C49.4768 44.068 49.7008 44.788 49.7008 45.7C49.7008 45.924 49.6688 46.076 49.6048 46.156C49.5488 46.236 49.4288 46.276 49.2448 46.276H45.3808C45.3808 46.908 45.5408 47.412 45.8608 47.788C46.1888 48.164 46.6248 48.352 47.1688 48.352C47.5688 48.352 47.9288 48.264 48.2488 48.088C48.5768 47.912 48.8368 47.68 49.0288 47.392C49.2688 47.48 49.3888 47.66 49.3888 47.932C49.3888 48.148 49.2808 48.348 49.0648 48.532C48.8488 48.716 48.5688 48.864 48.2248 48.976C47.8888 49.088 47.5448 49.144 47.1928 49.144ZM48.7168 45.472C48.7008 44.824 48.5728 44.336 48.3328 44.008C48.0928 43.672 47.7288 43.504 47.2408 43.504C46.7288 43.504 46.3168 43.68 46.0048 44.032C45.6928 44.384 45.4928 44.896 45.4048 45.568L48.7168 45.472ZM53.3335 49.144C52.7655 49.144 52.2695 49.016 51.8455 48.76C51.4215 48.496 51.0975 48.124 50.8735 47.644C50.6495 47.156 50.5375 46.588 50.5375 45.94C50.5375 45.292 50.6495 44.728 50.8735 44.248C51.0975 43.76 51.4215 43.388 51.8455 43.132C52.2695 42.868 52.7655 42.736 53.3335 42.736C53.7255 42.736 54.0895 42.796 54.4255 42.916C54.7695 43.028 55.0455 43.184 55.2535 43.384C55.4615 43.584 55.5655 43.804 55.5655 44.044C55.5655 44.308 55.4415 44.48 55.1935 44.56C54.9935 44.256 54.7295 44.02 54.4015 43.852C54.0815 43.684 53.7255 43.6 53.3335 43.6C52.7255 43.6 52.2735 43.804 51.9775 44.212C51.6895 44.62 51.5455 45.196 51.5455 45.94C51.5455 46.684 51.6895 47.26 51.9775 47.668C52.2735 48.076 52.7255 48.28 53.3335 48.28C53.7255 48.28 54.0815 48.196 54.4015 48.028C54.7295 47.86 54.9935 47.624 55.1935 47.32C55.4415 47.4 55.5655 47.572 55.5655 47.836C55.5655 48.076 55.4615 48.296 55.2535 48.496C55.0455 48.696 54.7695 48.856 54.4255 48.976C54.0895 49.088 53.7255 49.144 53.3335 49.144ZM57.404 41.944C57.196 41.944 57.02 41.876 56.876 41.74C56.74 41.596 56.672 41.42 56.672 41.212C56.672 41.004 56.74 40.832 56.876 40.696C57.02 40.552 57.196 40.48 57.404 40.48C57.612 40.48 57.784 40.552 57.92 40.696C58.064 40.832 58.136 41.004 58.136 41.212C58.136 41.42 58.064 41.596 57.92 41.74C57.784 41.876 57.612 41.944 57.404 41.944ZM57.248 49.072C57.128 49.072 57.016 49.056 56.912 49.024V43.54C56.912 43.316 56.968 43.14 57.08 43.012C57.192 42.876 57.352 42.808 57.56 42.808C57.68 42.808 57.792 42.824 57.896 42.856V48.34C57.896 48.564 57.84 48.744 57.728 48.88C57.616 49.008 57.456 49.072 57.248 49.072ZM61.4645 49.144C60.8085 49.144 60.2925 48.976 59.9165 48.64C59.5485 48.296 59.3645 47.836 59.3645 47.26C59.3645 46.652 59.5725 46.164 59.9885 45.796C60.4045 45.428 60.9765 45.244 61.7045 45.244C62.0245 45.244 62.2885 45.276 62.4965 45.34C62.7125 45.404 62.9165 45.496 63.1085 45.616V45.04C63.1085 44.56 62.9805 44.192 62.7245 43.936C62.4685 43.672 62.0965 43.54 61.6085 43.54C61.2405 43.54 60.9165 43.616 60.6365 43.768C60.3645 43.912 60.1205 44.132 59.9045 44.428C59.6405 44.332 59.5085 44.148 59.5085 43.876C59.5085 43.524 59.7205 43.248 60.1445 43.048C60.5765 42.848 61.0805 42.748 61.6565 42.748C62.4485 42.748 63.0485 42.952 63.4565 43.36C63.8645 43.76 64.0685 44.32 64.0685 45.04V48.34C64.0685 48.564 64.0085 48.744 63.8885 48.88C63.7765 49.008 63.6165 49.072 63.4085 49.072C63.3125 49.072 63.2045 49.056 63.0845 49.024V48.4C62.9085 48.656 62.6925 48.844 62.4365 48.964C62.1805 49.084 61.8565 49.144 61.4645 49.144ZM61.6205 48.376C62.0765 48.376 62.4365 48.268 62.7005 48.052C62.9725 47.836 63.1085 47.544 63.1085 47.176V46.876C63.1085 46.596 63.0005 46.38 62.7845 46.228C62.5685 46.068 62.2525 45.988 61.8365 45.988C61.3565 45.988 60.9885 46.096 60.7325 46.312C60.4765 46.528 60.3485 46.84 60.3485 47.248C60.3485 47.616 60.4565 47.896 60.6725 48.088C60.8885 48.28 61.2045 48.376 61.6205 48.376ZM66.0371 49.072C65.9171 49.072 65.8051 49.056 65.7011 49.024V41.02C65.7011 40.796 65.7571 40.62 65.8691 40.492C65.9811 40.356 66.1411 40.288 66.3491 40.288C66.4691 40.288 66.5811 40.304 66.6851 40.336V48.34C66.6851 48.564 66.6291 48.744 66.5171 48.88C66.4051 49.008 66.2451 49.072 66.0371 49.072ZM69.0056 41.944C68.7976 41.944 68.6216 41.876 68.4776 41.74C68.3416 41.596 68.2736 41.42 68.2736 41.212C68.2736 41.004 68.3416 40.832 68.4776 40.696C68.6216 40.552 68.7976 40.48 69.0056 40.48C69.2136 40.48 69.3856 40.552 69.5216 40.696C69.6656 40.832 69.7376 41.004 69.7376 41.212C69.7376 41.42 69.6656 41.596 69.5216 41.74C69.3856 41.876 69.2136 41.944 69.0056 41.944ZM68.8496 49.072C68.7296 49.072 68.6176 49.056 68.5136 49.024V43.54C68.5136 43.316 68.5696 43.14 68.6816 43.012C68.7936 42.876 68.9536 42.808 69.1616 42.808C69.2816 42.808 69.3936 42.824 69.4976 42.856V48.34C69.4976 48.564 69.4416 48.744 69.3296 48.88C69.2176 49.008 69.0576 49.072 68.8496 49.072ZM72.9101 49.144C72.5181 49.144 72.1581 49.088 71.8301 48.976C71.5021 48.864 71.2421 48.716 71.0501 48.532C70.8661 48.348 70.7741 48.152 70.7741 47.944C70.7741 47.704 70.8861 47.556 71.1101 47.5C71.3341 47.74 71.6021 47.944 71.9141 48.112C72.2341 48.272 72.5741 48.352 72.9341 48.352C73.2861 48.352 73.5621 48.268 73.7621 48.1C73.9621 47.932 74.0621 47.7 74.0621 47.404C74.0621 47.14 73.9661 46.92 73.7741 46.744C73.5821 46.568 73.2461 46.404 72.7661 46.252C72.0701 46.02 71.5781 45.764 71.2901 45.484C71.0101 45.196 70.8701 44.808 70.8701 44.32C70.8701 43.752 71.0541 43.348 71.4221 43.108C71.7981 42.86 72.2701 42.736 72.8381 42.736C73.4381 42.736 73.9181 42.852 74.2781 43.084C74.6461 43.316 74.8301 43.6 74.8301 43.936C74.8301 44.176 74.7181 44.324 74.4941 44.38C74.2701 44.116 74.0261 43.904 73.7621 43.744C73.5061 43.584 73.2101 43.504 72.8741 43.504C72.5541 43.504 72.2901 43.58 72.0821 43.732C71.8821 43.876 71.7821 44.068 71.7821 44.308C71.7821 44.58 71.8861 44.804 72.0941 44.98C72.3021 45.156 72.6621 45.332 73.1741 45.508C73.8541 45.732 74.3301 45.984 74.6021 46.264C74.8821 46.544 75.0221 46.908 75.0221 47.356C75.0221 47.956 74.8261 48.404 74.4341 48.7C74.0421 48.996 73.5341 49.144 72.9101 49.144ZM78.9463 48.076C79.0343 48.116 79.1023 48.172 79.1503 48.244C79.1983 48.316 79.2223 48.4 79.2223 48.496C79.2223 48.68 79.1303 48.828 78.9463 48.94C78.7623 49.044 78.5343 49.096 78.2623 49.096C77.7823 49.096 77.4023 48.928 77.1223 48.592C76.8423 48.256 76.7023 47.8 76.7023 47.224V43.648H75.8022C75.7623 43.568 75.7423 43.48 75.7423 43.384C75.7423 43.224 75.7943 43.1 75.8983 43.012C76.0023 42.924 76.1383 42.88 76.3063 42.88H76.7023V42.004C76.7023 41.78 76.7583 41.604 76.8703 41.476C76.9823 41.34 77.1423 41.272 77.3503 41.272C77.4703 41.272 77.5823 41.288 77.6863 41.32V42.88H79.0663C79.1063 42.96 79.1263 43.048 79.1263 43.144C79.1263 43.304 79.0743 43.428 78.9703 43.516C78.8663 43.604 78.7303 43.648 78.5623 43.648H77.6863V47.224C77.6863 47.544 77.7423 47.788 77.8543 47.956C77.9743 48.116 78.1583 48.196 78.4062 48.196C78.5823 48.196 78.7623 48.156 78.9463 48.076ZM82.1129 49.144C81.4569 49.144 80.9409 48.976 80.5649 48.64C80.1969 48.296 80.0129 47.836 80.0129 47.26C80.0129 46.652 80.2209 46.164 80.6369 45.796C81.0529 45.428 81.6249 45.244 82.3529 45.244C82.6729 45.244 82.9369 45.276 83.1449 45.34C83.3609 45.404 83.5649 45.496 83.7569 45.616V45.04C83.7569 44.56 83.6289 44.192 83.3729 43.936C83.1169 43.672 82.7449 43.54 82.2569 43.54C81.8889 43.54 81.5649 43.616 81.2849 43.768C81.0129 43.912 80.7689 44.132 80.5529 44.428C80.2889 44.332 80.1569 44.148 80.1569 43.876C80.1569 43.524 80.3689 43.248 80.7929 43.048C81.2249 42.848 81.7289 42.748 82.3049 42.748C83.0969 42.748 83.6969 42.952 84.1049 43.36C84.5129 43.76 84.7169 44.32 84.7169 45.04V48.34C84.7169 48.564 84.6569 48.744 84.5369 48.88C84.4249 49.008 84.2649 49.072 84.0569 49.072C83.9609 49.072 83.8529 49.056 83.7329 49.024V48.4C83.5569 48.656 83.3409 48.844 83.0849 48.964C82.8289 49.084 82.5049 49.144 82.1129 49.144ZM82.2689 48.376C82.7249 48.376 83.0849 48.268 83.3489 48.052C83.6209 47.836 83.7569 47.544 83.7569 47.176V46.876C83.7569 46.596 83.6489 46.38 83.4329 46.228C83.2169 46.068 82.9009 45.988 82.4849 45.988C82.0049 45.988 81.6369 46.096 81.3809 46.312C81.1249 46.528 80.9969 46.84 80.9969 47.248C80.9969 47.616 81.1049 47.896 81.3209 48.088C81.5369 48.28 81.8529 48.376 82.2689 48.376ZM87.9335 49.144C87.5415 49.144 87.1815 49.088 86.8535 48.976C86.5255 48.864 86.2655 48.716 86.0735 48.532C85.8895 48.348 85.7975 48.152 85.7975 47.944C85.7975 47.704 85.9095 47.556 86.1335 47.5C86.3575 47.74 86.6255 47.944 86.9375 48.112C87.2575 48.272 87.5975 48.352 87.9575 48.352C88.3095 48.352 88.5855 48.268 88.7855 48.1C88.9855 47.932 89.0855 47.7 89.0855 47.404C89.0855 47.14 88.9895 46.92 88.7975 46.744C88.6055 46.568 88.2695 46.404 87.7895 46.252C87.0935 46.02 86.6015 45.764 86.3135 45.484C86.0335 45.196 85.8935 44.808 85.8935 44.32C85.8935 43.752 86.0775 43.348 86.4455 43.108C86.8215 42.86 87.2935 42.736 87.8615 42.736C88.4615 42.736 88.9415 42.852 89.3015 43.084C89.6695 43.316 89.8535 43.6 89.8535 43.936C89.8535 44.176 89.7415 44.324 89.5175 44.38C89.2935 44.116 89.0495 43.904 88.7855 43.744C88.5295 43.584 88.2335 43.504 87.8975 43.504C87.5775 43.504 87.3135 43.58 87.1055 43.732C86.9055 43.876 86.8055 44.068 86.8055 44.308C86.8055 44.58 86.9095 44.804 87.1175 44.98C87.3255 45.156 87.6855 45.332 88.1975 45.508C88.8775 45.732 89.3535 45.984 89.6255 46.264C89.9055 46.544 90.0455 46.908 90.0455 47.356C90.0455 47.956 89.8495 48.404 89.4575 48.7C89.0655 48.996 88.5575 49.144 87.9335 49.144ZM91.4737 41.524V40.336H92.6257V41.524L92.3617 46.612H91.7257L91.4737 41.524ZM92.0497 49.096C91.8337 49.096 91.6537 49.024 91.5097 48.88C91.3657 48.736 91.2937 48.56 91.2937 48.352C91.2937 48.144 91.3657 47.968 91.5097 47.824C91.6537 47.68 91.8337 47.608 92.0497 47.608C92.2657 47.608 92.4457 47.68 92.5897 47.824C92.7337 47.968 92.8057 48.144 92.8057 48.352C92.8057 48.56 92.7337 48.736 92.5897 48.88C92.4457 49.024 92.2657 49.096 92.0497 49.096Z" fill="#322F31"/>
<g filter="url(#filter1_d)">
<circle cx="154.5" cy="38.5" r="32.5" fill="#00DF6A"/>
</g>
<path fill-rule="evenodd" clip-rule="evenodd" d="M166.706 26.2434C163.478 23.0114 159.184 21.2307 154.611 21.2288C145.186 21.2288 137.515 28.8991 137.511 38.3265C137.51 41.3402 138.297 44.282 139.794 46.8751L137.368 55.7355L146.432 53.3577C148.93 54.7202 151.742 55.4381 154.604 55.439H154.611C164.035 55.439 171.706 47.7681 171.71 38.3402C171.711 33.7712 169.935 29.4753 166.706 26.2434ZM154.611 52.5513H154.605C152.055 52.5502 149.554 51.8649 147.371 50.5703L146.852 50.2621L141.473 51.6732L142.909 46.4288L142.571 45.8911C141.148 43.6283 140.397 41.0129 140.398 38.3276C140.401 30.4917 146.777 24.1167 154.616 24.1167C158.412 24.1179 161.981 25.5981 164.664 28.2845C167.347 30.9709 168.824 34.5416 168.823 38.3391C168.819 46.1756 162.444 52.5513 154.611 52.5513ZM162.406 41.9071C161.979 41.6931 159.878 40.6599 159.487 40.5171C159.095 40.3745 158.81 40.3035 158.526 40.7311C158.241 41.1586 157.422 42.1211 157.173 42.4061C156.923 42.6912 156.674 42.727 156.247 42.5131C155.82 42.2993 154.443 41.8479 152.811 40.3924C151.541 39.2595 150.684 37.8604 150.434 37.4329C150.185 37.0049 150.432 36.796 150.622 36.5609C151.084 35.9866 151.547 35.3845 151.69 35.0995C151.832 34.8143 151.761 34.5648 151.654 34.351C151.547 34.1372 150.693 32.0342 150.337 31.1785C149.99 30.3458 149.638 30.4582 149.376 30.4452C149.127 30.4327 148.842 30.4302 148.557 30.4302C148.272 30.4302 147.809 30.537 147.417 30.965C147.026 31.3927 145.922 32.4262 145.922 34.5292C145.922 36.6321 147.453 38.6637 147.667 38.9489C147.88 39.234 150.679 43.5495 154.965 45.3999C155.985 45.8405 156.78 46.1032 157.401 46.3001C158.425 46.6253 159.356 46.5794 160.092 46.4694C160.913 46.3466 162.62 45.4357 162.976 44.4379C163.332 43.4398 163.332 42.5845 163.225 42.4061C163.118 42.2279 162.833 42.1211 162.406 41.9071Z" fill="white"/>
<defs>
<filter id="filter0_d" x="0" y="8" width="174" height="81" filterUnits="userSpaceOnUse" color-interpolation-filters="sRGB">
<feFlood flood-opacity="0" result="BackgroundImageFix"/>
<feColorMatrix in="SourceAlpha" type="matrix" values="0 0 0 0 0 0 0 0 0 0 0 0 0 0 0 0 0 0 127 0" result="hardAlpha"/>
<feOffset dx="10" dy="10"/>
<feGaussianBlur stdDeviation="10"/>
<feColorMatrix type="matrix" values="0 0 0 0 0 0 0 0 0 0 0 0 0 0 0 0 0 0 0.1 0"/>
<feBlend mode="normal" in2="BackgroundImageFix" result="effect1_dropShadow"/>
<feBlend mode="normal" in="SourceGraphic" in2="effect1_dropShadow" result="shape"/>
</filter>
<filter id="filter1_d" x="112" y="0" width="85" height="85" filterUnits="userSpaceOnUse" color-interpolation-filters="sRGB">
<feFlood flood-opacity="0" result="BackgroundImageFix"/>
<feColorMatrix in="SourceAlpha" type="matrix" values="0 0 0 0 0 0 0 0 0 0 0 0 0 0 0 0 0 0 127 0" result="hardAlpha"/>
<feOffset dy="4"/>
<feGaussianBlur stdDeviation="5"/>
<feColorMatrix type="matrix" values="0 0 0 0 0 0 0 0 0 0 0 0 0 0 0 0 0 0 0.1 0"/>
<feBlend mode="normal" in2="BackgroundImageFix" result="effect1_dropShadow"/>
<feBlend mode="normal" in="SourceGraphic" in2="effect1_dropShadow" result="shape"/>
</filter>
</defs>
</svg>
